<?xml version="1.0" encoding="utf-8"?>
<!-- Generator: Adobe Illustrator 16.0.0, SVG Export Plug-In . SVG Version: 6.00 Build 0)  -->
<!DOCTYPE svg PUBLIC "-//W3C//DTD SVG 1.1//EN" "http://www.w3.org/Graphics/SVG/1.1/DTD/svg11.dtd">
<svg version="1.1" id="Layer_1" xmlns="http://www.w3.org/2000/svg" xmlns:xlink="http://www.w3.org/1999/xlink" x="0px" y="0px"
	 width="595.28px" height="841.89px" viewBox="0 0 595.28 841.89" enable-background="new 0 0 595.28 841.89" xml:space="preserve">
<polygon fill="#441337" points="0,728.123 45.507,721.622 123.52,721.622 169.025,728.123 169.025,802.883 0,806.135 "/>
<rect x="45.507" y="721.622" fill="#591645" width="78.013" height="97.516"/>
<path fill="#441337" d="M48.396,759.002c0,1.696-1.374,3.07-3.069,3.07l0,0c-1.696,0-3.07-1.374-3.07-3.07v-47.673
	c0-1.696,1.374-3.07,3.07-3.07l0,0c1.695,0,3.069,1.374,3.069,3.07V759.002z"/>
<path fill="#441337" d="M126.588,757.479c0,1.696-1.373,3.069-3.068,3.069l0,0c-1.696,0-3.07-1.373-3.07-3.069v-47.674
	c0-1.695,1.374-3.071,3.07-3.071l0,0c1.695,0,3.068,1.376,3.068,3.071V757.479z"/>
<rect x="132.929" y="698.338" fill="#3F3F3F" width="6.261" height="79.141"/>
<rect x="132.408" y="698.338" fill="#591645" width="1.935" height="79.141"/>
<path fill="#FCB017" d="M139.49,739.428c0,0.637-0.201,1.155-0.446,1.155l0,0c-0.245,0-0.444-0.519-0.444-1.155v-33.583
	c0-0.638,0.199-1.156,0.444-1.156l0,0c0.245,0,0.446,0.519,0.446,1.156V739.428z"/>
<rect x="29.635" y="700.11" fill="#3F3F3F" width="6.262" height="79.14"/>
<rect x="29.113" y="700.11" fill="#591645" width="1.936" height="79.14"/>
<polygon fill="#FEC315" points="113.768,669.253 136.52,698.508 168.303,685.866 136.52,662.752 "/>
<polygon fill="#F4B519" points="136.52,698.508 136.52,718.01 168.303,705.369 168.303,685.866 "/>
<polygon fill="#EFB116" points="136.52,747.625 136.52,819.138 169.025,802.883 169.025,728.123 "/>
<polygon fill="#ED9718" points="136.52,819.138 126.77,841.89 169.025,802.883 "/>
<polygon fill="#FCB017" points="136.52,698.508 32.504,698.508 52.008,669.253 113.768,669.253 "/>
<rect x="32.504" y="698.508" fill="#F2A41C" width="104.016" height="19.502"/>
<rect x="32.504" y="747.625" fill="#FF5527" width="104.016" height="71.513"/>
<polygon fill="#C80234" points="32.504,819.138 136.52,819.138 126.77,841.89 42.256,841.89 "/>
<polygon fill="#C80234" points="32.504,747.625 0,728.123 0,806.135 32.504,819.138 "/>
<polygon fill="#91083D" points="32.504,819.138 0,806.135 42.256,841.89 "/>
<polygon fill="#FF5527" points="32.504,698.508 0,685.866 32.504,662.752 52.008,669.253 "/>
<polygon fill="#C80234" points="0,685.866 32.504,698.508 32.504,718.01 0,705.369 "/>
<polyline fill="#FCD017" points="55.258,659.5 32.504,662.752 52.008,669.253 113.768,669.253 136.52,662.752 110.517,659.5 "/>
<polyline fill="#636363" points="62.586,661.09 46.72,663.266 60.318,667.618 103.381,667.618 119.246,663.266 101.115,661.09 "/>
<rect x="42.256" y="757.378" fill="#C80234" width="84.514" height="52.008"/>
<rect x="45.507" y="757.378" fill="#FF5527" width="81.263" height="48.757"/>
<path fill="none" d="M19.536,717.847"/>
<path fill="none" d="M167.303,696.174"/>
<line fill="none" x1="21.57" y1="709.273" x2="6.219" y2="709.273"/>
<polygon fill="#C80234" points="144.71,752.264 160.836,742.588 160.836,797.822 144.71,805.886 "/>
<polygon fill="#ED9718" points="144.773,750.8 159.273,743.564 159.273,796.358 144.773,804.42 "/>
<polygon fill="#91083D" points="23.379,756.139 7.254,746.464 7.254,801.698 23.379,809.761 "/>
<polygon fill="#C80234" points="23.315,754.674 8.814,747.438 8.814,800.234 23.315,808.297 "/>
<g>
	<path fill="#C80234" d="M64.7,787.44h-7.039c-0.192,0-0.332-0.043-0.417-0.129c-0.086-0.086-0.129-0.225-0.129-0.417v-9.83
		c0-0.191,0.042-0.331,0.129-0.417c0.085-0.086,0.225-0.129,0.417-0.129H64.7c0.192,0,0.331,0.043,0.417,0.129
		s0.129,0.226,0.129,0.417v1.775c0,0.192-0.043,0.331-0.129,0.417s-0.225,0.129-0.417,0.129h-4.187v1.168h2.958
		c0.192,0,0.331,0.043,0.417,0.129c0.085,0.086,0.129,0.226,0.129,0.417v1.623c0,0.192-0.043,0.332-0.129,0.417
		c-0.086,0.086-0.226,0.129-0.417,0.129h-2.958v1.305H64.7c0.192,0,0.331,0.043,0.417,0.129s0.129,0.226,0.129,0.417v1.775
		c0,0.192-0.043,0.331-0.129,0.417S64.892,787.44,64.7,787.44z"/>
	<path fill="#C80234" d="M73.498,787.44h-3.944c-0.192,0-0.352-0.035-0.478-0.106c-0.126-0.07-0.225-0.202-0.296-0.395l-1.486-3.716
		c-0.091-0.223-0.167-0.417-0.228-0.584c-0.061-0.167-0.111-0.326-0.152-0.478c-0.041-0.152-0.068-0.312-0.083-0.479
		s-0.022-0.371-0.022-0.614v-4.005c0-0.191,0.042-0.331,0.129-0.417c0.085-0.086,0.225-0.129,0.417-0.129h2.412
		c0.192,0,0.339,0.043,0.44,0.129s0.152,0.226,0.152,0.417v4.188c0,0.101,0.01,0.202,0.03,0.303c0.02,0.102,0.051,0.208,0.091,0.318
		l0.713,2.124c0.03,0.102,0.065,0.17,0.106,0.205s0.101,0.053,0.182,0.053h0.167c0.081,0,0.141-0.018,0.182-0.053
		s0.076-0.104,0.106-0.205l0.713-2.139c0.041-0.111,0.071-0.218,0.091-0.318c0.021-0.102,0.031-0.202,0.031-0.304v-4.172
		c0-0.191,0.042-0.331,0.129-0.417c0.085-0.086,0.225-0.129,0.417-0.129h2.381c0.192,0,0.331,0.043,0.417,0.129
		c0.085,0.086,0.129,0.226,0.129,0.417v4.005c0,0.243-0.008,0.447-0.023,0.614s-0.043,0.326-0.083,0.479
		c-0.041,0.151-0.091,0.311-0.151,0.478c-0.061,0.167-0.137,0.361-0.228,0.584l-1.487,3.716c-0.071,0.192-0.169,0.324-0.296,0.395
		C73.849,787.405,73.689,787.44,73.498,787.44z"/>
	<path fill="#C80234" d="M85.693,787.44h-7.039c-0.192,0-0.332-0.043-0.417-0.129c-0.086-0.086-0.129-0.225-0.129-0.417v-9.83
		c0-0.191,0.042-0.331,0.129-0.417c0.085-0.086,0.225-0.129,0.417-0.129h7.039c0.192,0,0.331,0.043,0.417,0.129
		s0.129,0.226,0.129,0.417v1.775c0,0.192-0.043,0.331-0.129,0.417s-0.225,0.129-0.417,0.129h-4.187v1.168h2.958
		c0.192,0,0.331,0.043,0.417,0.129c0.085,0.086,0.129,0.226,0.129,0.417v1.623c0,0.192-0.043,0.332-0.129,0.417
		c-0.086,0.086-0.226,0.129-0.417,0.129h-2.958v1.305h4.187c0.192,0,0.331,0.043,0.417,0.129s0.129,0.226,0.129,0.417v1.775
		c0,0.192-0.043,0.331-0.129,0.417S85.885,787.44,85.693,787.44z"/>
	<path fill="#C80234" d="M90.851,787.44h-2.275c-0.192,0-0.332-0.043-0.417-0.129c-0.086-0.086-0.129-0.225-0.129-0.417v-9.83
		c0-0.191,0.042-0.331,0.129-0.417c0.085-0.086,0.225-0.129,0.417-0.129h1.578c0.192,0,0.356,0.03,0.493,0.091
		c0.137,0.062,0.271,0.167,0.402,0.319l2.943,3.367v-3.231c0-0.191,0.042-0.331,0.129-0.417c0.085-0.086,0.225-0.129,0.417-0.129
		h2.275c0.192,0,0.331,0.043,0.417,0.129s0.129,0.226,0.129,0.417v9.83c0,0.192-0.043,0.331-0.129,0.417s-0.225,0.129-0.417,0.129
		h-2.275c-0.192,0-0.332-0.043-0.417-0.129c-0.086-0.086-0.129-0.225-0.129-0.417v-1.866l-2.594-3.14v5.006
		c0,0.192-0.043,0.331-0.129,0.417S91.042,787.44,90.851,787.44z"/>
	<path fill="#C80234" d="M104.608,787.44h-2.458c-0.192,0-0.331-0.043-0.417-0.129s-0.129-0.225-0.129-0.417v-7.448h-2.23
		c-0.192,0-0.331-0.043-0.417-0.129s-0.129-0.225-0.129-0.417v-1.836c0-0.191,0.043-0.331,0.129-0.417s0.225-0.129,0.417-0.129
		h8.009c0.192,0,0.331,0.043,0.417,0.129s0.129,0.226,0.129,0.417v1.836c0,0.192-0.043,0.331-0.129,0.417s-0.225,0.129-0.417,0.129
		h-2.23v7.448c0,0.192-0.043,0.331-0.129,0.417S104.8,787.44,104.608,787.44z"/>
	<path fill="#C80234" d="M114.468,787.44h-4.793c-0.192,0-0.332-0.043-0.417-0.129s-0.129-0.225-0.129-0.417v-1.775
		c0-0.191,0.043-0.331,0.129-0.417s0.225-0.129,0.417-0.129h4.081c0.131,0,0.229-0.043,0.295-0.129s0.099-0.189,0.099-0.311
		c0-0.172-0.033-0.299-0.099-0.38c-0.066-0.08-0.165-0.126-0.295-0.136l-2.275-0.319c-0.708-0.101-1.277-0.333-1.707-0.697
		c-0.43-0.364-0.645-0.971-0.645-1.82v-1.593c0-0.859,0.278-1.52,0.834-1.979s1.325-0.69,2.306-0.69h4.248
		c0.192,0,0.331,0.043,0.417,0.129s0.129,0.226,0.129,0.417v1.806c0,0.192-0.043,0.331-0.129,0.417s-0.225,0.129-0.417,0.129h-3.535
		c-0.131,0-0.233,0.043-0.303,0.129c-0.071,0.086-0.106,0.195-0.106,0.326c0,0.132,0.036,0.243,0.106,0.334
		c0.07,0.091,0.172,0.142,0.303,0.151l2.26,0.304c0.708,0.101,1.279,0.333,1.714,0.697c0.435,0.364,0.652,0.971,0.652,1.82v1.593
		c0,0.859-0.28,1.52-0.842,1.979C116.205,787.211,115.439,787.44,114.468,787.44z"/>
</g>
<g>
	<path fill="#FCF6B1" d="M63.887,788.254h-7.039c-0.192,0-0.332-0.043-0.417-0.129c-0.086-0.086-0.129-0.225-0.129-0.417v-9.83
		c0-0.191,0.042-0.331,0.129-0.417c0.085-0.086,0.225-0.129,0.417-0.129h7.039c0.192,0,0.331,0.043,0.417,0.129
		s0.129,0.226,0.129,0.417v1.775c0,0.192-0.043,0.331-0.129,0.417s-0.225,0.129-0.417,0.129H59.7v1.168h2.958
		c0.192,0,0.331,0.043,0.417,0.129c0.085,0.086,0.129,0.226,0.129,0.417v1.623c0,0.192-0.043,0.332-0.129,0.417
		c-0.086,0.086-0.226,0.129-0.417,0.129H59.7v1.305h4.187c0.192,0,0.331,0.043,0.417,0.129s0.129,0.226,0.129,0.417v1.775
		c0,0.192-0.043,0.331-0.129,0.417S64.079,788.254,63.887,788.254z"/>
	<path fill="#FCF6B1" d="M72.685,788.254h-3.944c-0.192,0-0.352-0.035-0.478-0.106c-0.126-0.07-0.225-0.202-0.296-0.395
		l-1.486-3.716c-0.091-0.223-0.167-0.417-0.228-0.584c-0.061-0.167-0.111-0.326-0.152-0.478c-0.041-0.152-0.068-0.312-0.083-0.479
		s-0.022-0.371-0.022-0.614v-4.005c0-0.191,0.042-0.331,0.129-0.417c0.085-0.086,0.225-0.129,0.417-0.129h2.412
		c0.192,0,0.339,0.043,0.44,0.129s0.152,0.226,0.152,0.417v4.188c0,0.101,0.01,0.202,0.03,0.303c0.02,0.102,0.051,0.208,0.091,0.318
		l0.713,2.124c0.03,0.102,0.065,0.17,0.106,0.205s0.101,0.053,0.182,0.053h0.167c0.081,0,0.141-0.018,0.182-0.053
		s0.076-0.104,0.106-0.205l0.713-2.139c0.041-0.111,0.071-0.218,0.091-0.318c0.021-0.102,0.031-0.202,0.031-0.304v-4.172
		c0-0.191,0.042-0.331,0.129-0.417c0.085-0.086,0.225-0.129,0.417-0.129h2.381c0.192,0,0.331,0.043,0.417,0.129
		c0.085,0.086,0.129,0.226,0.129,0.417v4.005c0,0.243-0.008,0.447-0.023,0.614s-0.043,0.326-0.083,0.479
		c-0.041,0.151-0.091,0.311-0.151,0.478c-0.061,0.167-0.137,0.361-0.228,0.584l-1.487,3.716c-0.071,0.192-0.169,0.324-0.296,0.395
		C73.036,788.219,72.877,788.254,72.685,788.254z"/>
	<path fill="#FCF6B1" d="M84.881,788.254h-7.039c-0.192,0-0.332-0.043-0.417-0.129c-0.086-0.086-0.129-0.225-0.129-0.417v-9.83
		c0-0.191,0.042-0.331,0.129-0.417c0.085-0.086,0.225-0.129,0.417-0.129h7.039c0.192,0,0.331,0.043,0.417,0.129
		s0.129,0.226,0.129,0.417v1.775c0,0.192-0.043,0.331-0.129,0.417s-0.225,0.129-0.417,0.129h-4.187v1.168h2.958
		c0.192,0,0.331,0.043,0.417,0.129c0.085,0.086,0.129,0.226,0.129,0.417v1.623c0,0.192-0.043,0.332-0.129,0.417
		c-0.086,0.086-0.226,0.129-0.417,0.129h-2.958v1.305h4.187c0.192,0,0.331,0.043,0.417,0.129s0.129,0.226,0.129,0.417v1.775
		c0,0.192-0.043,0.331-0.129,0.417S85.073,788.254,84.881,788.254z"/>
	<path fill="#FCF6B1" d="M90.038,788.254h-2.275c-0.192,0-0.332-0.043-0.417-0.129c-0.086-0.086-0.129-0.225-0.129-0.417v-9.83
		c0-0.191,0.042-0.331,0.129-0.417c0.085-0.086,0.225-0.129,0.417-0.129h1.578c0.192,0,0.356,0.03,0.493,0.091
		c0.137,0.062,0.271,0.167,0.402,0.319l2.943,3.367v-3.231c0-0.191,0.042-0.331,0.129-0.417c0.085-0.086,0.225-0.129,0.417-0.129H96
		c0.192,0,0.331,0.043,0.417,0.129s0.129,0.226,0.129,0.417v9.83c0,0.192-0.043,0.331-0.129,0.417s-0.225,0.129-0.417,0.129h-2.275
		c-0.192,0-0.332-0.043-0.417-0.129c-0.086-0.086-0.129-0.225-0.129-0.417v-1.866l-2.594-3.14v5.006
		c0,0.192-0.043,0.331-0.129,0.417S90.23,788.254,90.038,788.254z"/>
	<path fill="#FCF6B1" d="M103.796,788.254h-2.458c-0.192,0-0.331-0.043-0.417-0.129s-0.129-0.225-0.129-0.417v-7.448h-2.23
		c-0.192,0-0.331-0.043-0.417-0.129s-0.129-0.225-0.129-0.417v-1.836c0-0.191,0.043-0.331,0.129-0.417s0.225-0.129,0.417-0.129
		h8.009c0.192,0,0.331,0.043,0.417,0.129s0.129,0.226,0.129,0.417v1.836c0,0.192-0.043,0.331-0.129,0.417s-0.225,0.129-0.417,0.129
		h-2.23v7.448c0,0.192-0.043,0.331-0.129,0.417S103.988,788.254,103.796,788.254z"/>
	<path fill="#FCF6B1" d="M113.656,788.254h-4.793c-0.192,0-0.332-0.043-0.417-0.129s-0.129-0.225-0.129-0.417v-1.775
		c0-0.191,0.043-0.331,0.129-0.417s0.225-0.129,0.417-0.129h4.081c0.131,0,0.229-0.043,0.295-0.129s0.099-0.189,0.099-0.311
		c0-0.172-0.033-0.299-0.099-0.38c-0.066-0.08-0.165-0.126-0.295-0.136l-2.275-0.319c-0.708-0.101-1.277-0.333-1.707-0.697
		c-0.43-0.364-0.645-0.971-0.645-1.82v-1.593c0-0.859,0.278-1.52,0.834-1.979s1.325-0.69,2.306-0.69h4.248
		c0.192,0,0.331,0.043,0.417,0.129s0.129,0.226,0.129,0.417v1.806c0,0.192-0.043,0.331-0.129,0.417s-0.225,0.129-0.417,0.129h-3.535
		c-0.131,0-0.233,0.043-0.303,0.129c-0.071,0.086-0.106,0.195-0.106,0.326c0,0.132,0.036,0.243,0.106,0.334
		c0.07,0.091,0.172,0.142,0.303,0.151l2.26,0.304c0.708,0.101,1.279,0.333,1.714,0.697c0.435,0.364,0.652,0.971,0.652,1.82v1.593
		c0,0.859-0.28,1.52-0.842,1.979C115.393,788.024,114.626,788.254,113.656,788.254z"/>
</g>
<rect x="56.883" y="789.882" fill="#C80234" width="60.135" height="1.22"/>
<rect x="56.883" y="773.629" fill="#C80234" width="60.135" height="1.219"/>
<rect x="56.071" y="790.289" fill="#FCF6B1" width="60.134" height="1.218"/>
<rect x="56.071" y="774.037" fill="#FCF6B1" width="60.134" height="1.219"/>
<rect x="83.759" y="796.682" transform="matrix(0.707 -0.7072 0.7072 0.707 -539.8175 294.9204)" fill="#C80234" width="4.511" height="4.51"/>
<rect x="75.386" y="796.618" transform="matrix(0.7071 -0.7071 0.7071 0.7071 -542.1481 288.8847)" fill="#C80234" width="4.509" height="4.509"/>
<rect x="92.713" y="796.681" transform="matrix(0.707 -0.7072 0.7072 0.707 -537.1939 301.2529)" fill="#C80234" width="4.511" height="4.511"/>
<rect x="83.181" y="797.327" transform="matrix(0.7071 -0.7071 0.7071 0.7071 -540.3662 294.6046)" fill="#FCF6B1" width="4.511" height="4.51"/>
<rect x="74.808" y="797.265" transform="matrix(0.7073 -0.7069 0.7069 0.7073 -542.6177 288.4744)" fill="#FCF6B1" width="4.508" height="4.508"/>
<rect x="92.135" y="797.327" transform="matrix(0.707 -0.7072 0.7072 0.707 -537.8201 301.0325)" fill="#FCF6B1" width="4.51" height="4.51"/>
<rect x="83.76" y="764.878" transform="matrix(0.7072 -0.707 0.707 0.7072 -517.1773 285.4169)" fill="#C80234" width="4.51" height="4.508"/>
<rect x="75.386" y="764.813" transform="matrix(0.7071 -0.7071 0.7071 0.7071 -519.6581 279.5691)" fill="#C80234" width="4.509" height="4.509"/>
<rect x="92.714" y="764.877" transform="matrix(0.7072 -0.707 0.707 0.7072 -514.5557 291.7475)" fill="#C80234" width="4.51" height="4.51"/>
<rect x="83.181" y="765.523" transform="matrix(0.7073 -0.7069 0.7069 0.7073 -517.7291 285.1044)" fill="#FCF6B1" width="4.509" height="4.508"/>
<rect x="74.807" y="765.455" transform="matrix(0.707 -0.7072 0.7072 0.707 -520.3569 279.4392)" fill="#FCF6B1" width="4.51" height="4.51"/>
<rect x="92.135" y="765.523" transform="matrix(0.7072 -0.707 0.707 0.7072 -515.1815 291.527)" fill="#FCF6B1" width="4.508" height="4.508"/>
<circle fill="none" stroke="#A2A5A2" stroke-width="7" stroke-miterlimit="10" cx="84.319" cy="652.171" r="8.851"/>
<circle fill="none" stroke="#848484" stroke-width="7" stroke-miterlimit="10" cx="83.637" cy="652.854" r="8.851"/>
</svg>
