<?xml version="1.0" encoding="utf-8"?>
<!-- Generator: Adobe Illustrator 16.0.0, SVG Export Plug-In . SVG Version: 6.00 Build 0)  -->
<!DOCTYPE svg PUBLIC "-//W3C//DTD SVG 1.1//EN" "http://www.w3.org/Graphics/SVG/1.1/DTD/svg11.dtd">
<svg version="1.1" xmlns="http://www.w3.org/2000/svg" xmlns:xlink="http://www.w3.org/1999/xlink" x="0px" y="0px"
	 width="475.079px" height="213.253px" viewBox="0 0 475.079 213.253" enable-background="new 0 0 475.079 213.253"
	 xml:space="preserve">
<g id="Layer_1" display="none">
	
		<rect x="-7.3" y="-0.372" display="inline" fill="#479FD6" stroke="#231F20" stroke-miterlimit="10" width="482.678" height="219.964"/>
</g>
<g id="Layer_2">
	<path fill="#DDDDDD" d="M470.846,172.693H309.935c-4.734,0-8.571-4.318-8.571-9.645c0-5.325,3.837-9.643,8.571-9.643h44.252
		c-0.361-0.043-0.727-0.07-1.1-0.071h94.278c5.127,0,9.285-4.157,9.285-9.286s-4.158-9.285-9.285-9.285H346.725
		c0.494-0.231,0.957-0.53,1.404-0.861c-3.865-0.934-6.766-4.797-6.766-9.425c0-5.325,3.838-9.643,8.572-9.643h39.624
		c4.174-1.437,7.092-4.7,7.092-8.5c0-5.129-5.307-9.286-11.854-9.286H167.789c-6.546,0-11.853,4.157-11.853,9.286
		c0,3.801,2.918,7.063,7.093,8.501h16.336c4.732,0,8.57,4.316,8.57,9.643s-3.838,9.643-8.57,9.643h-0.613
		c0.607,0.27,1.242,0.489,1.902,0.643h-56.147c-5.128,0-9.286,4.156-9.286,9.285c0,3.801,2.286,7.063,5.555,8.5h53.731
		c1.203,0,2.348,0.282,3.387,0.786h5.175c-1.361,0.001-2.649,0.303-3.814,0.831c2.304,1.729,3.823,4.676,3.823,8.025
		c0,3.687-1.84,6.887-4.541,8.51c0.314,0.178,0.633,0.351,0.969,0.49h-1.939c-0.951,0.41-1.979,0.645-3.059,0.645H119.7
		c-3.456,1.352-5.907,4.707-5.907,8.643c0,5.128,4.157,9.285,9.286,9.285h170c0.462,0,0.913-0.045,1.356-0.11
		c0.445,0.065,0.896,0.11,1.357,0.11h170.001c5.129,0,9.285-4.157,9.285-9.285C475.079,177.214,473.391,174.349,470.846,172.693z"/>
</g>
<g id="Layer_3">
	<circle fill="#EF6F18" cx="191.066" cy="102.407" r="43.5"/>
</g>
<g id="Layer_4">
	<path fill="#F7F7F7" d="M357.053,196.183H196.142c-4.734,0-8.571-4.317-8.571-9.644s3.837-9.643,8.571-9.643h44.251
		c-0.361-0.043-0.726-0.071-1.098-0.072h94.276c5.128,0,9.286-4.156,9.286-9.285s-4.158-9.286-9.286-9.286h-100.64
		c0.494-0.231,0.958-0.53,1.404-0.86c-3.866-0.934-6.765-4.797-6.765-9.426c0-5.325,3.837-9.643,8.571-9.643h39.624
		c4.173-1.437,7.091-4.699,7.091-8.5c0-5.129-5.306-9.285-11.853-9.285H53.996c-6.546,0-11.854,4.156-11.854,9.285
		c0,3.801,2.918,7.064,7.093,8.501h16.336c4.732,0,8.57,4.317,8.57,9.643c0,5.326-3.838,9.644-8.57,9.644h-0.613
		c0.608,0.269,1.242,0.488,1.903,0.642H10.714c-5.128,0-9.286,4.157-9.286,9.286c0,3.801,2.286,7.063,5.555,8.5h53.731
		c1.204,0,2.348,0.281,3.387,0.785h5.174c-1.361,0.002-2.65,0.303-3.814,0.831c2.304,1.729,3.823,4.677,3.823,8.026
		c0,3.686-1.84,6.887-4.541,8.51c0.314,0.178,0.633,0.35,0.969,0.49h-1.94c-0.951,0.41-1.979,0.644-3.058,0.644H5.907
		C2.451,196.678,0,200.032,0,203.968c0,5.129,4.157,9.285,9.286,9.285h170c0.462,0,0.913-0.045,1.357-0.109
		c0.444,0.064,0.895,0.109,1.357,0.109h170c5.129,0,9.285-4.156,9.285-9.285C361.285,200.704,359.598,197.839,357.053,196.183z
		 M179.921,158.252c0.001,0,0.002,0,0.003,0.001h-0.005c-1.992,1.683-4.608,2.714-7.484,2.714h-34.586
		c-2.876,0-5.492-1.031-7.484-2.714h-1.513c0.385-0.089,0.758-0.206,1.125-0.335c-2.099-1.945-3.406-4.658-3.406-7.665
		c0-4.608,3.067-8.524,7.363-10.038c-0.403-0.396-0.826-0.774-1.288-1.104h45.852c-0.524,0.392-1.003,0.861-1.448,1.374
		c3.925,1.676,6.663,5.415,6.663,9.769C183.713,153.438,182.243,156.289,179.921,158.252z"/>
</g>
<g id="Layer_5">
	<path fill="#444443" d="M255.14,0.313c1.668-0.777,3.652-0.056,4.43,1.613l14.369,30.813c0.778,1.669,0.056,3.652-1.612,4.431l0,0
		c-1.668,0.778-3.652,0.056-4.43-1.612L253.527,4.742C252.75,3.074,253.472,1.091,255.14,0.313L255.14,0.313z"/>
	<path fill="#232323" d="M286.66,0.313c1.668,0.777,2.391,2.762,1.612,4.43l-14.368,30.814c-0.778,1.668-2.762,2.391-4.43,1.612l0,0
		c-1.668-0.778-2.391-2.762-1.612-4.431L282.23,1.925C283.008,0.257,284.992-0.465,286.66,0.313L286.66,0.313z"/>
	<path fill="#444443" d="M289.835,42.367c1.083-0.504,2.371-0.035,2.875,1.047l9.328,20.004c0.505,1.084,0.036,2.371-1.046,2.877
		l0,0c-1.083,0.505-2.371,0.036-2.876-1.047l-9.329-20.004C288.283,44.16,288.752,42.873,289.835,42.367L289.835,42.367z"/>
	<path fill="#232323" d="M310.297,42.367c1.083,0.506,1.552,1.793,1.047,2.877l-9.328,20.004c-0.505,1.082-1.793,1.551-2.876,1.047
		l0,0c-1.083-0.506-1.552-1.793-1.046-2.877l9.328-20.004C307.926,42.332,309.214,41.863,310.297,42.367L310.297,42.367z"/>
</g>
</svg>
