<?xml version="1.0" encoding="utf-8"?>
<!-- Generator: Adobe Illustrator 16.0.0, SVG Export Plug-In . SVG Version: 6.00 Build 0)  -->
<!DOCTYPE svg PUBLIC "-//W3C//DTD SVG 1.1//EN" "http://www.w3.org/Graphics/SVG/1.1/DTD/svg11.dtd">
<svg version="1.1" id="Layer_1" xmlns="http://www.w3.org/2000/svg" xmlns:xlink="http://www.w3.org/1999/xlink" x="0px" y="0px"
	 width="261.122px" height="311.141px" viewBox="0 284.14 261.122 311.141" enable-background="new 0 284.14 261.122 311.141"
	 xml:space="preserve">
<polygon fill="#441337" points="0,419.527 70.302,409.484 190.821,409.484 261.122,419.527 261.122,535.019 0,540.044 "/>
<rect x="70.302" y="409.484" fill="#591645" width="120.519" height="150.646"/>
<path fill="#441337" d="M74.765,467.228c0,2.621-2.123,4.744-4.742,4.744l0,0c-2.621,0-4.743-2.123-4.743-4.744v-73.646
	c0-2.621,2.123-4.742,4.743-4.742l0,0c2.619,0,4.742,2.121,4.742,4.742V467.228L74.765,467.228z"/>
<path fill="#441337" d="M195.561,464.876c0,2.621-2.121,4.742-4.74,4.742l0,0c-2.62,0-4.743-2.121-4.743-4.742v-73.65
	c0-2.617,2.123-4.742,4.743-4.742l0,0c2.619,0,4.74,2.125,4.74,4.742V464.876z"/>
<rect x="205.357" y="373.511" fill="#3F3F3F" width="9.672" height="122.264"/>
<rect x="204.553" y="373.511" fill="#591645" width="2.988" height="122.264"/>
<path fill="#FCB017" d="M215.494,436.99c0,0.982-0.311,1.785-0.688,1.785l0,0c-0.379,0-0.688-0.803-0.688-1.785v-51.881
	c0-0.984,0.309-1.785,0.688-1.785l0,0c0.378,0,0.688,0.801,0.688,1.785V436.99z"/>
<rect x="45.782" y="376.25" fill="#3F3F3F" width="9.673" height="122.262"/>
<rect x="44.976" y="376.25" fill="#591645" width="2.989" height="122.262"/>
<polygon fill="#F42246" points="175.755,328.58 210.904,373.775 260.005,354.246 210.904,318.537 "/>
<polygon fill="#EF233C" points="210.904,373.775 210.904,403.902 260.005,384.375 260.005,354.246 "/>
<polygon fill="#EF233C" points="210.904,449.654 210.904,560.132 261.122,535.019 261.122,419.527 "/>
<polygon fill="#D90429" points="210.904,560.132 195.842,595.281 261.122,535.019 "/>
<polygon fill="#D90429" points="210.904,373.775 50.214,373.775 80.345,328.58 175.755,328.58 "/>
<rect x="50.214" y="373.775" fill="#CC0937" width="160.69" height="30.127"/>
<rect x="50.214" y="449.654" fill="#CC0937" width="160.69" height="110.479"/>
<polygon fill="#C80234" points="50.214,560.132 210.904,560.132 195.842,595.281 65.28,595.281 "/>
<polygon fill="#2B2D42" points="50.214,449.654 0,419.527 0,540.044 50.214,560.132 "/>
<polygon fill="#212333" points="50.214,560.132 0,540.044 65.28,595.281 "/>
<polygon fill="#363951" points="50.214,373.775 0,354.246 50.214,318.537 80.345,328.58 "/>
<polygon fill="#2B2D42" points="0,354.246 50.214,373.775 50.214,403.902 0,384.375 "/>
<polyline fill="#EF233C" points="85.366,313.513 50.214,318.537 80.345,328.58 175.755,328.58 210.904,318.537 170.733,313.513 "/>
<polyline fill="#636363" points="96.687,315.968 72.176,319.33 93.184,326.054 159.709,326.054 184.219,319.33 156.209,315.968 "/>
<rect x="65.28" y="464.72" fill="#AF0B3A" width="130.562" height="80.348"/>
<rect x="70.302" y="464.72" fill="#CC0937" width="125.539" height="75.324"/>
<path fill="none" d="M30.181,403.65"/>
<path fill="none" d="M258.46,370.169"/>
<line fill="none" x1="33.323" y1="390.406" x2="9.607" y2="390.406"/>
<polygon fill="#CC0530" points="223.558,456.82 248.47,441.873 248.47,527.203 223.558,539.66 "/>
<polygon fill="#D90429" points="223.655,454.558 246.056,443.38 246.056,524.941 223.655,537.394 "/>
<polygon fill="#1F202D" points="36.117,462.806 11.207,447.861 11.207,533.189 36.117,545.646 "/>
<polygon fill="#282A3A" points="36.019,460.544 13.617,449.365 13.617,530.929 36.019,543.384 "/>
<rect x="87.876" y="514.935" fill="#C80234" width="92.9" height="1.885"/>
<rect x="87.876" y="489.826" fill="#C80234" width="92.9" height="1.883"/>
<rect x="86.623" y="515.564" fill="#EDF2F4" width="92.898" height="1.881"/>
<rect x="86.623" y="490.457" fill="#EDF2F4" width="92.898" height="1.883"/>
<rect x="129.39" y="525.441" transform="matrix(-0.707 0.7072 -0.7072 -0.707 600.8635 808.928)" fill="#2B2D42" width="6.968" height="6.967"/>
<rect x="116.456" y="525.339" transform="matrix(-0.7071 0.7071 -0.7071 -0.7071 578.6825 817.9454)" fill="#2B2D42" width="6.966" height="6.966"/>
<rect x="143.223" y="525.44" transform="matrix(-0.707 0.7072 -0.7072 -0.707 624.4769 799.1455)" fill="#2B2D42" width="6.968" height="6.968"/>
<rect x="128.513" y="526.412" transform="matrix(-0.707 0.7072 -0.7072 -0.707 600.0536 811.2068)" fill="#EDF2F4" width="6.968" height="6.968"/>
<polygon fill="#EDF2F4" points="123.976,529.822 119.05,534.746 114.124,529.822 119.05,524.892 "/>
<rect x="142.343" y="526.416" transform="matrix(-0.707 0.7072 -0.7072 -0.707 623.6902 801.3845)" fill="#EDF2F4" width="6.967" height="6.967"/>
<rect x="129.395" y="476.302" transform="matrix(-0.7072 0.707 -0.707 -0.7072 566.0728 725.1272)" fill="#2B2D42" width="6.967" height="6.965"/>
<rect x="116.457" y="476.204" transform="matrix(-0.7071 0.7071 -0.7071 -0.7071 543.9398 734.0668)" fill="#2B2D42" width="6.966" height="6.965"/>
<rect x="143.227" y="476.3" transform="matrix(-0.7072 0.707 -0.707 -0.7072 589.6625 715.3896)" fill="#2B2D42" width="6.967" height="6.967"/>
<rect x="128.529" y="477.323" transform="matrix(-0.7074 0.7068 -0.7068 -0.7074 565.2421 727.6107)" fill="#EDF2F4" width="6.966" height="6.965"/>
<rect x="115.548" y="477.221" transform="matrix(-0.7071 0.7071 -0.7071 -0.7071 543.1081 736.4464)" fill="#EDF2F4" width="6.966" height="6.967"/>
<rect x="142.346" y="477.278" transform="matrix(-0.7072 0.707 -0.707 -0.7072 588.8473 717.6804)" fill="#EDF2F4" width="6.965" height="6.965"/>
<circle fill="none" stroke="#A2A5A2" stroke-width="7" stroke-miterlimit="10" cx="128.716" cy="302.19" r="13.674"/>
<circle fill="none" stroke="#848484" stroke-width="7" stroke-miterlimit="10" cx="127.663" cy="303.246" r="13.674"/>
<g>
	<text transform="matrix(1 0 0 1 78.2849 510.8101)" fill="#EDF2F4" font-family="'Bungee-Regular'" font-size="18.5384">PROSHOWS</text>
</g>
</svg>
