<?xml version="1.0" encoding="utf-8"?>
<!-- Generator: Adobe Illustrator 16.0.0, SVG Export Plug-In . SVG Version: 6.00 Build 0)  -->
<!DOCTYPE svg PUBLIC "-//W3C//DTD SVG 1.1//EN" "http://www.w3.org/Graphics/SVG/1.1/DTD/svg11.dtd">
<svg version="1.1" id="Layer_1" xmlns="http://www.w3.org/2000/svg" xmlns:xlink="http://www.w3.org/1999/xlink" x="0px" y="0px"
	 width="260.02px" height="308.64px" viewBox="0 286.64 260.02 308.64" enable-background="new 0 286.64 260.02 308.64"
	 xml:space="preserve">
<g id="Layer_1_2_" display="none">
	<g id="Layer_1_1_" display="inline">
		<polygon fill="#441337" points="0,419.526 70.302,409.483 190.821,409.483 261.122,419.526 261.122,535.02 0,540.044 		"/>
		<rect x="70.302" y="409.483" fill="#591645" width="120.519" height="150.647"/>
		<path fill="#441337" d="M74.765,467.229c0,2.621-2.123,4.744-4.742,4.744l0,0c-2.621,0-4.743-2.123-4.743-4.744v-73.646
			c0-2.62,2.123-4.742,4.743-4.742l0,0c2.619,0,4.742,2.122,4.742,4.742V467.229L74.765,467.229z"/>
		<path fill="#441337" d="M195.561,464.876c0,2.62-2.121,4.741-4.74,4.741l0,0c-2.619,0-4.742-2.121-4.742-4.741v-73.649
			c0-2.618,2.123-4.743,4.742-4.743l0,0c2.619,0,4.74,2.125,4.74,4.743V464.876z"/>
		<rect x="205.357" y="373.512" fill="#3F3F3F" width="9.672" height="122.263"/>
		<rect x="204.553" y="373.512" fill="#591645" width="2.988" height="122.263"/>
		<path fill="#FCB017" d="M215.494,436.99c0,0.982-0.312,1.785-0.688,1.785l0,0c-0.38,0-0.688-0.803-0.688-1.785v-51.881
			c0-0.985,0.308-1.786,0.688-1.786l0,0c0.378,0,0.688,0.801,0.688,1.786V436.99z"/>
		<rect x="45.782" y="376.249" fill="#3F3F3F" width="9.673" height="122.262"/>
		<rect x="44.976" y="376.249" fill="#591645" width="2.989" height="122.262"/>
		<polygon fill="#F42246" points="175.755,328.579 210.904,373.774 260.005,354.244 210.904,318.536 		"/>
		<polygon fill="#EF233C" points="210.904,373.774 210.904,403.902 260.005,384.373 260.005,354.244 		"/>
		<polygon fill="#EF233C" points="210.904,449.654 210.904,560.132 261.122,535.02 261.122,419.526 		"/>
		<polygon fill="#D90429" points="210.904,560.132 195.842,595.28 261.122,535.02 		"/>
		<polygon fill="#D90429" points="210.904,373.774 50.214,373.774 80.345,328.579 175.755,328.579 		"/>
		<rect x="50.214" y="373.774" fill="#CC0937" width="160.689" height="30.128"/>
		<rect x="50.214" y="449.654" fill="#CC0937" width="160.689" height="110.479"/>
		<polygon fill="#C80234" points="50.214,560.132 210.904,560.132 195.842,595.28 65.28,595.28 		"/>
		<polygon fill="#2B2D42" points="50.214,449.654 0,419.526 0,540.044 50.214,560.132 		"/>
		<polygon fill="#212333" points="50.214,560.132 0,540.044 65.28,595.28 		"/>
		<polygon fill="#363951" points="50.214,373.774 0,354.244 50.214,318.536 80.345,328.579 		"/>
		<polygon fill="#2B2D42" points="0,354.244 50.214,373.774 50.214,403.902 0,384.373 		"/>
		<polyline fill="#EF233C" points="85.366,313.513 50.214,318.536 80.345,328.579 175.755,328.579 210.904,318.536 170.733,313.513 
					"/>
		<polyline fill="#636363" points="96.687,315.969 72.176,319.329 93.184,326.055 159.709,326.055 184.219,319.329 156.209,315.969 
					"/>
		<rect x="65.28" y="464.721" fill="#AF0B3A" width="130.563" height="80.347"/>
		<rect x="70.302" y="464.721" fill="#CC0937" width="125.539" height="75.323"/>
		<path fill="none" d="M30.181,403.65"/>
		<path fill="none" d="M258.46,370.169"/>
		<line fill="none" x1="33.323" y1="390.406" x2="9.607" y2="390.406"/>
		<polygon fill="#CC0530" points="223.558,456.82 248.47,441.871 248.47,527.201 223.558,539.658 		"/>
		<polygon fill="#D90429" points="223.655,454.559 246.056,443.381 246.056,524.94 223.655,537.395 		"/>
		<polygon fill="#1F202D" points="36.117,462.807 11.207,447.86 11.207,533.189 36.117,545.646 		"/>
		<polygon fill="#282A3A" points="36.019,460.544 13.617,449.364 13.617,530.929 36.019,543.384 		"/>
		<rect x="87.876" y="514.936" fill="#C80234" width="92.899" height="1.885"/>
		<rect x="87.876" y="489.825" fill="#C80234" width="92.899" height="1.883"/>
		<rect x="86.623" y="515.564" fill="#EDF2F4" width="92.897" height="1.881"/>
		<rect x="86.623" y="490.456" fill="#EDF2F4" width="92.897" height="1.884"/>
		
			<rect x="129.41" y="525.417" transform="matrix(0.707 -0.7072 0.7072 0.707 -335.121 248.9747)" fill="#2B2D42" width="6.969" height="6.967"/>
		
			<rect x="116.461" y="525.342" transform="matrix(0.7071 -0.7071 0.7071 0.7071 -338.8051 239.7026)" fill="#2B2D42" width="6.966" height="6.965"/>
		
			<rect x="143.242" y="525.415" transform="matrix(0.707 -0.7072 0.7072 0.707 -331.0671 258.757)" fill="#2B2D42" width="6.969" height="6.97"/>
		
			<rect x="128.506" y="526.435" transform="matrix(0.707 -0.7072 0.7072 0.707 -336.1059 248.633)" fill="#EDF2F4" width="6.967" height="6.967"/>
		<polygon fill="#EDF2F4" points="123.976,529.822 119.05,534.744 114.124,529.822 119.05,524.893 		"/>
		
			<rect x="142.336" y="526.438" transform="matrix(0.707 -0.7072 0.7072 0.707 -332.0282 258.3673)" fill="#EDF2F4" width="6.967" height="6.966"/>
		
			<rect x="129.385" y="476.328" transform="matrix(0.7072 -0.707 0.707 0.7072 -300.3366 234.4428)" fill="#2B2D42" width="6.967" height="6.965"/>
		
			<rect x="116.451" y="476.224" transform="matrix(0.707 -0.7072 0.7072 0.707 -304.1013 225.3505)" fill="#2B2D42" width="6.965" height="6.965"/>
		
			<rect x="143.218" y="476.327" transform="matrix(0.7072 -0.707 0.707 0.7072 -296.2859 244.2224)" fill="#2B2D42" width="6.967" height="6.967"/>
		
			<rect x="128.53" y="477.331" transform="matrix(0.7073 -0.7069 0.7069 0.7073 -301.248 234.0461)" fill="#EDF2F4" width="6.967" height="6.966"/>
		
			<rect x="115.54" y="477.241" transform="matrix(0.707 -0.7072 0.7072 0.707 -305.1129 225.0478)" fill="#EDF2F4" width="6.967" height="6.967"/>
		
			<rect x="142.361" y="477.26" transform="matrix(0.7071 -0.7071 0.7071 0.7071 -297.22 243.9329)" fill="#EDF2F4" width="6.965" height="6.965"/>
		<circle fill="none" stroke="#A2A5A2" stroke-width="7" stroke-miterlimit="10" cx="128.716" cy="302.19" r="13.674"/>
		<circle fill="none" stroke="#848484" stroke-width="7" stroke-miterlimit="10" cx="127.663" cy="303.246" r="13.674"/>
		<g>
			<text transform="matrix(1 0 0 1 78.2844 510.8096)" fill="#EDF2F4" font-family="'Bungee-Regular'" font-size="18.5384">PROSHOWS</text>
		</g>
	</g>
	<g id="Layer_2" display="inline">
		<polygon fill="#441337" points="0,419.448 70.245,409.412 190.665,409.412 260.908,419.448 260.908,534.848 0,539.866 		"/>
		<rect x="70.245" y="409.412" fill="#591645" width="120.42" height="150.525"/>
		<path fill="#441337" d="M74.703,467.112c0,2.619-2.121,4.739-4.738,4.739l0,0c-2.618,0-4.738-2.12-4.738-4.739v-73.588
			c0-2.616,2.121-4.739,4.738-4.739l0,0c2.617,0,4.738,2.123,4.738,4.739V467.112z"/>
		<path fill="#441337" d="M195.401,464.761c0,2.619-2.119,4.738-4.735,4.738l0,0c-2.618,0-4.739-2.119-4.739-4.738v-73.589
			c0-2.616,2.121-4.741,4.739-4.741l0,0c2.617,0,4.735,2.125,4.735,4.741V464.761z"/>
		<rect x="205.189" y="373.472" fill="#3F3F3F" width="9.664" height="122.162"/>
		<rect x="204.385" y="373.472" fill="#591645" width="2.986" height="122.162"/>
		<path fill="#FCB017" d="M215.317,436.898c0,0.982-0.312,1.782-0.688,1.782l0,0c-0.378,0-0.687-0.8-0.687-1.782V385.06
			c0-0.982,0.309-1.785,0.687-1.785l0,0c0.379,0,0.688,0.803,0.688,1.785V436.898z"/>
		<rect x="45.744" y="376.208" fill="#3F3F3F" width="9.666" height="122.158"/>
		<rect x="44.939" y="376.208" fill="#591645" width="2.986" height="122.158"/>
		<polygon fill="#1C7293" points="175.612,328.575 210.732,373.734 259.792,354.22 210.732,318.542 		"/>
		<polygon fill="#2283A0" points="210.732,373.734 210.732,403.838 259.792,384.324 259.792,354.22 		"/>
		<polygon fill="#2283A0" points="210.732,449.552 210.732,559.938 260.908,534.848 260.908,419.448 		"/>
		<polygon fill="#065A82" points="210.732,559.938 195.681,595.059 260.908,534.848 		"/>
		<polygon fill="#065A82" points="210.732,373.734 50.173,373.734 80.279,328.575 175.612,328.575 		"/>
		<rect x="50.173" y="373.734" fill="#1B3B6F" width="160.56" height="30.104"/>
		<rect x="50.173" y="449.552" fill="#1B3B6F" width="160.56" height="110.388"/>
		<polygon fill="#1B3A60" points="50.173,559.938 210.732,559.938 195.681,595.059 65.226,595.059 		"/>
		<polygon fill="#985277" points="50.173,449.552 0,419.448 0,539.866 50.173,559.938 		"/>
		<polygon fill="#5C374C" points="50.173,559.938 0,539.866 65.226,595.059 		"/>
		<polygon fill="#CE6A85" points="50.173,373.734 0,354.22 50.173,318.542 80.279,328.575 		"/>
		<polygon fill="#985277" points="0,354.22 50.173,373.734 50.173,403.838 0,384.324 		"/>
		<polyline fill="#9EB3C2" points="85.296,313.522 50.173,318.542 80.279,328.575 175.612,328.575 210.732,318.542 170.593,313.522 
					"/>
		<polyline fill="#636363" points="96.608,315.976 72.117,319.335 93.107,326.055 159.579,326.055 184.068,319.335 156.082,315.976 
					"/>
		<rect x="65.226" y="464.607" fill="#21295C" width="130.455" height="80.277"/>
		<rect x="70.245" y="464.607" fill="#1B3B6F" width="125.437" height="75.26"/>
		<path fill="none" d="M30.156,403.586"/>
		<path fill="none" d="M258.249,370.132"/>
		<line fill="none" x1="33.296" y1="390.354" x2="9.6" y2="390.354"/>
		<polygon fill="#1B3B6F" points="223.375,456.712 248.267,441.777 248.267,527.036 223.375,539.482 		"/>
		<polygon fill="#1C7293" points="223.472,454.452 245.854,443.283 245.854,524.777 223.472,537.221 		"/>
		<polygon fill="#771753" points="36.088,462.693 11.197,447.76 11.197,533.02 36.088,545.464 		"/>
		<polygon fill="#8C4C71" points="35.99,460.433 13.606,449.262 13.606,530.76 35.99,543.204 		"/>
		<rect x="87.804" y="514.778" fill="#C80234" width="92.824" height="1.885"/>
		<rect x="87.804" y="489.691" fill="#C80234" width="92.824" height="1.881"/>
		<rect x="86.552" y="515.407" fill="#EDF2F4" width="92.822" height="1.881"/>
		<rect x="86.552" y="490.321" fill="#EDF2F4" width="92.822" height="1.882"/>
		<polygon fill="#C80234" points="137.694,528.756 132.771,533.682 127.85,528.756 132.771,523.836 		"/>
		
			<rect x="116.377" y="525.158" transform="matrix(0.7072 -0.707 0.707 0.7072 -338.6691 239.5411)" fill="#C80234" width="6.961" height="6.96"/>
		<polygon fill="#C80234" points="151.517,528.756 146.594,533.682 141.67,528.756 146.594,523.836 		"/>
		
			<rect x="128.372" y="526.314" transform="matrix(0.707 -0.7072 0.7072 0.707 -336.0584 248.5005)" fill="#EDF2F4" width="6.963" height="6.963"/>
		<polygon fill="#EDF2F4" points="123.874,529.654 118.953,534.573 114.03,529.654 118.953,524.729 		"/>
		
			<rect x="142.204" y="526.294" transform="matrix(0.707 -0.7072 0.7072 0.707 -331.9912 258.2778)" fill="#EDF2F4" width="6.963" height="6.962"/>
		
			<rect x="129.303" y="476.161" transform="matrix(0.7071 -0.7071 0.7071 0.7071 -300.2655 234.3763)" fill="#C80234" width="6.962" height="6.959"/>
		
			<rect x="116.356" y="476.1" transform="matrix(0.707 -0.7072 0.7072 0.707 -304.04 225.2446)" fill="#C80234" width="6.961" height="6.959"/>
		
			<rect x="143.113" y="476.181" transform="matrix(0.7071 -0.7071 0.7071 0.7071 -296.2359 244.1474)" fill="#C80234" width="6.962" height="6.962"/>
		
			<rect x="128.424" y="477.206" transform="matrix(0.7073 -0.7069 0.7069 0.7073 -301.1891 233.931)" fill="#EDF2F4" width="6.96" height="6.96"/>
		
			<rect x="115.459" y="477.094" transform="matrix(0.707 -0.7072 0.7072 0.707 -305.0067 224.9023)" fill="#EDF2F4" width="6.961" height="6.963"/>
		
			<rect x="142.208" y="477.201" transform="matrix(0.7073 -0.7069 0.7069 0.7073 -297.1509 243.6734)" fill="#EDF2F4" width="6.96" height="6.959"/>
		<circle fill="none" stroke="#A2A5A2" stroke-width="7" stroke-miterlimit="10" cx="128.611" cy="302.209" r="13.662"/>
		<circle fill="none" stroke="#848484" stroke-width="7" stroke-miterlimit="10" cx="127.558" cy="303.264" r="13.662"/>
		<text transform="matrix(1 0 0 1 79.5061 508.4014)" fill="#CC0937" font-family="'Bungee-Regular'" font-size="16.9796">CONTACT US</text>
		<g>
			<text transform="matrix(1 0 0 1 77.9622 509.9473)" fill="#EDF2F4" font-family="'Bungee-Regular'" font-size="16.9796">CONTACT US</text>
		</g>
	</g>
	<g id="Layer_3" display="inline">
		<polygon fill="#441337" points="0,419.652 70.251,409.616 190.684,409.616 260.933,419.652 260.933,535.063 0,540.083 		"/>
		<rect x="70.251" y="409.616" fill="#591645" width="120.434" height="150.54"/>
		<path fill="#441337" d="M74.71,467.322c0,2.618-2.121,4.738-4.737,4.738l0,0c-2.619,0-4.74-2.12-4.74-4.738v-73.596
			c0-2.618,2.121-4.739,4.74-4.739l0,0c2.616,0,4.737,2.121,4.737,4.739V467.322z"/>
		<path fill="#441337" d="M195.42,464.971c0,2.618-2.12,4.738-4.735,4.738l0,0c-2.619,0-4.74-2.12-4.74-4.738v-73.597
			c0-2.617,2.122-4.741,4.74-4.741l0,0c2.616,0,4.735,2.124,4.735,4.741V464.971L195.42,464.971z"/>
		<rect x="205.209" y="373.672" fill="#3F3F3F" width="9.665" height="122.174"/>
		<rect x="204.405" y="373.672" fill="#591645" width="2.986" height="122.174"/>
		<path fill="#FCB017" d="M215.338,437.104c0,0.982-0.312,1.783-0.688,1.783l0,0c-0.378,0-0.687-0.801-0.687-1.783V385.26
			c0-0.983,0.309-1.785,0.687-1.785l0,0c0.378,0,0.688,0.802,0.688,1.785V437.104z"/>
		<rect x="45.749" y="376.407" fill="#3F3F3F" width="9.667" height="122.172"/>
		<rect x="44.944" y="376.407" fill="#591645" width="2.988" height="122.172"/>
		<polygon fill="#97EFD8" points="175.629,328.772 210.752,373.935 259.817,354.419 210.752,318.736 		"/>
		<polygon fill="#7DE2D1" points="210.752,373.935 210.752,404.039 259.817,384.526 259.817,354.419 		"/>
		<polygon fill="#7DE2D1" points="210.752,449.759 210.752,560.156 260.933,535.063 260.933,419.652 		"/>
		<polygon fill="#74C1B6" points="210.752,560.156 195.701,595.28 260.933,535.063 		"/>
		<polygon fill="#74C1B6" points="210.752,373.935 50.178,373.935 80.287,328.772 175.629,328.772 		"/>
		<rect x="50.178" y="373.935" fill="#339989" width="160.573" height="30.104"/>
		<rect x="50.178" y="449.759" fill="#339989" width="160.573" height="110.397"/>
		<polygon fill="#258472" points="50.178,560.156 210.752,560.156 195.701,595.28 65.232,595.28 		"/>
		<polygon fill="#F7B32B" points="50.178,449.759 0,419.652 0,540.083 50.178,560.156 		"/>
		<polygon fill="#F45C27" points="50.178,560.156 0,540.083 65.232,595.28 		"/>
		<polygon fill="#E29F27" points="50.178,373.935 0,354.419 50.178,318.736 80.287,328.772 		"/>
		<polygon fill="#F7B32B" points="0,354.419 50.178,373.935 50.178,404.039 0,384.526 		"/>
		<polyline fill="#FCBE4F" points="85.304,313.716 50.178,318.736 80.287,328.772 175.629,328.772 210.752,318.736 170.61,313.716 
					"/>
		<polyline fill="#636363" points="96.617,316.17 72.124,319.529 93.117,326.247 159.594,326.247 184.086,319.529 156.097,316.17 		
			"/>
		<rect x="65.232" y="464.815" fill="#297F6F" width="130.469" height="80.286"/>
		<rect x="70.251" y="464.815" fill="#339989" width="125.45" height="75.269"/>
		<path fill="none" d="M30.159,403.788"/>
		<path fill="none" d="M258.274,370.33"/>
		<line fill="none" x1="33.299" y1="390.554" x2="9.6" y2="390.554"/>
		<polygon fill="#74C1B6" points="223.396,456.92 248.291,441.983 248.291,527.251 223.396,539.698 		"/>
		<polygon fill="#97EFD8" points="223.494,454.659 245.878,443.49 245.878,524.99 223.494,537.438 		"/>
		<polygon fill="#B2812B" points="36.091,462.902 11.198,447.967 11.198,533.234 36.091,545.681 		"/>
		<polygon fill="#E29F27" points="35.993,460.641 13.607,449.47 13.607,530.975 35.993,543.421 		"/>
		<rect x="87.813" y="514.992" fill="#C80234" width="92.833" height="1.884"/>
		<rect x="87.813" y="489.902" fill="#C80234" width="92.833" height="1.882"/>
		<rect x="86.56" y="515.621" fill="#EDF2F4" width="92.832" height="1.881"/>
		<rect x="86.56" y="490.532" fill="#EDF2F4" width="92.832" height="1.881"/>
		<polygon fill="#C80234" points="137.708,528.971 132.784,533.896 127.863,528.971 132.784,524.051 		"/>
		
			<rect x="116.377" y="525.392" transform="matrix(0.7071 -0.7071 0.7071 0.7071 -338.8643 239.6552)" fill="#C80234" width="6.961" height="6.961"/>
		<polygon fill="#C80234" points="151.531,528.971 146.608,533.896 141.685,528.971 146.608,524.051 		"/>
		
			<rect x="128.41" y="526.486" transform="matrix(0.7071 -0.7071 0.7071 0.7071 -336.1134 248.4851)" fill="#EDF2F4" width="6.963" height="6.962"/>
		<polygon fill="#EDF2F4" points="123.886,529.869 118.964,534.788 114.042,529.869 118.964,524.943 		"/>
		
			<rect x="142.22" y="526.51" transform="matrix(0.707 -0.7072 0.7072 0.707 -332.1122 258.3042)" fill="#EDF2F4" width="6.961" height="6.961"/>
		
			<rect x="129.304" y="476.394" transform="matrix(0.7072 -0.707 0.707 0.7072 -300.4057 234.4018)" fill="#C80234" width="6.961" height="6.959"/>
		
			<rect x="116.378" y="476.293" transform="matrix(0.7071 -0.7071 0.7071 0.7071 -304.1454 225.2749)" fill="#C80234" width="6.961" height="6.961"/>
		
			<rect x="143.149" y="476.348" transform="matrix(0.7072 -0.707 0.707 0.7072 -296.3203 244.1784)" fill="#C80234" width="6.963" height="6.963"/>
		
			<rect x="128.401" y="477.407" transform="matrix(0.7072 -0.707 0.707 0.7072 -301.3628 234.0171)" fill="#EDF2F4" width="6.961" height="6.961"/>
		
			<rect x="115.47" y="477.306" transform="matrix(0.7071 -0.7071 0.7071 0.7071 -305.1277 224.9306)" fill="#EDF2F4" width="6.962" height="6.962"/>
		
			<rect x="142.245" y="477.366" transform="matrix(0.7072 -0.707 0.707 0.7072 -297.3041 243.836)" fill="#EDF2F4" width="6.96" height="6.96"/>
		<circle fill="none" stroke="#A2A5A2" stroke-width="7" stroke-miterlimit="10" cx="128.624" cy="302.401" r="13.664"/>
		<path fill="none" stroke="#848484" stroke-width="7" stroke-miterlimit="10" d="M141.235,303.457
			c0-7.547-6.117-13.665-13.665-13.665c-7.547,0-13.663,6.118-13.663,13.665c0,7.544,6.116,13.66,13.663,13.66
			C135.117,317.117,141.235,311.001,141.235,303.457z"/>
		<text transform="matrix(1 0 0 1 106.5325 510.1934)" fill="#2B2C28" font-family="'Bungee-Regular'" font-size="16.9813">TEAM</text>
		<g>
			<text transform="matrix(1 0 0 1 104.9885 510.9648)" fill="#EDF2F4" font-family="'Bungee-Regular'" font-size="16.9813">TEAM</text>
		</g>
	</g>
</g>
<g id="Layer_2_1_">
	<polygon fill="#441337" points="0,420.476 70.006,410.474 190.014,410.474 260.02,420.476 260.02,535.485 0,540.487 	"/>
	<rect x="70.006" y="410.474" fill="#591645" width="120.008" height="150.015"/>
	<path fill="#441337" d="M74.45,467.977c0,2.614-2.113,4.728-4.722,4.728l0,0c-2.612,0-4.726-2.112-4.726-4.728v-73.335
		c0-2.61,2.113-4.726,4.726-4.726l0,0c2.607,0,4.722,2.114,4.722,4.726V467.977z"/>
	<path fill="#441337" d="M194.74,465.635c0,2.607-2.111,4.722-4.726,4.722l0,0c-2.605,0-4.719-2.113-4.719-4.722v-73.34
		c0-2.606,2.113-4.721,4.719-4.721l0,0c2.613,0,4.726,2.113,4.726,4.721V465.635z"/>
	<rect x="204.493" y="374.656" fill="#3F3F3F" width="9.629" height="121.743"/>
	<rect x="203.692" y="374.656" fill="#591645" width="2.978" height="121.743"/>
	<path fill="#FCB017" d="M214.585,437.865c0,0.979-0.308,1.779-0.687,1.779l0,0c-0.376,0-0.683-0.802-0.683-1.779v-51.658
		c0-0.984,0.307-1.78,0.683-1.78l0,0c0.379,0,0.687,0.796,0.687,1.78V437.865z"/>
	<rect x="45.591" y="377.385" fill="#3F3F3F" width="9.629" height="121.741"/>
	<rect x="44.785" y="377.385" fill="#591645" width="2.98" height="121.741"/>
	<path display="none" fill="#C80234" d="M-10.815,28.733c0,0.605-0.492,1.099-1.1,1.099l0,0c-0.606,0-1.099-0.493-1.099-1.099
		V-0.724c0-0.605,0.491-1.098,1.099-1.098l0,0c0.606,0,1.1,0.492,1.1,1.098V28.733z"/>
	<polygon fill="#FEC315" points="175.015,329.914 210.015,374.918 258.911,355.473 210.015,319.911 	"/>
	<polygon fill="#F4B519" points="210.015,374.918 210.015,404.914 258.911,385.472 258.911,355.473 	"/>
	<polygon fill="#EFB116" points="210.015,450.475 210.015,560.488 260.02,535.485 260.02,420.476 	"/>
	<polygon display="none" fill="#E8A81A" points="222.068,-33.94 244.392,-47.334 244.392,29.132 222.068,40.293 	"/>
	<polygon fill="#ED9718" points="210.015,560.488 195.016,595.492 260.02,535.485 	"/>
	<polygon fill="#FCB017" points="210.015,374.918 50.004,374.918 80.009,329.914 175.015,329.914 	"/>
	<rect x="50.004" y="374.918" fill="#F2A41C" width="160.011" height="29.996"/>
	<rect x="50.004" y="450.475" fill="#FF5527" width="160.011" height="110.014"/>
	<polygon fill="#C80234" points="50.004,560.488 210.015,560.488 195.016,595.492 65.003,595.492 	"/>
	<polygon fill="#C80234" points="50.004,450.475 0,420.476 0,540.487 50.004,560.488 	"/>
	<polygon fill="#91083D" points="50.004,560.488 0,540.487 65.003,595.492 	"/>
	<polygon fill="#FF5527" points="50.004,374.918 0,355.473 50.004,319.911 80.009,329.914 	"/>
	<polygon fill="#C80234" points="0,355.473 50.004,374.918 50.004,404.914 0,385.472 	"/>
	<polyline fill="#FCD017" points="85.005,314.909 50.004,319.911 80.009,329.914 175.015,329.914 210.015,319.911 170.014,314.909 	
		"/>
	<polyline fill="#636363" points="96.281,317.356 71.873,320.702 92.79,327.4 159.038,327.4 183.442,320.702 155.551,317.356 	"/>
	<rect x="65.003" y="465.48" fill="#C80234" width="130.013" height="80.008"/>
	<rect x="70.006" y="465.48" fill="#FF5527" width="125.011" height="75.007"/>
	<path fill="none" d="M30.056,404.665"/>
	<path fill="none" d="M257.371,371.326"/>
	<line fill="none" x1="33.184" y1="391.478" x2="9.566" y2="391.478"/>
	<polygon fill="#C80234" points="222.615,457.611 247.426,442.726 247.426,527.698 222.615,540.102 	"/>
	<polygon fill="#ED9718" points="222.715,455.363 245.02,444.231 245.02,525.445 222.715,537.848 	"/>
	<polygon fill="#91083D" points="35.963,463.574 11.158,448.691 11.158,533.663 35.963,546.067 	"/>
	<polygon fill="#C80234" points="35.869,461.321 13.558,450.19 13.558,531.41 35.869,543.813 	"/>
	<text transform="matrix(1 0 0 1 86.2493 511.7314)" fill="#C80234" font-family="'Bungee-Regular'" font-size="23.3353">EVENTS</text>
	<text transform="matrix(1 0 0 1 84.9998 512.9805)" fill="#FCF6B1" font-family="'Bungee-Regular'" font-size="23.3353">EVENTS</text>
	<rect x="87.508" y="515.485" fill="#C80234" width="92.508" height="1.873"/>
	<rect x="87.508" y="490.477" fill="#C80234" width="92.508" height="1.88"/>
	<rect x="86.259" y="516.109" fill="#FCF6B1" width="92.504" height="1.875"/>
	<rect x="86.259" y="491.107" fill="#FCF6B1" width="92.504" height="1.871"/>
	
		<rect x="128.832" y="525.963" transform="matrix(-0.7071 0.7071 -0.7071 -0.7071 600.2184 810.2447)" fill="#C80234" width="6.94" height="6.937"/>
	<polygon fill="#C80234" points="124.345,529.313 119.437,534.22 114.534,529.313 119.437,524.409 	"/>
	<polygon fill="#C80234" points="151.002,529.411 146.094,534.319 141.192,529.411 146.094,524.509 	"/>
	<polygon fill="#FCF6B1" points="136.336,530.406 131.434,535.313 126.526,530.406 131.434,525.503 	"/>
	
		<rect x="115.084" y="526.825" transform="matrix(-0.7075 0.7068 -0.7068 -0.7075 577.2102 821.665)" fill="#FCF6B1" width="6.936" height="6.935"/>
	
		<rect x="141.722" y="526.956" transform="matrix(-0.7072 0.707 -0.707 -0.7072 622.8685 802.9187)" fill="#FCF6B1" width="6.938" height="6.936"/>
	
		<rect x="128.858" y="476.992" transform="matrix(-0.7072 0.707 -0.707 -0.7072 565.6099 726.6696)" fill="#C80234" width="6.939" height="6.936"/>
	<polygon fill="#C80234" points="124.345,480.385 119.437,485.293 114.534,480.385 119.437,475.483 	"/>
	<polygon fill="#C80234" points="151.002,480.485 146.094,485.391 141.192,480.485 146.094,475.581 	"/>
	<polygon fill="#FCF6B1" points="136.336,481.478 131.434,486.382 126.526,481.478 131.434,476.571 	"/>
	<polygon fill="#FCF6B1" points="123.455,481.374 118.548,486.282 113.644,481.374 118.548,476.472 	"/>
	
		<rect x="141.738" y="478.001" transform="matrix(-0.7073 0.7069 -0.7069 -0.7073 588.262 719.3733)" fill="#FCF6B1" width="6.938" height="6.935"/>
	<circle fill="none" stroke="#A2A5A2" stroke-width="7" stroke-miterlimit="10" cx="128.559" cy="305.787" r="13.615"/>
	<path fill="none" stroke="#848484" stroke-width="7" stroke-miterlimit="10" d="M141.128,303.84c0-7.521-6.1-13.615-13.62-13.615
		s-13.615,6.095-13.615,13.615c0,7.516,6.095,13.614,13.615,13.614S141.128,311.355,141.128,303.84z"/>
</g>
</svg>
