<?xml version="1.0" encoding="utf-8"?>
<!-- Generator: Adobe Illustrator 16.0.0, SVG Export Plug-In . SVG Version: 6.00 Build 0)  -->
<!DOCTYPE svg PUBLIC "-//W3C//DTD SVG 1.1//EN" "http://www.w3.org/Graphics/SVG/1.1/DTD/svg11.dtd">
<svg version="1.1" id="Layer_1" xmlns="http://www.w3.org/2000/svg" xmlns:xlink="http://www.w3.org/1999/xlink" x="0px" y="0px"
	 width="260.908px" height="311.141px" viewBox="0 284.14 260.908 311.141" enable-background="new 0 284.14 260.908 311.141"
	 xml:space="preserve">
<g id="Layer_1_1_" display="none">
	<polygon display="inline" fill="#441337" points="0,419.527 70.302,409.484 190.821,409.484 261.122,419.527 261.122,535.019 
		0,540.044 	"/>
	<rect x="70.302" y="409.484" display="inline" fill="#591645" width="120.519" height="150.646"/>
	<path display="inline" fill="#441337" d="M74.765,467.228c0,2.621-2.123,4.744-4.742,4.744l0,0c-2.621,0-4.743-2.123-4.743-4.744
		v-73.646c0-2.621,2.123-4.742,4.743-4.742l0,0c2.619,0,4.742,2.121,4.742,4.742V467.228L74.765,467.228z"/>
	<path display="inline" fill="#441337" d="M195.561,464.876c0,2.621-2.121,4.742-4.74,4.742l0,0c-2.62,0-4.743-2.121-4.743-4.742
		v-73.65c0-2.617,2.123-4.742,4.743-4.742l0,0c2.619,0,4.74,2.125,4.74,4.742V464.876z"/>
	<rect x="205.357" y="373.511" display="inline" fill="#3F3F3F" width="9.672" height="122.264"/>
	<rect x="204.553" y="373.511" display="inline" fill="#591645" width="2.988" height="122.264"/>
	<path display="inline" fill="#FCB017" d="M215.494,436.99c0,0.982-0.311,1.785-0.688,1.785l0,0c-0.379,0-0.688-0.803-0.688-1.785
		v-51.881c0-0.984,0.309-1.785,0.688-1.785l0,0c0.378,0,0.688,0.801,0.688,1.785V436.99z"/>
	<rect x="45.782" y="376.25" display="inline" fill="#3F3F3F" width="9.673" height="122.262"/>
	<rect x="44.976" y="376.25" display="inline" fill="#591645" width="2.989" height="122.262"/>
	<polygon display="inline" fill="#F42246" points="175.755,328.58 210.904,373.775 260.005,354.246 210.904,318.537 	"/>
	<polygon display="inline" fill="#EF233C" points="210.904,373.775 210.904,403.902 260.005,384.375 260.005,354.246 	"/>
	<polygon display="inline" fill="#EF233C" points="210.904,449.654 210.904,560.132 261.122,535.019 261.122,419.527 	"/>
	<polygon display="inline" fill="#D90429" points="210.904,560.132 195.842,595.281 261.122,535.019 	"/>
	<polygon display="inline" fill="#D90429" points="210.904,373.775 50.214,373.775 80.345,328.58 175.755,328.58 	"/>
	<rect x="50.214" y="373.775" display="inline" fill="#CC0937" width="160.69" height="30.127"/>
	<rect x="50.214" y="449.654" display="inline" fill="#CC0937" width="160.69" height="110.479"/>
	<polygon display="inline" fill="#C80234" points="50.214,560.132 210.904,560.132 195.842,595.281 65.28,595.281 	"/>
	<polygon display="inline" fill="#2B2D42" points="50.214,449.654 0,419.527 0,540.044 50.214,560.132 	"/>
	<polygon display="inline" fill="#212333" points="50.214,560.132 0,540.044 65.28,595.281 	"/>
	<polygon display="inline" fill="#363951" points="50.214,373.775 0,354.246 50.214,318.537 80.345,328.58 	"/>
	<polygon display="inline" fill="#2B2D42" points="0,354.246 50.214,373.775 50.214,403.902 0,384.375 	"/>
	<polyline display="inline" fill="#EF233C" points="85.366,313.513 50.214,318.537 80.345,328.58 175.755,328.58 210.904,318.537 
		170.733,313.513 	"/>
	<polyline display="inline" fill="#636363" points="96.687,315.968 72.176,319.33 93.184,326.054 159.709,326.054 184.219,319.33 
		156.209,315.968 	"/>
	<rect x="65.28" y="464.72" display="inline" fill="#AF0B3A" width="130.562" height="80.348"/>
	<rect x="70.302" y="464.72" display="inline" fill="#CC0937" width="125.539" height="75.324"/>
	<path display="inline" fill="none" d="M30.181,403.65"/>
	<path display="inline" fill="none" d="M258.46,370.169"/>
	<line display="inline" fill="none" x1="33.323" y1="390.406" x2="9.607" y2="390.406"/>
	<polygon display="inline" fill="#CC0530" points="223.558,456.82 248.47,441.873 248.47,527.203 223.558,539.66 	"/>
	<polygon display="inline" fill="#D90429" points="223.655,454.558 246.056,443.38 246.056,524.941 223.655,537.394 	"/>
	<polygon display="inline" fill="#1F202D" points="36.117,462.806 11.207,447.861 11.207,533.189 36.117,545.646 	"/>
	<polygon display="inline" fill="#282A3A" points="36.019,460.544 13.617,449.365 13.617,530.929 36.019,543.384 	"/>
	<rect x="87.876" y="514.935" display="inline" fill="#C80234" width="92.9" height="1.885"/>
	<rect x="87.876" y="489.826" display="inline" fill="#C80234" width="92.9" height="1.883"/>
	<rect x="86.623" y="515.564" display="inline" fill="#EDF2F4" width="92.898" height="1.881"/>
	<rect x="86.623" y="490.457" display="inline" fill="#EDF2F4" width="92.898" height="1.883"/>
	
		<rect x="129.39" y="525.441" transform="matrix(-0.707 0.7072 -0.7072 -0.707 600.8635 808.928)" display="inline" fill="#2B2D42" width="6.968" height="6.967"/>
	
		<rect x="116.456" y="525.339" transform="matrix(-0.7071 0.7071 -0.7071 -0.7071 578.6825 817.9454)" display="inline" fill="#2B2D42" width="6.966" height="6.966"/>
	
		<rect x="143.223" y="525.44" transform="matrix(-0.707 0.7072 -0.7072 -0.707 624.4769 799.1455)" display="inline" fill="#2B2D42" width="6.968" height="6.968"/>
	
		<rect x="128.513" y="526.412" transform="matrix(-0.707 0.7072 -0.7072 -0.707 600.0536 811.2068)" display="inline" fill="#EDF2F4" width="6.968" height="6.968"/>
	<polygon display="inline" fill="#EDF2F4" points="123.976,529.822 119.05,534.746 114.124,529.822 119.05,524.892 	"/>
	
		<rect x="142.343" y="526.416" transform="matrix(-0.707 0.7072 -0.7072 -0.707 623.6902 801.3845)" display="inline" fill="#EDF2F4" width="6.967" height="6.967"/>
	
		<rect x="129.395" y="476.302" transform="matrix(-0.7072 0.707 -0.707 -0.7072 566.0728 725.1272)" display="inline" fill="#2B2D42" width="6.967" height="6.965"/>
	
		<rect x="116.457" y="476.204" transform="matrix(-0.7071 0.7071 -0.7071 -0.7071 543.9398 734.0668)" display="inline" fill="#2B2D42" width="6.966" height="6.965"/>
	
		<rect x="143.227" y="476.3" transform="matrix(-0.7072 0.707 -0.707 -0.7072 589.6625 715.3896)" display="inline" fill="#2B2D42" width="6.967" height="6.967"/>
	
		<rect x="128.529" y="477.323" transform="matrix(-0.7074 0.7068 -0.7068 -0.7074 565.2421 727.6107)" display="inline" fill="#EDF2F4" width="6.966" height="6.965"/>
	
		<rect x="115.548" y="477.221" transform="matrix(-0.7071 0.7071 -0.7071 -0.7071 543.1081 736.4464)" display="inline" fill="#EDF2F4" width="6.966" height="6.967"/>
	
		<rect x="142.346" y="477.278" transform="matrix(-0.7072 0.707 -0.707 -0.7072 588.8473 717.6804)" display="inline" fill="#EDF2F4" width="6.965" height="6.965"/>
	
		<circle display="inline" fill="none" stroke="#A2A5A2" stroke-width="7" stroke-miterlimit="10" cx="128.716" cy="302.19" r="13.674"/>
	
		<circle display="inline" fill="none" stroke="#848484" stroke-width="7" stroke-miterlimit="10" cx="127.663" cy="303.246" r="13.674"/>
	<g display="inline">
		<text transform="matrix(1 0 0 1 78.2849 510.8101)" fill="#EDF2F4" font-family="'Bungee-Regular'" font-size="18.5384">PROSHOWS</text>
	</g>
</g>
<g id="Layer_2">
	<polygon fill="#441337" points="0,419.449 70.245,409.414 190.665,409.414 260.908,419.449 260.908,534.847 0,539.867 	"/>
	<rect x="70.245" y="409.414" fill="#591645" width="120.42" height="150.523"/>
	<path fill="#441337" d="M74.703,467.113c0,2.619-2.121,4.738-4.738,4.738l0,0c-2.618,0-4.738-2.119-4.738-4.738v-73.588
		c0-2.617,2.121-4.74,4.738-4.74l0,0c2.617,0,4.738,2.123,4.738,4.74V467.113z"/>
	<path fill="#441337" d="M195.401,464.761c0,2.619-2.119,4.738-4.736,4.738l0,0c-2.618,0-4.738-2.119-4.738-4.738v-73.59
		c0-2.615,2.12-4.74,4.738-4.74l0,0c2.617,0,4.736,2.125,4.736,4.74V464.761z"/>
	<rect x="205.189" y="373.472" fill="#3F3F3F" width="9.664" height="122.162"/>
	<rect x="204.385" y="373.472" fill="#591645" width="2.985" height="122.162"/>
	<path fill="#FCB017" d="M215.317,436.898c0,0.982-0.312,1.783-0.689,1.783l0,0c-0.378,0-0.686-0.801-0.686-1.783V385.06
		c0-0.982,0.308-1.785,0.686-1.785l0,0c0.379,0,0.689,0.803,0.689,1.785V436.898z"/>
	<rect x="45.744" y="376.208" fill="#3F3F3F" width="9.666" height="122.158"/>
	<rect x="44.939" y="376.208" fill="#591645" width="2.986" height="122.158"/>
	<polygon fill="#1C7293" points="175.612,328.576 210.732,373.734 259.792,354.22 210.732,318.542 	"/>
	<polygon fill="#2283A0" points="210.732,373.734 210.732,403.837 259.792,384.326 259.792,354.22 	"/>
	<polygon fill="#2283A0" points="210.732,449.552 210.732,559.937 260.908,534.847 260.908,419.449 	"/>
	<polygon fill="#065A82" points="210.732,559.937 195.681,595.058 260.908,534.847 	"/>
	<polygon fill="#065A82" points="210.732,373.734 50.173,373.734 80.279,328.576 175.612,328.576 	"/>
	<rect x="50.173" y="373.734" fill="#1B3B6F" width="160.56" height="30.104"/>
	<rect x="50.173" y="449.552" fill="#1B3B6F" width="160.56" height="110.387"/>
	<polygon fill="#1B3A60" points="50.173,559.937 210.732,559.937 195.681,595.058 65.226,595.058 	"/>
	<polygon fill="#985277" points="50.173,449.552 0,419.449 0,539.867 50.173,559.937 	"/>
	<polygon fill="#5C374C" points="50.173,559.937 0,539.867 65.226,595.058 	"/>
	<polygon fill="#CE6A85" points="50.173,373.734 0,354.22 50.173,318.542 80.279,328.576 	"/>
	<polygon fill="#985277" points="0,354.22 50.173,373.734 50.173,403.837 0,384.326 	"/>
	<polyline fill="#9EB3C2" points="85.296,313.523 50.173,318.542 80.279,328.576 175.612,328.576 210.732,318.542 170.594,313.523 	
		"/>
	<polyline fill="#636363" points="96.608,315.976 72.117,319.335 93.107,326.054 159.579,326.054 184.068,319.335 156.082,315.976 	
		"/>
	<rect x="65.226" y="464.607" fill="#21295C" width="130.455" height="80.277"/>
	<rect x="70.245" y="464.607" fill="#1B3B6F" width="125.437" height="75.26"/>
	<path fill="none" d="M30.156,403.585"/>
	<path fill="none" d="M258.249,370.132"/>
	<line fill="none" x1="33.296" y1="390.353" x2="9.6" y2="390.353"/>
	<polygon fill="#1B3B6F" points="223.375,456.712 248.267,441.777 248.267,527.037 223.375,539.482 	"/>
	<polygon fill="#1C7293" points="223.472,454.453 245.854,443.285 245.854,524.777 223.472,537.22 	"/>
	<polygon fill="#771753" points="36.088,462.693 11.197,447.759 11.197,533.019 36.088,545.464 	"/>
	<polygon fill="#8C4C71" points="35.99,460.433 13.606,449.261 13.606,530.759 35.99,543.205 	"/>
	<rect x="87.804" y="514.779" fill="#C80234" width="92.824" height="1.885"/>
	<rect x="87.804" y="489.691" fill="#C80234" width="92.824" height="1.881"/>
	<rect x="86.552" y="515.408" fill="#EDF2F4" width="92.822" height="1.881"/>
	<rect x="86.552" y="490.322" fill="#EDF2F4" width="92.822" height="1.881"/>
	<polygon fill="#C80234" points="137.694,528.755 132.771,533.681 127.85,528.755 132.771,523.835 	"/>
	
		<rect x="116.361" y="525.176" transform="matrix(-0.7072 0.707 -0.707 -0.7072 578.369 817.7749)" fill="#C80234" width="6.961" height="6.959"/>
	<polygon fill="#C80234" points="151.517,528.755 146.594,533.681 141.67,528.755 146.594,523.835 	"/>
	
		<rect x="128.38" y="526.292" transform="matrix(-0.707 0.7072 -0.7072 -0.707 599.7349 811.0928)" fill="#EDF2F4" width="6.963" height="6.963"/>
	<polygon fill="#EDF2F4" points="123.874,529.654 118.953,534.574 114.03,529.654 118.953,524.728 	"/>
	
		<rect x="142.212" y="526.272" transform="matrix(-0.707 0.7072 -0.7072 -0.707 623.3322 801.276)" fill="#EDF2F4" width="6.963" height="6.961"/>
	
		<rect x="129.299" y="476.158" transform="matrix(-0.7072 0.707 -0.707 -0.7072 565.8008 724.9469)" fill="#C80234" width="6.961" height="6.96"/>
	
		<rect x="116.362" y="476.08" transform="matrix(-0.7071 0.7071 -0.7071 -0.7071 543.6826 733.9174)" fill="#C80234" width="6.961" height="6.959"/>
	
		<rect x="143.108" y="476.178" transform="matrix(-0.707 0.7072 -0.7072 -0.707 589.4381 715.1318)" fill="#C80234" width="6.963" height="6.963"/>
	
		<rect x="128.425" y="477.197" transform="matrix(-0.7073 0.7069 -0.7069 -0.7073 564.9919 727.4257)" fill="#EDF2F4" width="6.96" height="6.961"/>
	
		<rect x="115.466" y="477.075" transform="matrix(-0.707 0.7072 -0.7072 -0.707 542.9089 736.167)" fill="#EDF2F4" width="6.962" height="6.961"/>
	
		<rect x="142.208" y="477.193" transform="matrix(-0.7073 0.7069 -0.7069 -0.7073 588.5208 717.6741)" fill="#EDF2F4" width="6.96" height="6.959"/>
	<circle fill="none" stroke="#A2A5A2" stroke-width="7" stroke-miterlimit="10" cx="128.611" cy="302.209" r="13.662"/>
	<circle fill="none" stroke="#848484" stroke-width="7" stroke-miterlimit="10" cx="127.558" cy="303.264" r="13.662"/>
	<text transform="matrix(1 0 0 1 79.5066 508.4019)" fill="#CC0937" font-family="'Bungee-Regular'" font-size="16.9796">CONTACT US</text>
	<g>
		<text transform="matrix(1 0 0 1 77.9626 509.9468)" fill="#EDF2F4" font-family="'Bungee-Regular'" font-size="16.9796">CONTACT US</text>
	</g>
</g>
</svg>
