<?xml version="1.0" encoding="utf-8"?>
<!-- Generator: Adobe Illustrator 16.0.0, SVG Export Plug-In . SVG Version: 6.00 Build 0)  -->
<!DOCTYPE svg PUBLIC "-//W3C//DTD SVG 1.1//EN" "http://www.w3.org/Graphics/SVG/1.1/DTD/svg11.dtd">
<svg version="1.1" id="Layer_1" xmlns="http://www.w3.org/2000/svg" xmlns:xlink="http://www.w3.org/1999/xlink" x="0px" y="0px"
	 width="261.122px" height="311.141px" viewBox="0 284.14 261.122 311.141" enable-background="new 0 284.14 261.122 311.141"
	 xml:space="preserve">
<polygon fill="#441337" points="0,419.527 70.302,409.484 190.821,409.484 261.122,419.527 261.122,535.019 0,540.044 "/>
<rect x="70.302" y="409.484" fill="#591645" width="120.519" height="150.646"/>
<path fill="#441337" d="M74.765,467.228c0,2.621-2.123,4.744-4.742,4.744l0,0c-2.621,0-4.743-2.123-4.743-4.744v-73.646
	c0-2.621,2.123-4.742,4.743-4.742l0,0c2.619,0,4.742,2.121,4.742,4.742V467.228L74.765,467.228z"/>
<path fill="#441337" d="M195.561,464.876c0,2.621-2.121,4.742-4.74,4.742l0,0c-2.62,0-4.743-2.121-4.743-4.742v-73.65
	c0-2.617,2.123-4.742,4.743-4.742l0,0c2.619,0,4.74,2.125,4.74,4.742V464.876z"/>
<rect x="205.357" y="373.511" fill="#3F3F3F" width="9.672" height="122.264"/>
<rect x="204.553" y="373.511" fill="#591645" width="2.988" height="122.264"/>
<path fill="#FCB017" d="M215.494,436.99c0,0.982-0.311,1.785-0.688,1.785l0,0c-0.379,0-0.688-0.803-0.688-1.785v-51.881
	c0-0.984,0.309-1.785,0.688-1.785l0,0c0.378,0,0.688,0.801,0.688,1.785V436.99z"/>
<rect x="45.782" y="376.25" fill="#3F3F3F" width="9.673" height="122.262"/>
<rect x="44.976" y="376.25" fill="#591645" width="2.989" height="122.262"/>
<polygon fill="#F42246" points="175.755,328.58 210.904,373.775 260.005,354.246 210.904,318.537 "/>
<polygon fill="#EF233C" points="210.904,373.775 210.904,403.902 260.005,384.375 260.005,354.246 "/>
<polygon fill="#EF233C" points="210.904,449.654 210.904,560.132 261.122,535.019 261.122,419.527 "/>
<polygon fill="#D90429" points="210.904,560.132 195.842,595.281 261.122,535.019 "/>
<polygon fill="#D90429" points="210.904,373.775 50.214,373.775 80.345,328.58 175.755,328.58 "/>
<rect x="50.214" y="373.775" fill="#CC0937" width="160.69" height="30.127"/>
<rect x="50.214" y="449.654" fill="#CC0937" width="160.69" height="110.479"/>
<polygon fill="#C80234" points="50.214,560.132 210.904,560.132 195.842,595.281 65.28,595.281 "/>
<polygon fill="#2B2D42" points="50.214,449.654 0,419.527 0,540.044 50.214,560.132 "/>
<polygon fill="#212333" points="50.214,560.132 0,540.044 65.28,595.281 "/>
<polygon fill="#363951" points="50.214,373.775 0,354.246 50.214,318.537 80.345,328.58 "/>
<polygon fill="#2B2D42" points="0,354.246 50.214,373.775 50.214,403.902 0,384.375 "/>
<polyline fill="#EF233C" points="85.366,313.513 50.214,318.537 80.345,328.58 175.755,328.58 210.904,318.537 170.733,313.513 "/>
<polyline fill="#636363" points="96.687,315.968 72.176,319.33 93.184,326.054 159.709,326.054 184.219,319.33 156.209,315.968 "/>
<rect x="65.28" y="464.72" fill="#AF0B3A" width="130.562" height="80.348"/>
<rect x="70.302" y="464.72" fill="#CC0937" width="125.539" height="75.324"/>
<path fill="none" d="M30.181,403.65"/>
<path fill="none" d="M258.46,370.169"/>
<line fill="none" x1="33.323" y1="390.406" x2="9.607" y2="390.406"/>
<polygon fill="#CC0530" points="223.558,456.82 248.47,441.873 248.47,527.203 223.558,539.66 "/>
<polygon fill="#D90429" points="223.655,454.558 246.056,443.38 246.056,524.941 223.655,537.394 "/>
<polygon fill="#1F202D" points="36.117,462.806 11.207,447.861 11.207,533.189 36.117,545.646 "/>
<polygon fill="#282A3A" points="36.019,460.544 13.617,449.365 13.617,530.929 36.019,543.384 "/>
<rect x="87.876" y="514.935" fill="#C80234" width="92.9" height="1.885"/>
<rect x="87.876" y="489.826" fill="#C80234" width="92.9" height="1.883"/>
<rect x="86.623" y="515.564" fill="#EDF2F4" width="92.898" height="1.881"/>
<rect x="86.623" y="490.457" fill="#EDF2F4" width="92.898" height="1.883"/>
<rect x="129.39" y="525.441" transform="matrix(-0.707 0.7072 -0.7072 -0.707 600.8635 808.928)" fill="#2B2D42" width="6.968" height="6.967"/>
<rect x="116.456" y="525.339" transform="matrix(-0.7071 0.7071 -0.7071 -0.7071 578.6825 817.9454)" fill="#2B2D42" width="6.966" height="6.966"/>
<rect x="143.223" y="525.44" transform="matrix(-0.707 0.7072 -0.7072 -0.707 624.4769 799.1455)" fill="#2B2D42" width="6.968" height="6.968"/>
<rect x="128.513" y="526.412" transform="matrix(-0.707 0.7072 -0.7072 -0.707 600.0536 811.2068)" fill="#EDF2F4" width="6.968" height="6.968"/>
<polygon fill="#EDF2F4" points="123.976,529.822 119.05,534.746 114.124,529.822 119.05,524.892 "/>
<rect x="142.343" y="526.416" transform="matrix(-0.707 0.7072 -0.7072 -0.707 623.6902 801.3845)" fill="#EDF2F4" width="6.967" height="6.967"/>
<rect x="129.395" y="476.302" transform="matrix(-0.7072 0.707 -0.707 -0.7072 566.0728 725.1272)" fill="#2B2D42" width="6.967" height="6.965"/>
<rect x="116.457" y="476.204" transform="matrix(-0.7071 0.7071 -0.7071 -0.7071 543.9398 734.0668)" fill="#2B2D42" width="6.966" height="6.965"/>
<rect x="143.227" y="476.3" transform="matrix(-0.7072 0.707 -0.707 -0.7072 589.6625 715.3896)" fill="#2B2D42" width="6.967" height="6.967"/>
<rect x="128.529" y="477.323" transform="matrix(-0.7074 0.7068 -0.7068 -0.7074 565.2421 727.6107)" fill="#EDF2F4" width="6.966" height="6.965"/>
<rect x="115.548" y="477.221" transform="matrix(-0.7071 0.7071 -0.7071 -0.7071 543.1081 736.4464)" fill="#EDF2F4" width="6.966" height="6.967"/>
<rect x="142.346" y="477.278" transform="matrix(-0.7072 0.707 -0.707 -0.7072 588.8473 717.6804)" fill="#EDF2F4" width="6.965" height="6.965"/>
<circle fill="none" stroke="#A2A5A2" stroke-width="7" stroke-miterlimit="10" cx="128.716" cy="302.19" r="13.674"/>
<circle fill="none" stroke="#848484" stroke-width="7" stroke-miterlimit="10" cx="127.663" cy="303.246" r="13.674"/>
<g>
	<g enable-background="new    ">
		<path fill="#EDF2F4" d="M83.105,510.81h-2.874c-0.235,0-0.405-0.053-0.51-0.157c-0.105-0.105-0.157-0.275-0.157-0.51v-12.014
			c0-0.234,0.052-0.404,0.157-0.51c0.105-0.104,0.275-0.157,0.51-0.157h5.673c1.681,0,2.83,0.334,3.448,1.001
			c0.618,0.668,0.927,1.539,0.927,2.614v2.373c0,1.075-0.309,1.946-0.927,2.613c-0.618,0.668-1.768,1.001-3.448,1.001h-2.132v3.078
			c0,0.234-0.053,0.404-0.158,0.51C83.51,510.757,83.34,510.81,83.105,510.81z M83.735,500.929v2.799h1.668
			c0.358,0,0.593-0.093,0.705-0.277c0.111-0.186,0.167-0.396,0.167-0.631v-0.982c0-0.234-0.056-0.445-0.167-0.63
			c-0.111-0.186-0.346-0.278-0.705-0.278H83.735z"/>
		<path fill="#EDF2F4" d="M95.729,510.81h-2.855c-0.235,0-0.405-0.053-0.51-0.157c-0.105-0.105-0.157-0.275-0.157-0.51v-12.014
			c0-0.234,0.052-0.404,0.157-0.51c0.105-0.104,0.275-0.157,0.51-0.157h6.173c1.384,0,2.339,0.287,2.864,0.862
			c0.525,0.574,0.788,1.319,0.788,2.233v0.853c0,0.52-0.078,0.962-0.232,1.326c-0.155,0.364-0.423,0.627-0.806,0.788
			c0.667,0.073,1.208,0.346,1.622,0.815c0.414,0.47,0.621,1.094,0.621,1.872v3.931c0,0.234-0.053,0.404-0.158,0.51
			c-0.105,0.104-0.275,0.157-0.51,0.157h-2.874c-0.235,0-0.405-0.053-0.51-0.157c-0.105-0.105-0.158-0.275-0.158-0.51v-2.837
			c0-0.271-0.053-0.473-0.157-0.603c-0.105-0.13-0.288-0.194-0.547-0.194h-2.595v3.634c0,0.234-0.053,0.404-0.158,0.51
			C96.134,510.757,95.964,510.81,95.729,510.81z M96.397,500.799v2.373h1.391c0.321,0,0.538-0.084,0.648-0.25
			c0.111-0.167,0.167-0.374,0.167-0.621v-0.631c0-0.247-0.056-0.454-0.167-0.621c-0.111-0.167-0.327-0.25-0.648-0.25H96.397z"/>
		<path fill="#EDF2F4" d="M117.197,507.306c0,0.568-0.083,1.085-0.25,1.548c-0.167,0.464-0.463,0.859-0.89,1.187
			c-0.426,0.328-1.013,0.584-1.761,0.77c-0.748,0.186-1.696,0.278-2.846,0.278s-2.102-0.093-2.855-0.278
			c-0.754-0.186-1.344-0.441-1.771-0.77c-0.426-0.327-0.723-0.723-0.89-1.187c-0.167-0.463-0.25-0.979-0.25-1.548v-6.321
			c0-0.568,0.083-1.085,0.25-1.548c0.167-0.464,0.463-0.862,0.89-1.196c0.426-0.333,1.017-0.593,1.771-0.778
			c0.753-0.186,1.706-0.278,2.855-0.278s2.098,0.093,2.846,0.278c0.748,0.186,1.334,0.445,1.761,0.778
			c0.427,0.334,0.723,0.732,0.89,1.196c0.167,0.463,0.25,0.979,0.25,1.548V507.306z M109.893,506.639
			c0,0.247,0.093,0.454,0.278,0.621s0.612,0.25,1.279,0.25c0.667,0,1.094-0.083,1.279-0.25c0.186-0.167,0.278-0.374,0.278-0.621
			v-4.987c0-0.234-0.093-0.436-0.278-0.603c-0.185-0.167-0.612-0.25-1.279-0.25c-0.667,0-1.094,0.083-1.279,0.25
			s-0.278,0.368-0.278,0.603V506.639z"/>
		<path fill="#EDF2F4" d="M125.743,510.81h-5.858c-0.235,0-0.405-0.053-0.51-0.157c-0.105-0.105-0.158-0.275-0.158-0.51v-2.169
			c0-0.235,0.053-0.405,0.158-0.51c0.105-0.105,0.275-0.158,0.51-0.158h4.987c0.161,0,0.281-0.053,0.361-0.157
			c0.081-0.105,0.121-0.231,0.121-0.38c0-0.21-0.04-0.365-0.121-0.464c-0.08-0.099-0.201-0.154-0.361-0.167l-2.781-0.389
			c-0.865-0.124-1.561-0.408-2.085-0.854c-0.525-0.444-0.788-1.187-0.788-2.225v-1.946c0-1.05,0.34-1.856,1.02-2.419
			s1.619-0.844,2.818-0.844h5.191c0.235,0,0.405,0.053,0.51,0.157c0.105,0.105,0.158,0.275,0.158,0.51v2.206
			c0,0.235-0.053,0.405-0.158,0.51c-0.105,0.105-0.275,0.158-0.51,0.158h-4.319c-0.161,0-0.285,0.053-0.371,0.157
			c-0.086,0.105-0.129,0.238-0.129,0.398c0,0.161,0.043,0.297,0.129,0.408s0.21,0.173,0.371,0.186l2.762,0.37
			c0.865,0.124,1.563,0.408,2.095,0.854c0.531,0.444,0.797,1.187,0.797,2.225v1.946c0,1.051-0.343,1.857-1.029,2.419
			C127.866,510.529,126.929,510.81,125.743,510.81z"/>
		<path fill="#EDF2F4" d="M135.142,510.81h-2.874c-0.235,0-0.405-0.053-0.51-0.157c-0.105-0.105-0.157-0.275-0.157-0.51v-12.014
			c0-0.234,0.052-0.404,0.157-0.51c0.105-0.104,0.275-0.157,0.51-0.157h2.874c0.235,0,0.405,0.053,0.51,0.157
			c0.105,0.105,0.158,0.275,0.158,0.51v4.023h3.096v-4.023c0-0.234,0.052-0.404,0.157-0.51c0.105-0.104,0.275-0.157,0.51-0.157
			h2.874c0.235,0,0.405,0.053,0.51,0.157c0.105,0.105,0.158,0.275,0.158,0.51v12.014c0,0.234-0.053,0.404-0.158,0.51
			c-0.105,0.104-0.275,0.157-0.51,0.157h-2.874c-0.235,0-0.405-0.053-0.51-0.157c-0.105-0.105-0.157-0.275-0.157-0.51v-4.116h-3.096
			v4.116c0,0.234-0.053,0.404-0.158,0.51C135.547,510.757,135.377,510.81,135.142,510.81z"/>
		<path fill="#EDF2F4" d="M156.98,507.306c0,0.568-0.083,1.085-0.25,1.548c-0.167,0.464-0.463,0.859-0.89,1.187
			c-0.426,0.328-1.013,0.584-1.761,0.77c-0.748,0.186-1.696,0.278-2.846,0.278s-2.102-0.093-2.855-0.278
			c-0.754-0.186-1.344-0.441-1.771-0.77c-0.426-0.327-0.723-0.723-0.89-1.187c-0.167-0.463-0.25-0.979-0.25-1.548v-6.321
			c0-0.568,0.083-1.085,0.25-1.548c0.167-0.464,0.463-0.862,0.89-1.196c0.426-0.333,1.017-0.593,1.771-0.778
			c0.753-0.186,1.706-0.278,2.855-0.278s2.098,0.093,2.846,0.278c0.748,0.186,1.334,0.445,1.761,0.778
			c0.427,0.334,0.723,0.732,0.89,1.196c0.167,0.463,0.25,0.979,0.25,1.548V507.306z M149.676,506.639
			c0,0.247,0.093,0.454,0.278,0.621s0.612,0.25,1.279,0.25c0.667,0,1.094-0.083,1.279-0.25c0.186-0.167,0.278-0.374,0.278-0.621
			v-4.987c0-0.234-0.093-0.436-0.278-0.603c-0.185-0.167-0.612-0.25-1.279-0.25c-0.667,0-1.094,0.083-1.279,0.25
			s-0.278,0.368-0.278,0.603V506.639z"/>
		<path fill="#EDF2F4" d="M168.919,497.462h2.762c0.235,0,0.405,0.053,0.51,0.157c0.104,0.105,0.157,0.275,0.157,0.51v7.193
			c0,0.396-0.016,0.764-0.046,1.103c-0.031,0.341-0.126,0.739-0.287,1.196l-0.927,2.521c-0.062,0.185-0.152,0.343-0.269,0.473
			c-0.118,0.13-0.275,0.194-0.473,0.194h-2.466c-0.198,0-0.377-0.043-0.538-0.13c-0.161-0.086-0.266-0.229-0.315-0.426l-0.853-3.022
			c-0.037-0.123-0.083-0.207-0.139-0.25s-0.121-0.064-0.195-0.064h-0.167c-0.074,0-0.139,0.021-0.194,0.064s-0.102,0.127-0.139,0.25
			l-0.872,3.022c-0.049,0.185-0.142,0.324-0.278,0.417c-0.136,0.093-0.303,0.139-0.5,0.139h-2.447c-0.198,0-0.368-0.062-0.51-0.186
			c-0.142-0.123-0.244-0.284-0.306-0.481l-0.927-2.559c-0.161-0.457-0.256-0.855-0.287-1.196c-0.031-0.339-0.046-0.707-0.046-1.103
			v-7.156c0-0.234,0.052-0.404,0.158-0.51c0.104-0.104,0.275-0.157,0.51-0.157h2.855c0.234,0,0.404,0.053,0.51,0.157
			c0.104,0.105,0.157,0.275,0.157,0.51v6.822l1.076-2.336c0.099-0.21,0.229-0.358,0.389-0.444c0.16-0.087,0.358-0.13,0.593-0.13
			h0.778c0.235,0,0.433,0.043,0.593,0.13c0.161,0.086,0.291,0.234,0.39,0.444l1.075,2.336v-6.822c0-0.234,0.052-0.404,0.157-0.51
			C168.514,497.515,168.684,497.462,168.919,497.462z"/>
		<path fill="#EDF2F4" d="M180.932,510.81h-5.858c-0.235,0-0.405-0.053-0.51-0.157c-0.105-0.105-0.158-0.275-0.158-0.51v-2.169
			c0-0.235,0.053-0.405,0.158-0.51c0.105-0.105,0.275-0.158,0.51-0.158h4.987c0.161,0,0.281-0.053,0.361-0.157
			c0.081-0.105,0.121-0.231,0.121-0.38c0-0.21-0.04-0.365-0.121-0.464c-0.08-0.099-0.201-0.154-0.361-0.167l-2.781-0.389
			c-0.865-0.124-1.561-0.408-2.085-0.854c-0.525-0.444-0.788-1.187-0.788-2.225v-1.946c0-1.05,0.34-1.856,1.02-2.419
			s1.619-0.844,2.818-0.844h5.191c0.235,0,0.405,0.053,0.51,0.157c0.105,0.105,0.158,0.275,0.158,0.51v2.206
			c0,0.235-0.053,0.405-0.158,0.51c-0.105,0.105-0.275,0.158-0.51,0.158h-4.319c-0.161,0-0.285,0.053-0.371,0.157
			c-0.086,0.105-0.129,0.238-0.129,0.398c0,0.161,0.043,0.297,0.129,0.408s0.21,0.173,0.371,0.186l2.762,0.37
			c0.865,0.124,1.563,0.408,2.095,0.854c0.531,0.444,0.797,1.187,0.797,2.225v1.946c0,1.051-0.343,1.857-1.029,2.419
			C183.054,510.529,182.118,510.81,180.932,510.81z"/>
	</g>
</g>
</svg>
