<?xml version="1.0" encoding="utf-8"?>
<!-- Generator: Adobe Illustrator 16.0.0, SVG Export Plug-In . SVG Version: 6.00 Build 0)  -->
<!DOCTYPE svg PUBLIC "-//W3C//DTD SVG 1.1//EN" "http://www.w3.org/Graphics/SVG/1.1/DTD/svg11.dtd">
<svg version="1.1" xmlns="http://www.w3.org/2000/svg" xmlns:xlink="http://www.w3.org/1999/xlink" x="0px" y="0px"
	 width="711.083px" height="712.262px" viewBox="0 0 711.083 712.262" enable-background="new 0 0 711.083 712.262"
	 xml:space="preserve">
<g id="Layer_1">
	<rect x="354.851" y="262.646" fill="#FCB017" width="2.068" height="57.854"/>
	<g>
		<defs>
			<rect id="SVGID_1_" x="-20" y="-97.071" width="376.691" height="453.167"/>
		</defs>
		<clipPath id="SVGID_2_">
			<use xlink:href="#SVGID_1_"  overflow="visible"/>
		</clipPath>
		
			<circle clip-path="url(#SVGID_2_)" fill="none" stroke="#591645" stroke-width="18" stroke-miterlimit="10" cx="367.153" cy="366.612" r="357.829"/>
		
			<circle clip-path="url(#SVGID_2_)" fill="none" stroke="#3A3A3A" stroke-width="12" stroke-miterlimit="10" cx="358.524" cy="356.934" r="212.177"/>
		<path clip-path="url(#SVGID_2_)" fill="#333333" d="M168.062,340.863H339.67L217.632,218.826c-2.25-2.25-2.249-5.896,0-8.146
			c2.25-2.25,5.897-2.251,8.148-0.001l120.291,120.291V159.143c0-3.273,2.579-5.928,5.761-5.928s5.761,2.654,5.761,5.928v187.314
			c0,3.274-2.579,5.928-5.761,5.928c-0.291,0-0.576-0.03-0.855-0.073c-0.284,0.044-0.573,0.073-0.869,0.073H168.062
			c-3.182,0-5.761-2.58-5.761-5.761S164.88,340.863,168.062,340.863z"/>
		<circle display="none" clip-path="url(#SVGID_2_)" fill="#455B4A" cx="363.592" cy="361.675" r="129.58"/>
		
			<rect x="332.67" y="247.584" transform="matrix(-0.9848 0.1736 -0.1736 -0.9848 713.3193 438.827)" display="none" clip-path="url(#SVGID_2_)" fill="#F7B32B" width="9.589" height="6.063"/>
		
			<rect x="314.528" y="252.856" transform="matrix(-0.9397 0.342 -0.342 -0.9397 706.9014 387.1419)" display="none" clip-path="url(#SVGID_2_)" fill="#F7B32B" width="9.589" height="6.063"/>
		
			<rect x="297.578" y="261.199" transform="matrix(-0.866 0.5001 -0.5001 -0.866 696.3546 341.8473)" display="none" clip-path="url(#SVGID_2_)" fill="#F7B32B" width="9.589" height="6.062"/>
		
			<rect x="263.659" y="293.616" transform="matrix(-0.5735 0.8192 -0.8192 -0.5735 665.4283 246.8536)" display="none" clip-path="url(#SVGID_2_)" fill="#F7B32B" width="9.59" height="6.063"/>
		
			<rect x="254.559" y="310.173" transform="matrix(-0.4226 0.9063 -0.9063 -0.4226 652.816 210.493)" display="none" clip-path="url(#SVGID_2_)" fill="#F7B32B" width="9.591" height="6.063"/>
		
			<rect x="248.471" y="328.058" transform="matrix(-0.2587 0.966 -0.966 -0.2587 638.609 172.1052)" display="none" clip-path="url(#SVGID_2_)" fill="#F7B32B" width="9.591" height="6.063"/>
		
			<rect x="343.766" y="264.057" transform="matrix(-0.9849 0.1733 -0.1733 -0.9849 735.1515 521.7922)" display="none" clip-path="url(#SVGID_2_)" fill="#FCF6B1" width="2.068" height="57.855"/>
		
			<rect x="332.869" y="267.412" transform="matrix(-0.9398 0.3417 -0.3417 -0.9398 748.9762 460.7269)" display="none" clip-path="url(#SVGID_2_)" fill="#FCF6B1" width="2.069" height="57.855"/>
		
			<rect x="322.721" y="272.607" transform="matrix(-0.8661 0.4998 -0.4998 -0.8661 754.8862 400.8706)" display="none" clip-path="url(#SVGID_2_)" fill="#FCF6B1" width="2.069" height="57.855"/>
		
			<rect x="302.566" y="292.491" transform="matrix(-0.5734 0.8193 -0.8193 -0.5734 741.0161 256.9863)" display="none" clip-path="url(#SVGID_2_)" fill="#FCF6B1" width="2.069" height="57.855"/>
		
			<rect x="297.234" y="302.568" transform="matrix(-0.4225 0.9064 -0.9064 -0.4225 724.7416 201.2112)" display="none" clip-path="url(#SVGID_2_)" fill="#FCF6B1" width="2.069" height="57.854"/>
		
			<rect x="293.732" y="313.418" transform="matrix(-0.2582 0.9661 -0.9661 -0.2582 701.6044 145.9512)" display="none" clip-path="url(#SVGID_2_)" fill="#FCF6B1" width="2.069" height="57.854"/>
		
			<circle display="none" opacity="0.6" clip-path="url(#SVGID_2_)" fill="none" stroke="#303030" stroke-width="24" stroke-miterlimit="10" cx="375.994" cy="365.007" r="342.951"/>
		
			<circle display="none" clip-path="url(#SVGID_2_)" fill="none" stroke="#C80234" stroke-width="6" stroke-miterlimit="10" cx="358.23" cy="353.7" r="342.951"/>
		
			<circle display="none" clip-path="url(#SVGID_2_)" fill="none" stroke="#91083D" stroke-width="22" stroke-miterlimit="10" cx="363.758" cy="362.262" r="342.951"/>
		
			<circle display="none" opacity="0.6" clip-path="url(#SVGID_2_)" fill="none" stroke="#455B4A" stroke-width="12" stroke-miterlimit="10" cx="373.477" cy="369.08" r="204.99"/>
		
			<circle display="none" clip-path="url(#SVGID_2_)" fill="none" stroke="#6A8270" stroke-width="4" stroke-miterlimit="10" cx="359.29" cy="357.072" r="204.99"/>
		
			<circle display="none" clip-path="url(#SVGID_2_)" fill="none" stroke="#455B4A" stroke-width="14" stroke-miterlimit="10" cx="363.758" cy="362.262" r="204.99"/>
		<path display="none" clip-path="url(#SVGID_2_)" fill="#455B4A" d="M163.882,350.696h180.825L216.115,222.104
			c-2.371-2.37-2.37-6.213,0-8.583c2.371-2.371,6.214-2.372,8.585-0.001l126.751,126.751V159.215c0-3.449,2.718-6.244,6.071-6.244
			c3.352,0,6.069,2.795,6.069,6.244V356.59c0,3.449-2.718,6.246-6.069,6.246c-0.308,0-0.607-0.031-0.902-0.076
			c-0.3,0.046-0.604,0.076-0.916,0.076H163.882c-3.352,0-6.07-2.718-6.07-6.07C157.813,353.414,160.53,350.696,163.882,350.696z"/>
		<path display="none" clip-path="url(#SVGID_2_)" fill="#354438" d="M356.476,356.413c0.361-0.001,0.693-0.412,0.693-0.9V158.137
			c0-0.486-0.332-0.898-0.725-0.898s-0.725,0.412-0.725,0.898v193.962L219.843,216.223c-0.141-0.141-0.313-0.213-0.512-0.213
			c-0.137,0-0.337,0.038-0.513,0.213c-0.176,0.177-0.213,0.376-0.213,0.513c0,0.199,0.071,0.37,0.212,0.512l137.718,137.718h-193.73
			c-0.399,0-0.725,0.324-0.725,0.724c0,0.4,0.325,0.724,0.725,0.724h191.822c0.023-0.001,0.913-0.14,0.913-0.14L356.476,356.413z"/>
		<polygon display="none" clip-path="url(#SVGID_2_)" fill="#354438" points="224.01,223.041 226.656,218.458 224.01,213.875 
			218.718,213.875 216.072,218.458 218.718,223.041 		"/>
		<polygon display="none" clip-path="url(#SVGID_2_)" fill="#4C0623" points="127.21,121.354 125.615,115.398 119.659,113.803 
			115.3,118.162 116.895,124.118 122.851,125.714 		"/>
		<path display="none" clip-path="url(#SVGID_2_)" fill="#6B0A32" d="M350.511,30.645c-3.283,0.184-9.408,0.544-15.447,0.983
			l-5.974-7.119l9.549-8.012L350.511,30.645z"/>
		<path display="none" clip-path="url(#SVGID_2_)" fill="#6B0A32" d="M321.659,33.061c-3.254,0.47-9.324,1.362-15.302,2.326
			l-6.571-6.571l8.813-8.813L321.659,33.061z"/>
		<path display="none" clip-path="url(#SVGID_2_)" fill="#6B0A32" d="M293.127,37.982c-3.2,0.751-9.171,2.17-15.041,3.651
			l-7.119-5.974l8.012-9.549L293.127,37.982z"/>
		<path display="none" clip-path="url(#SVGID_2_)" fill="#6B0A32" d="M265.133,45.372c-3.123,1.027-8.946,2.961-14.666,4.948
			l-7.612-5.33l7.149-10.211L265.133,45.372z"/>
		<path display="none" clip-path="url(#SVGID_2_)" fill="#6B0A32" d="M237.89,55.174c-3.021,1.296-8.654,3.729-14.179,6.208
			l-8.049-4.647l6.233-10.795L237.89,55.174z"/>
		<path display="none" clip-path="url(#SVGID_2_)" fill="#6B0A32" d="M211.604,67.312c-2.896,1.555-8.296,4.47-13.583,7.421
			l-8.423-3.928l5.269-11.297L211.604,67.312z"/>
		<path display="none" clip-path="url(#SVGID_2_)" fill="#6B0A32" d="M186.477,81.695c-2.751,1.801-7.876,5.176-12.886,8.576
			l-8.732-3.179l4.264-11.714L186.477,81.695z"/>
		<path display="none" clip-path="url(#SVGID_2_)" fill="#6B0A32" d="M162.698,98.214c-2.583,2.034-7.395,5.843-12.089,9.667
			l-8.977-2.406l3.227-12.04L162.698,98.214z"/>
		<path display="none" clip-path="url(#SVGID_2_)" fill="#6B0A32" d="M140.45,116.742c-2.396,2.251-6.857,6.465-11.2,10.684
			l-9.152-1.614l2.165-12.275L140.45,116.742z"/>
		<path display="none" clip-path="url(#SVGID_2_)" fill="#6B0A32" d="M119.901,137.139c-2.19,2.451-6.268,7.039-10.226,11.619
			l-9.259-0.811l1.088-12.417L119.901,137.139z"/>
		<path display="none" clip-path="url(#SVGID_2_)" fill="#6B0A32" d="M101.208,159.25c-1.968,2.633-5.63,7.557-9.175,12.465H82.74
			V159.25H101.208z"/>
		<path display="none" clip-path="url(#SVGID_2_)" fill="#6B0A32" d="M84.514,182.904c-1.731,2.795-4.951,8.021-8.053,13.219
			l-9.26,0.811l-1.085-12.418L84.514,182.904z"/>
		<path display="none" clip-path="url(#SVGID_2_)" fill="#6B0A32" d="M69.943,207.926c-1.48,2.934-4.232,8.42-6.869,13.869
			l-9.153,1.614l-2.163-12.276L69.943,207.926z"/>
		<path display="none" clip-path="url(#SVGID_2_)" fill="#6B0A32" d="M57.61,234.12c-1.22,3.052-3.482,8.757-5.635,14.416
			l-8.978,2.405L39.773,238.9L57.61,234.12z"/>
		<path display="none" clip-path="url(#SVGID_2_)" fill="#6B0A32" d="M47.607,261.29c-0.949,3.146-2.707,9.027-4.357,14.853
			l-8.733,3.179l-4.263-11.715L47.607,261.29z"/>
		<path display="none" clip-path="url(#SVGID_2_)" fill="#6B0A32" d="M40.01,289.229c-0.671,3.217-1.909,9.229-3.046,15.176
			l-8.423,3.928l-5.268-11.299L40.01,289.229z"/>
		<path display="none" clip-path="url(#SVGID_2_)" fill="#6B0A32" d="M34.877,317.723c-0.389,3.263-1.098,9.36-1.713,15.384
			l-8.049,4.646l-6.231-10.797L34.877,317.723z"/>
		<circle display="none" clip-path="url(#SVGID_2_)" fill="#1E1E1E" cx="304.042" cy="24.55" r="6.232"/>
		<circle display="none" clip-path="url(#SVGID_2_)" fill="#635644" cx="304.042" cy="24.55" r="4.958"/>
		<circle display="none" clip-path="url(#SVGID_2_)" fill="#F7A014" cx="304.406" cy="24.031" r="4.51"/>
		
			<ellipse transform="matrix(0.9848 -0.1737 0.1737 0.9848 0.5213 53.2705)" display="none" clip-path="url(#SVGID_2_)" fill="#FFFFFF" cx="304.648" cy="23.657" rx="3.41" ry="3.537"/>
		
			<ellipse transform="matrix(0.7068 -0.7074 0.7074 0.7068 72.1672 222.2577)" display="none" clip-path="url(#SVGID_2_)" fill="#F7A014" cx="304.223" cy="24.064" rx="3.499" ry="3.739"/>
		<circle display="none" clip-path="url(#SVGID_2_)" fill="#1E1E1E" cx="246.307" cy="40.05" r="6.233"/>
		<circle display="none" clip-path="url(#SVGID_2_)" fill="#635644" cx="246.307" cy="40.05" r="4.958"/>
		<circle display="none" clip-path="url(#SVGID_2_)" fill="#F7A014" cx="246.575" cy="39.476" r="4.51"/>
		
			<ellipse transform="matrix(0.9397 -0.3421 0.3421 0.9397 1.5214 86.7574)" display="none" clip-path="url(#SVGID_2_)" fill="#FFFFFF" cx="246.748" cy="39.065" rx="3.41" ry="3.536"/>
		
			<ellipse transform="matrix(0.5733 -0.8193 0.8193 0.5733 72.7408 218.7579)" display="none" clip-path="url(#SVGID_2_)" fill="#F7A014" cx="246.4" cy="39.541" rx="3.499" ry="3.74"/>
		<circle display="none" clip-path="url(#SVGID_2_)" fill="#1E1E1E" cx="192.139" cy="65.34" r="6.233"/>
		<circle display="none" clip-path="url(#SVGID_2_)" fill="#635644" cx="192.139" cy="65.34" r="4.958"/>
		<circle display="none" clip-path="url(#SVGID_2_)" fill="#F7A014" cx="192.303" cy="64.729" r="4.51"/>
		
			<ellipse transform="matrix(0.866 -0.5 0.5 0.866 -6.3719 104.8055)" display="none" clip-path="url(#SVGID_2_)" fill="#FFFFFF" cx="192.403" cy="64.294" rx="3.41" ry="3.536"/>
		
			<ellipse transform="matrix(0.4223 -0.9065 0.9065 0.4223 52.2407 211.6145)" display="none" clip-path="url(#SVGID_2_)" fill="#F7A014" cx="192.143" cy="64.822" rx="3.499" ry="3.739"/>
		<circle display="none" clip-path="url(#SVGID_2_)" fill="#1E1E1E" cx="143.187" cy="99.652" r="6.233"/>
		<circle display="none" clip-path="url(#SVGID_2_)" fill="#635644" cx="143.187" cy="99.652" r="4.958"/>
		<circle display="none" clip-path="url(#SVGID_2_)" fill="#F7A014" cx="143.242" cy="99.021" r="4.51"/>
		
			<ellipse transform="matrix(0.766 -0.6428 0.6428 0.766 -29.846 115.1508)" display="none" clip-path="url(#SVGID_2_)" fill="#FFFFFF" cx="143.265" cy="98.576" rx="3.411" ry="3.537"/>
		
			<ellipse transform="matrix(0.2585 -0.966 0.966 0.2585 10.3373 211.7495)" display="none" clip-path="url(#SVGID_2_)" fill="#F7A014" cx="143.1" cy="99.141" rx="3.498" ry="3.739"/>
		<circle display="none" clip-path="url(#SVGID_2_)" fill="#1E1E1E" cx="100.937" cy="141.944" r="6.233"/>
		<circle display="none" clip-path="url(#SVGID_2_)" fill="#635644" cx="100.936" cy="141.944" r="4.958"/>
		<circle display="none" clip-path="url(#SVGID_2_)" fill="#F7A014" cx="100.881" cy="141.313" r="4.51"/>
		
			<ellipse transform="matrix(0.6427 -0.7661 0.7661 0.6427 -71.8984 127.5745)" display="none" clip-path="url(#SVGID_2_)" fill="#FFFFFF" cx="100.826" cy="140.871" rx="3.411" ry="3.537"/>
		
			<ellipse transform="matrix(0.0868 -0.9962 0.9962 0.0868 -48.9059 229.5589)" display="none" clip-path="url(#SVGID_2_)" fill="#F7A014" cx="100.762" cy="141.456" rx="3.499" ry="3.739"/>
		<circle display="none" clip-path="url(#SVGID_2_)" fill="#1E1E1E" cx="66.671" cy="190.93" r="6.232"/>
		<circle display="none" clip-path="url(#SVGID_2_)" fill="#635644" cx="66.671" cy="190.93" r="4.958"/>
		<circle display="none" clip-path="url(#SVGID_2_)" fill="#F7A014" cx="66.507" cy="190.318" r="4.51"/>
		<path display="none" clip-path="url(#SVGID_2_)" fill="#FFFFFF" d="M68.082,186.938c-1.692-0.977-3.826-0.445-4.768,1.188
			c-0.943,1.629-0.335,3.743,1.357,4.722c1.69,0.976,3.824,0.444,4.766-1.188C70.381,190.029,69.773,187.914,68.082,186.938z"/>
		
			<ellipse transform="matrix(-0.0875 -0.9962 0.9962 -0.0875 -117.5229 273.3068)" display="none" clip-path="url(#SVGID_2_)" fill="#F7A014" cx="66.415" cy="190.479" rx="3.499" ry="3.739"/>
		<circle display="none" clip-path="url(#SVGID_2_)" fill="#1E1E1E" cx="41.433" cy="245.122" r="6.232"/>
		<circle display="none" clip-path="url(#SVGID_2_)" fill="#635644" cx="41.433" cy="245.122" r="4.958"/>
		<circle display="none" clip-path="url(#SVGID_2_)" fill="#F7A014" cx="41.166" cy="244.547" r="4.51"/>
		<path display="none" clip-path="url(#SVGID_2_)" fill="#FFFFFF" d="M42.129,240.945c-1.836-0.669-3.846,0.227-4.489,1.997
			c-0.646,1.768,0.321,3.744,2.157,4.414c1.834,0.667,3.844-0.227,4.488-1.997C44.93,243.59,43.965,241.612,42.129,240.945z"/>
		
			<ellipse transform="matrix(-0.2591 -0.9658 0.9658 -0.2591 -184.6084 347.8392)" display="none" clip-path="url(#SVGID_2_)" fill="#F7A014" cx="41.102" cy="244.722" rx="3.499" ry="3.739"/>
		<circle display="none" clip-path="url(#SVGID_2_)" fill="#1E1E1E" cx="25.989" cy="302.873" r="6.232"/>
		<circle display="none" clip-path="url(#SVGID_2_)" fill="#635644" cx="25.989" cy="302.873" r="4.958"/>
		<circle display="none" clip-path="url(#SVGID_2_)" fill="#F7A014" cx="25.625" cy="302.353" r="4.51"/>
		<path display="none" clip-path="url(#SVGID_2_)" fill="#FFFFFF" d="M25.949,298.639c-1.925-0.34-3.748,0.891-4.074,2.746
			c-0.328,1.853,0.966,3.632,2.891,3.973c1.922,0.338,3.746-0.891,4.072-2.746C29.166,300.757,27.872,298.977,25.949,298.639z"/>
		
			<ellipse transform="matrix(-0.4229 -0.9062 0.9062 -0.4229 -237.7279 453.682)" display="none" clip-path="url(#SVGID_2_)" fill="#F7A014" cx="25.593" cy="302.536" rx="3.499" ry="3.739"/>
		<circle display="none" clip-path="url(#SVGID_2_)" fill="#1E1E1E" cx="333.703" cy="20.631" r="6.232"/>
		<circle display="none" clip-path="url(#SVGID_2_)" fill="#635644" cx="333.703" cy="20.63" r="4.958"/>
		<circle display="none" clip-path="url(#SVGID_2_)" fill="#C6BEB3" cx="334.11" cy="20.146" r="4.51"/>
		
			<ellipse transform="matrix(0.9962 -0.0872 0.0872 0.9962 -0.4523 29.231)" display="none" clip-path="url(#SVGID_2_)" fill="#FFFFFF" cx="334.384" cy="19.793" rx="3.41" ry="3.536"/>
		
			<ellipse transform="matrix(0.7658 -0.6431 0.6431 0.7658 65.2458 219.4707)" display="none" clip-path="url(#SVGID_2_)" fill="#C6BEB3" cx="333.925" cy="20.162" rx="3.499" ry="3.739"/>
		<circle display="none" clip-path="url(#SVGID_2_)" fill="#1E1E1E" cx="274.836" cy="31.04" r="6.232"/>
		<circle display="none" clip-path="url(#SVGID_2_)" fill="#635644" cx="274.836" cy="31.04" r="4.958"/>
		<circle display="none" clip-path="url(#SVGID_2_)" fill="#C6BEB3" cx="275.153" cy="30.491" r="4.51"/>
		
			<ellipse transform="matrix(0.9659 -0.2588 0.2588 0.9659 1.594 72.2998)" display="none" clip-path="url(#SVGID_2_)" fill="#FFFFFF" cx="275.361" cy="30.097" rx="3.411" ry="3.535"/>
		
			<ellipse transform="matrix(0.6425 -0.7663 0.7663 0.6425 74.9006 221.6255)" display="none" clip-path="url(#SVGID_2_)" fill="#C6BEB3" cx="274.973" cy="30.54" rx="3.499" ry="3.739"/>
		<circle display="none" clip-path="url(#SVGID_2_)" fill="#1E1E1E" cx="218.671" cy="51.513" r="6.232"/>
		<circle display="none" clip-path="url(#SVGID_2_)" fill="#635644" cx="218.67" cy="51.513" r="4.958"/>
		<circle display="none" clip-path="url(#SVGID_2_)" fill="#C6BEB3" cx="218.888" cy="50.917" r="4.509"/>
		
			<ellipse transform="matrix(0.9063 -0.4227 0.4227 0.9063 -0.8164 97.3022)" display="none" clip-path="url(#SVGID_2_)" fill="#FFFFFF" cx="219.024" cy="50.492" rx="3.41" ry="3.535"/>
		
			<ellipse transform="matrix(0.4998 -0.8661 0.8661 0.4998 65.2361 214.9522)" display="none" clip-path="url(#SVGID_2_)" fill="#C6BEB3" cx="218.719" cy="50.996" rx="3.499" ry="3.739"/>
		<circle display="none" clip-path="url(#SVGID_2_)" fill="#1E1E1E" cx="166.914" cy="81.427" r="6.233"/>
		<circle display="none" clip-path="url(#SVGID_2_)" fill="#635644" cx="166.914" cy="81.427" r="4.959"/>
		<circle display="none" clip-path="url(#SVGID_2_)" fill="#C6BEB3" cx="167.024" cy="80.804" r="4.51"/>
		
			<ellipse transform="matrix(0.8192 -0.5735 0.5735 0.8192 -15.8785 110.3566)" display="none" clip-path="url(#SVGID_2_)" fill="#FFFFFF" cx="167.085" cy="80.361" rx="3.411" ry="3.535"/>
		
			<ellipse transform="matrix(0.3418 -0.9398 0.9398 0.3418 33.8009 210.0797)" display="none" clip-path="url(#SVGID_2_)" fill="#C6BEB3" cx="166.872" cy="80.91" rx="3.499" ry="3.739"/>
		<circle display="none" clip-path="url(#SVGID_2_)" fill="#1E1E1E" cx="121.138" cy="119.875" r="6.232"/>
		<circle display="none" clip-path="url(#SVGID_2_)" fill="#635644" cx="121.138" cy="119.875" r="4.959"/>
		<circle display="none" clip-path="url(#SVGID_2_)" fill="#C6BEB3" cx="121.138" cy="119.242" r="4.51"/>
		
			<ellipse transform="matrix(0.7071 -0.7071 0.7071 0.7071 -48.5253 120.4487)" display="none" clip-path="url(#SVGID_2_)" fill="#FFFFFF" cx="121.121" cy="118.795" rx="3.41" ry="3.536"/>
		
			<ellipse transform="matrix(0.1734 -0.9849 0.9849 0.1734 -17.5411 217.8478)" display="none" clip-path="url(#SVGID_2_)" fill="#C6BEB3" cx="121.007" cy="119.374" rx="3.499" ry="3.739"/>
		<circle display="none" clip-path="url(#SVGID_2_)" fill="#1E1E1E" cx="82.734" cy="165.688" r="6.232"/>
		<circle display="none" clip-path="url(#SVGID_2_)" fill="#635644" cx="82.734" cy="165.688" r="4.958"/>
		<circle display="none" clip-path="url(#SVGID_2_)" fill="#C6BEB3" cx="82.625" cy="165.063" r="4.51"/>
		
			<ellipse transform="matrix(0.5735 -0.8192 0.8192 0.5735 -99.6643 137.8186)" display="none" clip-path="url(#SVGID_2_)" fill="#FFFFFF" cx="82.53" cy="164.628" rx="3.411" ry="3.535"/>
		<path display="none" clip-path="url(#SVGID_2_)" fill="#C6BEB3" d="M82.517,161.719c-2.065,0-3.738,1.568-3.737,3.5
			c0,1.932,1.674,3.498,3.739,3.498c2.065-0.004,3.738-1.568,3.737-3.5C86.256,163.283,84.581,161.717,82.517,161.719z"/>
		<circle display="none" clip-path="url(#SVGID_2_)" fill="#1E1E1E" cx="52.869" cy="217.474" r="6.232"/>
		<circle display="none" clip-path="url(#SVGID_2_)" fill="#635644" cx="52.869" cy="217.475" r="4.959"/>
		<circle display="none" clip-path="url(#SVGID_2_)" fill="#C6BEB3" cx="52.653" cy="216.878" r="4.51"/>
		
			<ellipse transform="matrix(0.4227 -0.9063 0.9063 0.4227 -165.8765 172.5292)" display="none" clip-path="url(#SVGID_2_)" fill="#FFFFFF" cx="52.484" cy="216.465" rx="3.41" ry="3.537"/>
		
			<ellipse transform="matrix(-0.174 -0.9847 0.9847 -0.174 -152.0124 306.5926)" display="none" clip-path="url(#SVGID_2_)" fill="#C6BEB3" cx="52.574" cy="217.048" rx="3.499" ry="3.738"/>
		<circle display="none" clip-path="url(#SVGID_2_)" fill="#1E1E1E" cx="32.45" cy="273.659" r="6.232"/>
		<circle display="none" clip-path="url(#SVGID_2_)" fill="#635644" cx="32.45" cy="273.659" r="4.959"/>
		<circle display="none" clip-path="url(#SVGID_2_)" fill="#C6BEB3" cx="32.134" cy="273.11" r="4.51"/>
		
			<ellipse transform="matrix(0.2588 -0.9659 0.9659 0.2588 -239.7999 232.9648)" display="none" clip-path="url(#SVGID_2_)" fill="#FFFFFF" cx="31.896" cy="272.732" rx="3.41" ry="3.536"/>
		
			<ellipse transform="matrix(-0.3424 -0.9396 0.9396 -0.3424 -213.7047 396.9999)" display="none" clip-path="url(#SVGID_2_)" fill="#C6BEB3" cx="32.085" cy="273.29" rx="3.499" ry="3.739"/>
		<circle display="none" clip-path="url(#SVGID_2_)" fill="#1E1E1E" cx="22.098" cy="332.536" r="6.232"/>
		<circle display="none" clip-path="url(#SVGID_2_)" fill="#635644" cx="22.098" cy="332.536" r="4.959"/>
		<circle display="none" clip-path="url(#SVGID_2_)" fill="#C6BEB3" cx="21.691" cy="332.05" r="4.509"/>
		<path display="none" clip-path="url(#SVGID_2_)" fill="#FFFFFF" d="M21.688,328.322c-1.945-0.172-3.655,1.212-3.819,3.087
			c-0.163,1.879,1.28,3.537,3.226,3.707s3.655-1.214,3.82-3.09C25.078,330.15,23.633,328.491,21.688,328.322z"/>
		
			<ellipse transform="matrix(-0.5004 -0.8658 0.8658 -0.5004 -255.1306 517.248)" display="none" clip-path="url(#SVGID_2_)" fill="#C6BEB3" cx="21.674" cy="332.236" rx="3.498" ry="3.738"/>
		<circle display="none" clip-path="url(#SVGID_2_)" fill="#FF5527" cx="363.758" cy="362.263" r="44.435"/>
		<polygon display="none" clip-path="url(#SVGID_2_)" fill="#354438" points="358.935,159.238 361.179,155.352 358.935,151.463 
			354.447,151.463 352.202,155.352 354.447,159.238 		"/>
		<polygon display="none" clip-path="url(#SVGID_2_)" fill="#354438" points="160.958,361.33 163.441,357.028 160.958,352.726 
			155.991,352.726 153.508,357.028 155.991,361.33 		"/>
	</g>
	<rect x="354.92" y="262.646" fill="#FCB017" width="2.068" height="57.854"/>
	<g>
		<defs>
			<rect id="SVGID_3_" x="355.148" y="-97.071" width="376.691" height="453.167"/>
		</defs>
		<clipPath id="SVGID_4_">
			<use xlink:href="#SVGID_3_"  overflow="visible"/>
		</clipPath>
		
			<circle clip-path="url(#SVGID_4_)" fill="none" stroke="#591645" stroke-width="18" stroke-miterlimit="10" cx="344.686" cy="366.612" r="357.829"/>
		
			<circle clip-path="url(#SVGID_4_)" fill="none" stroke="#3A3A3A" stroke-width="12" stroke-miterlimit="10" cx="353.315" cy="356.934" r="212.177"/>
		<path clip-path="url(#SVGID_4_)" fill="#333333" d="M543.778,340.863H372.169l122.039-122.037c2.25-2.25,2.249-5.896,0-8.146
			c-2.25-2.25-5.897-2.251-8.148-0.001L365.769,330.971V159.143c0-3.273-2.579-5.928-5.761-5.928s-5.761,2.654-5.761,5.928v187.314
			c0,3.274,2.579,5.928,5.761,5.928c0.291,0,0.576-0.03,0.855-0.073c0.284,0.044,0.573,0.073,0.869,0.073h182.045
			c3.182,0,5.761-2.58,5.761-5.761S546.959,340.863,543.778,340.863z"/>
		<circle display="none" clip-path="url(#SVGID_4_)" fill="#455B4A" cx="348.247" cy="361.675" r="129.58"/>
		
			<rect x="369.58" y="247.584" transform="matrix(0.9848 0.1736 -0.1736 0.9848 49.204 -61.1994)" display="none" clip-path="url(#SVGID_4_)" fill="#F7B32B" width="9.589" height="6.063"/>
		
			<rect x="387.723" y="252.856" transform="matrix(0.9397 0.342 -0.342 0.9397 111.1778 -118.8073)" display="none" clip-path="url(#SVGID_4_)" fill="#F7B32B" width="9.589" height="6.063"/>
		
			<rect x="404.673" y="261.199" transform="matrix(0.866 0.5001 -0.5001 0.866 187.0037 -169.349)" display="none" clip-path="url(#SVGID_4_)" fill="#F7B32B" width="9.589" height="6.062"/>
		
			<rect x="438.59" y="293.616" transform="matrix(0.5735 0.8192 -0.8192 0.5735 432.1211 -236.7032)" display="none" clip-path="url(#SVGID_4_)" fill="#F7B32B" width="9.59" height="6.063"/>
		
			<rect x="447.689" y="310.173" transform="matrix(0.4226 0.9063 -0.9063 0.4226 545.1461 -229.2471)" display="none" clip-path="url(#SVGID_4_)" fill="#F7B32B" width="9.591" height="6.063"/>
		
			<rect x="453.777" y="328.058" transform="matrix(0.2587 0.966 -0.966 0.2587 659.7465 -197.5292)" display="none" clip-path="url(#SVGID_4_)" fill="#F7B32B" width="9.591" height="6.063"/>
		
			<rect x="366.005" y="264.057" transform="matrix(0.9849 0.1733 -0.1733 0.9849 56.3184 -59.1664)" display="none" clip-path="url(#SVGID_4_)" fill="#FCF6B1" width="2.068" height="57.855"/>
		
			<rect x="376.901" y="267.412" transform="matrix(0.9398 0.3417 -0.3417 0.9398 124.026 -111.3153)" display="none" clip-path="url(#SVGID_4_)" fill="#FCF6B1" width="2.069" height="57.855"/>
		
			<rect x="387.049" y="272.607" transform="matrix(0.8661 0.4998 -0.4998 0.8661 202.6792 -153.6106)" display="none" clip-path="url(#SVGID_4_)" fill="#FCF6B1" width="2.069" height="57.855"/>
		
			<rect x="407.204" y="292.491" transform="matrix(0.5734 0.8193 -0.8193 0.5734 437.4854 -197.3425)" display="none" clip-path="url(#SVGID_4_)" fill="#FCF6B1" width="2.069" height="57.855"/>
		
			<rect x="412.536" y="302.568" transform="matrix(0.4225 0.9064 -0.9064 0.4225 539.2933 -183.4065)" display="none" clip-path="url(#SVGID_4_)" fill="#FCF6B1" width="2.069" height="57.854"/>
		
			<rect x="416.038" y="313.418" transform="matrix(0.2582 0.9661 -0.9661 0.2582 640.1407 -148.97)" display="none" clip-path="url(#SVGID_4_)" fill="#FCF6B1" width="2.069" height="57.854"/>
		
			<circle display="none" opacity="0.6" clip-path="url(#SVGID_4_)" fill="none" stroke="#303030" stroke-width="24" stroke-miterlimit="10" cx="335.845" cy="365.007" r="342.951"/>
		
			<circle display="none" clip-path="url(#SVGID_4_)" fill="none" stroke="#C80234" stroke-width="6" stroke-miterlimit="10" cx="353.609" cy="353.7" r="342.951"/>
		
			<circle display="none" clip-path="url(#SVGID_4_)" fill="none" stroke="#91083D" stroke-width="22" stroke-miterlimit="10" cx="348.082" cy="362.262" r="342.951"/>
		
			<circle display="none" opacity="0.6" clip-path="url(#SVGID_4_)" fill="none" stroke="#455B4A" stroke-width="12" stroke-miterlimit="10" cx="338.363" cy="369.08" r="204.99"/>
		
			<circle display="none" clip-path="url(#SVGID_4_)" fill="none" stroke="#6A8270" stroke-width="4" stroke-miterlimit="10" cx="352.55" cy="357.072" r="204.99"/>
		
			<circle display="none" clip-path="url(#SVGID_4_)" fill="none" stroke="#455B4A" stroke-width="14" stroke-miterlimit="10" cx="348.082" cy="362.262" r="204.99"/>
		<path display="none" clip-path="url(#SVGID_4_)" fill="#455B4A" d="M547.957,350.696H367.132l128.592-128.592
			c2.371-2.37,2.37-6.213,0-8.583c-2.371-2.371-6.214-2.372-8.585-0.001L360.388,340.271V159.215c0-3.449-2.718-6.244-6.071-6.244
			c-3.352,0-6.069,2.795-6.069,6.244V356.59c0,3.449,2.718,6.246,6.069,6.246c0.308,0,0.607-0.031,0.902-0.076
			c0.3,0.046,0.604,0.076,0.916,0.076h191.822c3.352,0,6.07-2.718,6.07-6.07C554.027,353.414,551.309,350.696,547.957,350.696z"/>
		<path display="none" clip-path="url(#SVGID_4_)" fill="#354438" d="M355.363,356.413c-0.361-0.001-0.693-0.412-0.693-0.9V158.137
			c0-0.486,0.332-0.898,0.725-0.898s0.725,0.412,0.725,0.898v193.962l135.877-135.876c0.141-0.141,0.313-0.213,0.512-0.213
			c0.137,0,0.337,0.038,0.513,0.213c0.176,0.177,0.213,0.376,0.213,0.513c0,0.199-0.071,0.37-0.212,0.512L355.304,354.965h193.73
			c0.399,0,0.725,0.324,0.725,0.724c0,0.4-0.325,0.724-0.725,0.724H357.212c-0.023-0.001-0.913-0.14-0.913-0.14L355.363,356.413z"/>
		<polygon display="none" clip-path="url(#SVGID_4_)" fill="#354438" points="487.83,223.041 485.184,218.458 487.83,213.875 
			493.122,213.875 495.767,218.458 493.122,223.041 		"/>
		<polygon display="none" clip-path="url(#SVGID_4_)" fill="#4C0623" points="584.629,121.354 586.225,115.398 592.18,113.803 
			596.539,118.162 594.944,124.118 588.988,125.714 		"/>
		<path display="none" clip-path="url(#SVGID_4_)" fill="#6B0A32" d="M361.328,30.645c3.283,0.184,9.408,0.544,15.447,0.983
			l5.974-7.119l-9.549-8.012L361.328,30.645z"/>
		<path display="none" clip-path="url(#SVGID_4_)" fill="#6B0A32" d="M390.181,33.061c3.254,0.47,9.324,1.362,15.302,2.326
			l6.571-6.571l-8.813-8.813L390.181,33.061z"/>
		<path display="none" clip-path="url(#SVGID_4_)" fill="#6B0A32" d="M418.712,37.982c3.2,0.751,9.171,2.17,15.041,3.651
			l7.119-5.974l-8.012-9.549L418.712,37.982z"/>
		<path display="none" clip-path="url(#SVGID_4_)" fill="#6B0A32" d="M446.706,45.372c3.123,1.027,8.946,2.961,14.666,4.948
			l7.612-5.33l-7.149-10.211L446.706,45.372z"/>
		<path display="none" clip-path="url(#SVGID_4_)" fill="#6B0A32" d="M473.949,55.174c3.021,1.296,8.654,3.729,14.179,6.208
			l8.049-4.647l-6.233-10.795L473.949,55.174z"/>
		<path display="none" clip-path="url(#SVGID_4_)" fill="#6B0A32" d="M500.236,67.312c2.896,1.555,8.296,4.47,13.583,7.421
			l8.423-3.928l-5.269-11.297L500.236,67.312z"/>
		<path display="none" clip-path="url(#SVGID_4_)" fill="#6B0A32" d="M525.363,81.695c2.751,1.801,7.876,5.176,12.886,8.576
			l8.732-3.179l-4.264-11.714L525.363,81.695z"/>
		<path display="none" clip-path="url(#SVGID_4_)" fill="#6B0A32" d="M549.142,98.214c2.583,2.034,7.395,5.843,12.089,9.667
			l8.977-2.406l-3.227-12.04L549.142,98.214z"/>
		<path display="none" clip-path="url(#SVGID_4_)" fill="#6B0A32" d="M571.39,116.742c2.396,2.251,6.857,6.465,11.2,10.684
			l9.152-1.614l-2.165-12.275L571.39,116.742z"/>
		<path display="none" clip-path="url(#SVGID_4_)" fill="#6B0A32" d="M591.938,137.139c2.19,2.451,6.269,7.039,10.226,11.619
			l9.26-0.811l-1.088-12.417L591.938,137.139z"/>
		<path display="none" clip-path="url(#SVGID_4_)" fill="#6B0A32" d="M610.631,159.25c1.969,2.633,5.631,7.557,9.176,12.465h9.293
			V159.25H610.631z"/>
		<path display="none" clip-path="url(#SVGID_4_)" fill="#6B0A32" d="M627.326,182.904c1.73,2.795,4.951,8.021,8.053,13.219
			l9.26,0.811l1.084-12.418L627.326,182.904z"/>
		<path display="none" clip-path="url(#SVGID_4_)" fill="#6B0A32" d="M641.896,207.926c1.48,2.934,4.232,8.42,6.869,13.869
			l9.152,1.614l2.164-12.276L641.896,207.926z"/>
		<path display="none" clip-path="url(#SVGID_4_)" fill="#6B0A32" d="M654.229,234.12c1.221,3.052,3.482,8.757,5.635,14.416
			l8.979,2.405l3.225-12.041L654.229,234.12z"/>
		<path display="none" clip-path="url(#SVGID_4_)" fill="#6B0A32" d="M664.232,261.29c0.949,3.146,2.707,9.027,4.357,14.853
			l8.732,3.179l4.264-11.715L664.232,261.29z"/>
		<path display="none" clip-path="url(#SVGID_4_)" fill="#6B0A32" d="M671.83,289.229c0.67,3.217,1.908,9.229,3.045,15.176
			l8.424,3.928l5.268-11.299L671.83,289.229z"/>
		<path display="none" clip-path="url(#SVGID_4_)" fill="#6B0A32" d="M676.963,317.723c0.389,3.263,1.098,9.36,1.713,15.384
			l8.049,4.646l6.23-10.797L676.963,317.723z"/>
		<circle display="none" clip-path="url(#SVGID_4_)" fill="#1E1E1E" cx="407.797" cy="24.55" r="6.232"/>
		<circle display="none" clip-path="url(#SVGID_4_)" fill="#635644" cx="407.797" cy="24.55" r="4.958"/>
		<circle display="none" clip-path="url(#SVGID_4_)" fill="#F7A014" cx="407.434" cy="24.031" r="4.51"/>
		
			<ellipse transform="matrix(-0.9848 -0.1737 0.1737 -0.9848 804.0858 117.6746)" display="none" clip-path="url(#SVGID_4_)" fill="#FFFFFF" cx="407.191" cy="23.657" rx="3.41" ry="3.537"/>
		
			<ellipse transform="matrix(-0.7068 -0.7074 0.7074 -0.7068 678.7089 329.4153)" display="none" clip-path="url(#SVGID_4_)" fill="#F7A014" cx="407.617" cy="24.064" rx="3.499" ry="3.739"/>
		<circle display="none" clip-path="url(#SVGID_4_)" fill="#1E1E1E" cx="465.533" cy="40.05" r="6.233"/>
		<circle display="none" clip-path="url(#SVGID_4_)" fill="#635644" cx="465.533" cy="40.05" r="4.958"/>
		<circle display="none" clip-path="url(#SVGID_4_)" fill="#F7A014" cx="465.265" cy="39.476" r="4.51"/>
		
			<ellipse transform="matrix(-0.9397 -0.3421 0.3421 -0.9397 888.7662 234.8596)" display="none" clip-path="url(#SVGID_4_)" fill="#FFFFFF" cx="465.091" cy="39.065" rx="3.41" ry="3.536"/>
		
			<ellipse transform="matrix(-0.5733 -0.8193 0.8193 -0.5733 699.88 443.564)" display="none" clip-path="url(#SVGID_4_)" fill="#F7A014" cx="465.439" cy="39.541" rx="3.499" ry="3.74"/>
		<circle display="none" clip-path="url(#SVGID_4_)" fill="#1E1E1E" cx="519.7" cy="65.34" r="6.233"/>
		<circle display="none" clip-path="url(#SVGID_4_)" fill="#635644" cx="519.7" cy="65.34" r="4.958"/>
		<circle display="none" clip-path="url(#SVGID_4_)" fill="#F7A014" cx="519.536" cy="64.729" r="4.51"/>
		
			<ellipse transform="matrix(-0.866 -0.5 0.5 -0.866 937.1501 379.6721)" display="none" clip-path="url(#SVGID_4_)" fill="#FFFFFF" cx="519.437" cy="64.294" rx="3.41" ry="3.536"/>
		
			<ellipse transform="matrix(-0.4223 -0.9065 0.9065 -0.4223 680.4135 563.2761)" display="none" clip-path="url(#SVGID_4_)" fill="#F7A014" cx="519.697" cy="64.822" rx="3.499" ry="3.739"/>
		<circle display="none" clip-path="url(#SVGID_4_)" fill="#1E1E1E" cx="568.653" cy="99.652" r="6.233"/>
		<circle display="none" clip-path="url(#SVGID_4_)" fill="#635644" cx="568.653" cy="99.652" r="4.958"/>
		<circle display="none" clip-path="url(#SVGID_4_)" fill="#F7A014" cx="568.598" cy="99.021" r="4.51"/>
		
			<ellipse transform="matrix(-0.766 -0.6428 0.6428 -0.766 940.7657 539.5618)" display="none" clip-path="url(#SVGID_4_)" fill="#FFFFFF" cx="568.575" cy="98.576" rx="3.411" ry="3.536"/>
		
			<ellipse transform="matrix(-0.2585 -0.966 0.966 -0.2585 619.9861 674.1787)" display="none" clip-path="url(#SVGID_4_)" fill="#F7A014" cx="568.74" cy="99.141" rx="3.498" ry="3.738"/>
		<circle display="none" clip-path="url(#SVGID_4_)" fill="#1E1E1E" cx="610.903" cy="141.944" r="6.233"/>
		<circle display="none" clip-path="url(#SVGID_4_)" fill="#635644" cx="610.903" cy="141.944" r="4.958"/>
		<circle display="none" clip-path="url(#SVGID_4_)" fill="#F7A014" cx="610.959" cy="141.313" r="4.51"/>
		
			<ellipse transform="matrix(-0.6427 -0.7661 0.7661 -0.6427 895.7979 699.511)" display="none" clip-path="url(#SVGID_4_)" fill="#FFFFFF" cx="611.013" cy="140.871" rx="3.411" ry="3.537"/>
		<path display="none" clip-path="url(#SVGID_4_)" fill="#F7A014" d="M610.773,137.97c2.059-0.179,3.861,1.237,4.029,3.161
			c0.168,1.926-1.363,3.631-3.422,3.811c-2.055,0.178-3.859-1.236-4.027-3.16C607.186,139.855,608.717,138.148,610.773,137.97z"/>
		<circle display="none" clip-path="url(#SVGID_4_)" fill="#1E1E1E" cx="645.168" cy="190.93" r="6.233"/>
		<circle display="none" clip-path="url(#SVGID_4_)" fill="#635644" cx="645.169" cy="190.93" r="4.958"/>
		<circle display="none" clip-path="url(#SVGID_4_)" fill="#F7A014" cx="645.333" cy="190.318" r="4.51"/>
		<path display="none" clip-path="url(#SVGID_4_)" fill="#FFFFFF" d="M643.758,186.938c1.691-0.977,3.826-0.445,4.768,1.188
			c0.943,1.629,0.334,3.743-1.357,4.722c-1.691,0.976-3.824,0.444-4.766-1.188C641.459,190.029,642.066,187.914,643.758,186.938z"/>
		
			<ellipse transform="matrix(0.0874 -0.9962 0.9962 0.0874 399.2865 816.7953)" display="none" clip-path="url(#SVGID_4_)" fill="#F7A014" cx="645.425" cy="190.479" rx="3.499" ry="3.74"/>
		<circle display="none" clip-path="url(#SVGID_4_)" fill="#1E1E1E" cx="670.406" cy="245.122" r="6.232"/>
		<circle display="none" clip-path="url(#SVGID_4_)" fill="#635644" cx="670.406" cy="245.122" r="4.958"/>
		<circle display="none" clip-path="url(#SVGID_4_)" fill="#F7A014" cx="670.674" cy="244.547" r="4.51"/>
		<path display="none" clip-path="url(#SVGID_4_)" fill="#FFFFFF" d="M669.711,240.945c1.836-0.669,3.846,0.227,4.488,1.997
			c0.646,1.768-0.32,3.744-2.156,4.414c-1.834,0.667-3.844-0.227-4.488-1.997C666.91,243.59,667.875,241.612,669.711,240.945z"/>
		
			<ellipse transform="matrix(0.2593 -0.9658 0.9658 0.2593 260.4767 829.0711)" display="none" clip-path="url(#SVGID_4_)" fill="#F7A014" cx="670.737" cy="244.722" rx="3.499" ry="3.738"/>
		<circle display="none" clip-path="url(#SVGID_4_)" fill="#1E1E1E" cx="685.851" cy="302.873" r="6.232"/>
		<circle display="none" clip-path="url(#SVGID_4_)" fill="#635644" cx="685.851" cy="302.873" r="4.958"/>
		<circle display="none" clip-path="url(#SVGID_4_)" fill="#F7A014" cx="686.215" cy="302.353" r="4.51"/>
		<path display="none" clip-path="url(#SVGID_4_)" fill="#FFFFFF" d="M685.891,298.639c1.924-0.34,3.748,0.891,4.074,2.746
			c0.328,1.853-0.967,3.632-2.891,3.973c-1.922,0.338-3.746-0.891-4.072-2.746C682.674,300.757,683.967,298.977,685.891,298.639z"/>
		
			<ellipse transform="matrix(0.4231 -0.9061 0.9061 0.4231 121.7979 796.358)" display="none" clip-path="url(#SVGID_4_)" fill="#F7A014" cx="686.246" cy="302.536" rx="3.499" ry="3.74"/>
		<circle display="none" clip-path="url(#SVGID_4_)" fill="#1E1E1E" cx="378.136" cy="20.631" r="6.232"/>
		<circle display="none" clip-path="url(#SVGID_4_)" fill="#635644" cx="378.136" cy="20.63" r="4.958"/>
		<circle display="none" clip-path="url(#SVGID_4_)" fill="#C6BEB3" cx="377.729" cy="20.146" r="4.51"/>
		
			<ellipse transform="matrix(-0.9962 -0.0872 0.0872 -0.9962 751.7468 72.4225)" display="none" clip-path="url(#SVGID_4_)" fill="#FFFFFF" cx="377.455" cy="19.793" rx="3.41" ry="3.536"/>
		
			<ellipse transform="matrix(-0.7658 -0.6431 0.6431 -0.7658 654.3473 278.6401)" display="none" clip-path="url(#SVGID_4_)" fill="#C6BEB3" cx="377.915" cy="20.162" rx="3.499" ry="3.739"/>
		<circle display="none" clip-path="url(#SVGID_4_)" fill="#1E1E1E" cx="437.003" cy="31.04" r="6.232"/>
		<circle display="none" clip-path="url(#SVGID_4_)" fill="#635644" cx="437.003" cy="31.04" r="4.958"/>
		<circle display="none" clip-path="url(#SVGID_4_)" fill="#C6BEB3" cx="436.686" cy="30.491" r="4.51"/>
		
			<ellipse transform="matrix(-0.9659 -0.2588 0.2588 -0.9659 850.291 172.1451)" display="none" clip-path="url(#SVGID_4_)" fill="#FFFFFF" cx="436.478" cy="30.097" rx="3.411" ry="3.535"/>
		
			<ellipse transform="matrix(-0.6425 -0.7663 0.7663 -0.6425 694.1512 384.9251)" display="none" clip-path="url(#SVGID_4_)" fill="#C6BEB3" cx="436.866" cy="30.54" rx="3.499" ry="3.739"/>
		<circle display="none" clip-path="url(#SVGID_4_)" fill="#1E1E1E" cx="493.168" cy="51.513" r="6.232"/>
		<circle display="none" clip-path="url(#SVGID_4_)" fill="#635644" cx="493.169" cy="51.513" r="4.958"/>
		<circle display="none" clip-path="url(#SVGID_4_)" fill="#C6BEB3" cx="492.952" cy="50.917" r="4.509"/>
		
			<ellipse transform="matrix(-0.9063 -0.4227 0.4227 -0.9063 918.1091 304.5413)" display="none" clip-path="url(#SVGID_4_)" fill="#FFFFFF" cx="492.815" cy="50.492" rx="3.41" ry="3.535"/>
		
			<ellipse transform="matrix(-0.4998 -0.8661 0.8661 -0.4998 695.4049 503.5984)" display="none" clip-path="url(#SVGID_4_)" fill="#C6BEB3" cx="493.12" cy="50.996" rx="3.499" ry="3.739"/>
		<circle display="none" clip-path="url(#SVGID_4_)" fill="#1E1E1E" cx="544.925" cy="81.427" r="6.233"/>
		<circle display="none" clip-path="url(#SVGID_4_)" fill="#635644" cx="544.926" cy="81.427" r="4.959"/>
		<circle display="none" clip-path="url(#SVGID_4_)" fill="#C6BEB3" cx="544.815" cy="80.804" r="4.51"/>
		
			<ellipse transform="matrix(-0.8192 -0.5735 0.5735 -0.8192 944.9238 458.6202)" display="none" clip-path="url(#SVGID_4_)" fill="#FFFFFF" cx="544.754" cy="80.361" rx="3.411" ry="3.535"/>
		
			<ellipse transform="matrix(-0.3418 -0.9398 0.9398 -0.3418 655.1872 620.7138)" display="none" clip-path="url(#SVGID_4_)" fill="#C6BEB3" cx="544.968" cy="80.91" rx="3.499" ry="3.739"/>
		<circle display="none" clip-path="url(#SVGID_4_)" fill="#1E1E1E" cx="590.701" cy="119.875" r="6.232"/>
		<circle display="none" clip-path="url(#SVGID_4_)" fill="#635644" cx="590.701" cy="119.875" r="4.958"/>
		<circle display="none" clip-path="url(#SVGID_4_)" fill="#C6BEB3" cx="590.701" cy="119.242" r="4.51"/>
		
			<ellipse transform="matrix(-0.707 -0.7072 0.7072 -0.707 924.3665 620.5308)" display="none" clip-path="url(#SVGID_4_)" fill="#FFFFFF" cx="590.718" cy="118.795" rx="3.41" ry="3.536"/>
		
			<ellipse transform="matrix(-0.1733 -0.9849 0.9849 -0.1733 575.6764 721.9546)" display="none" clip-path="url(#SVGID_4_)" fill="#C6BEB3" cx="590.833" cy="119.374" rx="3.499" ry="3.739"/>
		<circle display="none" clip-path="url(#SVGID_4_)" fill="#1E1E1E" cx="629.105" cy="165.688" r="6.232"/>
		<circle display="none" clip-path="url(#SVGID_4_)" fill="#635644" cx="629.105" cy="165.688" r="4.958"/>
		<circle display="none" clip-path="url(#SVGID_4_)" fill="#C6BEB3" cx="629.215" cy="165.063" r="4.509"/>
		
			<ellipse transform="matrix(-0.5735 -0.8192 0.8192 -0.5735 855.3694 774.5704)" display="none" clip-path="url(#SVGID_4_)" fill="#FFFFFF" cx="629.31" cy="164.628" rx="3.411" ry="3.535"/>
		<path display="none" clip-path="url(#SVGID_4_)" fill="#C6BEB3" d="M629.322,161.719c2.066,0,3.738,1.568,3.738,3.5
			s-1.674,3.498-3.74,3.498c-2.064-0.004-3.738-1.568-3.736-3.5C625.584,163.283,627.258,161.717,629.322,161.719z"/>
		<circle display="none" clip-path="url(#SVGID_4_)" fill="#1E1E1E" cx="658.971" cy="217.474" r="6.232"/>
		<circle display="none" clip-path="url(#SVGID_4_)" fill="#635644" cx="658.971" cy="217.475" r="4.959"/>
		<circle display="none" clip-path="url(#SVGID_4_)" fill="#C6BEB3" cx="659.187" cy="216.878" r="4.51"/>
		
			<ellipse transform="matrix(-0.4227 -0.9063 0.9063 -0.4227 741.893 905.5186)" display="none" clip-path="url(#SVGID_4_)" fill="#FFFFFF" cx="659.355" cy="216.465" rx="3.41" ry="3.537"/>
		
			<ellipse transform="matrix(0.1742 -0.9847 0.9847 0.1742 330.7125 828.4346)" display="none" clip-path="url(#SVGID_4_)" fill="#C6BEB3" cx="659.266" cy="217.048" rx="3.499" ry="3.739"/>
		<circle display="none" clip-path="url(#SVGID_4_)" fill="#1E1E1E" cx="679.39" cy="273.659" r="6.232"/>
		<circle display="none" clip-path="url(#SVGID_4_)" fill="#635644" cx="679.389" cy="273.659" r="4.959"/>
		<circle display="none" clip-path="url(#SVGID_4_)" fill="#C6BEB3" cx="679.706" cy="273.11" r="4.51"/>
		
			<ellipse transform="matrix(-0.2589 -0.9659 0.9659 -0.2589 592.5555 1000.1033)" display="none" clip-path="url(#SVGID_4_)" fill="#FFFFFF" cx="679.943" cy="272.732" rx="3.41" ry="3.537"/>
		
			<ellipse transform="matrix(0.3422 -0.9396 0.9396 0.3422 190.3304 818.4666)" display="none" clip-path="url(#SVGID_4_)" fill="#C6BEB3" cx="679.754" cy="273.29" rx="3.498" ry="3.74"/>
		<circle display="none" clip-path="url(#SVGID_4_)" fill="#1E1E1E" cx="689.742" cy="332.536" r="6.232"/>
		<circle display="none" clip-path="url(#SVGID_4_)" fill="#635644" cx="689.742" cy="332.536" r="4.959"/>
		<circle display="none" clip-path="url(#SVGID_4_)" fill="#C6BEB3" cx="690.148" cy="332.05" r="4.509"/>
		<path display="none" clip-path="url(#SVGID_4_)" fill="#FFFFFF" d="M690.152,328.322c1.945-0.172,3.654,1.212,3.818,3.087
			c0.164,1.879-1.279,3.537-3.225,3.707s-3.656-1.214-3.82-3.09S688.207,328.491,690.152,328.322z"/>
		
			<ellipse transform="matrix(0.5005 -0.8657 0.8657 0.5005 57.113 763.4591)" display="none" clip-path="url(#SVGID_4_)" fill="#C6BEB3" cx="690.165" cy="332.236" rx="3.499" ry="3.739"/>
		<circle display="none" clip-path="url(#SVGID_4_)" fill="#FF5527" cx="348.082" cy="362.263" r="44.435"/>
		<polygon display="none" clip-path="url(#SVGID_4_)" fill="#354438" points="352.904,159.238 350.66,155.352 352.904,151.463 
			357.393,151.463 359.638,155.352 357.393,159.238 		"/>
		<polygon display="none" clip-path="url(#SVGID_4_)" fill="#354438" points="550.881,361.33 548.398,357.028 550.881,352.726 
			555.848,352.726 558.332,357.028 555.848,361.33 		"/>
	</g>
	<g>
		<defs>
			<rect id="SVGID_5_" x="-20.379" y="356.131" width="376.691" height="453.167"/>
		</defs>
		<clipPath id="SVGID_6_">
			<use xlink:href="#SVGID_5_"  overflow="visible"/>
		</clipPath>
		
			<circle clip-path="url(#SVGID_6_)" fill="none" stroke="#591645" stroke-width="18" stroke-miterlimit="10" cx="366.774" cy="345.614" r="357.829"/>
		
			<circle clip-path="url(#SVGID_6_)" fill="none" stroke="#3A3A3A" stroke-width="12" stroke-miterlimit="10" cx="358.145" cy="355.293" r="212.177"/>
		<path clip-path="url(#SVGID_6_)" fill="#333333" d="M167.683,371.363h171.609L217.253,493.4c-2.25,2.25-2.249,5.896,0,8.146
			c2.25,2.25,5.897,2.251,8.148,0.001l120.291-120.291v171.828c0,3.273,2.579,5.928,5.761,5.928s5.761-2.654,5.761-5.928V365.77
			c0-3.274-2.579-5.928-5.761-5.928c-0.291,0-0.576,0.03-0.855,0.073c-0.284-0.044-0.573-0.073-0.869-0.073H167.683
			c-3.182,0-5.761,2.58-5.761,5.761S164.501,371.363,167.683,371.363z"/>
		<circle display="none" clip-path="url(#SVGID_6_)" fill="#455B4A" cx="363.213" cy="350.552" r="129.58"/>
		
			<rect x="332.291" y="458.579" transform="matrix(-0.9848 -0.1736 0.1736 -0.9848 588.8961 974.741)" display="none" clip-path="url(#SVGID_6_)" fill="#F7B32B" width="9.589" height="6.063"/>
		
			<rect x="314.149" y="453.307" transform="matrix(-0.9397 -0.342 0.342 -0.9397 462.5931 994.2374)" display="none" clip-path="url(#SVGID_6_)" fill="#F7B32B" width="9.589" height="6.063"/>
		
			<rect x="297.199" y="444.965" transform="matrix(-0.866 -0.5001 0.5001 -0.866 339.4913 986.9713)" display="none" clip-path="url(#SVGID_6_)" fill="#F7B32B" width="9.589" height="6.062"/>
		
			<rect x="263.281" y="412.548" transform="matrix(-0.5735 -0.8192 0.8192 -0.5735 81.3705 873.522)" display="none" clip-path="url(#SVGID_6_)" fill="#F7B32B" width="9.59" height="6.063"/>
		
			<rect x="254.18" y="395.991" transform="matrix(-0.4226 -0.9063 0.9063 -0.4226 6.7637 802.3542)" display="none" clip-path="url(#SVGID_6_)" fill="#F7B32B" width="9.591" height="6.063"/>
		
			<rect x="248.093" y="378.106" transform="matrix(-0.2587 -0.966 0.966 -0.2587 -49.8447 724.0232)" display="none" clip-path="url(#SVGID_6_)" fill="#F7B32B" width="9.591" height="6.063"/>
		
			<rect x="343.387" y="390.315" transform="matrix(-0.9849 -0.1733 0.1733 -0.9849 610.9894 891.8219)" display="none" clip-path="url(#SVGID_6_)" fill="#FCF6B1" width="2.068" height="57.855"/>
		
			<rect x="332.49" y="386.96" transform="matrix(-0.9398 -0.3417 0.3417 -0.9398 504.8427 920.7161)" display="none" clip-path="url(#SVGID_6_)" fill="#FCF6B1" width="2.069" height="57.855"/>
		
			<rect x="322.342" y="381.764" transform="matrix(-0.8661 -0.4998 0.4998 -0.8661 398.1763 928.0366)" display="none" clip-path="url(#SVGID_6_)" fill="#FCF6B1" width="2.069" height="57.855"/>
		
			<rect x="302.188" y="361.881" transform="matrix(-0.5734 -0.8193 0.8193 -0.5734 156.9096 863.3198)" display="none" clip-path="url(#SVGID_6_)" fill="#FCF6B1" width="2.069" height="57.855"/>
		
			<rect x="296.855" y="351.804" transform="matrix(-0.4225 -0.9064 0.9064 -0.4225 78.6661 811.5861)" display="none" clip-path="url(#SVGID_6_)" fill="#FCF6B1" width="2.069" height="57.854"/>
		
			<rect x="293.353" y="340.954" transform="matrix(-0.2582 -0.9661 0.9661 -0.2582 13.0444 749.7791)" display="none" clip-path="url(#SVGID_6_)" fill="#FCF6B1" width="2.069" height="57.854"/>
		
			<circle display="none" opacity="0.6" clip-path="url(#SVGID_6_)" fill="none" stroke="#303030" stroke-width="24" stroke-miterlimit="10" cx="375.615" cy="347.22" r="342.951"/>
		
			<circle display="none" clip-path="url(#SVGID_6_)" fill="none" stroke="#C80234" stroke-width="6" stroke-miterlimit="10" cx="357.852" cy="358.526" r="342.951"/>
		
			<circle display="none" clip-path="url(#SVGID_6_)" fill="none" stroke="#91083D" stroke-width="22" stroke-miterlimit="10" cx="363.379" cy="349.965" r="342.951"/>
		
			<circle display="none" opacity="0.6" clip-path="url(#SVGID_6_)" fill="none" stroke="#455B4A" stroke-width="12" stroke-miterlimit="10" cx="373.098" cy="343.146" r="204.99"/>
		
			<circle display="none" clip-path="url(#SVGID_6_)" fill="none" stroke="#6A8270" stroke-width="4" stroke-miterlimit="10" cx="358.911" cy="355.154" r="204.99"/>
		
			<circle display="none" clip-path="url(#SVGID_6_)" fill="none" stroke="#455B4A" stroke-width="14" stroke-miterlimit="10" cx="363.379" cy="349.965" r="204.99"/>
		<path display="none" clip-path="url(#SVGID_6_)" fill="#455B4A" d="M163.503,361.53h180.825L215.736,490.122
			c-2.371,2.37-2.37,6.213,0,8.583c2.371,2.371,6.214,2.372,8.585,0.001l126.751-126.751v181.057c0,3.449,2.718,6.244,6.071,6.244
			c3.352,0,6.069-2.795,6.069-6.244V355.637c0-3.449-2.718-6.246-6.069-6.246c-0.308,0-0.607,0.031-0.902,0.076
			c-0.3-0.046-0.604-0.076-0.916-0.076H163.503c-3.352,0-6.07,2.718-6.07,6.07C157.434,358.813,160.151,361.53,163.503,361.53z"/>
		<path display="none" clip-path="url(#SVGID_6_)" fill="#354438" d="M356.097,355.813c0.361,0.001,0.693,0.412,0.693,0.9V554.09
			c0,0.486-0.332,0.898-0.725,0.898s-0.725-0.412-0.725-0.898V360.128L219.464,496.004c-0.141,0.141-0.313,0.213-0.512,0.213
			c-0.137,0-0.337-0.038-0.513-0.213c-0.176-0.177-0.213-0.376-0.213-0.513c0-0.199,0.071-0.37,0.212-0.512l137.718-137.718h-193.73
			c-0.399,0-0.725-0.324-0.725-0.724c0-0.4,0.325-0.724,0.725-0.724h191.822c0.023,0.001,0.913,0.14,0.913,0.14L356.097,355.813z"/>
		<polygon display="none" clip-path="url(#SVGID_6_)" fill="#354438" points="223.631,489.186 226.277,493.769 223.631,498.352 
			218.339,498.352 215.693,493.769 218.339,489.186 		"/>
		<polygon display="none" clip-path="url(#SVGID_6_)" fill="#4C0623" points="126.831,590.872 125.236,596.828 119.28,598.424 
			114.921,594.064 116.516,588.108 122.472,586.513 		"/>
		<path display="none" clip-path="url(#SVGID_6_)" fill="#6B0A32" d="M350.132,681.582c-3.283-0.184-9.408-0.544-15.447-0.983
			l-5.974,7.119l9.549,8.012L350.132,681.582z"/>
		<path display="none" clip-path="url(#SVGID_6_)" fill="#6B0A32" d="M321.28,679.166c-3.254-0.47-9.324-1.362-15.302-2.326
			l-6.571,6.571l8.813,8.813L321.28,679.166z"/>
		<path display="none" clip-path="url(#SVGID_6_)" fill="#6B0A32" d="M292.749,674.244c-3.2-0.751-9.171-2.17-15.041-3.651
			l-7.119,5.974l8.012,9.549L292.749,674.244z"/>
		<path display="none" clip-path="url(#SVGID_6_)" fill="#6B0A32" d="M264.754,666.854c-3.123-1.027-8.946-2.961-14.666-4.948
			l-7.612,5.33l7.149,10.211L264.754,666.854z"/>
		<path display="none" clip-path="url(#SVGID_6_)" fill="#6B0A32" d="M237.511,657.053c-3.021-1.296-8.654-3.729-14.179-6.208
			l-8.049,4.647l6.233,10.795L237.511,657.053z"/>
		<path display="none" clip-path="url(#SVGID_6_)" fill="#6B0A32" d="M211.225,644.915c-2.896-1.555-8.296-4.47-13.583-7.421
			l-8.423,3.928l5.269,11.297L211.225,644.915z"/>
		<path display="none" clip-path="url(#SVGID_6_)" fill="#6B0A32" d="M186.098,630.531c-2.751-1.801-7.876-5.176-12.886-8.576
			l-8.732,3.179l4.264,11.714L186.098,630.531z"/>
		<path display="none" clip-path="url(#SVGID_6_)" fill="#6B0A32" d="M162.319,614.013c-2.583-2.034-7.395-5.843-12.089-9.667
			l-8.977,2.406l3.227,12.04L162.319,614.013z"/>
		<path display="none" clip-path="url(#SVGID_6_)" fill="#6B0A32" d="M140.071,595.484c-2.396-2.251-6.857-6.465-11.2-10.684
			l-9.152,1.614l2.165,12.275L140.071,595.484z"/>
		<path display="none" clip-path="url(#SVGID_6_)" fill="#6B0A32" d="M119.522,575.088c-2.19-2.451-6.268-7.039-10.226-11.619
			l-9.259,0.811l1.088,12.417L119.522,575.088z"/>
		<path display="none" clip-path="url(#SVGID_6_)" fill="#6B0A32" d="M100.829,552.977c-1.968-2.633-5.63-7.557-9.175-12.465h-9.293
			v12.465H100.829z"/>
		<path display="none" clip-path="url(#SVGID_6_)" fill="#6B0A32" d="M84.135,529.322c-1.731-2.795-4.951-8.021-8.053-13.219
			l-9.26-0.811l-1.085,12.418L84.135,529.322z"/>
		<path display="none" clip-path="url(#SVGID_6_)" fill="#6B0A32" d="M69.564,504.301c-1.48-2.934-4.232-8.42-6.869-13.869
			l-9.153-1.614l-2.163,12.276L69.564,504.301z"/>
		<path display="none" clip-path="url(#SVGID_6_)" fill="#6B0A32" d="M57.231,478.106c-1.22-3.052-3.482-8.757-5.635-14.416
			l-8.978-2.405l-3.225,12.041L57.231,478.106z"/>
		<path display="none" clip-path="url(#SVGID_6_)" fill="#6B0A32" d="M47.229,450.937c-0.949-3.146-2.707-9.027-4.357-14.853
			l-8.733-3.179l-4.263,11.715L47.229,450.937z"/>
		<path display="none" clip-path="url(#SVGID_6_)" fill="#6B0A32" d="M39.631,422.998c-0.671-3.217-1.909-9.229-3.046-15.176
			l-8.423-3.928l-5.268,11.299L39.631,422.998z"/>
		<path display="none" clip-path="url(#SVGID_6_)" fill="#6B0A32" d="M34.498,394.504c-0.389-3.263-1.098-9.36-1.713-15.384
			l-8.049-4.646l-6.231,10.797L34.498,394.504z"/>
		<circle display="none" clip-path="url(#SVGID_6_)" fill="#1E1E1E" cx="303.664" cy="687.676" r="6.232"/>
		<circle display="none" clip-path="url(#SVGID_6_)" fill="#635644" cx="303.664" cy="687.676" r="4.958"/>
		<circle display="none" clip-path="url(#SVGID_6_)" fill="#F7A014" cx="304.027" cy="688.195" r="4.51"/>
		
			<ellipse transform="matrix(0.9848 0.1737 -0.1737 0.9848 124.2144 -42.3805)" display="none" clip-path="url(#SVGID_6_)" fill="#FFFFFF" cx="304.269" cy="688.57" rx="3.41" ry="3.537"/>
		
			<ellipse transform="matrix(0.7068 0.7074 -0.7074 0.7068 575.8751 -13.1845)" display="none" clip-path="url(#SVGID_6_)" fill="#F7A014" cx="303.844" cy="688.163" rx="3.499" ry="3.739"/>
		<circle display="none" clip-path="url(#SVGID_6_)" fill="#1E1E1E" cx="245.928" cy="672.176" r="6.233"/>
		<circle display="none" clip-path="url(#SVGID_6_)" fill="#635644" cx="245.928" cy="672.176" r="4.958"/>
		<circle display="none" clip-path="url(#SVGID_6_)" fill="#F7A014" cx="246.196" cy="672.75" r="4.51"/>
		
			<ellipse transform="matrix(0.9397 0.3421 -0.3421 0.9397 245.1181 -43.6666)" display="none" clip-path="url(#SVGID_6_)" fill="#FFFFFF" cx="246.369" cy="673.162" rx="3.41" ry="3.536"/>
		
			<ellipse transform="matrix(0.5733 0.8193 -0.8193 0.5733 656.1372 85.4574)" display="none" clip-path="url(#SVGID_6_)" fill="#F7A014" cx="246.021" cy="672.686" rx="3.499" ry="3.74"/>
		<circle display="none" clip-path="url(#SVGID_6_)" fill="#1E1E1E" cx="191.76" cy="646.886" r="6.233"/>
		<circle display="none" clip-path="url(#SVGID_6_)" fill="#635644" cx="191.76" cy="646.886" r="4.958"/>
		<circle display="none" clip-path="url(#SVGID_6_)" fill="#F7A014" cx="191.924" cy="647.498" r="4.51"/>
		
			<ellipse transform="matrix(0.866 0.5 -0.5 0.866 349.6607 -9.2131)" display="none" clip-path="url(#SVGID_6_)" fill="#FFFFFF" cx="192.024" cy="647.933" rx="3.41" ry="3.536"/>
		
			<ellipse transform="matrix(0.4223 0.9065 -0.9065 0.4223 697.6198 200.1735)" display="none" clip-path="url(#SVGID_6_)" fill="#F7A014" cx="191.764" cy="647.405" rx="3.499" ry="3.739"/>
		<circle display="none" clip-path="url(#SVGID_6_)" fill="#1E1E1E" cx="142.808" cy="612.574" r="6.233"/>
		<circle display="none" clip-path="url(#SVGID_6_)" fill="#635644" cx="142.808" cy="612.575" r="4.958"/>
		<circle display="none" clip-path="url(#SVGID_6_)" fill="#F7A014" cx="142.863" cy="613.206" r="4.51"/>
		
			<ellipse transform="matrix(0.766 0.6428 -0.6428 0.766 427.8745 51.7211)" display="none" clip-path="url(#SVGID_6_)" fill="#FFFFFF" cx="142.886" cy="613.65" rx="3.411" ry="3.537"/>
		
			<ellipse transform="matrix(0.2585 0.966 -0.966 0.2585 698.0759 316.735)" display="none" clip-path="url(#SVGID_6_)" fill="#F7A014" cx="142.721" cy="613.085" rx="3.498" ry="3.739"/>
		<circle display="none" clip-path="url(#SVGID_6_)" fill="#1E1E1E" cx="100.558" cy="570.282" r="6.233"/>
		<circle display="none" clip-path="url(#SVGID_6_)" fill="#635644" cx="100.557" cy="570.283" r="4.958"/>
		<circle display="none" clip-path="url(#SVGID_6_)" fill="#F7A014" cx="100.502" cy="570.914" r="4.51"/>
		
			<ellipse transform="matrix(0.6427 0.7661 -0.7661 0.6427 473.6066 127.1834)" display="none" clip-path="url(#SVGID_6_)" fill="#FFFFFF" cx="100.447" cy="571.355" rx="3.411" ry="3.537"/>
		
			<ellipse transform="matrix(0.0868 0.9962 -0.9962 0.0868 660.2866 421.2251)" display="none" clip-path="url(#SVGID_6_)" fill="#F7A014" cx="100.383" cy="570.771" rx="3.499" ry="3.739"/>
		<circle display="none" clip-path="url(#SVGID_6_)" fill="#1E1E1E" cx="66.292" cy="521.296" r="6.232"/>
		<circle display="none" clip-path="url(#SVGID_6_)" fill="#635644" cx="66.292" cy="521.296" r="4.958"/>
		<circle display="none" clip-path="url(#SVGID_6_)" fill="#F7A014" cx="66.128" cy="521.909" r="4.51"/>
		<path display="none" clip-path="url(#SVGID_6_)" fill="#FFFFFF" d="M67.703,525.289c-1.692,0.977-3.826,0.445-4.768-1.188
			c-0.943-1.629-0.335-3.743,1.357-4.722c1.69-0.976,3.824-0.444,4.766,1.188C70.002,522.197,69.395,524.313,67.703,525.289z"/>
		
			<ellipse transform="matrix(-0.0875 0.9962 -0.9962 -0.0875 591.5598 501.619)" display="none" clip-path="url(#SVGID_6_)" fill="#F7A014" cx="66.036" cy="521.747" rx="3.499" ry="3.739"/>
		<circle display="none" clip-path="url(#SVGID_6_)" fill="#1E1E1E" cx="41.054" cy="467.105" r="6.232"/>
		<circle display="none" clip-path="url(#SVGID_6_)" fill="#635644" cx="41.054" cy="467.105" r="4.958"/>
		<circle display="none" clip-path="url(#SVGID_6_)" fill="#F7A014" cx="40.787" cy="467.68" r="4.51"/>
		<path display="none" clip-path="url(#SVGID_6_)" fill="#FFFFFF" d="M41.75,471.281c-1.836,0.669-3.846-0.227-4.489-1.997
			c-0.646-1.768,0.321-3.744,2.157-4.414c1.834-0.667,3.844,0.227,4.488,1.997C44.551,468.637,43.586,470.614,41.75,471.281z"/>
		
			<ellipse transform="matrix(-0.2591 0.9658 -0.9658 -0.2591 502.8098 549.3251)" display="none" clip-path="url(#SVGID_6_)" fill="#F7A014" cx="40.723" cy="467.504" rx="3.499" ry="3.739"/>
		<circle display="none" clip-path="url(#SVGID_6_)" fill="#1E1E1E" cx="25.61" cy="409.354" r="6.232"/>
		<circle display="none" clip-path="url(#SVGID_6_)" fill="#635644" cx="25.61" cy="409.354" r="4.958"/>
		<circle display="none" clip-path="url(#SVGID_6_)" fill="#F7A014" cx="25.246" cy="409.874" r="4.51"/>
		<path display="none" clip-path="url(#SVGID_6_)" fill="#FFFFFF" d="M25.57,413.588c-1.925,0.34-3.748-0.891-4.074-2.746
			c-0.328-1.853,0.966-3.632,2.891-3.973c1.922-0.338,3.746,0.891,4.072,2.746C28.787,411.47,27.493,413.25,25.57,413.588z"/>
		
			<ellipse transform="matrix(-0.4229 0.9062 -0.9062 -0.4229 407.1228 560.1163)" display="none" clip-path="url(#SVGID_6_)" fill="#F7A014" cx="25.214" cy="409.69" rx="3.499" ry="3.739"/>
		<circle display="none" clip-path="url(#SVGID_6_)" fill="#1E1E1E" cx="333.324" cy="691.596" r="6.232"/>
		<circle display="none" clip-path="url(#SVGID_6_)" fill="#635644" cx="333.324" cy="691.596" r="4.958"/>
		<circle display="none" clip-path="url(#SVGID_6_)" fill="#C6BEB3" cx="333.731" cy="692.081" r="4.51"/>
		
			<ellipse transform="matrix(0.9962 0.0872 -0.0872 0.9962 61.6465 -26.4855)" display="none" clip-path="url(#SVGID_6_)" fill="#FFFFFF" cx="334.005" cy="692.433" rx="3.41" ry="3.536"/>
		
			<ellipse transform="matrix(0.7658 0.6431 -0.6431 0.7658 523.1926 -52.4086)" display="none" clip-path="url(#SVGID_6_)" fill="#C6BEB3" cx="333.546" cy="692.064" rx="3.499" ry="3.739"/>
		<circle display="none" clip-path="url(#SVGID_6_)" fill="#1E1E1E" cx="274.457" cy="681.187" r="6.232"/>
		<circle display="none" clip-path="url(#SVGID_6_)" fill="#635644" cx="274.458" cy="681.187" r="4.958"/>
		<circle display="none" clip-path="url(#SVGID_6_)" fill="#C6BEB3" cx="274.774" cy="681.735" r="4.51"/>
		
			<ellipse transform="matrix(0.9659 0.2588 -0.2588 0.9659 185.9328 -47.9295)" display="none" clip-path="url(#SVGID_6_)" fill="#FFFFFF" cx="274.982" cy="682.13" rx="3.411" ry="3.535"/>
		
			<ellipse transform="matrix(0.6425 0.7663 -0.7663 0.6425 620.5334 33.2849)" display="none" clip-path="url(#SVGID_6_)" fill="#C6BEB3" cx="274.594" cy="681.687" rx="3.499" ry="3.739"/>
		<circle display="none" clip-path="url(#SVGID_6_)" fill="#1E1E1E" cx="218.292" cy="660.714" r="6.232"/>
		<circle display="none" clip-path="url(#SVGID_6_)" fill="#635644" cx="218.292" cy="660.714" r="4.958"/>
		<circle display="none" clip-path="url(#SVGID_6_)" fill="#C6BEB3" cx="218.509" cy="661.309" r="4.509"/>
		
			<ellipse transform="matrix(0.9063 0.4227 -0.4227 0.9063 300.1709 -30.4014)" display="none" clip-path="url(#SVGID_6_)" fill="#FFFFFF" cx="218.646" cy="661.734" rx="3.41" ry="3.535"/>
		
			<ellipse transform="matrix(0.4998 0.8661 -0.8661 0.4998 681.9404 141.641)" display="none" clip-path="url(#SVGID_6_)" fill="#C6BEB3" cx="218.34" cy="661.23" rx="3.499" ry="3.739"/>
		<circle display="none" clip-path="url(#SVGID_6_)" fill="#1E1E1E" cx="166.535" cy="630.799" r="6.233"/>
		<circle display="none" clip-path="url(#SVGID_6_)" fill="#635644" cx="166.535" cy="630.799" r="4.959"/>
		<circle display="none" clip-path="url(#SVGID_6_)" fill="#C6BEB3" cx="166.646" cy="631.423" r="4.51"/>
		
			<ellipse transform="matrix(0.8192 0.5735 -0.5735 0.8192 392.5292 18.6373)" display="none" clip-path="url(#SVGID_6_)" fill="#FFFFFF" cx="166.706" cy="631.865" rx="3.411" ry="3.535"/>
		
			<ellipse transform="matrix(0.3418 0.9398 -0.9398 0.3418 702.8886 259.0805)" display="none" clip-path="url(#SVGID_6_)" fill="#C6BEB3" cx="166.493" cy="631.316" rx="3.499" ry="3.739"/>
		<circle display="none" clip-path="url(#SVGID_6_)" fill="#1E1E1E" cx="120.759" cy="592.352" r="6.232"/>
		<circle display="none" clip-path="url(#SVGID_6_)" fill="#635644" cx="120.759" cy="592.351" r="4.959"/>
		<circle display="none" clip-path="url(#SVGID_6_)" fill="#C6BEB3" cx="120.76" cy="592.985" r="4.51"/>
		
			<ellipse transform="matrix(0.7071 0.7071 -0.7071 0.7071 455.0094 88.4511)" display="none" clip-path="url(#SVGID_6_)" fill="#FFFFFF" cx="120.742" cy="593.431" rx="3.41" ry="3.536"/>
		
			<ellipse transform="matrix(0.1734 0.9849 -0.9849 0.1734 683.5832 371.2524)" display="none" clip-path="url(#SVGID_6_)" fill="#C6BEB3" cx="120.628" cy="592.853" rx="3.499" ry="3.739"/>
		<circle display="none" clip-path="url(#SVGID_6_)" fill="#1E1E1E" cx="82.355" cy="546.539" r="6.232"/>
		<circle display="none" clip-path="url(#SVGID_6_)" fill="#635644" cx="82.355" cy="546.538" r="4.958"/>
		<circle display="none" clip-path="url(#SVGID_6_)" fill="#C6BEB3" cx="82.246" cy="547.163" r="4.51"/>
		
			<ellipse transform="matrix(0.5735 0.8192 -0.8192 0.5735 483.6241 166.2422)" display="none" clip-path="url(#SVGID_6_)" fill="#FFFFFF" cx="82.151" cy="547.599" rx="3.411" ry="3.535"/>
		<path display="none" clip-path="url(#SVGID_6_)" fill="#C6BEB3" d="M82.138,550.508c-2.065,0-3.738-1.568-3.737-3.5
			c0-1.932,1.674-3.498,3.739-3.498c2.065,0.004,3.738,1.568,3.737,3.5C85.877,548.943,84.202,550.51,82.138,550.508z"/>
		<circle display="none" clip-path="url(#SVGID_6_)" fill="#1E1E1E" cx="52.49" cy="494.753" r="6.232"/>
		<circle display="none" clip-path="url(#SVGID_6_)" fill="#635644" cx="52.49" cy="494.752" r="4.959"/>
		<circle display="none" clip-path="url(#SVGID_6_)" fill="#C6BEB3" cx="52.274" cy="495.348" r="4.51"/>
		
			<ellipse transform="matrix(0.4227 0.9063 -0.9063 0.4227 479.3724 238.9789)" display="none" clip-path="url(#SVGID_6_)" fill="#FFFFFF" cx="52.105" cy="495.761" rx="3.41" ry="3.537"/>
		
			<ellipse transform="matrix(-0.174 0.9847 -0.9847 -0.174 548.9006 529.9574)" display="none" clip-path="url(#SVGID_6_)" fill="#C6BEB3" cx="52.195" cy="495.179" rx="3.499" ry="3.738"/>
		<circle display="none" clip-path="url(#SVGID_6_)" fill="#1E1E1E" cx="32.071" cy="438.568" r="6.232"/>
		<circle display="none" clip-path="url(#SVGID_6_)" fill="#635644" cx="32.071" cy="438.567" r="4.959"/>
		<circle display="none" clip-path="url(#SVGID_6_)" fill="#C6BEB3" cx="31.755" cy="439.117" r="4.51"/>
		
			<ellipse transform="matrix(0.2588 0.9659 -0.9659 0.2588 447.8854 295.3201)" display="none" clip-path="url(#SVGID_6_)" fill="#FFFFFF" cx="31.517" cy="439.495" rx="3.41" ry="3.536"/>
		
			<ellipse transform="matrix(-0.3424 0.9396 -0.9396 -0.3424 454.9728 559.42)" display="none" clip-path="url(#SVGID_6_)" fill="#C6BEB3" cx="31.707" cy="438.937" rx="3.499" ry="3.739"/>
		<circle display="none" clip-path="url(#SVGID_6_)" fill="#1E1E1E" cx="21.719" cy="379.691" r="6.232"/>
		<circle display="none" clip-path="url(#SVGID_6_)" fill="#635644" cx="21.719" cy="379.691" r="4.959"/>
		<circle display="none" clip-path="url(#SVGID_6_)" fill="#C6BEB3" cx="21.312" cy="380.177" r="4.509"/>
		<path display="none" clip-path="url(#SVGID_6_)" fill="#FFFFFF" d="M21.309,383.904c-1.945,0.172-3.655-1.212-3.819-3.087
			c-0.163-1.879,1.28-3.537,3.226-3.707s3.655,1.214,3.82,3.09C24.699,382.076,23.254,383.735,21.309,383.904z"/>
		
			<ellipse transform="matrix(-0.5004 0.8658 -0.8658 -0.5004 360.948 551.6955)" display="none" clip-path="url(#SVGID_6_)" fill="#C6BEB3" cx="21.295" cy="379.991" rx="3.498" ry="3.738"/>
		<circle display="none" clip-path="url(#SVGID_6_)" fill="#FF5527" cx="363.379" cy="349.964" r="44.435"/>
		<polygon display="none" clip-path="url(#SVGID_6_)" fill="#354438" points="358.556,552.988 360.8,556.875 358.556,560.764 
			354.068,560.764 351.823,556.875 354.068,552.988 		"/>
		<polygon display="none" clip-path="url(#SVGID_6_)" fill="#354438" points="160.579,350.896 163.063,355.198 160.579,359.501 
			155.612,359.501 153.129,355.198 155.612,350.896 		"/>
	</g>
	<g>
		<defs>
			<rect id="SVGID_7_" x="354.77" y="356.131" width="376.691" height="453.167"/>
		</defs>
		<clipPath id="SVGID_8_">
			<use xlink:href="#SVGID_7_"  overflow="visible"/>
		</clipPath>
		
			<circle clip-path="url(#SVGID_8_)" fill="none" stroke="#591645" stroke-width="18" stroke-miterlimit="10" cx="344.307" cy="345.614" r="357.829"/>
		
			<circle clip-path="url(#SVGID_8_)" fill="none" stroke="#3A3A3A" stroke-width="12" stroke-miterlimit="10" cx="352.936" cy="355.293" r="212.177"/>
		<path clip-path="url(#SVGID_8_)" fill="#333333" d="M543.399,371.363H371.79L493.829,493.4c2.25,2.25,2.249,5.896,0,8.146
			c-2.25,2.25-5.897,2.251-8.148,0.001L365.39,381.256v171.828c0,3.273-2.579,5.928-5.761,5.928s-5.761-2.654-5.761-5.928V365.77
			c0-3.274,2.579-5.928,5.761-5.928c0.291,0,0.576,0.03,0.855,0.073c0.284-0.044,0.573-0.073,0.869-0.073h182.045
			c3.182,0,5.761,2.58,5.761,5.761S546.581,371.363,543.399,371.363z"/>
		<circle display="none" clip-path="url(#SVGID_8_)" fill="#455B4A" cx="347.868" cy="350.552" r="129.58"/>
		
			<rect x="369.202" y="458.579" transform="matrix(0.9848 -0.1736 0.1736 0.9848 -74.4728 71.953)" display="none" clip-path="url(#SVGID_8_)" fill="#F7B32B" width="9.589" height="6.063"/>
		
			<rect x="387.344" y="453.307" transform="matrix(0.9397 -0.342 0.342 0.9397 -132.4183 161.622)" display="none" clip-path="url(#SVGID_8_)" fill="#F7B32B" width="9.589" height="6.063"/>
		
			<rect x="404.294" y="444.965" transform="matrix(0.866 -0.5001 0.5001 0.866 -169.2034 264.6046)" display="none" clip-path="url(#SVGID_8_)" fill="#F7B32B" width="9.589" height="6.062"/>
		
			<rect x="438.211" y="412.548" transform="matrix(0.5735 -0.8192 0.8192 0.5735 -151.5022 540.1599)" display="none" clip-path="url(#SVGID_8_)" fill="#F7B32B" width="9.59" height="6.063"/>
		
			<rect x="447.311" y="395.991" transform="matrix(0.4226 -0.9063 0.9063 0.4226 -100.586 640.1663)" display="none" clip-path="url(#SVGID_8_)" fill="#F7B32B" width="9.591" height="6.063"/>
		
			<rect x="453.398" y="378.106" transform="matrix(0.2587 -0.966 0.966 0.2587 -28.5111 725.1219)" display="none" clip-path="url(#SVGID_8_)" fill="#F7B32B" width="9.591" height="6.063"/>
		
			<rect x="365.626" y="390.315" transform="matrix(0.9849 -0.1733 0.1733 0.9849 -67.0974 69.8741)" display="none" clip-path="url(#SVGID_8_)" fill="#FCF6B1" width="2.068" height="57.855"/>
		
			<rect x="376.522" y="386.96" transform="matrix(0.9398 -0.3417 0.3417 0.9398 -119.3953 154.0665)" display="none" clip-path="url(#SVGID_8_)" fill="#FCF6B1" width="2.069" height="57.855"/>
		
			<rect x="386.67" y="381.764" transform="matrix(0.8661 -0.4998 0.4998 0.8661 -153.3745 248.7778)" display="none" clip-path="url(#SVGID_8_)" fill="#FCF6B1" width="2.069" height="57.855"/>
		
			<rect x="406.825" y="361.881" transform="matrix(0.5734 -0.8193 0.8193 0.5734 -146.1866 500.8687)" display="none" clip-path="url(#SVGID_8_)" fill="#FCF6B1" width="2.069" height="57.855"/>
		
			<rect x="412.158" y="351.804" transform="matrix(0.4225 -0.9064 0.9064 0.4225 -106.462 594.3755)" display="none" clip-path="url(#SVGID_8_)" fill="#FCF6B1" width="2.069" height="57.854"/>
		
			<rect x="415.659" y="340.954" transform="matrix(0.2582 -0.9661 0.9661 0.2582 -48.2236 676.9607)" display="none" clip-path="url(#SVGID_8_)" fill="#FCF6B1" width="2.069" height="57.854"/>
		
			<circle display="none" opacity="0.6" clip-path="url(#SVGID_8_)" fill="none" stroke="#303030" stroke-width="24" stroke-miterlimit="10" cx="335.467" cy="347.22" r="342.951"/>
		
			<circle display="none" clip-path="url(#SVGID_8_)" fill="none" stroke="#C80234" stroke-width="6" stroke-miterlimit="10" cx="353.23" cy="358.526" r="342.951"/>
		
			<circle display="none" clip-path="url(#SVGID_8_)" fill="none" stroke="#91083D" stroke-width="22" stroke-miterlimit="10" cx="347.703" cy="349.965" r="342.951"/>
		
			<circle display="none" opacity="0.6" clip-path="url(#SVGID_8_)" fill="none" stroke="#455B4A" stroke-width="12" stroke-miterlimit="10" cx="337.984" cy="343.146" r="204.99"/>
		
			<circle display="none" clip-path="url(#SVGID_8_)" fill="none" stroke="#6A8270" stroke-width="4" stroke-miterlimit="10" cx="352.171" cy="355.154" r="204.99"/>
		
			<circle display="none" clip-path="url(#SVGID_8_)" fill="none" stroke="#455B4A" stroke-width="14" stroke-miterlimit="10" cx="347.703" cy="349.965" r="204.99"/>
		<path display="none" clip-path="url(#SVGID_8_)" fill="#455B4A" d="M547.578,361.53H366.753l128.592,128.592
			c2.371,2.37,2.37,6.213,0,8.583c-2.371,2.371-6.214,2.372-8.585,0.001L360.009,371.955v181.057c0,3.449-2.718,6.244-6.071,6.244
			c-3.352,0-6.069-2.795-6.069-6.244V355.637c0-3.449,2.718-6.246,6.069-6.246c0.308,0,0.607,0.031,0.902,0.076
			c0.3-0.046,0.604-0.076,0.916-0.076h191.822c3.352,0,6.07,2.718,6.07,6.07C553.648,358.813,550.93,361.53,547.578,361.53z"/>
		<path display="none" clip-path="url(#SVGID_8_)" fill="#354438" d="M354.984,355.813c-0.361,0.001-0.693,0.412-0.693,0.9V554.09
			c0,0.486,0.332,0.898,0.725,0.898s0.725-0.412,0.725-0.898V360.128l135.877,135.876c0.141,0.141,0.313,0.213,0.512,0.213
			c0.137,0,0.337-0.038,0.513-0.213c0.176-0.177,0.213-0.376,0.213-0.513c0-0.199-0.071-0.37-0.212-0.512L354.925,357.262h193.73
			c0.399,0,0.725-0.324,0.725-0.724c0-0.4-0.325-0.724-0.725-0.724H356.833c-0.023,0.001-0.913,0.14-0.913,0.14L354.984,355.813z"/>
		<polygon display="none" clip-path="url(#SVGID_8_)" fill="#354438" points="487.451,489.186 484.805,493.769 487.451,498.352 
			492.743,498.352 495.388,493.769 492.743,489.186 		"/>
		<polygon display="none" clip-path="url(#SVGID_8_)" fill="#4C0623" points="584.25,590.872 585.846,596.828 591.801,598.424 
			596.16,594.064 594.565,588.108 588.609,586.513 		"/>
		<path display="none" clip-path="url(#SVGID_8_)" fill="#6B0A32" d="M360.949,681.582c3.283-0.184,9.408-0.544,15.447-0.983
			l5.974,7.119l-9.549,8.012L360.949,681.582z"/>
		<path display="none" clip-path="url(#SVGID_8_)" fill="#6B0A32" d="M389.802,679.166c3.254-0.47,9.324-1.362,15.302-2.326
			l6.571,6.571l-8.813,8.813L389.802,679.166z"/>
		<path display="none" clip-path="url(#SVGID_8_)" fill="#6B0A32" d="M418.333,674.244c3.2-0.751,9.171-2.17,15.041-3.651
			l7.119,5.974l-8.012,9.549L418.333,674.244z"/>
		<path display="none" clip-path="url(#SVGID_8_)" fill="#6B0A32" d="M446.327,666.854c3.123-1.027,8.946-2.961,14.666-4.948
			l7.612,5.33l-7.149,10.211L446.327,666.854z"/>
		<path display="none" clip-path="url(#SVGID_8_)" fill="#6B0A32" d="M473.57,657.053c3.021-1.296,8.654-3.729,14.179-6.208
			l8.049,4.647l-6.233,10.795L473.57,657.053z"/>
		<path display="none" clip-path="url(#SVGID_8_)" fill="#6B0A32" d="M499.857,644.915c2.896-1.555,8.296-4.47,13.583-7.421
			l8.423,3.928l-5.269,11.297L499.857,644.915z"/>
		<path display="none" clip-path="url(#SVGID_8_)" fill="#6B0A32" d="M524.984,630.531c2.751-1.801,7.876-5.176,12.886-8.576
			l8.732,3.179l-4.264,11.714L524.984,630.531z"/>
		<path display="none" clip-path="url(#SVGID_8_)" fill="#6B0A32" d="M548.763,614.013c2.583-2.034,7.395-5.843,12.089-9.667
			l8.977,2.406l-3.227,12.04L548.763,614.013z"/>
		<path display="none" clip-path="url(#SVGID_8_)" fill="#6B0A32" d="M571.011,595.484c2.396-2.251,6.857-6.465,11.2-10.684
			l9.152,1.614l-2.165,12.275L571.011,595.484z"/>
		<path display="none" clip-path="url(#SVGID_8_)" fill="#6B0A32" d="M591.56,575.088c2.19-2.451,6.269-7.039,10.226-11.619
			l9.26,0.811l-1.088,12.417L591.56,575.088z"/>
		<path display="none" clip-path="url(#SVGID_8_)" fill="#6B0A32" d="M610.252,552.977c1.969-2.633,5.631-7.557,9.176-12.465h9.293
			v12.465H610.252z"/>
		<path display="none" clip-path="url(#SVGID_8_)" fill="#6B0A32" d="M626.947,529.322c1.73-2.795,4.951-8.021,8.053-13.219
			l9.26-0.811l1.084,12.418L626.947,529.322z"/>
		<path display="none" clip-path="url(#SVGID_8_)" fill="#6B0A32" d="M641.518,504.301c1.48-2.934,4.232-8.42,6.869-13.869
			l9.152-1.614l2.164,12.276L641.518,504.301z"/>
		<path display="none" clip-path="url(#SVGID_8_)" fill="#6B0A32" d="M653.85,478.106c1.221-3.052,3.482-8.757,5.635-14.416
			l8.979-2.405l3.225,12.041L653.85,478.106z"/>
		<path display="none" clip-path="url(#SVGID_8_)" fill="#6B0A32" d="M663.854,450.937c0.949-3.146,2.707-9.027,4.357-14.853
			l8.732-3.179l4.264,11.715L663.854,450.937z"/>
		<path display="none" clip-path="url(#SVGID_8_)" fill="#6B0A32" d="M671.451,422.998c0.67-3.217,1.908-9.229,3.045-15.176
			l8.424-3.928l5.268,11.299L671.451,422.998z"/>
		<path display="none" clip-path="url(#SVGID_8_)" fill="#6B0A32" d="M676.584,394.504c0.389-3.263,1.098-9.36,1.713-15.384
			l8.049-4.646l6.23,10.797L676.584,394.504z"/>
		<circle display="none" clip-path="url(#SVGID_8_)" fill="#1E1E1E" cx="407.418" cy="687.676" r="6.232"/>
		<circle display="none" clip-path="url(#SVGID_8_)" fill="#635644" cx="407.418" cy="687.676" r="4.958"/>
		<circle display="none" clip-path="url(#SVGID_8_)" fill="#F7A014" cx="407.055" cy="688.195" r="4.51"/>
		
			<ellipse transform="matrix(-0.9848 0.1737 -0.1737 -0.9848 927.0325 1296.0201)" display="none" clip-path="url(#SVGID_8_)" fill="#FFFFFF" cx="406.813" cy="688.57" rx="3.41" ry="3.537"/>
		
			<ellipse transform="matrix(-0.7068 0.7074 -0.7074 -0.7068 1181.8811 886.5006)" display="none" clip-path="url(#SVGID_8_)" fill="#F7A014" cx="407.238" cy="688.163" rx="3.499" ry="3.739"/>
		<circle display="none" clip-path="url(#SVGID_8_)" fill="#1E1E1E" cx="465.154" cy="672.176" r="6.233"/>
		<circle display="none" clip-path="url(#SVGID_8_)" fill="#635644" cx="465.154" cy="672.176" r="4.958"/>
		<circle display="none" clip-path="url(#SVGID_8_)" fill="#F7A014" cx="464.886" cy="672.75" r="4.51"/>
		
			<ellipse transform="matrix(-0.9397 0.3421 -0.3421 -0.9397 1131.6509 1146.762)" display="none" clip-path="url(#SVGID_8_)" fill="#FFFFFF" cx="464.712" cy="673.162" rx="3.41" ry="3.536"/>
		
			<ellipse transform="matrix(-0.5733 0.8193 -0.8193 -0.5733 1282.842 677.2947)" display="none" clip-path="url(#SVGID_8_)" fill="#F7A014" cx="465.061" cy="672.686" rx="3.499" ry="3.74"/>
		<circle display="none" clip-path="url(#SVGID_8_)" fill="#1E1E1E" cx="519.321" cy="646.886" r="6.233"/>
		<circle display="none" clip-path="url(#SVGID_8_)" fill="#635644" cx="519.321" cy="646.886" r="4.958"/>
		<circle display="none" clip-path="url(#SVGID_8_)" fill="#F7A014" cx="519.157" cy="647.498" r="4.51"/>
		
			<ellipse transform="matrix(-0.866 0.5 -0.5 -0.866 1292.5264 949.5675)" display="none" clip-path="url(#SVGID_8_)" fill="#FFFFFF" cx="519.058" cy="647.933" rx="3.41" ry="3.536"/>
		
			<ellipse transform="matrix(-0.4223 0.9065 -0.9065 -0.4223 1325.4725 450.0759)" display="none" clip-path="url(#SVGID_8_)" fill="#F7A014" cx="519.318" cy="647.405" rx="3.499" ry="3.739"/>
		<circle display="none" clip-path="url(#SVGID_8_)" fill="#1E1E1E" cx="568.274" cy="612.574" r="6.233"/>
		<circle display="none" clip-path="url(#SVGID_8_)" fill="#635644" cx="568.274" cy="612.575" r="4.958"/>
		<circle display="none" clip-path="url(#SVGID_8_)" fill="#F7A014" cx="568.219" cy="613.206" r="4.51"/>
		
			<ellipse transform="matrix(-0.766 0.6428 -0.6428 -0.766 1397.9056 718.5066)" display="none" clip-path="url(#SVGID_8_)" fill="#FFFFFF" cx="568.196" cy="613.65" rx="3.411" ry="3.536"/>
		
			<ellipse transform="matrix(-0.2585 0.966 -0.966 -0.2585 1307.5288 222.5219)" display="none" clip-path="url(#SVGID_8_)" fill="#F7A014" cx="568.361" cy="613.085" rx="3.498" ry="3.738"/>
		<circle display="none" clip-path="url(#SVGID_8_)" fill="#1E1E1E" cx="610.524" cy="570.282" r="6.233"/>
		<circle display="none" clip-path="url(#SVGID_8_)" fill="#635644" cx="610.524" cy="570.283" r="4.958"/>
		<circle display="none" clip-path="url(#SVGID_8_)" fill="#F7A014" cx="610.58" cy="570.914" r="4.51"/>
		
			<ellipse transform="matrix(-0.6427 0.7661 -0.7661 -0.6427 1440.8158 470.7647)" display="none" clip-path="url(#SVGID_8_)" fill="#FFFFFF" cx="610.634" cy="571.355" rx="3.411" ry="3.537"/>
		<path display="none" clip-path="url(#SVGID_8_)" fill="#F7A014" d="M610.395,574.257c2.059,0.179,3.861-1.237,4.029-3.161
			c0.168-1.926-1.363-3.631-3.422-3.811c-2.055-0.178-3.859,1.236-4.027,3.16C606.807,572.371,608.338,574.078,610.395,574.257z"/>
		<circle display="none" clip-path="url(#SVGID_8_)" fill="#1E1E1E" cx="644.789" cy="521.296" r="6.233"/>
		<circle display="none" clip-path="url(#SVGID_8_)" fill="#635644" cx="644.79" cy="521.296" r="4.958"/>
		<circle display="none" clip-path="url(#SVGID_8_)" fill="#F7A014" cx="644.954" cy="521.909" r="4.51"/>
		<path display="none" clip-path="url(#SVGID_8_)" fill="#FFFFFF" d="M643.379,525.289c1.691,0.977,3.826,0.445,4.768-1.188
			c0.943-1.629,0.334-3.743-1.357-4.722c-1.691-0.976-3.824-0.444-4.766,1.188C641.08,522.197,641.688,524.313,643.379,525.289z"/>
		
			<ellipse transform="matrix(0.0874 0.9962 -0.9962 0.0874 1108.4441 -166.4146)" display="none" clip-path="url(#SVGID_8_)" fill="#F7A014" cx="645.046" cy="521.747" rx="3.499" ry="3.74"/>
		<circle display="none" clip-path="url(#SVGID_8_)" fill="#1E1E1E" cx="670.027" cy="467.105" r="6.232"/>
		<circle display="none" clip-path="url(#SVGID_8_)" fill="#635644" cx="670.027" cy="467.105" r="4.958"/>
		<circle display="none" clip-path="url(#SVGID_8_)" fill="#F7A014" cx="670.295" cy="467.68" r="4.51"/>
		<path display="none" clip-path="url(#SVGID_8_)" fill="#FFFFFF" d="M669.332,471.281c1.836,0.669,3.846-0.227,4.488-1.997
			c0.646-1.768-0.32-3.744-2.156-4.414c-1.834-0.667-3.844,0.227-4.488,1.997C666.531,468.637,667.496,470.614,669.332,471.281z"/>
		
			<ellipse transform="matrix(0.2593 0.9658 -0.9658 0.2593 948.0664 -301.1431)" display="none" clip-path="url(#SVGID_8_)" fill="#F7A014" cx="670.358" cy="467.504" rx="3.499" ry="3.738"/>
		<circle display="none" clip-path="url(#SVGID_8_)" fill="#1E1E1E" cx="685.472" cy="409.354" r="6.232"/>
		<circle display="none" clip-path="url(#SVGID_8_)" fill="#635644" cx="685.472" cy="409.354" r="4.958"/>
		<circle display="none" clip-path="url(#SVGID_8_)" fill="#F7A014" cx="685.836" cy="409.874" r="4.51"/>
		<path display="none" clip-path="url(#SVGID_8_)" fill="#FFFFFF" d="M685.512,413.588c1.924,0.34,3.748-0.891,4.074-2.746
			c0.328-1.853-0.967-3.632-2.891-3.973c-1.922-0.338-3.746,0.891-4.072,2.746C682.295,411.47,683.588,413.25,685.512,413.588z"/>
		
			<ellipse transform="matrix(0.4231 0.9061 -0.9061 0.4231 766.9311 -385.098)" display="none" clip-path="url(#SVGID_8_)" fill="#F7A014" cx="685.867" cy="409.69" rx="3.499" ry="3.74"/>
		<circle display="none" clip-path="url(#SVGID_8_)" fill="#1E1E1E" cx="377.757" cy="691.596" r="6.232"/>
		<circle display="none" clip-path="url(#SVGID_8_)" fill="#635644" cx="377.757" cy="691.596" r="4.958"/>
		<circle display="none" clip-path="url(#SVGID_8_)" fill="#C6BEB3" cx="377.35" cy="692.081" r="4.51"/>
		
			<ellipse transform="matrix(-0.9962 0.0872 -0.0872 -0.9962 813.0907 1349.3512)" display="none" clip-path="url(#SVGID_8_)" fill="#FFFFFF" cx="377.076" cy="692.433" rx="3.41" ry="3.536"/>
		
			<ellipse transform="matrix(-0.7658 0.6431 -0.6431 -0.7658 1111.7137 979.2383)" display="none" clip-path="url(#SVGID_8_)" fill="#C6BEB3" cx="377.536" cy="692.064" rx="3.499" ry="3.739"/>
		<circle display="none" clip-path="url(#SVGID_8_)" fill="#1E1E1E" cx="436.625" cy="681.187" r="6.232"/>
		<circle display="none" clip-path="url(#SVGID_8_)" fill="#635644" cx="436.624" cy="681.187" r="4.958"/>
		<circle display="none" clip-path="url(#SVGID_8_)" fill="#C6BEB3" cx="436.307" cy="681.735" r="4.51"/>
		
			<ellipse transform="matrix(-0.9659 0.2588 -0.2588 -0.9659 1033.8978 1228.1338)" display="none" clip-path="url(#SVGID_8_)" fill="#FFFFFF" cx="436.099" cy="682.13" rx="3.411" ry="3.535"/>
		
			<ellipse transform="matrix(-0.6425 0.7663 -0.7663 -0.6425 1239.2972 785.1982)" display="none" clip-path="url(#SVGID_8_)" fill="#C6BEB3" cx="436.487" cy="681.687" rx="3.499" ry="3.739"/>
		<circle display="none" clip-path="url(#SVGID_8_)" fill="#1E1E1E" cx="492.79" cy="660.714" r="6.232"/>
		<circle display="none" clip-path="url(#SVGID_8_)" fill="#635644" cx="492.79" cy="660.714" r="4.958"/>
		<circle display="none" clip-path="url(#SVGID_8_)" fill="#C6BEB3" cx="492.573" cy="661.309" r="4.509"/>
		
			<ellipse transform="matrix(-0.9063 0.4227 -0.4227 -0.9063 1218.4095 1053.3313)" display="none" clip-path="url(#SVGID_8_)" fill="#FFFFFF" cx="492.436" cy="661.734" rx="3.41" ry="3.535"/>
		
			<ellipse transform="matrix(-0.4998 0.8661 -0.8661 -0.4998 1311.7305 564.9178)" display="none" clip-path="url(#SVGID_8_)" fill="#C6BEB3" cx="492.741" cy="661.23" rx="3.499" ry="3.739"/>
		<circle display="none" clip-path="url(#SVGID_8_)" fill="#1E1E1E" cx="544.546" cy="630.799" r="6.233"/>
		<circle display="none" clip-path="url(#SVGID_8_)" fill="#635644" cx="544.547" cy="630.799" r="4.959"/>
		<circle display="none" clip-path="url(#SVGID_8_)" fill="#C6BEB3" cx="544.436" cy="631.423" r="4.51"/>
		
			<ellipse transform="matrix(-0.8192 0.5735 -0.5735 -0.8192 1352.7107 837.2737)" display="none" clip-path="url(#SVGID_8_)" fill="#FFFFFF" cx="544.375" cy="631.865" rx="3.411" ry="3.535"/>
		
			<ellipse transform="matrix(-0.3418 0.9398 -0.9398 -0.3418 1324.0159 335.2913)" display="none" clip-path="url(#SVGID_8_)" fill="#C6BEB3" cx="544.589" cy="631.316" rx="3.499" ry="3.739"/>
		<circle display="none" clip-path="url(#SVGID_8_)" fill="#1E1E1E" cx="590.322" cy="592.352" r="6.232"/>
		<circle display="none" clip-path="url(#SVGID_8_)" fill="#635644" cx="590.322" cy="592.351" r="4.958"/>
		<circle display="none" clip-path="url(#SVGID_8_)" fill="#C6BEB3" cx="590.322" cy="592.985" r="4.51"/>
		
			<ellipse transform="matrix(-0.707 0.7072 -0.7072 -0.707 1427.3909 595.5329)" display="none" clip-path="url(#SVGID_8_)" fill="#FFFFFF" cx="590.339" cy="593.431" rx="3.41" ry="3.536"/>
		
			<ellipse transform="matrix(-0.1733 0.9849 -0.9849 -0.1733 1276.6777 114.0965)" display="none" clip-path="url(#SVGID_8_)" fill="#C6BEB3" cx="590.454" cy="592.853" rx="3.499" ry="3.739"/>
		<circle display="none" clip-path="url(#SVGID_8_)" fill="#1E1E1E" cx="628.727" cy="546.539" r="6.232"/>
		<circle display="none" clip-path="url(#SVGID_8_)" fill="#635644" cx="628.727" cy="546.538" r="4.958"/>
		<circle display="none" clip-path="url(#SVGID_8_)" fill="#C6BEB3" cx="628.836" cy="547.163" r="4.509"/>
		
			<ellipse transform="matrix(-0.5735 0.8192 -0.8192 -0.5735 1438.2231 346.4427)" display="none" clip-path="url(#SVGID_8_)" fill="#FFFFFF" cx="628.931" cy="547.599" rx="3.411" ry="3.535"/>
		<path display="none" clip-path="url(#SVGID_8_)" fill="#C6BEB3" d="M628.943,550.508c2.066,0,3.738-1.568,3.738-3.5
			s-1.674-3.498-3.74-3.498c-2.064,0.004-3.738,1.568-3.736,3.5C625.205,548.943,626.879,550.51,628.943,550.508z"/>
		<circle display="none" clip-path="url(#SVGID_8_)" fill="#1E1E1E" cx="658.592" cy="494.753" r="6.232"/>
		<circle display="none" clip-path="url(#SVGID_8_)" fill="#635644" cx="658.592" cy="494.752" r="4.959"/>
		<circle display="none" clip-path="url(#SVGID_8_)" fill="#C6BEB3" cx="658.808" cy="495.348" r="4.51"/>
		
			<ellipse transform="matrix(-0.4227 0.9063 -0.9063 -0.4227 1386.8215 108.1132)" display="none" clip-path="url(#SVGID_8_)" fill="#FFFFFF" cx="658.977" cy="495.761" rx="3.41" ry="3.537"/>
		
			<ellipse transform="matrix(0.1742 0.9847 -0.9847 0.1742 1031.7405 -239.8817)" display="none" clip-path="url(#SVGID_8_)" fill="#C6BEB3" cx="658.887" cy="495.179" rx="3.499" ry="3.739"/>
		<circle display="none" clip-path="url(#SVGID_8_)" fill="#1E1E1E" cx="679.011" cy="438.568" r="6.232"/>
		<circle display="none" clip-path="url(#SVGID_8_)" fill="#635644" cx="679.01" cy="438.567" r="4.959"/>
		<circle display="none" clip-path="url(#SVGID_8_)" fill="#C6BEB3" cx="679.327" cy="439.117" r="4.51"/>
		
			<ellipse transform="matrix(-0.2589 0.9659 -0.9659 -0.2589 1280.019 -103.108)" display="none" clip-path="url(#SVGID_8_)" fill="#FFFFFF" cx="679.564" cy="439.495" rx="3.41" ry="3.537"/>
		
			<ellipse transform="matrix(0.3422 0.9396 -0.9396 0.3422 859.2993 -349.6337)" display="none" clip-path="url(#SVGID_8_)" fill="#C6BEB3" cx="679.375" cy="438.937" rx="3.498" ry="3.74"/>
		<circle display="none" clip-path="url(#SVGID_8_)" fill="#1E1E1E" cx="689.363" cy="379.691" r="6.232"/>
		<circle display="none" clip-path="url(#SVGID_8_)" fill="#635644" cx="689.363" cy="379.691" r="4.959"/>
		<circle display="none" clip-path="url(#SVGID_8_)" fill="#C6BEB3" cx="689.77" cy="380.177" r="4.509"/>
		<path display="none" clip-path="url(#SVGID_8_)" fill="#FFFFFF" d="M689.773,383.904c1.945,0.172,3.654-1.212,3.818-3.087
			c0.164-1.879-1.279-3.537-3.225-3.707s-3.656,1.214-3.82,3.09S687.828,383.735,689.773,383.904z"/>
		
			<ellipse transform="matrix(0.5005 0.8657 -0.8657 0.5005 673.5278 -407.3679)" display="none" clip-path="url(#SVGID_8_)" fill="#C6BEB3" cx="689.786" cy="379.991" rx="3.499" ry="3.739"/>
		<circle display="none" clip-path="url(#SVGID_8_)" fill="#FF5527" cx="347.703" cy="349.964" r="44.435"/>
		<polygon display="none" clip-path="url(#SVGID_8_)" fill="#354438" points="352.525,552.988 350.281,556.875 352.525,560.764 
			357.014,560.764 359.259,556.875 357.014,552.988 		"/>
		<polygon display="none" clip-path="url(#SVGID_8_)" fill="#354438" points="550.502,350.896 548.019,355.198 550.502,359.501 
			555.469,359.501 557.953,355.198 555.469,350.896 		"/>
	</g>
</g>
<g id="Layer_2">
</g>
</svg>
