<?xml version="1.0" encoding="utf-8"?>
<!-- Generator: Adobe Illustrator 16.0.0, SVG Export Plug-In . SVG Version: 6.00 Build 0)  -->
<!DOCTYPE svg PUBLIC "-//W3C//DTD SVG 1.1//EN" "http://www.w3.org/Graphics/SVG/1.1/DTD/svg11.dtd">
<svg version="1.1" xmlns="http://www.w3.org/2000/svg" xmlns:xlink="http://www.w3.org/1999/xlink" x="0px" y="0px"
	 width="711.083px" height="712.262px" viewBox="0 0 711.083 712.262" enable-background="new 0 0 711.083 712.262"
	 xml:space="preserve">
<g id="Layer_1">
	<rect x="355.08" y="391.69" fill="#FCB017" width="2.068" height="57.854"/>
	<g>
		<defs>
			<rect id="SVGID_1_" x="-20" y="356.095" width="376.691" height="453.167"/>
		</defs>
		<clipPath id="SVGID_2_">
			<use xlink:href="#SVGID_1_"  overflow="visible"/>
		</clipPath>
		
			<circle display="none" clip-path="url(#SVGID_2_)" fill="none" stroke="#591645" stroke-width="18" stroke-miterlimit="10" cx="367.153" cy="345.578" r="357.829"/>
		
			<circle display="none" clip-path="url(#SVGID_2_)" fill="none" stroke="#3A3A3A" stroke-width="12" stroke-miterlimit="10" cx="358.524" cy="355.257" r="212.177"/>
		<path display="none" clip-path="url(#SVGID_2_)" fill="#333333" d="M168.062,371.327H339.67L217.632,493.364
			c-2.25,2.25-2.249,5.896,0,8.146c2.25,2.25,5.897,2.251,8.148,0.001L346.071,381.22v171.828c0,3.273,2.579,5.928,5.761,5.928
			s5.761-2.654,5.761-5.928V365.733c0-3.274-2.579-5.928-5.761-5.928c-0.291,0-0.576,0.03-0.855,0.073
			c-0.284-0.044-0.573-0.073-0.869-0.073H168.062c-3.182,0-5.761,2.58-5.761,5.761S164.88,371.327,168.062,371.327z"/>
		<circle clip-path="url(#SVGID_2_)" fill="#455B4A" cx="363.592" cy="350.516" r="129.58"/>
		
			<rect x="332.67" y="458.543" transform="matrix(-0.9848 -0.1736 0.1736 -0.9848 589.6545 974.735)" clip-path="url(#SVGID_2_)" fill="#F7B32B" width="9.589" height="6.063"/>
		
			<rect x="314.528" y="453.271" transform="matrix(-0.9397 -0.342 0.342 -0.9397 463.3405 994.2968)" clip-path="url(#SVGID_2_)" fill="#F7B32B" width="9.589" height="6.063"/>
		
			<rect x="297.578" y="444.929" transform="matrix(-0.866 -0.5001 0.5001 -0.866 340.2164 987.0933)" clip-path="url(#SVGID_2_)" fill="#F7B32B" width="9.589" height="6.062"/>
		
			<rect x="263.659" y="412.511" transform="matrix(-0.5735 -0.8192 0.8192 -0.5735 81.9963 873.7756)" clip-path="url(#SVGID_2_)" fill="#F7B32B" width="9.59" height="6.063"/>
		
			<rect x="254.559" y="395.955" transform="matrix(-0.4226 -0.9063 0.9063 -0.4226 7.3355 802.6462)" clip-path="url(#SVGID_2_)" fill="#F7B32B" width="9.591" height="6.063"/>
		
			<rect x="248.471" y="378.07" transform="matrix(-0.2587 -0.966 0.966 -0.2587 -49.3329 724.3438)" clip-path="url(#SVGID_2_)" fill="#F7B32B" width="9.591" height="6.063"/>
		
			<rect x="343.766" y="390.279" transform="matrix(-0.9849 -0.1733 0.1733 -0.9849 611.7477 891.8159)" clip-path="url(#SVGID_2_)" fill="#FCF6B1" width="2.068" height="57.855"/>
		
			<rect x="332.869" y="386.924" transform="matrix(-0.9398 -0.3417 0.3417 -0.9398 505.59 920.7754)" clip-path="url(#SVGID_2_)" fill="#FCF6B1" width="2.069" height="57.855"/>
		
			<rect x="322.721" y="381.728" transform="matrix(-0.8661 -0.4998 0.4998 -0.8661 398.9014 928.1586)" clip-path="url(#SVGID_2_)" fill="#FCF6B1" width="2.069" height="57.855"/>
		
			<rect x="302.566" y="361.845" transform="matrix(-0.5734 -0.8193 0.8193 -0.5734 157.5354 863.5734)" clip-path="url(#SVGID_2_)" fill="#FCF6B1" width="2.069" height="57.855"/>
		
			<rect x="297.234" y="351.768" transform="matrix(-0.4225 -0.9064 0.9064 -0.4225 79.2378 811.8781)" clip-path="url(#SVGID_2_)" fill="#FCF6B1" width="2.069" height="57.854"/>
		
			<rect x="293.732" y="340.918" transform="matrix(-0.2582 -0.9661 0.9661 -0.2582 13.5561 750.0997)" clip-path="url(#SVGID_2_)" fill="#FCF6B1" width="2.069" height="57.854"/>
		
			<circle opacity="0.6" clip-path="url(#SVGID_2_)" fill="none" stroke="#303030" stroke-width="24" stroke-miterlimit="10" cx="375.994" cy="347.184" r="342.951"/>
		
			<circle clip-path="url(#SVGID_2_)" fill="none" stroke="#C80234" stroke-width="6" stroke-miterlimit="10" cx="358.23" cy="358.49" r="342.951"/>
		
			<circle clip-path="url(#SVGID_2_)" fill="none" stroke="#91083D" stroke-width="22" stroke-miterlimit="10" cx="363.758" cy="349.929" r="342.951"/>
		
			<circle opacity="0.6" clip-path="url(#SVGID_2_)" fill="none" stroke="#455B4A" stroke-width="12" stroke-miterlimit="10" cx="373.477" cy="343.11" r="204.99"/>
		
			<circle clip-path="url(#SVGID_2_)" fill="none" stroke="#6A8270" stroke-width="4" stroke-miterlimit="10" cx="359.29" cy="355.118" r="204.99"/>
		
			<circle clip-path="url(#SVGID_2_)" fill="none" stroke="#455B4A" stroke-width="14" stroke-miterlimit="10" cx="363.758" cy="349.929" r="204.99"/>
		<path clip-path="url(#SVGID_2_)" fill="#455B4A" d="M163.882,361.494h180.825L216.115,490.086c-2.371,2.37-2.37,6.213,0,8.583
			c2.371,2.371,6.214,2.372,8.585,0.001l126.751-126.751v181.057c0,3.449,2.718,6.244,6.071,6.244c3.352,0,6.069-2.795,6.069-6.244
			V355.601c0-3.449-2.718-6.246-6.069-6.246c-0.308,0-0.607,0.031-0.902,0.076c-0.3-0.046-0.604-0.076-0.916-0.076H163.882
			c-3.352,0-6.07,2.718-6.07,6.07C157.813,358.776,160.53,361.494,163.882,361.494z"/>
		<path clip-path="url(#SVGID_2_)" fill="#354438" d="M356.476,355.777c0.361,0.001,0.693,0.412,0.693,0.9v197.376
			c0,0.486-0.332,0.898-0.725,0.898s-0.725-0.412-0.725-0.898V360.092L219.843,495.968c-0.141,0.141-0.313,0.213-0.512,0.213
			c-0.137,0-0.337-0.038-0.513-0.213c-0.176-0.177-0.213-0.376-0.213-0.513c0-0.199,0.071-0.37,0.212-0.512l137.718-137.718h-193.73
			c-0.399,0-0.725-0.324-0.725-0.724c0-0.4,0.325-0.724,0.725-0.724h191.822c0.023,0.001,0.913,0.14,0.913,0.14L356.476,355.777z"/>
		<polygon clip-path="url(#SVGID_2_)" fill="#354438" points="224.01,489.149 226.656,493.732 224.01,498.315 218.718,498.315 
			216.072,493.732 218.718,489.149 		"/>
		<polygon clip-path="url(#SVGID_2_)" fill="#4C0623" points="127.21,590.836 125.615,596.792 119.659,598.388 115.3,594.028 
			116.895,588.072 122.851,586.477 		"/>
		<path clip-path="url(#SVGID_2_)" fill="#6B0A32" d="M350.511,681.546c-3.283-0.184-9.408-0.544-15.447-0.983l-5.974,7.119
			l9.549,8.012L350.511,681.546z"/>
		<path clip-path="url(#SVGID_2_)" fill="#6B0A32" d="M321.659,679.13c-3.254-0.47-9.324-1.362-15.302-2.326l-6.571,6.571
			l8.813,8.813L321.659,679.13z"/>
		<path clip-path="url(#SVGID_2_)" fill="#6B0A32" d="M293.127,674.208c-3.2-0.751-9.171-2.17-15.041-3.651l-7.119,5.974
			l8.012,9.549L293.127,674.208z"/>
		<path clip-path="url(#SVGID_2_)" fill="#6B0A32" d="M265.133,666.818c-3.123-1.027-8.946-2.961-14.666-4.948l-7.612,5.33
			l7.149,10.211L265.133,666.818z"/>
		<path clip-path="url(#SVGID_2_)" fill="#6B0A32" d="M237.89,657.017c-3.021-1.296-8.654-3.729-14.179-6.208l-8.049,4.647
			l6.233,10.795L237.89,657.017z"/>
		<path clip-path="url(#SVGID_2_)" fill="#6B0A32" d="M211.604,644.879c-2.896-1.555-8.296-4.47-13.583-7.421l-8.423,3.928
			l5.269,11.297L211.604,644.879z"/>
		<path clip-path="url(#SVGID_2_)" fill="#6B0A32" d="M186.477,630.495c-2.751-1.801-7.876-5.176-12.886-8.576l-8.732,3.179
			l4.264,11.714L186.477,630.495z"/>
		<path clip-path="url(#SVGID_2_)" fill="#6B0A32" d="M162.698,613.977c-2.583-2.034-7.395-5.843-12.089-9.667l-8.977,2.406
			l3.227,12.04L162.698,613.977z"/>
		<path clip-path="url(#SVGID_2_)" fill="#6B0A32" d="M140.45,595.448c-2.396-2.251-6.857-6.465-11.2-10.684l-9.152,1.614
			l2.165,12.275L140.45,595.448z"/>
		<path clip-path="url(#SVGID_2_)" fill="#6B0A32" d="M119.901,575.052c-2.19-2.451-6.268-7.039-10.226-11.619l-9.259,0.811
			l1.088,12.417L119.901,575.052z"/>
		<path clip-path="url(#SVGID_2_)" fill="#6B0A32" d="M101.208,552.94c-1.968-2.633-5.63-7.557-9.175-12.465H82.74v12.465H101.208z"
			/>
		<path clip-path="url(#SVGID_2_)" fill="#6B0A32" d="M84.514,529.286c-1.731-2.795-4.951-8.021-8.053-13.219l-9.26-0.811
			l-1.085,12.418L84.514,529.286z"/>
		<path clip-path="url(#SVGID_2_)" fill="#6B0A32" d="M69.943,504.265c-1.48-2.934-4.232-8.42-6.869-13.869l-9.153-1.614
			l-2.163,12.276L69.943,504.265z"/>
		<path clip-path="url(#SVGID_2_)" fill="#6B0A32" d="M57.61,478.07c-1.22-3.052-3.482-8.757-5.635-14.416l-8.978-2.405
			l-3.225,12.041L57.61,478.07z"/>
		<path clip-path="url(#SVGID_2_)" fill="#6B0A32" d="M47.607,450.9c-0.949-3.146-2.707-9.027-4.357-14.853l-8.733-3.179
			l-4.263,11.715L47.607,450.9z"/>
		<path clip-path="url(#SVGID_2_)" fill="#6B0A32" d="M40.01,422.962c-0.671-3.217-1.909-9.229-3.046-15.176l-8.423-3.928
			l-5.268,11.299L40.01,422.962z"/>
		<path clip-path="url(#SVGID_2_)" fill="#6B0A32" d="M34.877,394.468c-0.389-3.263-1.098-9.36-1.713-15.384l-8.049-4.646
			l-6.231,10.797L34.877,394.468z"/>
		<circle clip-path="url(#SVGID_2_)" fill="#1E1E1E" cx="304.042" cy="687.64" r="6.232"/>
		<circle clip-path="url(#SVGID_2_)" fill="#635644" cx="304.042" cy="687.64" r="4.958"/>
		<circle clip-path="url(#SVGID_2_)" fill="#F7A014" cx="304.406" cy="688.159" r="4.51"/>
		
			<ellipse transform="matrix(0.9848 0.1737 -0.1737 0.9848 124.2139 -42.4469)" clip-path="url(#SVGID_2_)" fill="#FFFFFF" cx="304.648" cy="688.534" rx="3.41" ry="3.537"/>
		
			<ellipse transform="matrix(0.7068 0.7074 -0.7074 0.7068 575.9606 -13.4631)" clip-path="url(#SVGID_2_)" fill="#F7A014" cx="304.223" cy="688.126" rx="3.499" ry="3.739"/>
		<circle clip-path="url(#SVGID_2_)" fill="#1E1E1E" cx="246.307" cy="672.14" r="6.233"/>
		<circle clip-path="url(#SVGID_2_)" fill="#635644" cx="246.307" cy="672.14" r="4.958"/>
		<circle clip-path="url(#SVGID_2_)" fill="#F7A014" cx="246.575" cy="672.714" r="4.51"/>
		
			<ellipse transform="matrix(0.9397 0.3421 -0.3421 0.9397 245.1286 -43.7985)" clip-path="url(#SVGID_2_)" fill="#FFFFFF" cx="246.748" cy="673.125" rx="3.41" ry="3.536"/>
		
			<ellipse transform="matrix(0.5733 0.8193 -0.8193 0.5733 656.2693 85.1315)" clip-path="url(#SVGID_2_)" fill="#F7A014" cx="246.4" cy="672.65" rx="3.499" ry="3.74"/>
		<circle clip-path="url(#SVGID_2_)" fill="#1E1E1E" cx="192.139" cy="646.85" r="6.233"/>
		<circle clip-path="url(#SVGID_2_)" fill="#635644" cx="192.139" cy="646.85" r="4.958"/>
		<circle clip-path="url(#SVGID_2_)" fill="#F7A014" cx="192.303" cy="647.462" r="4.51"/>
		
			<ellipse transform="matrix(0.866 0.5 -0.5 0.866 349.6934 -9.4074)" clip-path="url(#SVGID_2_)" fill="#FFFFFF" cx="192.403" cy="647.896" rx="3.41" ry="3.536"/>
		
			<ellipse transform="matrix(0.4223 0.9065 -0.9065 0.4223 697.806 199.8091)" clip-path="url(#SVGID_2_)" fill="#F7A014" cx="192.143" cy="647.369" rx="3.499" ry="3.739"/>
		<circle clip-path="url(#SVGID_2_)" fill="#1E1E1E" cx="143.187" cy="612.538" r="6.233"/>
		<circle clip-path="url(#SVGID_2_)" fill="#635644" cx="143.187" cy="612.539" r="4.958"/>
		<circle clip-path="url(#SVGID_2_)" fill="#F7A014" cx="143.242" cy="613.169" r="4.51"/>
		
			<ellipse transform="matrix(0.766 0.6428 -0.6428 0.766 427.9398 51.4691)" clip-path="url(#SVGID_2_)" fill="#FFFFFF" cx="143.265" cy="613.614" rx="3.411" ry="3.537"/>
		
			<ellipse transform="matrix(0.2585 0.966 -0.966 0.2585 698.322 316.3422)" clip-path="url(#SVGID_2_)" fill="#F7A014" cx="143.1" cy="613.049" rx="3.498" ry="3.739"/>
		<circle clip-path="url(#SVGID_2_)" fill="#1E1E1E" cx="100.937" cy="570.246" r="6.233"/>
		<circle clip-path="url(#SVGID_2_)" fill="#635644" cx="100.936" cy="570.247" r="4.958"/>
		<circle clip-path="url(#SVGID_2_)" fill="#F7A014" cx="100.881" cy="570.878" r="4.51"/>
		
			<ellipse transform="matrix(0.6427 0.7661 -0.7661 0.6427 473.7143 126.8802)" clip-path="url(#SVGID_2_)" fill="#FFFFFF" cx="100.826" cy="571.319" rx="3.411" ry="3.537"/>
		
			<ellipse transform="matrix(0.0868 0.9962 -0.9962 0.0868 660.5966 420.8147)" clip-path="url(#SVGID_2_)" fill="#F7A014" cx="100.762" cy="570.735" rx="3.499" ry="3.739"/>
		<circle clip-path="url(#SVGID_2_)" fill="#1E1E1E" cx="66.671" cy="521.26" r="6.232"/>
		<circle clip-path="url(#SVGID_2_)" fill="#635644" cx="66.671" cy="521.26" r="4.958"/>
		<circle clip-path="url(#SVGID_2_)" fill="#F7A014" cx="66.507" cy="521.873" r="4.51"/>
		<path clip-path="url(#SVGID_2_)" fill="#FFFFFF" d="M68.082,525.253c-1.692,0.977-3.826,0.445-4.768-1.188
			c-0.943-1.629-0.335-3.743,1.357-4.722c1.69-0.976,3.824-0.444,4.766,1.188C70.381,522.161,69.773,524.276,68.082,525.253z"/>
		
			<ellipse transform="matrix(-0.0875 0.9962 -0.9962 -0.0875 591.9358 501.2023)" clip-path="url(#SVGID_2_)" fill="#F7A014" cx="66.415" cy="521.711" rx="3.499" ry="3.739"/>
		<circle clip-path="url(#SVGID_2_)" fill="#1E1E1E" cx="41.433" cy="467.069" r="6.232"/>
		<circle clip-path="url(#SVGID_2_)" fill="#635644" cx="41.433" cy="467.069" r="4.958"/>
		<circle clip-path="url(#SVGID_2_)" fill="#F7A014" cx="41.166" cy="467.644" r="4.51"/>
		<path clip-path="url(#SVGID_2_)" fill="#FFFFFF" d="M42.129,471.245c-1.836,0.669-3.846-0.227-4.489-1.997
			c-0.646-1.768,0.321-3.744,2.157-4.414c1.834-0.667,3.844,0.227,4.488,1.997C44.93,468.601,43.965,470.578,42.129,471.245z"/>
		
			<ellipse transform="matrix(-0.2591 0.9658 -0.9658 -0.2591 503.252 548.9136)" clip-path="url(#SVGID_2_)" fill="#F7A014" cx="41.102" cy="467.468" rx="3.499" ry="3.739"/>
		<circle clip-path="url(#SVGID_2_)" fill="#1E1E1E" cx="25.989" cy="409.318" r="6.232"/>
		<circle clip-path="url(#SVGID_2_)" fill="#635644" cx="25.989" cy="409.318" r="4.958"/>
		<circle clip-path="url(#SVGID_2_)" fill="#F7A014" cx="25.625" cy="409.838" r="4.51"/>
		<path clip-path="url(#SVGID_2_)" fill="#FFFFFF" d="M25.949,413.552c-1.925,0.34-3.748-0.891-4.074-2.746
			c-0.328-1.853,0.966-3.632,2.891-3.973c1.922-0.338,3.746,0.891,4.072,2.746C29.166,411.434,27.872,413.214,25.949,413.552z"/>
		
			<ellipse transform="matrix(-0.4229 0.9062 -0.9062 -0.4229 407.6292 559.7216)" clip-path="url(#SVGID_2_)" fill="#F7A014" cx="25.593" cy="409.654" rx="3.499" ry="3.739"/>
		<circle clip-path="url(#SVGID_2_)" fill="#1E1E1E" cx="333.703" cy="691.56" r="6.232"/>
		<circle clip-path="url(#SVGID_2_)" fill="#635644" cx="333.703" cy="691.56" r="4.958"/>
		<circle clip-path="url(#SVGID_2_)" fill="#C6BEB3" cx="334.11" cy="692.044" r="4.51"/>
		
			<ellipse transform="matrix(0.9962 0.0872 -0.0872 0.9962 61.6448 -26.5186)" clip-path="url(#SVGID_2_)" fill="#FFFFFF" cx="334.384" cy="692.397" rx="3.41" ry="3.536"/>
		
			<ellipse transform="matrix(0.7658 0.6431 -0.6431 0.7658 523.2581 -52.6608)" clip-path="url(#SVGID_2_)" fill="#C6BEB3" cx="333.925" cy="692.028" rx="3.499" ry="3.739"/>
		<circle clip-path="url(#SVGID_2_)" fill="#1E1E1E" cx="274.836" cy="681.15" r="6.232"/>
		<circle clip-path="url(#SVGID_2_)" fill="#635644" cx="274.836" cy="681.151" r="4.958"/>
		<circle clip-path="url(#SVGID_2_)" fill="#C6BEB3" cx="275.153" cy="681.699" r="4.51"/>
		
			<ellipse transform="matrix(0.9659 0.2588 -0.2588 0.9659 185.9364 -48.0288)" clip-path="url(#SVGID_2_)" fill="#FFFFFF" cx="275.361" cy="682.094" rx="3.411" ry="3.535"/>
		
			<ellipse transform="matrix(0.6425 0.7663 -0.7663 0.6425 620.6411 32.9816)" clip-path="url(#SVGID_2_)" fill="#C6BEB3" cx="274.973" cy="681.651" rx="3.499" ry="3.739"/>
		<circle clip-path="url(#SVGID_2_)" fill="#1E1E1E" cx="218.671" cy="660.678" r="6.232"/>
		<circle clip-path="url(#SVGID_2_)" fill="#635644" cx="218.67" cy="660.678" r="4.958"/>
		<circle clip-path="url(#SVGID_2_)" fill="#C6BEB3" cx="218.888" cy="661.273" r="4.509"/>
		
			<ellipse transform="matrix(0.9063 0.4227 -0.4227 0.9063 300.1911 -30.5649)" clip-path="url(#SVGID_2_)" fill="#FFFFFF" cx="219.024" cy="661.698" rx="3.41" ry="3.535"/>
		
			<ellipse transform="matrix(0.4998 0.8661 -0.8661 0.4998 682.0986 141.2947)" clip-path="url(#SVGID_2_)" fill="#C6BEB3" cx="218.719" cy="661.194" rx="3.499" ry="3.739"/>
		<circle clip-path="url(#SVGID_2_)" fill="#1E1E1E" cx="166.914" cy="630.763" r="6.233"/>
		<circle clip-path="url(#SVGID_2_)" fill="#635644" cx="166.914" cy="630.763" r="4.959"/>
		<circle clip-path="url(#SVGID_2_)" fill="#C6BEB3" cx="167.024" cy="631.387" r="4.51"/>
		
			<ellipse transform="matrix(0.8192 0.5735 -0.5735 0.8192 392.577 18.4135)" clip-path="url(#SVGID_2_)" fill="#FFFFFF" cx="167.085" cy="631.829" rx="3.411" ry="3.535"/>
		
			<ellipse transform="matrix(0.3418 0.9398 -0.9398 0.3418 703.1041 258.7006)" clip-path="url(#SVGID_2_)" fill="#C6BEB3" cx="166.872" cy="631.28" rx="3.499" ry="3.739"/>
		<circle clip-path="url(#SVGID_2_)" fill="#1E1E1E" cx="121.138" cy="592.315" r="6.232"/>
		<circle clip-path="url(#SVGID_2_)" fill="#635644" cx="121.138" cy="592.315" r="4.959"/>
		<circle clip-path="url(#SVGID_2_)" fill="#C6BEB3" cx="121.138" cy="592.949" r="4.51"/>
		
			<ellipse transform="matrix(0.7071 0.7071 -0.7071 0.7071 455.0948 88.1725)" clip-path="url(#SVGID_2_)" fill="#FFFFFF" cx="121.121" cy="593.395" rx="3.41" ry="3.536"/>
		
			<ellipse transform="matrix(0.1734 0.9849 -0.9849 0.1734 683.8608 370.8494)" clip-path="url(#SVGID_2_)" fill="#C6BEB3" cx="121.007" cy="592.817" rx="3.499" ry="3.739"/>
		<circle clip-path="url(#SVGID_2_)" fill="#1E1E1E" cx="82.734" cy="546.503" r="6.232"/>
		<circle clip-path="url(#SVGID_2_)" fill="#635644" cx="82.734" cy="546.502" r="4.958"/>
		<circle clip-path="url(#SVGID_2_)" fill="#C6BEB3" cx="82.625" cy="547.127" r="4.51"/>
		
			<ellipse transform="matrix(0.5735 0.8192 -0.8192 0.5735 483.7561 165.9164)" clip-path="url(#SVGID_2_)" fill="#FFFFFF" cx="82.53" cy="547.563" rx="3.411" ry="3.535"/>
		<path clip-path="url(#SVGID_2_)" fill="#C6BEB3" d="M82.517,550.472c-2.065,0-3.738-1.568-3.737-3.5
			c0-1.932,1.674-3.498,3.739-3.498c2.065,0.004,3.738,1.568,3.737,3.5C86.256,548.907,84.581,550.474,82.517,550.472z"/>
		<circle clip-path="url(#SVGID_2_)" fill="#1E1E1E" cx="52.869" cy="494.717" r="6.232"/>
		<circle clip-path="url(#SVGID_2_)" fill="#635644" cx="52.869" cy="494.716" r="4.959"/>
		<circle clip-path="url(#SVGID_2_)" fill="#C6BEB3" cx="52.653" cy="495.312" r="4.51"/>
		
			<ellipse transform="matrix(0.4227 0.9063 -0.9063 0.4227 479.5584 238.6147)" clip-path="url(#SVGID_2_)" fill="#FFFFFF" cx="52.484" cy="495.725" rx="3.41" ry="3.537"/>
		
			<ellipse transform="matrix(-0.174 0.9847 -0.9847 -0.174 549.3099 529.5419)" clip-path="url(#SVGID_2_)" fill="#C6BEB3" cx="52.574" cy="495.143" rx="3.499" ry="3.738"/>
		<circle clip-path="url(#SVGID_2_)" fill="#1E1E1E" cx="32.45" cy="438.532" r="6.232"/>
		<circle clip-path="url(#SVGID_2_)" fill="#635644" cx="32.45" cy="438.531" r="4.959"/>
		<circle clip-path="url(#SVGID_2_)" fill="#C6BEB3" cx="32.134" cy="439.081" r="4.51"/>
		
			<ellipse transform="matrix(0.2588 0.9659 -0.9659 0.2588 448.1314 294.9274)" clip-path="url(#SVGID_2_)" fill="#FFFFFF" cx="31.896" cy="439.458" rx="3.41" ry="3.536"/>
		
			<ellipse transform="matrix(-0.3424 0.9396 -0.9396 -0.3424 455.4474 559.0155)" clip-path="url(#SVGID_2_)" fill="#C6BEB3" cx="32.085" cy="438.9" rx="3.499" ry="3.739"/>
		<circle clip-path="url(#SVGID_2_)" fill="#1E1E1E" cx="22.098" cy="379.655" r="6.232"/>
		<circle clip-path="url(#SVGID_2_)" fill="#635644" cx="22.098" cy="379.655" r="4.959"/>
		<circle clip-path="url(#SVGID_2_)" fill="#C6BEB3" cx="21.691" cy="380.141" r="4.509"/>
		<path clip-path="url(#SVGID_2_)" fill="#FFFFFF" d="M21.688,383.868c-1.945,0.172-3.655-1.212-3.819-3.087
			c-0.163-1.879,1.28-3.537,3.226-3.707s3.655,1.214,3.82,3.09C25.078,382.04,23.633,383.699,21.688,383.868z"/>
		
			<ellipse transform="matrix(-0.5004 0.8658 -0.8658 -0.5004 361.4853 551.3132)" clip-path="url(#SVGID_2_)" fill="#C6BEB3" cx="21.674" cy="379.955" rx="3.498" ry="3.738"/>
		<circle clip-path="url(#SVGID_2_)" fill="#FF5527" cx="363.758" cy="349.928" r="44.435"/>
		<polygon clip-path="url(#SVGID_2_)" fill="#354438" points="358.935,552.952 361.179,556.839 358.935,560.728 354.447,560.728 
			352.202,556.839 354.447,552.952 		"/>
		<polygon clip-path="url(#SVGID_2_)" fill="#354438" points="160.958,350.86 163.441,355.162 160.958,359.465 155.991,359.465 
			153.508,355.162 155.991,350.86 		"/>
	</g>
	<rect x="354.851" y="262.646" fill="#FCB017" width="2.068" height="57.854"/>
	<g>
		<defs>
			<rect id="SVGID_3_" x="-20" y="-97.071" width="376.691" height="453.167"/>
		</defs>
		<clipPath id="SVGID_4_">
			<use xlink:href="#SVGID_3_"  overflow="visible"/>
		</clipPath>
		
			<circle display="none" clip-path="url(#SVGID_4_)" fill="none" stroke="#591645" stroke-width="18" stroke-miterlimit="10" cx="367.153" cy="366.612" r="357.829"/>
		
			<circle display="none" clip-path="url(#SVGID_4_)" fill="none" stroke="#3A3A3A" stroke-width="12" stroke-miterlimit="10" cx="358.524" cy="356.934" r="212.177"/>
		<path display="none" clip-path="url(#SVGID_4_)" fill="#333333" d="M168.062,340.863H339.67L217.632,218.826
			c-2.25-2.25-2.249-5.896,0-8.146c2.25-2.25,5.897-2.251,8.148-0.001l120.291,120.291V159.143c0-3.273,2.579-5.928,5.761-5.928
			s5.761,2.654,5.761,5.928v187.314c0,3.274-2.579,5.928-5.761,5.928c-0.291,0-0.576-0.03-0.855-0.073
			c-0.284,0.044-0.573,0.073-0.869,0.073H168.062c-3.182,0-5.761-2.58-5.761-5.761S164.88,340.863,168.062,340.863z"/>
		<circle clip-path="url(#SVGID_4_)" fill="#455B4A" cx="363.592" cy="361.675" r="129.58"/>
		
			<rect x="332.67" y="247.584" transform="matrix(-0.9848 0.1736 -0.1736 -0.9848 713.3193 438.827)" clip-path="url(#SVGID_4_)" fill="#F7B32B" width="9.589" height="6.063"/>
		
			<rect x="314.528" y="252.856" transform="matrix(-0.9397 0.342 -0.342 -0.9397 706.9014 387.1419)" clip-path="url(#SVGID_4_)" fill="#F7B32B" width="9.589" height="6.063"/>
		
			<rect x="297.578" y="261.199" transform="matrix(-0.866 0.5001 -0.5001 -0.866 696.3546 341.8473)" clip-path="url(#SVGID_4_)" fill="#F7B32B" width="9.589" height="6.062"/>
		
			<rect x="263.659" y="293.616" transform="matrix(-0.5735 0.8192 -0.8192 -0.5735 665.4283 246.8536)" clip-path="url(#SVGID_4_)" fill="#F7B32B" width="9.59" height="6.063"/>
		
			<rect x="254.559" y="310.173" transform="matrix(-0.4226 0.9063 -0.9063 -0.4226 652.816 210.493)" clip-path="url(#SVGID_4_)" fill="#F7B32B" width="9.591" height="6.063"/>
		
			<rect x="248.471" y="328.058" transform="matrix(-0.2587 0.966 -0.966 -0.2587 638.609 172.1052)" clip-path="url(#SVGID_4_)" fill="#F7B32B" width="9.591" height="6.063"/>
		
			<rect x="343.766" y="264.057" transform="matrix(-0.9849 0.1733 -0.1733 -0.9849 735.1515 521.7922)" clip-path="url(#SVGID_4_)" fill="#FCF6B1" width="2.068" height="57.855"/>
		
			<rect x="332.869" y="267.412" transform="matrix(-0.9398 0.3417 -0.3417 -0.9398 748.9762 460.7269)" clip-path="url(#SVGID_4_)" fill="#FCF6B1" width="2.069" height="57.855"/>
		
			<rect x="322.721" y="272.607" transform="matrix(-0.8661 0.4998 -0.4998 -0.8661 754.8862 400.8706)" clip-path="url(#SVGID_4_)" fill="#FCF6B1" width="2.069" height="57.855"/>
		
			<rect x="302.566" y="292.491" transform="matrix(-0.5734 0.8193 -0.8193 -0.5734 741.0161 256.9863)" clip-path="url(#SVGID_4_)" fill="#FCF6B1" width="2.069" height="57.855"/>
		
			<rect x="297.234" y="302.568" transform="matrix(-0.4225 0.9064 -0.9064 -0.4225 724.7416 201.2112)" clip-path="url(#SVGID_4_)" fill="#FCF6B1" width="2.069" height="57.854"/>
		
			<rect x="293.732" y="313.418" transform="matrix(-0.2582 0.9661 -0.9661 -0.2582 701.6044 145.9512)" clip-path="url(#SVGID_4_)" fill="#FCF6B1" width="2.069" height="57.854"/>
		
			<circle opacity="0.6" clip-path="url(#SVGID_4_)" fill="none" stroke="#303030" stroke-width="24" stroke-miterlimit="10" cx="375.994" cy="365.007" r="342.951"/>
		
			<circle clip-path="url(#SVGID_4_)" fill="none" stroke="#C80234" stroke-width="6" stroke-miterlimit="10" cx="358.23" cy="353.7" r="342.951"/>
		
			<circle clip-path="url(#SVGID_4_)" fill="none" stroke="#91083D" stroke-width="22" stroke-miterlimit="10" cx="363.758" cy="362.262" r="342.951"/>
		
			<circle opacity="0.6" clip-path="url(#SVGID_4_)" fill="none" stroke="#455B4A" stroke-width="12" stroke-miterlimit="10" cx="373.477" cy="369.08" r="204.99"/>
		
			<circle clip-path="url(#SVGID_4_)" fill="none" stroke="#6A8270" stroke-width="4" stroke-miterlimit="10" cx="359.29" cy="357.072" r="204.99"/>
		
			<circle clip-path="url(#SVGID_4_)" fill="none" stroke="#455B4A" stroke-width="14" stroke-miterlimit="10" cx="363.758" cy="362.262" r="204.99"/>
		<path clip-path="url(#SVGID_4_)" fill="#455B4A" d="M163.882,350.696h180.825L216.115,222.104c-2.371-2.37-2.37-6.213,0-8.583
			c2.371-2.371,6.214-2.372,8.585-0.001l126.751,126.751V159.215c0-3.449,2.718-6.244,6.071-6.244c3.352,0,6.069,2.795,6.069,6.244
			V356.59c0,3.449-2.718,6.246-6.069,6.246c-0.308,0-0.607-0.031-0.902-0.076c-0.3,0.046-0.604,0.076-0.916,0.076H163.882
			c-3.352,0-6.07-2.718-6.07-6.07C157.813,353.414,160.53,350.696,163.882,350.696z"/>
		<path clip-path="url(#SVGID_4_)" fill="#354438" d="M356.476,356.413c0.361-0.001,0.693-0.412,0.693-0.9V158.137
			c0-0.486-0.332-0.898-0.725-0.898s-0.725,0.412-0.725,0.898v193.962L219.843,216.223c-0.141-0.141-0.313-0.213-0.512-0.213
			c-0.137,0-0.337,0.038-0.513,0.213c-0.176,0.177-0.213,0.376-0.213,0.513c0,0.199,0.071,0.37,0.212,0.512l137.718,137.718h-193.73
			c-0.399,0-0.725,0.324-0.725,0.724c0,0.4,0.325,0.724,0.725,0.724h191.822c0.023-0.001,0.913-0.14,0.913-0.14L356.476,356.413z"/>
		<polygon clip-path="url(#SVGID_4_)" fill="#354438" points="224.01,223.041 226.656,218.458 224.01,213.875 218.718,213.875 
			216.072,218.458 218.718,223.041 		"/>
		<polygon clip-path="url(#SVGID_4_)" fill="#4C0623" points="127.21,121.354 125.615,115.398 119.659,113.803 115.3,118.162 
			116.895,124.118 122.851,125.714 		"/>
		<path clip-path="url(#SVGID_4_)" fill="#6B0A32" d="M350.511,30.645c-3.283,0.184-9.408,0.544-15.447,0.983l-5.974-7.119
			l9.549-8.012L350.511,30.645z"/>
		<path clip-path="url(#SVGID_4_)" fill="#6B0A32" d="M321.659,33.061c-3.254,0.47-9.324,1.362-15.302,2.326l-6.571-6.571
			l8.813-8.813L321.659,33.061z"/>
		<path clip-path="url(#SVGID_4_)" fill="#6B0A32" d="M293.127,37.982c-3.2,0.751-9.171,2.17-15.041,3.651l-7.119-5.974l8.012-9.549
			L293.127,37.982z"/>
		<path clip-path="url(#SVGID_4_)" fill="#6B0A32" d="M265.133,45.372c-3.123,1.027-8.946,2.961-14.666,4.948l-7.612-5.33
			l7.149-10.211L265.133,45.372z"/>
		<path clip-path="url(#SVGID_4_)" fill="#6B0A32" d="M237.89,55.174c-3.021,1.296-8.654,3.729-14.179,6.208l-8.049-4.647
			l6.233-10.795L237.89,55.174z"/>
		<path clip-path="url(#SVGID_4_)" fill="#6B0A32" d="M211.604,67.312c-2.896,1.555-8.296,4.47-13.583,7.421l-8.423-3.928
			l5.269-11.297L211.604,67.312z"/>
		<path clip-path="url(#SVGID_4_)" fill="#6B0A32" d="M186.477,81.695c-2.751,1.801-7.876,5.176-12.886,8.576l-8.732-3.179
			l4.264-11.714L186.477,81.695z"/>
		<path clip-path="url(#SVGID_4_)" fill="#6B0A32" d="M162.698,98.214c-2.583,2.034-7.395,5.843-12.089,9.667l-8.977-2.406
			l3.227-12.04L162.698,98.214z"/>
		<path clip-path="url(#SVGID_4_)" fill="#6B0A32" d="M140.45,116.742c-2.396,2.251-6.857,6.465-11.2,10.684l-9.152-1.614
			l2.165-12.275L140.45,116.742z"/>
		<path clip-path="url(#SVGID_4_)" fill="#6B0A32" d="M119.901,137.139c-2.19,2.451-6.268,7.039-10.226,11.619l-9.259-0.811
			l1.088-12.417L119.901,137.139z"/>
		<path clip-path="url(#SVGID_4_)" fill="#6B0A32" d="M101.208,159.25c-1.968,2.633-5.63,7.557-9.175,12.465H82.74V159.25H101.208z"
			/>
		<path clip-path="url(#SVGID_4_)" fill="#6B0A32" d="M84.514,182.904c-1.731,2.795-4.951,8.021-8.053,13.219l-9.26,0.811
			l-1.085-12.418L84.514,182.904z"/>
		<path clip-path="url(#SVGID_4_)" fill="#6B0A32" d="M69.943,207.926c-1.48,2.934-4.232,8.42-6.869,13.869l-9.153,1.614
			l-2.163-12.276L69.943,207.926z"/>
		<path clip-path="url(#SVGID_4_)" fill="#6B0A32" d="M57.61,234.12c-1.22,3.052-3.482,8.757-5.635,14.416l-8.978,2.405
			L39.773,238.9L57.61,234.12z"/>
		<path clip-path="url(#SVGID_4_)" fill="#6B0A32" d="M47.607,261.29c-0.949,3.146-2.707,9.027-4.357,14.853l-8.733,3.179
			l-4.263-11.715L47.607,261.29z"/>
		<path clip-path="url(#SVGID_4_)" fill="#6B0A32" d="M40.01,289.229c-0.671,3.217-1.909,9.229-3.046,15.176l-8.423,3.928
			l-5.268-11.299L40.01,289.229z"/>
		<path clip-path="url(#SVGID_4_)" fill="#6B0A32" d="M34.877,317.723c-0.389,3.263-1.098,9.36-1.713,15.384l-8.049,4.646
			l-6.231-10.797L34.877,317.723z"/>
		<circle clip-path="url(#SVGID_4_)" fill="#1E1E1E" cx="304.042" cy="24.55" r="6.232"/>
		<circle clip-path="url(#SVGID_4_)" fill="#635644" cx="304.042" cy="24.55" r="4.958"/>
		<circle clip-path="url(#SVGID_4_)" fill="#F7A014" cx="304.406" cy="24.031" r="4.51"/>
		
			<ellipse transform="matrix(0.9848 -0.1737 0.1737 0.9848 0.5213 53.2705)" clip-path="url(#SVGID_4_)" fill="#FFFFFF" cx="304.648" cy="23.657" rx="3.41" ry="3.537"/>
		
			<ellipse transform="matrix(0.7068 -0.7074 0.7074 0.7068 72.1672 222.2577)" clip-path="url(#SVGID_4_)" fill="#F7A014" cx="304.223" cy="24.064" rx="3.499" ry="3.739"/>
		<circle clip-path="url(#SVGID_4_)" fill="#1E1E1E" cx="246.307" cy="40.05" r="6.233"/>
		<circle clip-path="url(#SVGID_4_)" fill="#635644" cx="246.307" cy="40.05" r="4.958"/>
		<circle clip-path="url(#SVGID_4_)" fill="#F7A014" cx="246.575" cy="39.476" r="4.51"/>
		
			<ellipse transform="matrix(0.9397 -0.3421 0.3421 0.9397 1.5214 86.7574)" clip-path="url(#SVGID_4_)" fill="#FFFFFF" cx="246.748" cy="39.065" rx="3.41" ry="3.536"/>
		
			<ellipse transform="matrix(0.5733 -0.8193 0.8193 0.5733 72.7408 218.7579)" clip-path="url(#SVGID_4_)" fill="#F7A014" cx="246.4" cy="39.541" rx="3.499" ry="3.74"/>
		<circle clip-path="url(#SVGID_4_)" fill="#1E1E1E" cx="192.139" cy="65.34" r="6.233"/>
		<circle clip-path="url(#SVGID_4_)" fill="#635644" cx="192.139" cy="65.34" r="4.958"/>
		<circle clip-path="url(#SVGID_4_)" fill="#F7A014" cx="192.303" cy="64.729" r="4.51"/>
		
			<ellipse transform="matrix(0.866 -0.5 0.5 0.866 -6.3719 104.8055)" clip-path="url(#SVGID_4_)" fill="#FFFFFF" cx="192.403" cy="64.294" rx="3.41" ry="3.536"/>
		
			<ellipse transform="matrix(0.4223 -0.9065 0.9065 0.4223 52.2407 211.6145)" clip-path="url(#SVGID_4_)" fill="#F7A014" cx="192.143" cy="64.822" rx="3.499" ry="3.739"/>
		<circle clip-path="url(#SVGID_4_)" fill="#1E1E1E" cx="143.187" cy="99.652" r="6.233"/>
		<circle clip-path="url(#SVGID_4_)" fill="#635644" cx="143.187" cy="99.652" r="4.958"/>
		<circle clip-path="url(#SVGID_4_)" fill="#F7A014" cx="143.242" cy="99.021" r="4.51"/>
		
			<ellipse transform="matrix(0.766 -0.6428 0.6428 0.766 -29.846 115.1508)" clip-path="url(#SVGID_4_)" fill="#FFFFFF" cx="143.265" cy="98.576" rx="3.411" ry="3.537"/>
		
			<ellipse transform="matrix(0.2585 -0.966 0.966 0.2585 10.3373 211.7495)" clip-path="url(#SVGID_4_)" fill="#F7A014" cx="143.1" cy="99.141" rx="3.498" ry="3.739"/>
		<circle clip-path="url(#SVGID_4_)" fill="#1E1E1E" cx="100.937" cy="141.944" r="6.233"/>
		<circle clip-path="url(#SVGID_4_)" fill="#635644" cx="100.936" cy="141.944" r="4.958"/>
		<circle clip-path="url(#SVGID_4_)" fill="#F7A014" cx="100.881" cy="141.313" r="4.51"/>
		
			<ellipse transform="matrix(0.6427 -0.7661 0.7661 0.6427 -71.8984 127.5745)" clip-path="url(#SVGID_4_)" fill="#FFFFFF" cx="100.826" cy="140.871" rx="3.411" ry="3.537"/>
		
			<ellipse transform="matrix(0.0868 -0.9962 0.9962 0.0868 -48.9059 229.5589)" clip-path="url(#SVGID_4_)" fill="#F7A014" cx="100.762" cy="141.456" rx="3.499" ry="3.739"/>
		<circle clip-path="url(#SVGID_4_)" fill="#1E1E1E" cx="66.671" cy="190.93" r="6.232"/>
		<circle clip-path="url(#SVGID_4_)" fill="#635644" cx="66.671" cy="190.93" r="4.958"/>
		<circle clip-path="url(#SVGID_4_)" fill="#F7A014" cx="66.507" cy="190.318" r="4.51"/>
		<path clip-path="url(#SVGID_4_)" fill="#FFFFFF" d="M68.082,186.938c-1.692-0.977-3.826-0.445-4.768,1.188
			c-0.943,1.629-0.335,3.743,1.357,4.722c1.69,0.976,3.824,0.444,4.766-1.188C70.381,190.029,69.773,187.914,68.082,186.938z"/>
		
			<ellipse transform="matrix(-0.0875 -0.9962 0.9962 -0.0875 -117.5229 273.3068)" clip-path="url(#SVGID_4_)" fill="#F7A014" cx="66.415" cy="190.479" rx="3.499" ry="3.739"/>
		<circle clip-path="url(#SVGID_4_)" fill="#1E1E1E" cx="41.433" cy="245.122" r="6.232"/>
		<circle clip-path="url(#SVGID_4_)" fill="#635644" cx="41.433" cy="245.122" r="4.958"/>
		<circle clip-path="url(#SVGID_4_)" fill="#F7A014" cx="41.166" cy="244.547" r="4.51"/>
		<path clip-path="url(#SVGID_4_)" fill="#FFFFFF" d="M42.129,240.945c-1.836-0.669-3.846,0.227-4.489,1.997
			c-0.646,1.768,0.321,3.744,2.157,4.414c1.834,0.667,3.844-0.227,4.488-1.997C44.93,243.59,43.965,241.612,42.129,240.945z"/>
		
			<ellipse transform="matrix(-0.2591 -0.9658 0.9658 -0.2591 -184.6084 347.8392)" clip-path="url(#SVGID_4_)" fill="#F7A014" cx="41.102" cy="244.722" rx="3.499" ry="3.739"/>
		<circle clip-path="url(#SVGID_4_)" fill="#1E1E1E" cx="25.989" cy="302.873" r="6.232"/>
		<circle clip-path="url(#SVGID_4_)" fill="#635644" cx="25.989" cy="302.873" r="4.958"/>
		<circle clip-path="url(#SVGID_4_)" fill="#F7A014" cx="25.625" cy="302.353" r="4.51"/>
		<path clip-path="url(#SVGID_4_)" fill="#FFFFFF" d="M25.949,298.639c-1.925-0.34-3.748,0.891-4.074,2.746
			c-0.328,1.853,0.966,3.632,2.891,3.973c1.922,0.338,3.746-0.891,4.072-2.746C29.166,300.757,27.872,298.977,25.949,298.639z"/>
		
			<ellipse transform="matrix(-0.4229 -0.9062 0.9062 -0.4229 -237.7279 453.682)" clip-path="url(#SVGID_4_)" fill="#F7A014" cx="25.593" cy="302.536" rx="3.499" ry="3.739"/>
		<circle clip-path="url(#SVGID_4_)" fill="#1E1E1E" cx="333.703" cy="20.631" r="6.232"/>
		<circle clip-path="url(#SVGID_4_)" fill="#635644" cx="333.703" cy="20.63" r="4.958"/>
		<circle clip-path="url(#SVGID_4_)" fill="#C6BEB3" cx="334.11" cy="20.146" r="4.51"/>
		
			<ellipse transform="matrix(0.9962 -0.0872 0.0872 0.9962 -0.4523 29.231)" clip-path="url(#SVGID_4_)" fill="#FFFFFF" cx="334.384" cy="19.793" rx="3.41" ry="3.536"/>
		
			<ellipse transform="matrix(0.7658 -0.6431 0.6431 0.7658 65.2458 219.4707)" clip-path="url(#SVGID_4_)" fill="#C6BEB3" cx="333.925" cy="20.162" rx="3.499" ry="3.739"/>
		<circle clip-path="url(#SVGID_4_)" fill="#1E1E1E" cx="274.836" cy="31.04" r="6.232"/>
		<circle clip-path="url(#SVGID_4_)" fill="#635644" cx="274.836" cy="31.04" r="4.958"/>
		<circle clip-path="url(#SVGID_4_)" fill="#C6BEB3" cx="275.153" cy="30.491" r="4.51"/>
		
			<ellipse transform="matrix(0.9659 -0.2588 0.2588 0.9659 1.594 72.2998)" clip-path="url(#SVGID_4_)" fill="#FFFFFF" cx="275.361" cy="30.097" rx="3.411" ry="3.535"/>
		
			<ellipse transform="matrix(0.6425 -0.7663 0.7663 0.6425 74.9006 221.6255)" clip-path="url(#SVGID_4_)" fill="#C6BEB3" cx="274.973" cy="30.54" rx="3.499" ry="3.739"/>
		<circle clip-path="url(#SVGID_4_)" fill="#1E1E1E" cx="218.671" cy="51.513" r="6.232"/>
		<circle clip-path="url(#SVGID_4_)" fill="#635644" cx="218.67" cy="51.513" r="4.958"/>
		<circle clip-path="url(#SVGID_4_)" fill="#C6BEB3" cx="218.888" cy="50.917" r="4.509"/>
		
			<ellipse transform="matrix(0.9063 -0.4227 0.4227 0.9063 -0.8164 97.3022)" clip-path="url(#SVGID_4_)" fill="#FFFFFF" cx="219.024" cy="50.492" rx="3.41" ry="3.535"/>
		
			<ellipse transform="matrix(0.4998 -0.8661 0.8661 0.4998 65.2361 214.9522)" clip-path="url(#SVGID_4_)" fill="#C6BEB3" cx="218.719" cy="50.996" rx="3.499" ry="3.739"/>
		<circle clip-path="url(#SVGID_4_)" fill="#1E1E1E" cx="166.914" cy="81.427" r="6.233"/>
		<circle clip-path="url(#SVGID_4_)" fill="#635644" cx="166.914" cy="81.427" r="4.959"/>
		<circle clip-path="url(#SVGID_4_)" fill="#C6BEB3" cx="167.024" cy="80.804" r="4.51"/>
		
			<ellipse transform="matrix(0.8192 -0.5735 0.5735 0.8192 -15.8785 110.3566)" clip-path="url(#SVGID_4_)" fill="#FFFFFF" cx="167.085" cy="80.361" rx="3.411" ry="3.535"/>
		
			<ellipse transform="matrix(0.3418 -0.9398 0.9398 0.3418 33.8009 210.0797)" clip-path="url(#SVGID_4_)" fill="#C6BEB3" cx="166.872" cy="80.91" rx="3.499" ry="3.739"/>
		<circle clip-path="url(#SVGID_4_)" fill="#1E1E1E" cx="121.138" cy="119.875" r="6.232"/>
		<circle clip-path="url(#SVGID_4_)" fill="#635644" cx="121.138" cy="119.875" r="4.959"/>
		<circle clip-path="url(#SVGID_4_)" fill="#C6BEB3" cx="121.138" cy="119.242" r="4.51"/>
		
			<ellipse transform="matrix(0.7071 -0.7071 0.7071 0.7071 -48.5253 120.4487)" clip-path="url(#SVGID_4_)" fill="#FFFFFF" cx="121.121" cy="118.795" rx="3.41" ry="3.536"/>
		
			<ellipse transform="matrix(0.1734 -0.9849 0.9849 0.1734 -17.5411 217.8478)" clip-path="url(#SVGID_4_)" fill="#C6BEB3" cx="121.007" cy="119.374" rx="3.499" ry="3.739"/>
		<circle clip-path="url(#SVGID_4_)" fill="#1E1E1E" cx="82.734" cy="165.688" r="6.232"/>
		<circle clip-path="url(#SVGID_4_)" fill="#635644" cx="82.734" cy="165.688" r="4.958"/>
		<circle clip-path="url(#SVGID_4_)" fill="#C6BEB3" cx="82.625" cy="165.063" r="4.51"/>
		
			<ellipse transform="matrix(0.5735 -0.8192 0.8192 0.5735 -99.6643 137.8186)" clip-path="url(#SVGID_4_)" fill="#FFFFFF" cx="82.53" cy="164.628" rx="3.411" ry="3.535"/>
		<path clip-path="url(#SVGID_4_)" fill="#C6BEB3" d="M82.517,161.719c-2.065,0-3.738,1.568-3.737,3.5
			c0,1.932,1.674,3.498,3.739,3.498c2.065-0.004,3.738-1.568,3.737-3.5C86.256,163.283,84.581,161.717,82.517,161.719z"/>
		<circle clip-path="url(#SVGID_4_)" fill="#1E1E1E" cx="52.869" cy="217.474" r="6.232"/>
		<circle clip-path="url(#SVGID_4_)" fill="#635644" cx="52.869" cy="217.475" r="4.959"/>
		<circle clip-path="url(#SVGID_4_)" fill="#C6BEB3" cx="52.653" cy="216.878" r="4.51"/>
		
			<ellipse transform="matrix(0.4227 -0.9063 0.9063 0.4227 -165.8765 172.5292)" clip-path="url(#SVGID_4_)" fill="#FFFFFF" cx="52.484" cy="216.465" rx="3.41" ry="3.537"/>
		
			<ellipse transform="matrix(-0.174 -0.9847 0.9847 -0.174 -152.0124 306.5926)" clip-path="url(#SVGID_4_)" fill="#C6BEB3" cx="52.574" cy="217.048" rx="3.499" ry="3.738"/>
		<circle clip-path="url(#SVGID_4_)" fill="#1E1E1E" cx="32.45" cy="273.659" r="6.232"/>
		<circle clip-path="url(#SVGID_4_)" fill="#635644" cx="32.45" cy="273.659" r="4.959"/>
		<circle clip-path="url(#SVGID_4_)" fill="#C6BEB3" cx="32.134" cy="273.11" r="4.51"/>
		
			<ellipse transform="matrix(0.2588 -0.9659 0.9659 0.2588 -239.7999 232.9648)" clip-path="url(#SVGID_4_)" fill="#FFFFFF" cx="31.896" cy="272.732" rx="3.41" ry="3.536"/>
		
			<ellipse transform="matrix(-0.3424 -0.9396 0.9396 -0.3424 -213.7047 396.9999)" clip-path="url(#SVGID_4_)" fill="#C6BEB3" cx="32.085" cy="273.29" rx="3.499" ry="3.739"/>
		<circle clip-path="url(#SVGID_4_)" fill="#1E1E1E" cx="22.098" cy="332.536" r="6.232"/>
		<circle clip-path="url(#SVGID_4_)" fill="#635644" cx="22.098" cy="332.536" r="4.959"/>
		<circle clip-path="url(#SVGID_4_)" fill="#C6BEB3" cx="21.691" cy="332.05" r="4.509"/>
		<path clip-path="url(#SVGID_4_)" fill="#FFFFFF" d="M21.688,328.322c-1.945-0.172-3.655,1.212-3.819,3.087
			c-0.163,1.879,1.28,3.537,3.226,3.707s3.655-1.214,3.82-3.09C25.078,330.15,23.633,328.491,21.688,328.322z"/>
		
			<ellipse transform="matrix(-0.5004 -0.8658 0.8658 -0.5004 -255.1306 517.248)" clip-path="url(#SVGID_4_)" fill="#C6BEB3" cx="21.674" cy="332.236" rx="3.498" ry="3.738"/>
		<circle clip-path="url(#SVGID_4_)" fill="#FF5527" cx="363.758" cy="362.263" r="44.435"/>
		<polygon clip-path="url(#SVGID_4_)" fill="#354438" points="358.935,159.238 361.179,155.352 358.935,151.463 354.447,151.463 
			352.202,155.352 354.447,159.238 		"/>
		<polygon clip-path="url(#SVGID_4_)" fill="#354438" points="160.958,361.33 163.441,357.028 160.958,352.726 155.991,352.726 
			153.508,357.028 155.991,361.33 		"/>
	</g>
	<g>
		<defs>
			<rect id="SVGID_5_" x="356.148" y="356.095" width="376.691" height="453.168"/>
		</defs>
		<clipPath id="SVGID_6_">
			<use xlink:href="#SVGID_5_"  overflow="visible"/>
		</clipPath>
		
			<circle display="none" clip-path="url(#SVGID_6_)" fill="none" stroke="#591645" stroke-width="18" stroke-miterlimit="10" cx="345.686" cy="345.579" r="357.829"/>
		
			<circle display="none" clip-path="url(#SVGID_6_)" fill="none" stroke="#3A3A3A" stroke-width="12" stroke-miterlimit="10" cx="354.314" cy="355.257" r="212.177"/>
		<path display="none" clip-path="url(#SVGID_6_)" fill="#333333" d="M544.777,371.327H373.168l122.039,122.037
			c2.25,2.25,2.249,5.896,0,8.146c-2.25,2.25-5.897,2.25-8.147,0L366.768,381.22v171.828c0,3.273-2.579,5.928-5.761,5.928
			s-5.761-2.654-5.761-5.928V365.733c0-3.273,2.579-5.928,5.761-5.928c0.291,0,0.576,0.031,0.855,0.074
			c0.284-0.045,0.573-0.074,0.869-0.074h182.045c3.182,0,5.761,2.58,5.761,5.762C550.538,368.747,547.959,371.327,544.777,371.327z"
			/>
		<circle clip-path="url(#SVGID_6_)" fill="#455B4A" cx="349.247" cy="350.517" r="129.58"/>
		
			<rect x="370.58" y="458.544" transform="matrix(0.9848 -0.1737 0.1737 0.9848 -74.4848 72.2369)" clip-path="url(#SVGID_6_)" fill="#F7B32B" width="9.589" height="6.063"/>
		
			<rect x="388.722" y="453.272" transform="matrix(0.9397 -0.342 0.342 0.9397 -132.3232 162.0913)" clip-path="url(#SVGID_6_)" fill="#F7B32B" width="9.589" height="6.063"/>
		
			<rect x="405.672" y="444.93" transform="matrix(0.866 -0.5001 0.5001 0.866 -169.0011 265.2892)" clip-path="url(#SVGID_6_)" fill="#F7B32B" width="9.589" height="6.062"/>
		
			<rect x="439.589" y="412.512" transform="matrix(0.5734 -0.8192 0.8192 0.5734 -150.8773 541.3085)" clip-path="url(#SVGID_6_)" fill="#F7B32B" width="9.591" height="6.063"/>
		
			<rect x="448.689" y="395.956" transform="matrix(0.4226 -0.9063 0.9063 0.4226 -99.7686 641.3715)" clip-path="url(#SVGID_6_)" fill="#F7B32B" width="9.59" height="6.063"/>
		
			<rect x="454.775" y="378.07" transform="matrix(0.2586 -0.966 0.966 0.2586 -27.4292 726.4634)" clip-path="url(#SVGID_6_)" fill="#F7B32B" width="9.592" height="6.062"/>
		
			<rect x="367.004" y="390.279" transform="matrix(0.985 -0.1728 0.1728 0.985 -66.9081 69.9101)" clip-path="url(#SVGID_6_)" fill="#FCF6B1" width="2.068" height="57.856"/>
		
			<rect x="377.901" y="386.924" transform="matrix(0.9398 -0.3417 0.3417 0.9398 -119.3 154.5354)" clip-path="url(#SVGID_6_)" fill="#FCF6B1" width="2.069" height="57.855"/>
		
			<rect x="388.048" y="381.729" transform="matrix(0.8659 -0.5002 0.5002 0.8659 -153.2379 249.6836)" clip-path="url(#SVGID_6_)" fill="#FCF6B1" width="2.069" height="57.855"/>
		
			<rect x="408.203" y="361.845" transform="matrix(0.5734 -0.8193 0.8193 0.5734 -145.5693 501.9827)" clip-path="url(#SVGID_6_)" fill="#FCF6B1" width="2.069" height="57.854"/>
		
			<rect x="413.536" y="351.768" transform="matrix(0.4225 -0.9064 0.9064 0.4225 -105.6332 595.604)" clip-path="url(#SVGID_6_)" fill="#FCF6B1" width="2.069" height="57.854"/>
		
			<rect x="417.037" y="340.919" transform="matrix(0.258 -0.9661 0.9661 0.258 -47.1291 678.3225)" clip-path="url(#SVGID_6_)" fill="#FCF6B1" width="2.07" height="57.854"/>
		
			<circle opacity="0.6" clip-path="url(#SVGID_6_)" fill="none" stroke="#303030" stroke-width="24" stroke-miterlimit="10" cx="336.845" cy="347.185" r="342.951"/>
		
			<circle clip-path="url(#SVGID_6_)" fill="none" stroke="#C80234" stroke-width="6" stroke-miterlimit="10" cx="354.608" cy="358.491" r="342.951"/>
		
			<circle clip-path="url(#SVGID_6_)" fill="none" stroke="#91083D" stroke-width="22" stroke-miterlimit="10" cx="349.081" cy="349.929" r="342.951"/>
		
			<circle opacity="0.6" clip-path="url(#SVGID_6_)" fill="none" stroke="#455B4A" stroke-width="12" stroke-miterlimit="10" cx="339.362" cy="343.11" r="204.99"/>
		
			<circle clip-path="url(#SVGID_6_)" fill="none" stroke="#6A8270" stroke-width="4" stroke-miterlimit="10" cx="353.549" cy="355.118" r="204.989"/>
		
			<circle clip-path="url(#SVGID_6_)" fill="none" stroke="#455B4A" stroke-width="14" stroke-miterlimit="10" cx="349.081" cy="349.929" r="204.99"/>
		<path clip-path="url(#SVGID_6_)" fill="#455B4A" d="M548.956,361.495H368.131l128.592,128.592c2.371,2.369,2.37,6.213,0,8.582
			c-2.371,2.371-6.214,2.373-8.585,0.002L361.387,371.919v181.057c0,3.449-2.718,6.244-6.071,6.244
			c-3.352,0-6.069-2.795-6.069-6.244V355.601c0-3.449,2.718-6.246,6.069-6.246c0.308,0,0.607,0.031,0.902,0.076
			c0.3-0.045,0.604-0.076,0.916-0.076h191.822c3.353,0,6.07,2.719,6.07,6.07S552.309,361.495,548.956,361.495z"/>
		<path clip-path="url(#SVGID_6_)" fill="#354438" d="M356.363,355.778c-0.361,0-0.693,0.412-0.693,0.9v197.375
			c0,0.486,0.332,0.898,0.725,0.898s0.725-0.412,0.725-0.898V360.093l135.877,135.875c0.141,0.141,0.313,0.213,0.512,0.213
			c0.137,0,0.337-0.037,0.513-0.213s0.213-0.375,0.213-0.512c0-0.199-0.071-0.371-0.212-0.512L356.303,357.226h193.731
			c0.398,0,0.725-0.324,0.725-0.723c0-0.4-0.326-0.725-0.725-0.725H358.211c-0.023,0.002-0.913,0.141-0.913,0.141L356.363,355.778z"
			/>
		<polygon clip-path="url(#SVGID_6_)" fill="#354438" points="488.829,489.149 486.183,493.733 488.829,498.315 494.121,498.315 
			496.767,493.733 494.121,489.149 		"/>
		<polygon clip-path="url(#SVGID_6_)" fill="#4C0623" points="585.629,590.837 587.224,596.792 593.18,598.388 597.539,594.028 
			595.944,588.073 589.988,586.478 		"/>
		<path clip-path="url(#SVGID_6_)" fill="#6B0A32" d="M362.328,681.546c3.283-0.184,9.408-0.543,15.447-0.982l5.974,7.119
			l-9.549,8.012L362.328,681.546z"/>
		<path clip-path="url(#SVGID_6_)" fill="#6B0A32" d="M391.18,679.13c3.254-0.469,9.324-1.361,15.302-2.326l6.571,6.572
			l-8.813,8.813L391.18,679.13z"/>
		<path clip-path="url(#SVGID_6_)" fill="#6B0A32" d="M419.711,674.208c3.2-0.75,9.171-2.17,15.041-3.65l7.119,5.973l-8.012,9.549
			L419.711,674.208z"/>
		<path clip-path="url(#SVGID_6_)" fill="#6B0A32" d="M447.706,666.819c3.123-1.027,8.946-2.961,14.667-4.949l7.611,5.33
			l-7.148,10.211L447.706,666.819z"/>
		<path clip-path="url(#SVGID_6_)" fill="#6B0A32" d="M474.948,657.017c3.021-1.295,8.654-3.729,14.18-6.207l8.049,4.646
			l-6.233,10.795L474.948,657.017z"/>
		<path clip-path="url(#SVGID_6_)" fill="#6B0A32" d="M501.235,644.88c2.896-1.555,8.296-4.471,13.583-7.422l8.423,3.928
			l-5.269,11.297L501.235,644.88z"/>
		<path clip-path="url(#SVGID_6_)" fill="#6B0A32" d="M526.362,630.495c2.751-1.801,7.876-5.176,12.886-8.576l8.732,3.18
			l-4.264,11.713L526.362,630.495z"/>
		<path clip-path="url(#SVGID_6_)" fill="#6B0A32" d="M550.142,613.978c2.582-2.035,7.395-5.844,12.088-9.668l8.977,2.406
			l-3.227,12.041L550.142,613.978z"/>
		<path clip-path="url(#SVGID_6_)" fill="#6B0A32" d="M572.39,595.448c2.396-2.25,6.857-6.465,11.199-10.684l9.152,1.615
			l-2.164,12.275L572.39,595.448z"/>
		<path clip-path="url(#SVGID_6_)" fill="#6B0A32" d="M592.938,575.052c2.189-2.451,6.268-7.039,10.226-11.619l9.259,0.811
			l-1.088,12.418L592.938,575.052z"/>
		<path clip-path="url(#SVGID_6_)" fill="#6B0A32" d="M611.631,552.94c1.968-2.633,5.63-7.557,9.175-12.465h9.293v12.465H611.631z"
			/>
		<path clip-path="url(#SVGID_6_)" fill="#6B0A32" d="M628.325,529.286c1.731-2.795,4.951-8.02,8.053-13.219l9.26-0.811
			l1.085,12.418L628.325,529.286z"/>
		<path clip-path="url(#SVGID_6_)" fill="#6B0A32" d="M642.896,504.265c1.48-2.934,4.232-8.42,6.869-13.869l9.153-1.613
			l2.163,12.275L642.896,504.265z"/>
		<path clip-path="url(#SVGID_6_)" fill="#6B0A32" d="M655.229,478.071c1.22-3.053,3.482-8.758,5.635-14.416l8.978-2.406
			l3.225,12.041L655.229,478.071z"/>
		<path clip-path="url(#SVGID_6_)" fill="#6B0A32" d="M665.231,450.901c0.949-3.146,2.707-9.027,4.357-14.854l8.733-3.178
			l4.263,11.715L665.231,450.901z"/>
		<path clip-path="url(#SVGID_6_)" fill="#6B0A32" d="M672.829,422.962c0.671-3.217,1.909-9.229,3.046-15.176l8.423-3.928
			l5.268,11.299L672.829,422.962z"/>
		<path clip-path="url(#SVGID_6_)" fill="#6B0A32" d="M677.962,394.468c0.389-3.262,1.098-9.359,1.713-15.383l8.049-4.646
			l6.231,10.797L677.962,394.468z"/>
		<circle clip-path="url(#SVGID_6_)" fill="#1E1E1E" cx="408.796" cy="687.641" r="6.233"/>
		<circle clip-path="url(#SVGID_6_)" fill="#635644" cx="408.796" cy="687.641" r="4.958"/>
		<circle clip-path="url(#SVGID_6_)" fill="#F7A014" cx="408.433" cy="688.159" r="4.51"/>
		
			<ellipse transform="matrix(-0.9848 0.1735 -0.1735 -0.9848 929.6766 1295.7834)" clip-path="url(#SVGID_6_)" fill="#FFFFFF" cx="408.191" cy="688.534" rx="3.41" ry="3.536"/>
		
			<ellipse transform="matrix(-0.7068 0.7075 -0.7075 -0.7068 1184.2281 885.3883)" clip-path="url(#SVGID_6_)" fill="#F7A014" cx="408.616" cy="688.127" rx="3.499" ry="3.74"/>
		<circle clip-path="url(#SVGID_6_)" fill="#1E1E1E" cx="466.532" cy="672.141" r="6.233"/>
		<circle clip-path="url(#SVGID_6_)" fill="#635644" cx="466.532" cy="672.141" r="4.957"/>
		<circle clip-path="url(#SVGID_6_)" fill="#F7A014" cx="466.265" cy="672.715" r="4.51"/>
		
			<ellipse transform="matrix(-0.9397 0.3419 -0.3419 -0.9397 1134.2256 1146.3439)" clip-path="url(#SVGID_6_)" fill="#FFFFFF" cx="466.091" cy="673.126" rx="3.411" ry="3.535"/>
		
			<ellipse transform="matrix(-0.5734 0.8193 -0.8193 -0.5734 1284.9805 676.1752)" clip-path="url(#SVGID_6_)" fill="#F7A014" cx="466.438" cy="672.65" rx="3.498" ry="3.74"/>
		<circle clip-path="url(#SVGID_6_)" fill="#1E1E1E" cx="520.7" cy="646.851" r="6.232"/>
		<circle clip-path="url(#SVGID_6_)" fill="#635644" cx="520.7" cy="646.851" r="4.958"/>
		<circle clip-path="url(#SVGID_6_)" fill="#F7A014" cx="520.536" cy="647.463" r="4.51"/>
		
			<ellipse transform="matrix(-0.866 0.5 -0.5 -0.866 1295.0811 948.8127)" clip-path="url(#SVGID_6_)" fill="#FFFFFF" cx="520.436" cy="647.897" rx="3.41" ry="3.536"/>
		
			<ellipse transform="matrix(-0.4224 0.9064 -0.9064 -0.4224 1327.4125 448.8232)" clip-path="url(#SVGID_6_)" fill="#F7A014" cx="520.696" cy="647.369" rx="3.498" ry="3.739"/>
		<circle clip-path="url(#SVGID_6_)" fill="#1E1E1E" cx="569.652" cy="612.538" r="6.232"/>
		<circle clip-path="url(#SVGID_6_)" fill="#635644" cx="569.652" cy="612.539" r="4.958"/>
		<circle clip-path="url(#SVGID_6_)" fill="#F7A014" cx="569.597" cy="613.17" r="4.51"/>
		
			<ellipse transform="matrix(-0.766 0.6429 -0.6429 -0.766 1400.3269 717.4821)" clip-path="url(#SVGID_6_)" fill="#FFFFFF" cx="569.574" cy="613.615" rx="3.41" ry="3.536"/>
		
			<ellipse transform="matrix(-0.2585 0.966 -0.966 -0.2585 1309.2427 221.1727)" clip-path="url(#SVGID_6_)" fill="#F7A014" cx="569.739" cy="613.05" rx="3.498" ry="3.739"/>
		<circle clip-path="url(#SVGID_6_)" fill="#1E1E1E" cx="611.902" cy="570.246" r="6.233"/>
		<circle clip-path="url(#SVGID_6_)" fill="#635644" cx="611.903" cy="570.247" r="4.959"/>
		<circle clip-path="url(#SVGID_6_)" fill="#F7A014" cx="611.958" cy="570.878" r="4.51"/>
		
			<ellipse transform="matrix(-0.6427 0.7661 -0.7661 -0.6427 1443.0532 469.6489)" clip-path="url(#SVGID_6_)" fill="#FFFFFF" cx="612.013" cy="571.319" rx="3.411" ry="3.537"/>
		
			<ellipse transform="matrix(-0.0868 0.9962 -0.9962 -0.0868 1233.7789 10.4995)" clip-path="url(#SVGID_6_)" fill="#F7A014" cx="612.077" cy="570.735" rx="3.5" ry="3.739"/>
		<circle clip-path="url(#SVGID_6_)" fill="#1E1E1E" cx="646.167" cy="521.261" r="6.232"/>
		<circle clip-path="url(#SVGID_6_)" fill="#635644" cx="646.168" cy="521.261" r="4.958"/>
		<circle clip-path="url(#SVGID_6_)" fill="#F7A014" cx="646.332" cy="521.873" r="4.51"/>
		
			<ellipse transform="matrix(-0.4999 0.8661 -0.8661 -0.4999 1421.9811 223.5027)" clip-path="url(#SVGID_6_)" fill="#FFFFFF" cx="646.462" cy="522.299" rx="3.411" ry="3.536"/>
		
			<ellipse transform="matrix(0.0875 0.9962 -0.9962 0.0875 1109.5702 -167.885)" clip-path="url(#SVGID_6_)" fill="#F7A014" cx="646.424" cy="521.711" rx="3.499" ry="3.739"/>
		<circle clip-path="url(#SVGID_6_)" fill="#1E1E1E" cx="671.406" cy="467.069" r="6.232"/>
		<circle clip-path="url(#SVGID_6_)" fill="#635644" cx="671.406" cy="467.069" r="4.957"/>
		<circle clip-path="url(#SVGID_6_)" fill="#F7A014" cx="671.673" cy="467.644" r="4.51"/>
		
			<ellipse transform="matrix(-0.3419 0.9397 -0.9397 -0.3419 1341.415 -3.3369)" clip-path="url(#SVGID_6_)" fill="#FFFFFF" cx="671.876" cy="468.04" rx="3.411" ry="3.536"/>
		
			<ellipse transform="matrix(0.2591 0.9658 -0.9658 0.2591 949.1846 -302.4534)" clip-path="url(#SVGID_6_)" fill="#F7A014" cx="671.737" cy="467.469" rx="3.499" ry="3.739"/>
		<path clip-path="url(#SVGID_6_)" fill="#1E1E1E" d="M687.933,403.181c-3.391-0.596-6.622,1.668-7.221,5.055
			c-0.598,3.393,1.664,6.623,5.055,7.221c3.391,0.6,6.623-1.664,7.221-5.055S691.322,403.778,687.933,403.181z"/>
		<circle clip-path="url(#SVGID_6_)" fill="#635644" cx="686.85" cy="409.318" r="4.957"/>
		<circle clip-path="url(#SVGID_6_)" fill="#F7A014" cx="687.214" cy="409.839" r="4.51"/>
		<path clip-path="url(#SVGID_6_)" fill="#FFFFFF" d="M686.89,413.552c1.925,0.34,3.748-0.891,4.074-2.746
			c0.328-1.852-0.966-3.631-2.891-3.973c-1.922-0.338-3.746,0.891-4.072,2.746C683.673,411.435,684.967,413.214,686.89,413.552z"/>
		<path clip-path="url(#SVGID_6_)" fill="#F7A014" d="M688.726,412.825c1.871-0.875,2.726-3.002,1.908-4.752
			c-0.816-1.752-2.996-2.463-4.868-1.59c-1.87,0.875-2.725,3.002-1.908,4.75C684.675,412.987,686.854,413.7,688.726,412.825z"/>
		<circle clip-path="url(#SVGID_6_)" fill="#1E1E1E" cx="379.136" cy="691.56" r="6.232"/>
		<circle clip-path="url(#SVGID_6_)" fill="#635644" cx="379.136" cy="691.561" r="4.958"/>
		<circle clip-path="url(#SVGID_6_)" fill="#C6BEB3" cx="378.729" cy="692.045" r="4.51"/>
		
			<ellipse transform="matrix(-0.9962 0.087 -0.087 -0.9962 815.7455 1349.2222)" clip-path="url(#SVGID_6_)" fill="#FFFFFF" cx="378.455" cy="692.397" rx="3.41" ry="3.537"/>
		
			<ellipse transform="matrix(-0.7658 0.6431 -0.6431 -0.7658 1114.1245 978.2881)" clip-path="url(#SVGID_6_)" fill="#C6BEB3" cx="378.914" cy="692.028" rx="3.499" ry="3.739"/>
		<circle clip-path="url(#SVGID_6_)" fill="#1E1E1E" cx="438.003" cy="681.151" r="6.232"/>
		<circle clip-path="url(#SVGID_6_)" fill="#635644" cx="438.002" cy="681.151" r="4.958"/>
		<circle clip-path="url(#SVGID_6_)" fill="#C6BEB3" cx="437.686" cy="681.699" r="4.51"/>
		
			<ellipse transform="matrix(-0.9659 0.2588 -0.2588 -0.9659 1036.5986 1227.708)" clip-path="url(#SVGID_6_)" fill="#FFFFFF" cx="437.478" cy="682.095" rx="3.411" ry="3.534"/>
		
			<ellipse transform="matrix(-0.6424 0.7663 -0.7663 -0.6424 1241.5432 784.0114)" clip-path="url(#SVGID_6_)" fill="#C6BEB3" cx="437.866" cy="681.651" rx="3.499" ry="3.739"/>
		<circle clip-path="url(#SVGID_6_)" fill="#1E1E1E" cx="494.168" cy="660.678" r="6.232"/>
		<circle clip-path="url(#SVGID_6_)" fill="#635644" cx="494.168" cy="660.679" r="4.958"/>
		<circle clip-path="url(#SVGID_6_)" fill="#C6BEB3" cx="493.951" cy="661.273" r="4.509"/>
		
			<ellipse transform="matrix(-0.9063 0.4227 -0.4227 -0.9063 1221.022 1052.6798)" clip-path="url(#SVGID_6_)" fill="#FFFFFF" cx="493.814" cy="661.698" rx="3.41" ry="3.536"/>
		
			<ellipse transform="matrix(-0.4998 0.8661 -0.8661 -0.4998 1313.7673 563.6712)" clip-path="url(#SVGID_6_)" fill="#C6BEB3" cx="494.12" cy="661.195" rx="3.499" ry="3.739"/>
		<circle clip-path="url(#SVGID_6_)" fill="#1E1E1E" cx="545.925" cy="630.764" r="6.233"/>
		<circle clip-path="url(#SVGID_6_)" fill="#635644" cx="545.925" cy="630.764" r="4.959"/>
		<circle clip-path="url(#SVGID_6_)" fill="#C6BEB3" cx="545.814" cy="631.387" r="4.51"/>
		
			<ellipse transform="matrix(-0.8192 0.5735 -0.5735 -0.8192 1355.1981 836.4192)" clip-path="url(#SVGID_6_)" fill="#FFFFFF" cx="545.754" cy="631.83" rx="3.411" ry="3.535"/>
		
			<ellipse transform="matrix(-0.3418 0.9398 -0.9398 -0.3418 1325.8324 333.9487)" clip-path="url(#SVGID_6_)" fill="#C6BEB3" cx="545.967" cy="631.281" rx="3.499" ry="3.739"/>
		<circle clip-path="url(#SVGID_6_)" fill="#1E1E1E" cx="591.701" cy="592.316" r="6.232"/>
		<circle clip-path="url(#SVGID_6_)" fill="#635644" cx="591.701" cy="592.315" r="4.958"/>
		<circle clip-path="url(#SVGID_6_)" fill="#C6BEB3" cx="591.701" cy="592.949" r="4.51"/>
		
			<ellipse transform="matrix(-0.707 0.7072 -0.7072 -0.707 1429.7188 594.4973)" clip-path="url(#SVGID_6_)" fill="#FFFFFF" cx="591.717" cy="593.396" rx="3.411" ry="3.536"/>
		
			<ellipse transform="matrix(-0.1734 0.9849 -0.9849 -0.1734 1278.271 112.7142)" clip-path="url(#SVGID_6_)" fill="#C6BEB3" cx="591.832" cy="592.817" rx="3.498" ry="3.739"/>
		<circle clip-path="url(#SVGID_6_)" fill="#1E1E1E" cx="630.104" cy="546.503" r="6.232"/>
		<circle clip-path="url(#SVGID_6_)" fill="#635644" cx="630.104" cy="546.502" r="4.958"/>
		<circle clip-path="url(#SVGID_6_)" fill="#C6BEB3" cx="630.214" cy="547.127" r="4.51"/>
		
			<ellipse transform="matrix(-0.5735 0.8192 -0.8192 -0.5735 1440.3618 345.2571)" clip-path="url(#SVGID_6_)" fill="#FFFFFF" cx="630.309" cy="547.563" rx="3.411" ry="3.535"/>
		<path clip-path="url(#SVGID_6_)" fill="#C6BEB3" d="M630.322,550.472c2.065,0,3.738-1.568,3.737-3.5
			c0-1.932-1.674-3.498-3.739-3.498c-2.065,0.004-3.738,1.568-3.737,3.5C626.583,548.907,628.258,550.474,630.322,550.472z"/>
		<circle clip-path="url(#SVGID_6_)" fill="#1E1E1E" cx="659.97" cy="494.718" r="6.232"/>
		<path clip-path="url(#SVGID_6_)" fill="#635644" d="M662.065,490.222c-2.482-1.154-5.432-0.08-6.59,2.4
			c-1.156,2.482-0.082,5.432,2.398,6.588c2.482,1.158,5.433,0.086,6.59-2.396C665.62,494.331,664.547,491.382,662.065,490.222z"/>
		<circle clip-path="url(#SVGID_6_)" fill="#C6BEB3" cx="660.186" cy="495.313" r="4.509"/>
		
			<ellipse transform="matrix(-0.4228 0.9062 -0.9062 -0.4228 1388.7732 106.8578)" clip-path="url(#SVGID_6_)" fill="#FFFFFF" cx="660.354" cy="495.726" rx="3.41" ry="3.537"/>
		
			<ellipse transform="matrix(0.174 0.9847 -0.9847 0.174 1032.9454 -241.2168)" clip-path="url(#SVGID_6_)" fill="#C6BEB3" cx="660.265" cy="495.144" rx="3.499" ry="3.738"/>
		<circle clip-path="url(#SVGID_6_)" fill="#1E1E1E" cx="680.389" cy="438.532" r="6.232"/>
		<path clip-path="url(#SVGID_6_)" fill="#635644" d="M681.672,433.741c-2.645-0.705-5.362,0.863-6.072,3.508
			c-0.708,2.646,0.861,5.365,3.506,6.072c2.646,0.709,5.364-0.859,6.073-3.506C685.887,437.171,684.317,434.452,681.672,433.741z"/>
		<circle clip-path="url(#SVGID_6_)" fill="#C6BEB3" cx="680.705" cy="439.081" r="4.509"/>
		<path clip-path="url(#SVGID_6_)" fill="#FFFFFF" d="M680.061,442.753c1.887,0.506,3.811-0.559,4.298-2.377
			c0.487-1.822-0.646-3.705-2.533-4.211c-1.885-0.506-3.811,0.561-4.298,2.379C677.04,440.364,678.175,442.249,680.061,442.753z"/>
		
			<ellipse transform="matrix(0.3424 0.9396 -0.9396 0.3424 860.0693 -350.9755)" clip-path="url(#SVGID_6_)" fill="#C6BEB3" cx="680.753" cy="438.901" rx="3.499" ry="3.74"/>
		<circle clip-path="url(#SVGID_6_)" fill="#1E1E1E" cx="690.741" cy="379.655" r="6.233"/>
		<circle clip-path="url(#SVGID_6_)" fill="#635644" cx="690.741" cy="379.655" r="4.958"/>
		<circle clip-path="url(#SVGID_6_)" fill="#C6BEB3" cx="691.148" cy="380.142" r="4.509"/>
		<path clip-path="url(#SVGID_6_)" fill="#FFFFFF" d="M691.151,383.868c1.945,0.172,3.655-1.211,3.819-3.086
			c0.163-1.879-1.28-3.537-3.226-3.707s-3.655,1.213-3.82,3.09C687.761,382.04,689.206,383.7,691.151,383.868z"/>
		
			<ellipse transform="matrix(0.5004 0.8658 -0.8658 0.5004 674.2256 -408.5799)" clip-path="url(#SVGID_6_)" fill="#C6BEB3" cx="691.165" cy="379.955" rx="3.498" ry="3.738"/>
		<circle clip-path="url(#SVGID_6_)" fill="#FF5527" cx="349.081" cy="349.929" r="44.435"/>
		<polygon clip-path="url(#SVGID_6_)" fill="#354438" points="353.904,552.952 351.66,556.839 353.904,560.728 358.392,560.728 
			360.637,556.839 358.392,552.952 		"/>
		<polygon clip-path="url(#SVGID_6_)" fill="#354438" points="551.881,350.86 549.397,355.163 551.881,359.466 556.848,359.466 
			559.331,355.163 556.848,350.86 		"/>
	</g>
	<g>
		<defs>
			<rect id="SVGID_7_" x="356.148" y="-97.071" width="376.691" height="453.167"/>
		</defs>
		<clipPath id="SVGID_8_">
			<use xlink:href="#SVGID_7_"  overflow="visible"/>
		</clipPath>
		
			<circle display="none" clip-path="url(#SVGID_8_)" fill="none" stroke="#591645" stroke-width="18" stroke-miterlimit="10" cx="345.686" cy="366.612" r="357.829"/>
		
			<circle display="none" clip-path="url(#SVGID_8_)" fill="none" stroke="#3A3A3A" stroke-width="12" stroke-miterlimit="10" cx="354.314" cy="356.935" r="212.177"/>
		<path display="none" clip-path="url(#SVGID_8_)" fill="#333333" d="M544.777,340.864H373.168l122.039-122.037
			c2.25-2.25,2.249-5.896,0-8.146c-2.25-2.25-5.897-2.25-8.147,0L366.768,330.972V159.144c0-3.273-2.579-5.928-5.761-5.928
			s-5.761,2.654-5.761,5.928v187.314c0,3.273,2.579,5.928,5.761,5.928c0.291,0,0.576-0.031,0.855-0.074
			c0.284,0.045,0.573,0.074,0.869,0.074h182.045c3.182,0,5.761-2.58,5.761-5.762C550.538,343.444,547.959,340.864,544.777,340.864z"
			/>
		<circle clip-path="url(#SVGID_8_)" fill="#455B4A" cx="349.247" cy="361.675" r="129.58"/>
		
			<rect x="370.58" y="247.585" transform="matrix(0.9848 0.1737 -0.1737 0.9848 49.2505 -61.4057)" clip-path="url(#SVGID_8_)" fill="#F7B32B" width="9.589" height="6.063"/>
		
			<rect x="388.722" y="252.856" transform="matrix(0.9397 0.342 -0.342 0.9397 111.238 -119.1491)" clip-path="url(#SVGID_8_)" fill="#F7B32B" width="9.589" height="6.063"/>
		
			<rect x="405.672" y="261.199" transform="matrix(0.866 0.5001 -0.5001 0.866 187.1376 -169.8488)" clip-path="url(#SVGID_8_)" fill="#F7B32B" width="9.589" height="6.062"/>
		
			<rect x="439.589" y="293.617" transform="matrix(0.5734 0.8192 -0.8192 0.5734 432.5794 -237.5223)" clip-path="url(#SVGID_8_)" fill="#F7B32B" width="9.591" height="6.063"/>
		
			<rect x="448.689" y="310.172" transform="matrix(0.4226 0.9063 -0.9063 0.4226 545.6998 -230.1569)" clip-path="url(#SVGID_8_)" fill="#F7B32B" width="9.59" height="6.063"/>
		
			<rect x="454.775" y="328.059" transform="matrix(0.2586 0.966 -0.966 0.2586 660.5276 -198.4787)" clip-path="url(#SVGID_8_)" fill="#F7B32B" width="9.592" height="6.062"/>
		
			<rect x="367.004" y="264.057" transform="matrix(0.985 0.1728 -0.1728 0.985 56.1697 -59.1946)" clip-path="url(#SVGID_8_)" fill="#FCF6B1" width="2.068" height="57.856"/>
		
			<rect x="377.901" y="267.413" transform="matrix(0.9398 0.3417 -0.3417 0.9398 124.0865 -111.6568)" clip-path="url(#SVGID_8_)" fill="#FCF6B1" width="2.069" height="57.855"/>
		
			<rect x="388.048" y="272.608" transform="matrix(0.8659 0.5002 -0.5002 0.8659 202.9995 -154.1862)" clip-path="url(#SVGID_8_)" fill="#FCF6B1" width="2.069" height="57.855"/>
		
			<rect x="408.203" y="292.492" transform="matrix(0.5734 0.8193 -0.8193 0.5734 437.9122 -198.1612)" clip-path="url(#SVGID_8_)" fill="#FCF6B1" width="2.069" height="57.854"/>
		
			<rect x="413.536" y="302.569" transform="matrix(0.4225 0.9064 -0.9064 0.4225 539.8714 -184.3119)" clip-path="url(#SVGID_8_)" fill="#FCF6B1" width="2.069" height="57.854"/>
		
			<rect x="417.037" y="313.419" transform="matrix(0.258 0.9661 -0.9661 0.258 640.9426 -149.9081)" clip-path="url(#SVGID_8_)" fill="#FCF6B1" width="2.07" height="57.854"/>
		
			<circle opacity="0.6" clip-path="url(#SVGID_8_)" fill="none" stroke="#303030" stroke-width="24" stroke-miterlimit="10" cx="336.845" cy="365.007" r="342.951"/>
		
			<circle clip-path="url(#SVGID_8_)" fill="none" stroke="#C80234" stroke-width="6" stroke-miterlimit="10" cx="354.608" cy="353.7" r="342.951"/>
		
			<circle clip-path="url(#SVGID_8_)" fill="none" stroke="#91083D" stroke-width="22" stroke-miterlimit="10" cx="349.081" cy="362.263" r="342.951"/>
		
			<circle opacity="0.6" clip-path="url(#SVGID_8_)" fill="none" stroke="#455B4A" stroke-width="12" stroke-miterlimit="10" cx="339.362" cy="369.081" r="204.99"/>
		
			<circle clip-path="url(#SVGID_8_)" fill="none" stroke="#6A8270" stroke-width="4" stroke-miterlimit="10" cx="353.549" cy="357.073" r="204.989"/>
		
			<circle clip-path="url(#SVGID_8_)" fill="none" stroke="#455B4A" stroke-width="14" stroke-miterlimit="10" cx="349.081" cy="362.263" r="204.99"/>
		<path clip-path="url(#SVGID_8_)" fill="#455B4A" d="M548.956,350.696H368.131l128.592-128.592c2.371-2.369,2.37-6.213,0-8.582
			c-2.371-2.371-6.214-2.373-8.585-0.002L361.387,340.272V159.216c0-3.449-2.718-6.244-6.071-6.244
			c-3.352,0-6.069,2.795-6.069,6.244v197.375c0,3.449,2.718,6.246,6.069,6.246c0.308,0,0.607-0.031,0.902-0.076
			c0.3,0.045,0.604,0.076,0.916,0.076h191.822c3.353,0,6.07-2.719,6.07-6.07S552.309,350.696,548.956,350.696z"/>
		<path clip-path="url(#SVGID_8_)" fill="#354438" d="M356.363,356.413c-0.361,0-0.693-0.412-0.693-0.9V158.138
			c0-0.486,0.332-0.898,0.725-0.898s0.725,0.412,0.725,0.898v193.961l135.877-135.875c0.141-0.141,0.313-0.213,0.512-0.213
			c0.137,0,0.337,0.037,0.513,0.213s0.213,0.375,0.213,0.512c0,0.199-0.071,0.371-0.212,0.512L356.303,354.966h193.731
			c0.398,0,0.725,0.324,0.725,0.723c0,0.4-0.326,0.725-0.725,0.725H358.211c-0.023-0.002-0.913-0.141-0.913-0.141L356.363,356.413z"
			/>
		<polygon clip-path="url(#SVGID_8_)" fill="#354438" points="488.829,223.042 486.183,218.458 488.829,213.876 494.121,213.876 
			496.767,218.458 494.121,223.042 		"/>
		<polygon clip-path="url(#SVGID_8_)" fill="#4C0623" points="585.629,121.355 587.224,115.399 593.18,113.803 597.539,118.163 
			595.944,124.119 589.988,125.714 		"/>
		<path clip-path="url(#SVGID_8_)" fill="#6B0A32" d="M362.328,30.645c3.283,0.184,9.408,0.544,15.447,0.983l5.974-7.119
			l-9.549-8.012L362.328,30.645z"/>
		<path clip-path="url(#SVGID_8_)" fill="#6B0A32" d="M391.18,33.061c3.254,0.47,9.324,1.362,15.302,2.326l6.571-6.571l-8.813-8.813
			L391.18,33.061z"/>
		<path clip-path="url(#SVGID_8_)" fill="#6B0A32" d="M419.711,37.983c3.2,0.751,9.171,2.17,15.041,3.651l7.119-5.974l-8.012-9.549
			L419.711,37.983z"/>
		<path clip-path="url(#SVGID_8_)" fill="#6B0A32" d="M447.706,45.373c3.123,1.027,8.946,2.961,14.667,4.948l7.611-5.33
			l-7.148-10.211L447.706,45.373z"/>
		<path clip-path="url(#SVGID_8_)" fill="#6B0A32" d="M474.948,55.174c3.021,1.296,8.654,3.729,14.18,6.208l8.049-4.647
			l-6.233-10.795L474.948,55.174z"/>
		<path clip-path="url(#SVGID_8_)" fill="#6B0A32" d="M501.235,67.312c2.896,1.555,8.296,4.47,13.583,7.421l8.423-3.928
			l-5.269-11.297L501.235,67.312z"/>
		<path clip-path="url(#SVGID_8_)" fill="#6B0A32" d="M526.362,81.696c2.751,1.801,7.876,5.176,12.886,8.576l8.732-3.179
			l-4.264-11.714L526.362,81.696z"/>
		<path clip-path="url(#SVGID_8_)" fill="#6B0A32" d="M550.142,98.214c2.582,2.034,7.395,5.843,12.088,9.667l8.977-2.406
			l-3.227-12.04L550.142,98.214z"/>
		<path clip-path="url(#SVGID_8_)" fill="#6B0A32" d="M572.39,116.743c2.396,2.251,6.857,6.465,11.199,10.684l9.152-1.614
			l-2.164-12.275L572.39,116.743z"/>
		<path clip-path="url(#SVGID_8_)" fill="#6B0A32" d="M592.938,137.139c2.189,2.451,6.268,7.039,10.226,11.62l9.259-0.811
			l-1.088-12.417L592.938,137.139z"/>
		<path clip-path="url(#SVGID_8_)" fill="#6B0A32" d="M611.631,159.251c1.968,2.633,5.63,7.557,9.175,12.465h9.293v-12.465H611.631z
			"/>
		<path clip-path="url(#SVGID_8_)" fill="#6B0A32" d="M628.325,182.905c1.731,2.795,4.951,8.02,8.053,13.219l9.26,0.811
			l1.085-12.418L628.325,182.905z"/>
		<path clip-path="url(#SVGID_8_)" fill="#6B0A32" d="M642.896,207.927c1.48,2.934,4.232,8.42,6.869,13.869l9.153,1.613
			l2.163-12.275L642.896,207.927z"/>
		<path clip-path="url(#SVGID_8_)" fill="#6B0A32" d="M655.229,234.12c1.22,3.053,3.482,8.758,5.635,14.416l8.978,2.406
			l3.225-12.041L655.229,234.12z"/>
		<path clip-path="url(#SVGID_8_)" fill="#6B0A32" d="M665.231,261.29c0.949,3.146,2.707,9.027,4.357,14.854l8.733,3.178
			l4.263-11.715L665.231,261.29z"/>
		<path clip-path="url(#SVGID_8_)" fill="#6B0A32" d="M672.829,289.229c0.671,3.217,1.909,9.229,3.046,15.176l8.423,3.928
			l5.268-11.299L672.829,289.229z"/>
		<path clip-path="url(#SVGID_8_)" fill="#6B0A32" d="M677.962,317.724c0.389,3.262,1.098,9.359,1.713,15.383l8.049,4.646
			l6.231-10.797L677.962,317.724z"/>
		<circle clip-path="url(#SVGID_8_)" fill="#1E1E1E" cx="408.796" cy="24.551" r="6.232"/>
		<circle clip-path="url(#SVGID_8_)" fill="#635644" cx="408.796" cy="24.551" r="4.958"/>
		<circle clip-path="url(#SVGID_8_)" fill="#F7A014" cx="408.433" cy="24.032" r="4.51"/>
		
			<ellipse transform="matrix(-0.9848 -0.1737 0.1737 -0.9848 806.0695 117.8491)" clip-path="url(#SVGID_8_)" fill="#FFFFFF" cx="408.191" cy="23.657" rx="3.41" ry="3.537"/>
		
			<ellipse transform="matrix(-0.7068 -0.7074 0.7074 -0.7068 680.4146 330.1232)" clip-path="url(#SVGID_8_)" fill="#F7A014" cx="408.616" cy="24.064" rx="3.499" ry="3.739"/>
		<circle clip-path="url(#SVGID_8_)" fill="#1E1E1E" cx="466.532" cy="40.051" r="6.233"/>
		<circle clip-path="url(#SVGID_8_)" fill="#635644" cx="466.532" cy="40.051" r="4.957"/>
		<circle clip-path="url(#SVGID_8_)" fill="#F7A014" cx="466.265" cy="39.477" r="4.51"/>
		
			<ellipse transform="matrix(-0.9397 -0.342 0.342 -0.9397 890.7144 235.1816)" clip-path="url(#SVGID_8_)" fill="#FFFFFF" cx="466.091" cy="39.065" rx="3.411" ry="3.536"/>
		
			<ellipse transform="matrix(-0.5733 -0.8193 0.8193 -0.5733 701.4514 444.3833)" clip-path="url(#SVGID_8_)" fill="#F7A014" cx="466.438" cy="39.541" rx="3.499" ry="3.74"/>
		<circle clip-path="url(#SVGID_8_)" fill="#1E1E1E" cx="520.7" cy="65.341" r="6.233"/>
		<circle clip-path="url(#SVGID_8_)" fill="#635644" cx="520.7" cy="65.341" r="4.958"/>
		<circle clip-path="url(#SVGID_8_)" fill="#F7A014" cx="520.536" cy="64.729" r="4.51"/>
		
			<ellipse transform="matrix(-0.866 -0.5 0.5 -0.866 939.015 380.1727)" clip-path="url(#SVGID_8_)" fill="#FFFFFF" cx="520.436" cy="64.294" rx="3.41" ry="3.536"/>
		
			<ellipse transform="matrix(-0.4223 -0.9065 0.9065 -0.4223 681.8346 564.1829)" clip-path="url(#SVGID_8_)" fill="#F7A014" cx="520.696" cy="64.822" rx="3.499" ry="3.739"/>
		<circle clip-path="url(#SVGID_8_)" fill="#1E1E1E" cx="569.652" cy="99.653" r="6.232"/>
		<circle clip-path="url(#SVGID_8_)" fill="#635644" cx="569.652" cy="99.652" r="4.958"/>
		<circle clip-path="url(#SVGID_8_)" fill="#F7A014" cx="569.597" cy="99.021" r="4.51"/>
		
			<ellipse transform="matrix(-0.766 -0.6429 0.6429 -0.766 942.4899 540.2394)" clip-path="url(#SVGID_8_)" fill="#FFFFFF" cx="569.574" cy="98.577" rx="3.41" ry="3.537"/>
		
			<ellipse transform="matrix(-0.2585 -0.966 0.966 -0.2585 621.2429 675.1444)" clip-path="url(#SVGID_8_)" fill="#F7A014" cx="569.739" cy="99.142" rx="3.498" ry="3.739"/>
		<circle clip-path="url(#SVGID_8_)" fill="#1E1E1E" cx="611.902" cy="141.945" r="6.233"/>
		<circle clip-path="url(#SVGID_8_)" fill="#635644" cx="611.903" cy="141.944" r="4.958"/>
		<circle clip-path="url(#SVGID_8_)" fill="#F7A014" cx="611.958" cy="141.313" r="4.51"/>
		
			<ellipse transform="matrix(-0.6427 -0.7661 0.7661 -0.6427 897.4402 700.278)" clip-path="url(#SVGID_8_)" fill="#FFFFFF" cx="612.013" cy="140.872" rx="3.411" ry="3.537"/>
		
			<ellipse transform="matrix(-0.0868 -0.9962 0.9962 -0.0868 524.2822 763.5013)" clip-path="url(#SVGID_8_)" fill="#F7A014" cx="612.077" cy="141.456" rx="3.499" ry="3.739"/>
		<circle clip-path="url(#SVGID_8_)" fill="#1E1E1E" cx="646.167" cy="190.931" r="6.232"/>
		<circle clip-path="url(#SVGID_8_)" fill="#635644" cx="646.168" cy="190.931" r="4.958"/>
		<circle clip-path="url(#SVGID_8_)" fill="#F7A014" cx="646.332" cy="190.318" r="4.51"/>
		
			<ellipse transform="matrix(-0.4999 -0.8661 0.8661 -0.4999 805.1624 844.7104)" clip-path="url(#SVGID_8_)" fill="#FFFFFF" cx="646.462" cy="189.893" rx="3.411" ry="3.536"/>
		
			<ellipse transform="matrix(0.0875 -0.9962 0.9962 0.0875 400.1105 817.7577)" clip-path="url(#SVGID_8_)" fill="#F7A014" cx="646.424" cy="190.48" rx="3.499" ry="3.739"/>
		<circle clip-path="url(#SVGID_8_)" fill="#1E1E1E" cx="671.406" cy="245.122" r="6.232"/>
		<circle clip-path="url(#SVGID_8_)" fill="#635644" cx="671.406" cy="245.122" r="4.957"/>
		<circle clip-path="url(#SVGID_8_)" fill="#F7A014" cx="671.673" cy="244.548" r="4.51"/>
		
			<ellipse transform="matrix(-0.3419 -0.9397 0.9397 -0.3419 672.138 959.013)" clip-path="url(#SVGID_8_)" fill="#FFFFFF" cx="671.876" cy="244.151" rx="3.411" ry="3.536"/>
		
			<ellipse transform="matrix(0.2591 -0.9658 0.9658 0.2591 261.3166 830.1069)" clip-path="url(#SVGID_8_)" fill="#F7A014" cx="671.737" cy="244.723" rx="3.499" ry="3.739"/>
		<path clip-path="url(#SVGID_8_)" fill="#1E1E1E" d="M687.933,309.011c-3.391,0.596-6.622-1.668-7.221-5.055
			c-0.598-3.393,1.664-6.623,5.055-7.221c3.391-0.6,6.623,1.664,7.221,5.055S691.322,308.413,687.933,309.011z"/>
		<circle clip-path="url(#SVGID_8_)" fill="#635644" cx="686.85" cy="302.873" r="4.957"/>
		<circle clip-path="url(#SVGID_8_)" fill="#F7A014" cx="687.214" cy="302.353" r="4.51"/>
		<path clip-path="url(#SVGID_8_)" fill="#FFFFFF" d="M686.89,298.64c1.925-0.34,3.748,0.891,4.074,2.746
			c0.328,1.852-0.966,3.631-2.891,3.973c-1.922,0.338-3.746-0.891-4.072-2.746C683.673,300.757,684.967,298.978,686.89,298.64z"/>
		<path clip-path="url(#SVGID_8_)" fill="#F7A014" d="M688.726,299.366c1.871,0.875,2.726,3.002,1.908,4.752
			c-0.816,1.752-2.996,2.463-4.868,1.59c-1.87-0.875-2.725-3.002-1.908-4.75C684.675,299.204,686.854,298.491,688.726,299.366z"/>
		<circle clip-path="url(#SVGID_8_)" fill="#1E1E1E" cx="379.136" cy="20.631" r="6.232"/>
		<circle clip-path="url(#SVGID_8_)" fill="#635644" cx="379.136" cy="20.631" r="4.958"/>
		<circle clip-path="url(#SVGID_8_)" fill="#C6BEB3" cx="378.729" cy="20.146" r="4.51"/>
		
			<ellipse transform="matrix(-0.9962 -0.0872 0.0872 -0.9962 753.742 72.5106)" clip-path="url(#SVGID_8_)" fill="#FFFFFF" cx="378.455" cy="19.794" rx="3.41" ry="3.536"/>
		
			<ellipse transform="matrix(-0.7658 -0.6431 0.6431 -0.7658 656.1119 279.2837)" clip-path="url(#SVGID_8_)" fill="#C6BEB3" cx="378.914" cy="20.163" rx="3.499" ry="3.739"/>
		<circle clip-path="url(#SVGID_8_)" fill="#1E1E1E" cx="438.003" cy="31.041" r="6.232"/>
		<circle clip-path="url(#SVGID_8_)" fill="#635644" cx="438.002" cy="31.04" r="4.958"/>
		<circle clip-path="url(#SVGID_8_)" fill="#C6BEB3" cx="437.686" cy="30.492" r="4.51"/>
		
			<ellipse transform="matrix(-0.9659 -0.2588 0.2588 -0.9659 852.2557 172.4048)" clip-path="url(#SVGID_8_)" fill="#FFFFFF" cx="437.478" cy="30.097" rx="3.411" ry="3.535"/>
		
			<ellipse transform="matrix(-0.6425 -0.7663 0.7663 -0.6425 695.7926 385.6919)" clip-path="url(#SVGID_8_)" fill="#C6BEB3" cx="437.866" cy="30.54" rx="3.499" ry="3.739"/>
		<circle clip-path="url(#SVGID_8_)" fill="#1E1E1E" cx="494.168" cy="51.513" r="6.232"/>
		<circle clip-path="url(#SVGID_8_)" fill="#635644" cx="494.168" cy="51.513" r="4.958"/>
		<circle clip-path="url(#SVGID_8_)" fill="#C6BEB3" cx="493.951" cy="50.918" r="4.509"/>
		
			<ellipse transform="matrix(-0.9063 -0.4227 0.4227 -0.9063 920.0142 304.9647)" clip-path="url(#SVGID_8_)" fill="#FFFFFF" cx="493.814" cy="50.493" rx="3.41" ry="3.535"/>
		
			<ellipse transform="matrix(-0.4998 -0.8661 0.8661 -0.4998 696.9036 504.4649)" clip-path="url(#SVGID_8_)" fill="#C6BEB3" cx="494.12" cy="50.997" rx="3.499" ry="3.739"/>
		<circle clip-path="url(#SVGID_8_)" fill="#1E1E1E" cx="545.925" cy="81.428" r="6.233"/>
		<circle clip-path="url(#SVGID_8_)" fill="#635644" cx="545.925" cy="81.428" r="4.959"/>
		<circle clip-path="url(#SVGID_8_)" fill="#C6BEB3" cx="545.814" cy="80.804" r="4.51"/>
		
			<ellipse transform="matrix(-0.8192 -0.5735 0.5735 -0.8192 946.7418 459.1943)" clip-path="url(#SVGID_8_)" fill="#FFFFFF" cx="545.754" cy="80.362" rx="3.411" ry="3.535"/>
		
			<ellipse transform="matrix(-0.3418 -0.9398 0.9398 -0.3418 656.5279 621.6538)" clip-path="url(#SVGID_8_)" fill="#C6BEB3" cx="545.967" cy="80.911" rx="3.499" ry="3.739"/>
		<circle clip-path="url(#SVGID_8_)" fill="#1E1E1E" cx="591.701" cy="119.875" r="6.232"/>
		<circle clip-path="url(#SVGID_8_)" fill="#635644" cx="591.701" cy="119.876" r="4.959"/>
		<circle clip-path="url(#SVGID_8_)" fill="#C6BEB3" cx="591.701" cy="119.242" r="4.51"/>
		
			<ellipse transform="matrix(-0.7071 -0.7071 0.7071 -0.7071 926.1232 621.2046)" clip-path="url(#SVGID_8_)" fill="#FFFFFF" cx="591.717" cy="118.796" rx="3.411" ry="3.536"/>
		
			<ellipse transform="matrix(-0.1733 -0.9849 0.9849 -0.1733 576.8481 722.9391)" clip-path="url(#SVGID_8_)" fill="#C6BEB3" cx="591.832" cy="119.374" rx="3.499" ry="3.739"/>
		<circle clip-path="url(#SVGID_8_)" fill="#1E1E1E" cx="630.104" cy="165.688" r="6.232"/>
		<circle clip-path="url(#SVGID_8_)" fill="#635644" cx="630.104" cy="165.689" r="4.958"/>
		<circle clip-path="url(#SVGID_8_)" fill="#C6BEB3" cx="630.214" cy="165.064" r="4.51"/>
		
			<ellipse transform="matrix(-0.5735 -0.8192 0.8192 -0.5735 856.9406 775.3903)" clip-path="url(#SVGID_8_)" fill="#FFFFFF" cx="630.309" cy="164.629" rx="3.411" ry="3.535"/>
		<path clip-path="url(#SVGID_8_)" fill="#C6BEB3" d="M630.322,161.72c2.065,0,3.738,1.568,3.737,3.5
			c0,1.932-1.674,3.498-3.739,3.498c-2.065-0.004-3.738-1.568-3.737-3.5C626.583,163.284,628.258,161.718,630.322,161.72z"/>
		<circle clip-path="url(#SVGID_8_)" fill="#1E1E1E" cx="659.97" cy="217.474" r="6.232"/>
		<path clip-path="url(#SVGID_8_)" fill="#635644" d="M662.065,221.97c-2.482,1.154-5.432,0.08-6.59-2.4
			c-1.156-2.482-0.082-5.432,2.398-6.588c2.482-1.158,5.433-0.086,6.59,2.396C665.62,217.86,664.547,220.81,662.065,221.97z"/>
		<circle clip-path="url(#SVGID_8_)" fill="#C6BEB3" cx="660.186" cy="216.879" r="4.509"/>
		
			<ellipse transform="matrix(-0.4228 -0.9062 0.9062 -0.4228 743.3557 906.4197)" clip-path="url(#SVGID_8_)" fill="#FFFFFF" cx="660.354" cy="216.466" rx="3.41" ry="3.537"/>
		
			<ellipse transform="matrix(0.174 -0.9847 0.9847 0.174 331.6221 829.4641)" clip-path="url(#SVGID_8_)" fill="#C6BEB3" cx="660.265" cy="217.048" rx="3.499" ry="3.738"/>
		<circle clip-path="url(#SVGID_8_)" fill="#1E1E1E" cx="680.389" cy="273.659" r="6.232"/>
		<path clip-path="url(#SVGID_8_)" fill="#635644" d="M681.672,278.45c-2.645,0.705-5.362-0.863-6.072-3.508
			c-0.708-2.646,0.861-5.365,3.506-6.072c2.646-0.709,5.364,0.859,6.073,3.506C685.887,275.021,684.317,277.739,681.672,278.45z"/>
		<circle clip-path="url(#SVGID_8_)" fill="#C6BEB3" cx="680.705" cy="273.11" r="4.509"/>
		<path clip-path="url(#SVGID_8_)" fill="#FFFFFF" d="M680.061,269.438c1.887-0.506,3.811,0.559,4.298,2.377
			c0.487,1.822-0.646,3.705-2.533,4.211c-1.885,0.506-3.811-0.561-4.298-2.379C677.04,271.827,678.175,269.942,680.061,269.438z"/>
		
			<ellipse transform="matrix(0.3424 -0.9396 0.9396 0.3424 190.9163 819.3416)" clip-path="url(#SVGID_8_)" fill="#C6BEB3" cx="680.753" cy="273.29" rx="3.499" ry="3.74"/>
		<circle clip-path="url(#SVGID_8_)" fill="#1E1E1E" cx="690.741" cy="332.536" r="6.233"/>
		<circle clip-path="url(#SVGID_8_)" fill="#635644" cx="690.741" cy="332.536" r="4.958"/>
		<circle clip-path="url(#SVGID_8_)" fill="#C6BEB3" cx="691.148" cy="332.05" r="4.509"/>
		<path clip-path="url(#SVGID_8_)" fill="#FFFFFF" d="M691.151,328.323c1.945-0.172,3.655,1.211,3.819,3.086
			c0.163,1.879-1.28,3.537-3.226,3.707s-3.655-1.213-3.82-3.09C687.761,330.151,689.206,328.491,691.151,328.323z"/>
		
			<ellipse transform="matrix(0.5004 -0.8658 0.8658 0.5004 57.6339 764.357)" clip-path="url(#SVGID_8_)" fill="#C6BEB3" cx="691.165" cy="332.236" rx="3.498" ry="3.738"/>
		<circle clip-path="url(#SVGID_8_)" fill="#FF5527" cx="349.081" cy="362.263" r="44.435"/>
		<polygon clip-path="url(#SVGID_8_)" fill="#354438" points="353.904,159.239 351.66,155.353 353.904,151.464 358.392,151.464 
			360.637,155.353 358.392,159.239 		"/>
		<polygon clip-path="url(#SVGID_8_)" fill="#354438" points="551.881,361.331 549.397,357.028 551.881,352.726 556.848,352.726 
			559.331,357.028 556.848,361.331 		"/>
	</g>
</g>
<g id="Layer_2">
</g>
</svg>
