<?xml version="1.0" encoding="utf-8"?>
<!-- Generator: Adobe Illustrator 16.0.0, SVG Export Plug-In . SVG Version: 6.00 Build 0)  -->
<!DOCTYPE svg PUBLIC "-//W3C//DTD SVG 1.1//EN" "http://www.w3.org/Graphics/SVG/1.1/DTD/svg11.dtd">
<svg version="1.1" xmlns="http://www.w3.org/2000/svg" xmlns:xlink="http://www.w3.org/1999/xlink" x="0px" y="0px"
	 width="841.89px" height="595.28px" viewBox="0 0 841.89 595.28" enable-background="new 0 0 841.89 595.28" xml:space="preserve">
<g id="Layer_20" display="none">
	<rect display="inline" fill="#A9E5BB" width="841.89" height="594.498"/>
	
		<image display="inline" overflow="visible" width="1366" height="768" xlink:href="../../../../../Pictures/Screenshots/Screenshot (44).png"  transform="matrix(0.2119 0 0 0.2119 814.5547 14.6162)">
	</image>
</g>
<g id="Layer_11">
	
		<circle display="none" fill="none" stroke="#8DB595" stroke-width="6" stroke-miterlimit="10" cx="-3.438" cy="596.78" r="518.224"/>
	<circle fill="none" stroke="#591645" stroke-width="18" stroke-miterlimit="10" cx="-3.561" cy="599.78" r="357.829"/>
	<circle fill="none" stroke="#3A3A3A" stroke-width="12" stroke-miterlimit="10" cx="5.068" cy="590.102" r="212.176"/>
	<path fill="#333333" d="M195.53,574.031H23.922L145.96,451.994c2.25-2.25,2.25-5.896,0-8.146c-2.25-2.25-5.897-2.251-8.147-0.001
		L17.521,564.139V392.311c0-3.273-2.579-5.927-5.761-5.927S6,389.037,6,392.311v187.314c0,3.274,2.579,5.928,5.761,5.928
		c0.292,0,0.576-0.03,0.855-0.073c0.285,0.044,0.574,0.073,0.87,0.073H195.53c3.182,0,5.761-2.58,5.761-5.761
		S198.712,574.031,195.53,574.031z"/>
	<g id="Layer_10">
		<rect x="-3.561" y="255.104" fill="#581644" width="8.63" height="337.622"/>
		<rect x="-2.477" y="591.115" fill="#581644" width="337.622" height="8.63"/>
	</g>
</g>
<g id="Layer_4" display="none">
	<polygon display="inline" fill="#441337" points="130.85,392.607 176.357,386.106 254.37,386.106 299.876,392.607 299.876,467.367 
		130.85,470.619 	"/>
	<rect x="176.357" y="386.106" display="inline" fill="#591645" width="78.013" height="97.516"/>
	<path display="inline" fill="#441337" d="M179.246,423.486c0,1.696-1.374,3.07-3.07,3.07l0,0c-1.696,0-3.069-1.374-3.069-3.07
		v-47.673c0-1.696,1.374-3.07,3.069-3.07l0,0c1.696,0,3.07,1.374,3.07,3.07V423.486z"/>
	<path display="inline" fill="#441337" d="M257.438,421.963c0,1.696-1.373,3.069-3.068,3.069l0,0c-1.696,0-3.07-1.373-3.07-3.069
		v-47.674c0-1.695,1.374-3.071,3.07-3.071l0,0c1.695,0,3.068,1.376,3.068,3.071V421.963z"/>
	<rect x="263.779" y="362.822" display="inline" fill="#3F3F3F" width="6.261" height="79.141"/>
	<rect x="263.258" y="362.822" display="inline" fill="#591645" width="1.935" height="79.141"/>
	<path display="inline" fill="#FCB017" d="M270.34,403.912c0,0.637-0.201,1.155-0.446,1.155l0,0c-0.245,0-0.444-0.519-0.444-1.155
		v-33.583c0-0.638,0.199-1.156,0.444-1.156l0,0c0.245,0,0.446,0.519,0.446,1.156V403.912z"/>
	<rect x="160.485" y="364.595" display="inline" fill="#3F3F3F" width="6.262" height="79.14"/>
	<rect x="159.964" y="364.595" display="inline" fill="#591645" width="1.936" height="79.14"/>
	<polygon display="inline" fill="#FEC315" points="244.618,333.737 267.37,362.992 299.153,350.351 267.37,327.236 	"/>
	<polygon display="inline" fill="#F4B519" points="267.37,362.992 267.37,382.494 299.153,369.854 299.153,350.351 	"/>
	<polygon display="inline" fill="#EFB116" points="267.37,412.109 267.37,483.622 299.876,467.367 299.876,392.607 	"/>
	<polygon fill="#E8A81A" points="600.598,296.837 622.922,283.443 622.922,359.909 600.598,371.07 	"/>
	<polygon display="inline" fill="#ED9718" points="267.37,483.622 257.62,506.374 299.876,467.367 	"/>
	<polygon display="inline" fill="#FCB017" points="267.37,362.992 163.354,362.992 182.857,333.737 244.618,333.737 	"/>
	<rect x="163.354" y="362.992" display="inline" fill="#F2A41C" width="104.015" height="19.502"/>
	<rect x="163.354" y="412.109" display="inline" fill="#FF5527" width="104.015" height="71.513"/>
	<polygon display="inline" fill="#C80234" points="163.354,483.622 267.37,483.622 257.62,506.374 173.106,506.374 	"/>
	<polygon display="inline" fill="#C80234" points="163.354,412.109 130.85,392.607 130.85,470.619 163.354,483.622 	"/>
	<polygon display="inline" fill="#91083D" points="163.354,483.622 130.85,470.619 173.106,506.374 	"/>
	<polygon display="inline" fill="#FF5527" points="163.354,362.992 130.85,350.351 163.354,327.236 182.857,333.737 	"/>
	<polygon display="inline" fill="#C80234" points="130.85,350.351 163.354,362.992 163.354,382.494 130.85,369.854 	"/>
	<polyline display="inline" fill="#FCD017" points="186.108,323.984 163.354,327.236 182.857,333.737 244.618,333.737 
		267.37,327.236 241.367,323.984 	"/>
	<polyline display="inline" fill="#636363" points="193.436,325.574 177.57,327.75 191.168,332.103 234.231,332.103 250.096,327.75 
		231.965,325.574 	"/>
	<rect x="173.106" y="421.862" display="inline" fill="#C80234" width="84.513" height="52.008"/>
	<rect x="176.357" y="421.862" display="inline" fill="#FF5527" width="81.263" height="48.757"/>
	<polygon display="inline" fill="#C80234" points="275.56,416.748 291.686,407.072 291.686,462.307 275.56,470.37 	"/>
	<polygon display="inline" fill="#ED9718" points="275.624,415.284 290.124,408.049 290.124,460.843 275.624,468.904 	"/>
	<polygon display="inline" fill="#91083D" points="154.229,420.623 138.104,410.948 138.104,466.183 154.229,474.245 	"/>
	<polygon display="inline" fill="#C80234" points="154.166,419.158 139.665,411.922 139.665,464.719 154.166,472.781 	"/>
	<g display="inline">
		<path fill="#C80234" d="M195.549,451.926h-7.039c-0.192,0-0.332-0.043-0.417-0.129c-0.086-0.086-0.129-0.225-0.129-0.417v-9.83
			c0-0.191,0.042-0.331,0.129-0.417c0.085-0.086,0.225-0.129,0.417-0.129h7.039c0.192,0,0.331,0.043,0.417,0.129
			s0.129,0.226,0.129,0.417v1.775c0,0.192-0.043,0.331-0.129,0.417s-0.225,0.129-0.417,0.129h-4.187v1.168h2.958
			c0.192,0,0.331,0.043,0.417,0.129c0.085,0.086,0.129,0.226,0.129,0.417v1.623c0,0.192-0.043,0.332-0.129,0.417
			c-0.086,0.086-0.226,0.129-0.417,0.129h-2.958v1.305h4.187c0.192,0,0.331,0.043,0.417,0.129s0.129,0.226,0.129,0.417v1.775
			c0,0.192-0.043,0.331-0.129,0.417S195.741,451.926,195.549,451.926z"/>
		<path fill="#C80234" d="M204.347,451.926h-3.944c-0.192,0-0.352-0.035-0.478-0.106c-0.126-0.07-0.225-0.202-0.296-0.395
			l-1.486-3.716c-0.091-0.223-0.167-0.417-0.228-0.584c-0.061-0.167-0.111-0.326-0.152-0.478c-0.041-0.152-0.068-0.312-0.083-0.479
			s-0.022-0.371-0.022-0.614v-4.005c0-0.191,0.042-0.331,0.129-0.417c0.085-0.086,0.225-0.129,0.417-0.129h2.412
			c0.192,0,0.339,0.043,0.44,0.129s0.152,0.226,0.152,0.417v4.188c0,0.101,0.01,0.202,0.03,0.303
			c0.02,0.102,0.051,0.208,0.091,0.318l0.713,2.124c0.03,0.102,0.065,0.17,0.106,0.205s0.101,0.053,0.182,0.053h0.167
			c0.081,0,0.141-0.018,0.182-0.053s0.076-0.104,0.106-0.205l0.713-2.139c0.041-0.111,0.071-0.218,0.091-0.318
			c0.021-0.102,0.031-0.202,0.031-0.304v-4.172c0-0.191,0.042-0.331,0.129-0.417c0.085-0.086,0.225-0.129,0.417-0.129h2.381
			c0.192,0,0.331,0.043,0.417,0.129c0.085,0.086,0.129,0.226,0.129,0.417v4.005c0,0.243-0.008,0.447-0.023,0.614
			s-0.043,0.326-0.083,0.479c-0.041,0.151-0.091,0.311-0.151,0.478c-0.061,0.167-0.137,0.361-0.228,0.584l-1.487,3.716
			c-0.071,0.192-0.169,0.324-0.296,0.395C204.698,451.891,204.539,451.926,204.347,451.926z"/>
		<path fill="#C80234" d="M216.542,451.926h-7.039c-0.192,0-0.332-0.043-0.417-0.129c-0.086-0.086-0.129-0.225-0.129-0.417v-9.83
			c0-0.191,0.042-0.331,0.129-0.417c0.085-0.086,0.225-0.129,0.417-0.129h7.039c0.192,0,0.331,0.043,0.417,0.129
			s0.129,0.226,0.129,0.417v1.775c0,0.192-0.043,0.331-0.129,0.417s-0.225,0.129-0.417,0.129h-4.187v1.168h2.958
			c0.192,0,0.331,0.043,0.417,0.129c0.085,0.086,0.129,0.226,0.129,0.417v1.623c0,0.192-0.043,0.332-0.129,0.417
			c-0.086,0.086-0.226,0.129-0.417,0.129h-2.958v1.305h4.187c0.192,0,0.331,0.043,0.417,0.129s0.129,0.226,0.129,0.417v1.775
			c0,0.192-0.043,0.331-0.129,0.417S216.734,451.926,216.542,451.926z"/>
		<path fill="#C80234" d="M221.7,451.926h-2.275c-0.192,0-0.332-0.043-0.417-0.129c-0.086-0.086-0.129-0.225-0.129-0.417v-9.83
			c0-0.191,0.042-0.331,0.129-0.417c0.085-0.086,0.225-0.129,0.417-0.129h1.578c0.192,0,0.356,0.03,0.493,0.091
			c0.137,0.062,0.271,0.167,0.402,0.319l2.943,3.367v-3.231c0-0.191,0.042-0.331,0.129-0.417c0.085-0.086,0.225-0.129,0.417-0.129
			h2.275c0.192,0,0.331,0.043,0.417,0.129s0.129,0.226,0.129,0.417v9.83c0,0.192-0.043,0.331-0.129,0.417s-0.225,0.129-0.417,0.129
			h-2.275c-0.192,0-0.332-0.043-0.417-0.129c-0.086-0.086-0.129-0.225-0.129-0.417v-1.866l-2.594-3.14v5.006
			c0,0.192-0.043,0.331-0.129,0.417S221.892,451.926,221.7,451.926z"/>
		<path fill="#C80234" d="M235.458,451.926H233c-0.192,0-0.331-0.043-0.417-0.129s-0.129-0.225-0.129-0.417v-7.448h-2.23
			c-0.192,0-0.331-0.043-0.417-0.129s-0.129-0.225-0.129-0.417v-1.836c0-0.191,0.043-0.331,0.129-0.417s0.225-0.129,0.417-0.129
			h8.009c0.192,0,0.331,0.043,0.417,0.129s0.129,0.226,0.129,0.417v1.836c0,0.192-0.043,0.331-0.129,0.417s-0.225,0.129-0.417,0.129
			h-2.23v7.448c0,0.192-0.043,0.331-0.129,0.417S235.649,451.926,235.458,451.926z"/>
		<path fill="#C80234" d="M245.317,451.926h-4.793c-0.192,0-0.332-0.043-0.417-0.129s-0.129-0.225-0.129-0.417v-1.775
			c0-0.191,0.043-0.331,0.129-0.417s0.225-0.129,0.417-0.129h4.081c0.131,0,0.229-0.043,0.295-0.129s0.099-0.189,0.099-0.311
			c0-0.172-0.033-0.299-0.099-0.38c-0.066-0.08-0.165-0.126-0.295-0.136l-2.275-0.319c-0.708-0.101-1.277-0.333-1.707-0.697
			c-0.43-0.364-0.645-0.971-0.645-1.82v-1.593c0-0.859,0.278-1.52,0.834-1.979s1.325-0.69,2.306-0.69h4.248
			c0.192,0,0.331,0.043,0.417,0.129s0.129,0.226,0.129,0.417v1.806c0,0.192-0.043,0.331-0.129,0.417s-0.225,0.129-0.417,0.129
			h-3.535c-0.131,0-0.233,0.043-0.303,0.129c-0.071,0.086-0.106,0.195-0.106,0.326c0,0.132,0.036,0.243,0.106,0.334
			c0.07,0.091,0.172,0.142,0.303,0.151l2.26,0.304c0.708,0.101,1.279,0.333,1.714,0.697c0.435,0.364,0.652,0.971,0.652,1.82v1.593
			c0,0.859-0.28,1.52-0.842,1.979C247.054,451.696,246.288,451.926,245.317,451.926z"/>
	</g>
	<g display="inline">
		<path fill="#FCF6B1" d="M194.736,452.739h-7.039c-0.192,0-0.332-0.043-0.417-0.129c-0.086-0.086-0.129-0.225-0.129-0.417v-9.83
			c0-0.191,0.042-0.331,0.129-0.417c0.085-0.086,0.225-0.129,0.417-0.129h7.039c0.192,0,0.331,0.043,0.417,0.129
			s0.129,0.226,0.129,0.417v1.775c0,0.192-0.043,0.331-0.129,0.417s-0.225,0.129-0.417,0.129h-4.187v1.168h2.958
			c0.192,0,0.331,0.043,0.417,0.129c0.085,0.086,0.129,0.226,0.129,0.417v1.623c0,0.192-0.043,0.332-0.129,0.417
			c-0.086,0.086-0.226,0.129-0.417,0.129h-2.958v1.305h4.187c0.192,0,0.331,0.043,0.417,0.129s0.129,0.226,0.129,0.417v1.775
			c0,0.192-0.043,0.331-0.129,0.417S194.928,452.739,194.736,452.739z"/>
		<path fill="#FCF6B1" d="M203.534,452.739h-3.944c-0.192,0-0.352-0.035-0.478-0.106c-0.126-0.07-0.225-0.202-0.296-0.395
			l-1.486-3.716c-0.091-0.223-0.167-0.417-0.228-0.584c-0.061-0.167-0.111-0.326-0.152-0.478c-0.041-0.152-0.068-0.312-0.083-0.479
			s-0.022-0.371-0.022-0.614v-4.005c0-0.191,0.042-0.331,0.129-0.417c0.085-0.086,0.225-0.129,0.417-0.129h2.412
			c0.192,0,0.339,0.043,0.44,0.129s0.152,0.226,0.152,0.417v4.188c0,0.101,0.01,0.202,0.03,0.303
			c0.02,0.102,0.051,0.208,0.091,0.318l0.713,2.124c0.03,0.102,0.065,0.17,0.106,0.205s0.101,0.053,0.182,0.053h0.167
			c0.081,0,0.141-0.018,0.182-0.053s0.076-0.104,0.106-0.205l0.713-2.139c0.041-0.111,0.071-0.218,0.091-0.318
			c0.021-0.102,0.031-0.202,0.031-0.304v-4.172c0-0.191,0.042-0.331,0.129-0.417c0.085-0.086,0.225-0.129,0.417-0.129h2.381
			c0.192,0,0.331,0.043,0.417,0.129c0.085,0.086,0.129,0.226,0.129,0.417v4.005c0,0.243-0.008,0.447-0.023,0.614
			s-0.043,0.326-0.083,0.479c-0.041,0.151-0.091,0.311-0.151,0.478c-0.061,0.167-0.137,0.361-0.228,0.584l-1.487,3.716
			c-0.071,0.192-0.169,0.324-0.296,0.395C203.885,452.704,203.726,452.739,203.534,452.739z"/>
		<path fill="#FCF6B1" d="M215.73,452.739h-7.039c-0.192,0-0.332-0.043-0.417-0.129c-0.086-0.086-0.129-0.225-0.129-0.417v-9.83
			c0-0.191,0.042-0.331,0.129-0.417c0.085-0.086,0.225-0.129,0.417-0.129h7.039c0.192,0,0.331,0.043,0.417,0.129
			s0.129,0.226,0.129,0.417v1.775c0,0.192-0.043,0.331-0.129,0.417s-0.225,0.129-0.417,0.129h-4.187v1.168h2.958
			c0.192,0,0.331,0.043,0.417,0.129c0.085,0.086,0.129,0.226,0.129,0.417v1.623c0,0.192-0.043,0.332-0.129,0.417
			c-0.086,0.086-0.226,0.129-0.417,0.129h-2.958v1.305h4.187c0.192,0,0.331,0.043,0.417,0.129s0.129,0.226,0.129,0.417v1.775
			c0,0.192-0.043,0.331-0.129,0.417S215.922,452.739,215.73,452.739z"/>
		<path fill="#FCF6B1" d="M220.887,452.739h-2.275c-0.192,0-0.332-0.043-0.417-0.129c-0.086-0.086-0.129-0.225-0.129-0.417v-9.83
			c0-0.191,0.042-0.331,0.129-0.417c0.085-0.086,0.225-0.129,0.417-0.129h1.578c0.192,0,0.356,0.03,0.493,0.091
			c0.137,0.062,0.271,0.167,0.402,0.319l2.943,3.367v-3.231c0-0.191,0.042-0.331,0.129-0.417c0.085-0.086,0.225-0.129,0.417-0.129
			h2.275c0.192,0,0.331,0.043,0.417,0.129s0.129,0.226,0.129,0.417v9.83c0,0.192-0.043,0.331-0.129,0.417s-0.225,0.129-0.417,0.129
			h-2.275c-0.192,0-0.332-0.043-0.417-0.129c-0.086-0.086-0.129-0.225-0.129-0.417v-1.866l-2.594-3.14v5.006
			c0,0.192-0.043,0.331-0.129,0.417S221.079,452.739,220.887,452.739z"/>
		<path fill="#FCF6B1" d="M234.645,452.739h-2.458c-0.192,0-0.331-0.043-0.417-0.129s-0.129-0.225-0.129-0.417v-7.448h-2.23
			c-0.192,0-0.331-0.043-0.417-0.129s-0.129-0.225-0.129-0.417v-1.836c0-0.191,0.043-0.331,0.129-0.417s0.225-0.129,0.417-0.129
			h8.009c0.192,0,0.331,0.043,0.417,0.129s0.129,0.226,0.129,0.417v1.836c0,0.192-0.043,0.331-0.129,0.417s-0.225,0.129-0.417,0.129
			h-2.23v7.448c0,0.192-0.043,0.331-0.129,0.417S234.837,452.739,234.645,452.739z"/>
		<path fill="#FCF6B1" d="M244.505,452.739h-4.793c-0.192,0-0.332-0.043-0.417-0.129s-0.129-0.225-0.129-0.417v-1.775
			c0-0.191,0.043-0.331,0.129-0.417s0.225-0.129,0.417-0.129h4.081c0.131,0,0.229-0.043,0.295-0.129s0.099-0.189,0.099-0.311
			c0-0.172-0.033-0.299-0.099-0.38c-0.066-0.08-0.165-0.126-0.295-0.136l-2.275-0.319c-0.708-0.101-1.277-0.333-1.707-0.697
			c-0.43-0.364-0.645-0.971-0.645-1.82v-1.593c0-0.859,0.278-1.52,0.834-1.979s1.325-0.69,2.306-0.69h4.248
			c0.192,0,0.331,0.043,0.417,0.129s0.129,0.226,0.129,0.417v1.806c0,0.192-0.043,0.331-0.129,0.417s-0.225,0.129-0.417,0.129
			h-3.535c-0.131,0-0.233,0.043-0.303,0.129c-0.071,0.086-0.106,0.195-0.106,0.326c0,0.132,0.036,0.243,0.106,0.334
			c0.07,0.091,0.172,0.142,0.303,0.151l2.26,0.304c0.708,0.101,1.279,0.333,1.714,0.697c0.435,0.364,0.652,0.971,0.652,1.82v1.593
			c0,0.859-0.28,1.52-0.842,1.979C246.242,452.51,245.476,452.739,244.505,452.739z"/>
	</g>
	<rect x="187.733" y="454.366" display="inline" fill="#C80234" width="60.134" height="1.22"/>
	<rect x="187.733" y="438.113" display="inline" fill="#C80234" width="60.134" height="1.219"/>
	<rect x="186.921" y="454.773" display="inline" fill="#FCF6B1" width="60.134" height="1.218"/>
	<rect x="186.921" y="438.521" display="inline" fill="#FCF6B1" width="60.134" height="1.219"/>
	
		<circle display="inline" fill="none" stroke="#A2A5A2" stroke-width="7" stroke-miterlimit="10" cx="214.169" cy="316.655" r="8.851"/>
	
		<circle display="inline" fill="none" stroke="#848484" stroke-width="7" stroke-miterlimit="10" cx="213.487" cy="317.339" r="8.851"/>
	<g id="Layer_8" display="inline">
		
			<rect x="214.609" y="461.166" transform="matrix(0.707 -0.7072 0.7072 0.707 -264.1965 289.153)" fill="#C80234" width="4.511" height="4.51"/>
		
			<rect x="206.236" y="461.103" transform="matrix(0.7071 -0.7071 0.7071 0.7071 -266.5776 283.1395)" fill="#C80234" width="4.509" height="4.509"/>
		
			<rect x="223.563" y="461.165" transform="matrix(0.707 -0.7072 0.7072 0.707 -261.573 295.4855)" fill="#C80234" width="4.511" height="4.511"/>
		
			<rect x="214.031" y="461.811" transform="matrix(0.7071 -0.7071 0.7071 0.7071 -264.7957 288.8593)" fill="#FCF6B1" width="4.511" height="4.51"/>
		
			<rect x="205.658" y="461.749" transform="matrix(0.7073 -0.7069 0.7069 0.7073 -267.1482 282.7735)" fill="#FCF6B1" width="4.508" height="4.508"/>
		
			<rect x="222.985" y="461.811" transform="matrix(0.707 -0.7072 0.7072 0.707 -262.1992 295.2651)" fill="#FCF6B1" width="4.51" height="4.51"/>
		
			<rect x="214.61" y="429.362" transform="matrix(0.7072 -0.707 0.707 0.7072 -241.6573 279.6938)" fill="#C80234" width="4.51" height="4.508"/>
		
			<rect x="206.236" y="429.297" transform="matrix(0.7071 -0.7071 0.7071 0.7071 -244.0876 273.8238)" fill="#C80234" width="4.509" height="4.509"/>
		
			<rect x="223.564" y="429.361" transform="matrix(0.7072 -0.707 0.707 0.7072 -239.0356 286.0244)" fill="#C80234" width="4.51" height="4.51"/>
		
			<rect x="214.032" y="430.007" transform="matrix(0.7073 -0.7069 0.7069 0.7073 -242.2596 279.4035)" fill="#FCF6B1" width="4.509" height="4.508"/>
		
			<rect x="205.657" y="429.939" transform="matrix(0.707 -0.7072 0.7072 0.707 -244.7359 273.6718)" fill="#FCF6B1" width="4.51" height="4.51"/>
		
			<rect x="222.986" y="430.007" transform="matrix(0.7072 -0.707 0.707 0.7072 -239.6616 285.8039)" fill="#FCF6B1" width="4.508" height="4.508"/>
	</g>
</g>
<g id="Layer_19" display="none">
	<circle display="inline" fill="#455B4A" cx="0" cy="594.843" r="129.58"/>
	<g id="Layer_21" display="inline">
		
			<rect x="21.334" y="480.752" transform="matrix(0.9848 0.1736 -0.1736 0.9848 84.4054 2.8127)" fill="#F7B32B" width="9.589" height="6.063"/>
		
			<rect x="39.476" y="486.024" transform="matrix(0.9397 0.342 -0.342 0.9397 169.9289 14.3504)" fill="#F7B32B" width="9.588" height="6.063"/>
		
			<rect x="56.426" y="494.367" transform="matrix(0.866 0.5001 -0.5001 0.866 256.9334 36.0421)" fill="#F7B32B" width="9.589" height="6.062"/>
		
			<rect x="90.343" y="526.784" transform="matrix(0.5735 0.8192 -0.8192 0.5735 474.6057 148.0304)" fill="#F7B32B" width="9.59" height="6.063"/>
		
			<rect x="99.443" y="543.341" transform="matrix(0.4225 0.9064 -0.9064 0.4225 555.3995 221.0395)" fill="#F7B32B" width="9.591" height="6.063"/>
		
			<rect x="105.53" y="561.226" transform="matrix(0.2587 0.966 -0.966 0.2587 626.8273 311.7033)" fill="#F7B32B" width="9.591" height="6.063"/>
		<rect x="6.445" y="495.813" fill="#FCB017" width="2.068" height="57.854"/>
		
			<rect x="17.758" y="497.225" transform="matrix(0.9849 0.1733 -0.1733 0.9849 91.4526 4.7025)" fill="#FCF6B1" width="2.068" height="57.855"/>
		
			<rect x="28.654" y="500.58" transform="matrix(0.9398 0.3418 -0.3418 0.9398 182.7837 21.7463)" fill="#FCF6B1" width="2.068" height="57.854"/>
		
			<rect x="38.802" y="505.775" transform="matrix(0.8661 0.4999 -0.4999 0.8661 272.6589 51.7042)" fill="#FCF6B1" width="2.069" height="57.855"/>
		
			<rect x="58.957" y="525.659" transform="matrix(0.5734 0.8193 -0.8193 0.5734 479.952 187.4373)" fill="#FCF6B1" width="2.069" height="57.855"/>
		
			<rect x="64.29" y="535.736" transform="matrix(0.4225 0.9064 -0.9064 0.4225 549.5151 266.8867)" fill="#FCF6B1" width="2.069" height="57.854"/>
		
			<rect x="67.791" y="546.586" transform="matrix(0.2584 0.966 -0.966 0.2584 607.0129 360.3221)" fill="#FCF6B1" width="2.069" height="57.854"/>
	</g>
	<g id="Layer_12" display="inline">
		<path fill="#455B4A" d="M199.709,583.864H18.885l128.592-128.592c2.371-2.37,2.37-6.213,0-8.583
			c-2.371-2.371-6.214-2.372-8.584-0.001L12.141,573.439V392.383c0-3.448-2.718-6.244-6.071-6.244c-3.352,0-6.07,2.796-6.07,6.244
			v197.375c0,3.449,2.718,6.246,6.07,6.246c0.307,0,0.607-0.031,0.902-0.076c0.3,0.046,0.604,0.076,0.916,0.076h191.822
			c3.352,0,6.07-2.718,6.07-6.07C205.779,586.582,203.062,583.864,199.709,583.864z"/>
		<path fill="#354438" d="M7.117,589.581c-0.362-0.001-0.694-0.412-0.694-0.9V391.306c0-0.487,0.332-0.898,0.725-0.898
			c0.393,0,0.725,0.411,0.725,0.898v193.961L143.75,449.391c0.141-0.141,0.313-0.213,0.512-0.213c0.137,0,0.337,0.038,0.512,0.213
			c0.176,0.177,0.213,0.376,0.213,0.513c0,0.199-0.071,0.37-0.211,0.512L7.057,588.133h193.729c0.399,0,0.725,0.324,0.725,0.724
			c0,0.4-0.325,0.724-0.725,0.724H8.965c-0.024-0.001-0.914-0.14-0.914-0.14L7.117,589.581z"/>
	</g>
	<g id="Layer_22" display="inline">
		<circle fill="#FF5527" cx="-0.165" cy="595.431" r="44.435"/>
	</g>
	<g id="Layer_9" display="inline">
		
			<circle opacity="0.6" fill="none" stroke="#303030" stroke-width="24" stroke-miterlimit="10" cx="-12.402" cy="598.175" r="342.95"/>
		<circle fill="none" stroke="#C80234" stroke-width="6" stroke-miterlimit="10" cx="5.362" cy="586.868" r="342.951"/>
		<circle fill="none" stroke="#91083D" stroke-width="22" stroke-miterlimit="10" cx="-0.165" cy="595.43" r="342.95"/>
		
			<circle opacity="0.6" fill="none" stroke="#455B4A" stroke-width="12" stroke-miterlimit="10" cx="-9.884" cy="602.248" r="204.99"/>
		<circle fill="none" stroke="#6A8270" stroke-width="4" stroke-miterlimit="10" cx="4.302" cy="590.24" r="204.99"/>
		<circle fill="none" stroke="#455B4A" stroke-width="14" stroke-miterlimit="10" cx="-0.165" cy="595.43" r="204.99"/>
		<polygon fill="#354438" points="3.657,394.407 1.413,390.52 3.657,386.632 8.146,386.632 10.391,390.52 8.146,394.407 		"/>
		<polygon fill="#354438" points="140.583,454.209 137.937,449.626 140.583,445.043 145.874,445.043 148.52,449.626 
			145.874,454.209 		"/>
		<polygon fill="#354438" points="202.634,594.498 200.15,590.196 202.634,585.894 207.601,585.894 210.084,590.196 
			207.601,594.498 		"/>
	</g>
	<g id="Layer_18" display="inline" opacity="0.7">
		<path fill="#6B0A32" d="M13.082,263.813c3.283,0.184,9.408,0.544,15.447,0.984l5.974-7.119l-9.548-8.012L13.082,263.813z"/>
		<path fill="#6B0A32" d="M41.934,266.229c3.254,0.469,9.325,1.362,15.302,2.326l6.571-6.571l-8.814-8.814L41.934,266.229z"/>
		<path fill="#6B0A32" d="M70.465,271.151c3.2,0.751,9.17,2.17,15.041,3.651l7.119-5.974l-8.012-9.548L70.465,271.151z"/>
		<path fill="#6B0A32" d="M98.459,278.541c3.123,1.027,8.946,2.961,14.666,4.948l7.613-5.331l-7.15-10.21L98.459,278.541z"/>
		<path fill="#6B0A32" d="M125.703,288.342c3.021,1.296,8.654,3.729,14.179,6.208l8.048-4.647l-6.233-10.795L125.703,288.342z"/>
		<path fill="#6B0A32" d="M151.988,300.48c2.897,1.555,8.296,4.47,13.583,7.421l8.423-3.928l-5.269-11.297L151.988,300.48z"/>
		<path fill="#6B0A32" d="M177.116,314.864c2.75,1.801,7.875,5.176,12.885,8.576l8.733-3.179l-4.264-11.714L177.116,314.864z"/>
		<path fill="#6B0A32" d="M200.894,331.383c2.583,2.034,7.395,5.843,12.089,9.667l8.977-2.406l-3.227-12.04L200.894,331.383z"/>
		<path fill="#6B0A32" d="M243.691,370.308c2.19,2.451,6.268,7.038,10.226,11.619l9.258-0.811l-1.087-12.417L243.691,370.308z"/>
		<path fill="#6B0A32" d="M262.384,392.418c1.968,2.633,5.63,7.558,9.174,12.466h9.294l0-12.465L262.384,392.418z"/>
		<path fill="#6B0A32" d="M279.079,416.073c1.731,2.794,4.95,8.02,8.053,13.218l9.259,0.811l1.085-12.418L279.079,416.073z"/>
		<path fill="#6B0A32" d="M293.648,441.094c1.481,2.934,4.232,8.42,6.87,13.869l9.153,1.614l2.164-12.276L293.648,441.094z"/>
		<path fill="#6B0A32" d="M305.981,467.288c1.219,3.052,3.482,8.757,5.635,14.416l8.978,2.405l3.225-12.041L305.981,467.288z"/>
		<path fill="#6B0A32" d="M315.985,494.458c0.949,3.146,2.706,9.027,4.357,14.853l8.733,3.179l4.263-11.715L315.985,494.458z"/>
		<path fill="#6B0A32" d="M323.582,522.396c0.671,3.217,1.909,9.229,3.046,15.176l8.423,3.928l5.267-11.299L323.582,522.396z"/>
		<path fill="#6B0A32" d="M328.715,550.891c0.388,3.263,1.098,9.36,1.712,15.384l8.049,4.646l6.232-10.797L328.715,550.891z"/>
	</g>
	<g id="Layer_15" display="inline">
		<circle fill="#1E1E1E" cx="59.55" cy="257.719" r="6.233"/>
		<circle fill="#635644" cx="59.55" cy="257.719" r="4.958"/>
		<circle fill="#F7A014" cx="59.187" cy="257.2" r="4.51"/>
		
			<ellipse transform="matrix(-0.9848 -0.1737 0.1737 -0.9848 72.3914 519.9845)" fill="#FFFFFF" cx="58.945" cy="256.825" rx="3.41" ry="3.536"/>
		
			<ellipse transform="matrix(-0.7069 -0.7074 0.7074 -0.7069 -80.6172 481.0563)" fill="#F7A014" cx="59.37" cy="257.233" rx="3.499" ry="3.739"/>
		<circle fill="#1E1E1E" cx="117.286" cy="273.219" r="6.233"/>
		<circle fill="#635644" cx="117.286" cy="273.219" r="4.958"/>
		<circle fill="#F7A014" cx="117.018" cy="272.645" r="4.51"/>
		
			<ellipse transform="matrix(-0.9397 -0.342 0.342 -0.9397 133.5296 568.0134)" fill="#FFFFFF" cx="116.844" cy="272.234" rx="3.411" ry="3.537"/>
		
			<ellipse transform="matrix(-0.5733 -0.8193 0.8193 -0.5733 -39.0624 525.0751)" fill="#F7A014" cx="117.193" cy="272.709" rx="3.499" ry="3.739"/>
		<circle fill="#1E1E1E" cx="171.453" cy="298.509" r="6.233"/>
		<circle fill="#635644" cx="171.453" cy="298.509" r="4.958"/>
		<circle fill="#F7A014" cx="171.289" cy="297.897" r="4.51"/>
		
			<ellipse transform="matrix(-0.866 -0.5 0.5 -0.866 170.707 640.6674)" fill="#FFFFFF" cx="171.189" cy="297.463" rx="3.411" ry="3.537"/>
		
			<ellipse transform="matrix(-0.4223 -0.9065 0.9065 -0.4223 -26.2588 579.2466)" fill="#F7A014" cx="171.45" cy="297.991" rx="3.499" ry="3.739"/>
		<circle fill="#1E1E1E" cx="220.405" cy="332.821" r="6.233"/>
		<circle fill="#635644" cx="220.405" cy="332.821" r="4.958"/>
		<circle fill="#F7A014" cx="220.35" cy="332.19" r="4.51"/>
		
			<ellipse transform="matrix(-0.766 -0.6428 0.6428 -0.766 175.8668 727.5003)" fill="#FFFFFF" cx="220.327" cy="331.745" rx="3.411" ry="3.537"/>
		
			<ellipse transform="matrix(-0.2585 -0.966 0.966 -0.2585 -43.5269 631.2092)" fill="#F7A014" cx="220.492" cy="332.31" rx="3.498" ry="3.739"/>
		<circle fill="#1E1E1E" cx="262.656" cy="375.113" r="6.232"/>
		<circle fill="#635644" cx="262.656" cy="375.112" r="4.958"/>
		<circle fill="#F7A014" cx="262.711" cy="374.481" r="4.51"/>
		
			<ellipse transform="matrix(-0.6428 -0.766 0.766 -0.6428 145.1361 815.7574)" fill="#FFFFFF" cx="262.766" cy="374.04" rx="3.411" ry="3.537"/>
		
			<ellipse transform="matrix(-0.0868 -0.9962 0.9962 -0.0868 -87.5633 668.9832)" fill="#F7A014" cx="262.83" cy="374.624" rx="3.499" ry="3.739"/>
		<circle fill="#1E1E1E" cx="296.92" cy="424.098" r="6.232"/>
		<circle fill="#635644" cx="296.921" cy="424.098" r="4.958"/>
		<circle fill="#F7A014" cx="297.084" cy="423.486" r="4.51"/>
		
			<ellipse transform="matrix(-0.4999 -0.8661 0.8661 -0.4999 79.4142 891.974)" fill="#FFFFFF" cx="297.215" cy="423.061" rx="3.411" ry="3.536"/>
		
			<ellipse transform="matrix(0.0875 -0.9962 0.9962 0.0875 -150.8491 682.6145)" fill="#F7A014" cx="297.177" cy="423.647" rx="3.499" ry="3.739"/>
		<circle fill="#1E1E1E" cx="322.158" cy="478.29" r="6.232"/>
		<circle fill="#635644" cx="322.159" cy="478.29" r="4.958"/>
		<circle fill="#F7A014" cx="322.426" cy="477.715" r="4.51"/>
		<path fill="#FFFFFF" d="M321.462,474.113c1.836-0.669,3.846,0.227,4.49,1.997c0.645,1.768-0.321,3.744-2.157,4.414
			c-1.835,0.667-3.844-0.227-4.488-1.997C318.662,476.758,319.627,474.78,321.462,474.113z"/>
		
			<ellipse transform="matrix(0.2591 -0.9658 0.9658 0.2591 -222.647 665.5188)" fill="#F7A014" cx="322.49" cy="477.89" rx="3.499" ry="3.739"/>
		<circle fill="#1E1E1E" cx="337.603" cy="536.041" r="6.232"/>
		<circle fill="#635644" cx="337.603" cy="536.041" r="4.958"/>
		<circle fill="#F7A014" cx="337.966" cy="535.521" r="4.51"/>
		<path fill="#FFFFFF" d="M337.643,531.807c1.925-0.34,3.748,0.891,4.075,2.746c0.328,1.853-0.966,3.632-2.891,3.973
			c-1.923,0.338-3.747-0.891-4.073-2.746C334.425,533.925,335.72,532.145,337.643,531.807z"/>
		
			<ellipse transform="matrix(0.4229 -0.9062 0.9062 0.4229 -290.382 615.4536)" fill="#F7A014" cx="337.998" cy="535.704" rx="3.499" ry="3.739"/>
	</g>
	<g id="Layer_17" display="inline">
		<circle fill="#1E1E1E" cx="29.889" cy="253.8" r="6.232"/>
		<circle fill="#635644" cx="29.889" cy="253.799" r="4.958"/>
		<circle fill="#C6BEB3" cx="29.482" cy="253.314" r="4.51"/>
		
			<ellipse transform="matrix(-0.9962 -0.0872 0.0872 -0.9962 36.2496 507.5072)" fill="#FFFFFF" cx="29.208" cy="252.962" rx="3.41" ry="3.536"/>
		
			<ellipse transform="matrix(-0.7658 -0.643 0.643 -0.7658 -110.5104 466.4194)" fill="#C6BEB3" cx="29.668" cy="253.331" rx="3.499" ry="3.739"/>
		<circle fill="#1E1E1E" cx="88.756" cy="264.208" r="6.232"/>
		<circle fill="#635644" cx="88.756" cy="264.208" r="4.958"/>
		<circle fill="#C6BEB3" cx="88.439" cy="263.66" r="4.51"/>
		
			<ellipse transform="matrix(-0.9659 -0.2589 0.2589 -0.9659 105.3072 540.3963)" fill="#FFFFFF" cx="88.231" cy="263.265" rx="3.41" ry="3.535"/>
		
			<ellipse transform="matrix(-0.6425 -0.7663 0.7663 -0.6425 -56.5079 501.0551)" fill="#C6BEB3" cx="88.619" cy="263.708" rx="3.499" ry="3.739"/>
		<circle fill="#1E1E1E" cx="144.921" cy="284.681" r="6.232"/>
		<circle fill="#635644" cx="144.921" cy="284.681" r="4.958"/>
		<circle fill="#C6BEB3" cx="144.704" cy="284.086" r="4.51"/>
		
			<ellipse transform="matrix(-0.9063 -0.4227 0.4227 -0.9063 155.6992 601.8428)" fill="#FFFFFF" cx="144.568" cy="283.661" rx="3.41" ry="3.535"/>
		
			<ellipse transform="matrix(-0.4998 -0.8662 0.8662 -0.4998 -28.8595 551.6621)" fill="#C6BEB3" cx="144.873" cy="284.165" rx="3.499" ry="3.739"/>
		<circle fill="#1E1E1E" cx="196.678" cy="314.596" r="6.232"/>
		<circle fill="#635644" cx="196.678" cy="314.596" r="4.958"/>
		<circle fill="#C6BEB3" cx="196.568" cy="313.973" r="4.51"/>
		
			<ellipse transform="matrix(-0.8192 -0.5736 0.5736 -0.8192 177.653 683.0716)" fill="#FFFFFF" cx="196.507" cy="313.53" rx="3.41" ry="3.536"/>
		
			<ellipse transform="matrix(-0.3418 -0.9398 0.9398 -0.3418 -31.211 606.298)" fill="#C6BEB3" cx="196.72" cy="314.079" rx="3.499" ry="3.739"/>
		<circle fill="#1E1E1E" cx="280.858" cy="398.856" r="6.232"/>
		<circle fill="#635644" cx="280.858" cy="398.857" r="4.959"/>
		<circle fill="#C6BEB3" cx="280.967" cy="398.232" r="4.51"/>
		
			<ellipse transform="matrix(-0.5736 -0.8191 0.8191 -0.5736 116.4221 856.1973)" fill="#FFFFFF" cx="281.062" cy="397.796" rx="3.41" ry="3.536"/>
		<ellipse fill="#C6BEB3" cx="281.074" cy="398.386" rx="3.739" ry="3.499"/>
		<circle fill="#1E1E1E" cx="310.723" cy="450.642" r="6.232"/>
		<circle fill="#635644" cx="310.723" cy="450.643" r="4.959"/>
		<circle fill="#C6BEB3" cx="310.939" cy="450.046" r="4.51"/>
		
			<ellipse transform="matrix(-0.4226 -0.9063 0.9063 -0.4226 35.0959 921.6244)" fill="#FFFFFF" cx="311.108" cy="449.633" rx="3.41" ry="3.536"/>
		
			<ellipse transform="matrix(0.174 -0.9848 0.9848 0.174 -186.4391 678.1697)" fill="#C6BEB3" cx="311.018" cy="450.216" rx="3.499" ry="3.739"/>
		<circle fill="#1E1E1E" cx="331.142" cy="506.827" r="6.232"/>
		<circle fill="#635644" cx="331.142" cy="506.827" r="4.959"/>
		<circle fill="#C6BEB3" cx="331.458" cy="506.278" r="4.51"/>
		
			<ellipse transform="matrix(-0.2588 -0.9659 0.9659 -0.2588 -71.1051 957.2404)" fill="#FFFFFF" cx="331.696" cy="505.9" rx="3.41" ry="3.536"/>
		
			<ellipse transform="matrix(0.3424 -0.9396 0.9396 0.3424 -257.8403 644.5405)" fill="#C6BEB3" cx="331.506" cy="506.458" rx="3.499" ry="3.739"/>
		<circle fill="#1E1E1E" cx="341.495" cy="565.704" r="6.232"/>
		<circle fill="#635644" cx="341.494" cy="565.704" r="4.959"/>
		<circle fill="#C6BEB3" cx="341.901" cy="565.218" r="4.509"/>
		<path fill="#FFFFFF" d="M341.904,561.49c1.946-0.172,3.656,1.212,3.82,3.087c0.164,1.879-1.28,3.537-3.226,3.707
			c-1.945,0.17-3.655-1.214-3.82-3.09S339.958,561.659,341.904,561.49z"/>
		
			<ellipse transform="matrix(0.5003 -0.8658 0.8658 0.5003 -318.7006 578.5557)" fill="#C6BEB3" cx="341.917" cy="565.404" rx="3.498" ry="3.739"/>
	</g>
	<g id="Layer_14" display="inline">
		<polygon fill="#4C0623" points="-3.248,257.819 -6.331,252.48 -3.248,247.141 2.917,247.141 6,252.48 2.917,257.819 		"/>
		<polygon fill="#4C0623" points="236.382,354.523 237.977,348.567 243.933,346.972 248.292,351.331 246.697,357.287 
			240.741,358.883 		"/>
		<polygon fill="#4C0623" points="337.445,592.347 342.785,589.264 348.124,592.346 348.124,598.511 342.785,601.595 
			337.445,598.512 		"/>
	</g>
</g>
</svg>
