<?xml version="1.0" encoding="utf-8"?>
<!-- Generator: Adobe Illustrator 16.0.0, SVG Export Plug-In . SVG Version: 6.00 Build 0)  -->
<!DOCTYPE svg PUBLIC "-//W3C//DTD SVG 1.1//EN" "http://www.w3.org/Graphics/SVG/1.1/DTD/svg11.dtd">
<svg version="1.1" xmlns="http://www.w3.org/2000/svg" xmlns:xlink="http://www.w3.org/1999/xlink" x="0px" y="0px"
	 width="361.285px" height="164.767px" viewBox="0 0 361.285 164.767" enable-background="new 0 0 361.285 164.767"
	 xml:space="preserve">
<g id="Layer_1" display="none">
	
		<rect x="-7.3" y="-48.858" display="inline" fill="#479FD6" stroke="#231F20" stroke-miterlimit="10" width="482.678" height="219.964"/>
</g>
<g id="Layer_2">
	<polygon fill="#EDEDED" stroke="#FFFFFF" stroke-linejoin="round" stroke-miterlimit="10" points="42.496,76.125 45.597,82.409 
		52.532,83.417 47.514,88.308 48.699,95.216 42.496,91.955 36.292,95.216 37.477,88.308 32.459,83.417 39.395,82.409 	"/>
	<path fill="#491542" d="M357.053,145.647H196.142c-4.734,0-8.571-4.317-8.571-9.644c0-5.325,3.837-9.643,8.571-9.643h44.251
		c-0.361-0.043-0.726-0.071-1.098-0.071h94.276c5.128,0,9.286-4.158,9.286-9.286c0-5.129-4.158-9.286-9.286-9.286h-100.64
		c0.494-0.23,0.958-0.529,1.404-0.861c-3.866-0.934-6.765-4.796-6.765-9.424c0-5.326,3.837-9.643,8.571-9.643h39.624
		c4.173-1.438,7.091-4.7,7.091-8.5c0-5.129-5.306-9.287-11.853-9.287H53.996c-6.546,0-11.854,4.158-11.854,9.287
		c0,3.801,2.918,7.063,7.093,8.5h16.336c4.732,0,8.57,4.316,8.57,9.643s-3.838,9.644-8.57,9.644h-0.613
		c0.608,0.269,1.242,0.489,1.903,0.642H10.714c-5.128,0-9.286,4.157-9.286,9.286c0,3.8,2.286,7.063,5.555,8.5h53.731
		c1.204,0,2.348,0.282,3.387,0.786h5.174c-1.361,0.001-2.65,0.303-3.814,0.83c2.304,1.729,3.823,4.677,3.823,8.026
		c0,3.687-1.84,6.887-4.541,8.509c0.314,0.178,0.633,0.352,0.969,0.491h-1.94c-0.951,0.409-1.979,0.644-3.058,0.644H5.907
		C2.451,146.143,0,149.497,0,153.433c0,5.129,4.157,9.285,9.286,9.285h170c0.462,0,0.913-0.045,1.357-0.109
		c0.444,0.064,0.895,0.109,1.357,0.109h170c5.129,0,9.285-4.156,9.285-9.285C361.285,150.169,359.598,147.304,357.053,145.647z
		 M179.921,107.716c0.001,0,0.002,0.002,0.003,0.002h-0.005c-1.992,1.684-4.608,2.715-7.484,2.715h-34.586
		c-2.876,0-5.492-1.031-7.484-2.715h-1.513c0.385-0.089,0.758-0.206,1.125-0.335c-2.099-1.946-3.406-4.659-3.406-7.665
		c0-4.607,3.067-8.524,7.363-10.037c-0.403-0.398-0.826-0.775-1.288-1.105h45.852c-0.524,0.391-1.003,0.861-1.448,1.373
		c3.925,1.677,6.663,5.416,6.663,9.77C183.713,102.902,182.243,105.753,179.921,107.716z"/>
	<polygon fill="#EDEDED" stroke="#FFFFFF" stroke-linejoin="round" stroke-miterlimit="10" points="150.496,20.729 153.015,25.833 
		158.648,26.651 154.572,30.625 155.534,36.235 150.496,33.587 145.457,36.235 146.419,30.625 142.343,26.651 147.977,25.833 	"/>
	<polygon fill="#EDEDED" stroke="#FFFFFF" stroke-linejoin="round" stroke-miterlimit="10" points="256.829,60.458 259.931,66.742 
		266.866,67.75 261.848,72.642 263.032,79.548 256.829,76.288 250.626,79.548 251.811,72.642 246.792,67.75 253.728,66.742 	"/>
	<path fill="#EDEDED" stroke="#FFFFFF" stroke-linejoin="round" stroke-miterlimit="10" d="M217.174,0.001
		c0,0,35.505,26.909,12.989,59.715c-18.962,27.625-56.508,12.015-56.508,12.015S245.057,72.479,217.174,0.001z"/>
</g>
<g id="Layer_3">
</g>
<g id="Layer_4">
</g>
<g id="Layer_5">
</g>
</svg>
