<?xml version="1.0" encoding="utf-8"?>
<!-- Generator: Adobe Illustrator 16.0.0, SVG Export Plug-In . SVG Version: 6.00 Build 0)  -->
<!DOCTYPE svg PUBLIC "-//W3C//DTD SVG 1.1//EN" "http://www.w3.org/Graphics/SVG/1.1/DTD/svg11.dtd">
<svg version="1.1" id="Layer_1" xmlns="http://www.w3.org/2000/svg" xmlns:xlink="http://www.w3.org/1999/xlink" x="0px" y="0px"
	 width="1133.86px" height="1133.86px" viewBox="0 0 1133.86 1133.86" enable-background="new 0 0 1133.86 1133.86"
	 xml:space="preserve">
<rect x="355.08" y="813.289" fill="#FCB017" width="2.068" height="57.854"/>
<g>
	<defs>
		<rect id="SVGID_1_" x="-20" y="777.693" width="376.691" height="453.167"/>
	</defs>
	<clipPath id="SVGID_2_">
		<use xlink:href="#SVGID_1_"  overflow="visible"/>
	</clipPath>
	
		<circle clip-path="url(#SVGID_2_)" fill="none" stroke="#591645" stroke-width="18" stroke-miterlimit="10" cx="367.153" cy="767.177" r="357.829"/>
	
		<circle clip-path="url(#SVGID_2_)" fill="none" stroke="#3A3A3A" stroke-width="12" stroke-miterlimit="10" cx="358.524" cy="776.855" r="212.177"/>
	<path clip-path="url(#SVGID_2_)" fill="#333333" d="M168.062,792.926H339.67L217.632,914.963c-2.25,2.25-2.249,5.896,0,8.146
		c2.25,2.25,5.897,2.251,8.148,0.001l120.291-120.291v171.828c0,3.273,2.579,5.928,5.761,5.928s5.761-2.654,5.761-5.928V787.332
		c0-3.274-2.579-5.928-5.761-5.928c-0.291,0-0.576,0.03-0.855,0.073c-0.284-0.044-0.573-0.073-0.869-0.073H168.062
		c-3.182,0-5.761,2.58-5.761,5.761S164.88,792.926,168.062,792.926z"/>
	<circle display="none" clip-path="url(#SVGID_2_)" fill="#455B4A" cx="363.592" cy="772.114" r="129.58"/>
	
		<rect x="332.67" y="880.142" transform="matrix(-0.9848 -0.1736 0.1736 -0.9848 516.4481 1811.5278)" display="none" clip-path="url(#SVGID_2_)" fill="#F7B32B" width="9.589" height="6.063"/>
	
		<rect x="314.528" y="874.87" transform="matrix(-0.9397 -0.342 0.342 -0.9397 319.1586 1812.0735)" display="none" clip-path="url(#SVGID_2_)" fill="#F7B32B" width="9.589" height="6.063"/>
	
		<rect x="297.578" y="866.527" transform="matrix(-0.866 -0.5001 0.5001 -0.866 129.3917 1773.7925)" display="none" clip-path="url(#SVGID_2_)" fill="#F7B32B" width="9.589" height="6.062"/>
	
		<rect x="263.659" y="834.11" transform="matrix(-0.5735 -0.8192 0.8192 -0.5735 -263.3807 1537.1597)" display="none" clip-path="url(#SVGID_2_)" fill="#F7B32B" width="9.59" height="6.063"/>
	
		<rect x="254.559" y="817.554" transform="matrix(-0.4226 -0.9063 0.9063 -0.4226 -374.7725 1402.3988)" display="none" clip-path="url(#SVGID_2_)" fill="#F7B32B" width="9.591" height="6.063"/>
	
		<rect x="248.471" y="799.668" transform="matrix(-0.2587 -0.966 0.966 -0.2587 -456.577 1255.0187)" display="none" clip-path="url(#SVGID_2_)" fill="#F7B32B" width="9.591" height="6.063"/>
	
		<rect x="343.766" y="811.877" transform="matrix(-0.9849 -0.1733 0.1733 -0.9849 538.6958 1728.6359)" display="none" clip-path="url(#SVGID_2_)" fill="#FCF6B1" width="2.068" height="57.855"/>
	
		<rect x="332.869" y="808.523" transform="matrix(-0.9398 -0.3417 0.3417 -0.9398 361.5116 1738.5896)" display="none" clip-path="url(#SVGID_2_)" fill="#FCF6B1" width="2.069" height="57.855"/>
	
		<rect x="322.721" y="803.327" transform="matrix(-0.8661 -0.4998 0.4998 -0.8661 188.1675 1714.9102)" display="none" clip-path="url(#SVGID_2_)" fill="#FCF6B1" width="2.069" height="57.855"/>
	
		<rect x="302.566" y="783.443" transform="matrix(-0.5734 -0.8193 0.8193 -0.5734 -187.8704 1526.9163)" display="none" clip-path="url(#SVGID_2_)" fill="#FCF6B1" width="2.069" height="57.855"/>
	
		<rect x="297.234" y="773.367" transform="matrix(-0.4225 -0.9064 0.9064 -0.4225 -302.884 1411.6012)" display="none" clip-path="url(#SVGID_2_)" fill="#FCF6B1" width="2.069" height="57.854"/>
	
		<rect x="293.732" y="762.517" transform="matrix(-0.2582 -0.9661 0.9661 -0.2582 -393.7511 1280.5391)" display="none" clip-path="url(#SVGID_2_)" fill="#FCF6B1" width="2.069" height="57.854"/>
	
		<circle display="none" opacity="0.6" clip-path="url(#SVGID_2_)" fill="none" stroke="#303030" stroke-width="24" stroke-miterlimit="10" cx="375.994" cy="768.782" r="342.951"/>
	
		<circle display="none" clip-path="url(#SVGID_2_)" fill="none" stroke="#C80234" stroke-width="6" stroke-miterlimit="10" cx="358.23" cy="780.089" r="342.951"/>
	
		<circle display="none" clip-path="url(#SVGID_2_)" fill="none" stroke="#91083D" stroke-width="22" stroke-miterlimit="10" cx="363.758" cy="771.527" r="342.951"/>
	
		<circle display="none" opacity="0.6" clip-path="url(#SVGID_2_)" fill="none" stroke="#455B4A" stroke-width="12" stroke-miterlimit="10" cx="373.477" cy="764.709" r="204.99"/>
	
		<circle display="none" clip-path="url(#SVGID_2_)" fill="none" stroke="#6A8270" stroke-width="4" stroke-miterlimit="10" cx="359.29" cy="776.717" r="204.99"/>
	
		<circle display="none" clip-path="url(#SVGID_2_)" fill="none" stroke="#455B4A" stroke-width="14" stroke-miterlimit="10" cx="363.758" cy="771.527" r="204.99"/>
	<path display="none" clip-path="url(#SVGID_2_)" fill="#455B4A" d="M163.882,783.093h180.825L216.115,911.685
		c-2.371,2.37-2.37,6.213,0,8.583c2.371,2.371,6.214,2.372,8.585,0.001l126.751-126.751v181.057c0,3.449,2.718,6.244,6.071,6.244
		c3.352,0,6.069-2.795,6.069-6.244V777.199c0-3.449-2.718-6.246-6.069-6.246c-0.308,0-0.607,0.031-0.902,0.076
		c-0.3-0.046-0.604-0.076-0.916-0.076H163.882c-3.352,0-6.07,2.718-6.07,6.07C157.813,780.375,160.53,783.093,163.882,783.093z"/>
	<path display="none" clip-path="url(#SVGID_2_)" fill="#354438" d="M356.476,777.376c0.361,0.001,0.693,0.412,0.693,0.9v197.376
		c0,0.486-0.332,0.898-0.725,0.898s-0.725-0.412-0.725-0.898V781.69L219.843,917.566c-0.141,0.141-0.313,0.213-0.512,0.213
		c-0.137,0-0.337-0.038-0.513-0.213c-0.176-0.177-0.213-0.376-0.213-0.513c0-0.199,0.071-0.37,0.212-0.512l137.718-137.718h-193.73
		c-0.399,0-0.725-0.324-0.725-0.724c0-0.4,0.325-0.724,0.725-0.724h191.822c0.023,0.001,0.913,0.14,0.913,0.14L356.476,777.376z"/>
	<polygon display="none" clip-path="url(#SVGID_2_)" fill="#354438" points="224.01,910.748 226.656,915.331 224.01,919.914 
		218.718,919.914 216.072,915.331 218.718,910.748 	"/>
	<polygon display="none" clip-path="url(#SVGID_2_)" fill="#4C0623" points="127.21,1012.435 125.615,1018.391 119.659,1019.986 
		115.3,1015.627 116.895,1009.671 122.851,1008.075 	"/>
	<path display="none" clip-path="url(#SVGID_2_)" fill="#6B0A32" d="M350.511,1103.145c-3.283-0.184-9.408-0.544-15.447-0.983
		l-5.974,7.119l9.549,8.012L350.511,1103.145z"/>
	<path display="none" clip-path="url(#SVGID_2_)" fill="#6B0A32" d="M321.659,1100.729c-3.254-0.47-9.324-1.362-15.302-2.326
		l-6.571,6.571l8.813,8.813L321.659,1100.729z"/>
	<path display="none" clip-path="url(#SVGID_2_)" fill="#6B0A32" d="M293.127,1095.807c-3.2-0.751-9.171-2.17-15.041-3.651
		l-7.119,5.974l8.012,9.549L293.127,1095.807z"/>
	<path display="none" clip-path="url(#SVGID_2_)" fill="#6B0A32" d="M265.133,1088.417c-3.123-1.027-8.946-2.961-14.666-4.948
		l-7.612,5.33l7.149,10.211L265.133,1088.417z"/>
	<path display="none" clip-path="url(#SVGID_2_)" fill="#6B0A32" d="M237.89,1078.615c-3.021-1.296-8.654-3.729-14.179-6.208
		l-8.049,4.647l6.233,10.795L237.89,1078.615z"/>
	<path display="none" clip-path="url(#SVGID_2_)" fill="#6B0A32" d="M211.604,1066.478c-2.896-1.555-8.296-4.47-13.583-7.421
		l-8.423,3.928l5.269,11.297L211.604,1066.478z"/>
	<path display="none" clip-path="url(#SVGID_2_)" fill="#6B0A32" d="M186.477,1052.094c-2.751-1.801-7.876-5.176-12.886-8.576
		l-8.732,3.179l4.264,11.714L186.477,1052.094z"/>
	<path display="none" clip-path="url(#SVGID_2_)" fill="#6B0A32" d="M162.698,1035.575c-2.583-2.034-7.395-5.843-12.089-9.667
		l-8.977,2.406l3.227,12.04L162.698,1035.575z"/>
	<path display="none" clip-path="url(#SVGID_2_)" fill="#6B0A32" d="M140.45,1017.047c-2.396-2.251-6.857-6.465-11.2-10.684
		l-9.152,1.614l2.165,12.275L140.45,1017.047z"/>
	<path display="none" clip-path="url(#SVGID_2_)" fill="#6B0A32" d="M119.901,996.65c-2.19-2.451-6.268-7.039-10.226-11.619
		l-9.259,0.811l1.088,12.417L119.901,996.65z"/>
	<path display="none" clip-path="url(#SVGID_2_)" fill="#6B0A32" d="M101.208,974.539c-1.968-2.633-5.63-7.557-9.175-12.465H82.74
		v12.465H101.208z"/>
	<path display="none" clip-path="url(#SVGID_2_)" fill="#6B0A32" d="M84.514,950.885c-1.731-2.795-4.951-8.021-8.053-13.219
		l-9.26-0.811l-1.085,12.418L84.514,950.885z"/>
	<path display="none" clip-path="url(#SVGID_2_)" fill="#6B0A32" d="M69.943,925.863c-1.48-2.934-4.232-8.42-6.869-13.869
		l-9.153-1.614l-2.163,12.276L69.943,925.863z"/>
	<path display="none" clip-path="url(#SVGID_2_)" fill="#6B0A32" d="M57.61,899.669c-1.22-3.052-3.482-8.757-5.635-14.416
		l-8.978-2.405l-3.225,12.041L57.61,899.669z"/>
	<path display="none" clip-path="url(#SVGID_2_)" fill="#6B0A32" d="M47.607,872.499c-0.949-3.146-2.707-9.027-4.357-14.853
		l-8.733-3.179l-4.263,11.715L47.607,872.499z"/>
	<path display="none" clip-path="url(#SVGID_2_)" fill="#6B0A32" d="M40.01,844.561c-0.671-3.217-1.909-9.229-3.046-15.176
		l-8.423-3.928l-5.268,11.299L40.01,844.561z"/>
	<path display="none" clip-path="url(#SVGID_2_)" fill="#6B0A32" d="M34.877,816.066c-0.389-3.263-1.098-9.36-1.713-15.384
		l-8.049-4.646l-6.231,10.797L34.877,816.066z"/>
	<circle display="none" clip-path="url(#SVGID_2_)" fill="#1E1E1E" cx="304.042" cy="1109.239" r="6.232"/>
	<circle display="none" clip-path="url(#SVGID_2_)" fill="#635644" cx="304.042" cy="1109.239" r="4.958"/>
	<circle display="none" clip-path="url(#SVGID_2_)" fill="#F7A014" cx="304.406" cy="1109.758" r="4.51"/>
	
		<ellipse transform="matrix(0.9848 0.1737 -0.1737 0.9848 197.4368 -36.0396)" display="none" clip-path="url(#SVGID_2_)" fill="#FFFFFF" cx="304.648" cy="1110.132" rx="3.41" ry="3.537"/>
	
		<ellipse transform="matrix(0.7068 0.7074 -0.7074 0.7068 874.1935 110.1379)" display="none" clip-path="url(#SVGID_2_)" fill="#F7A014" cx="304.223" cy="1109.725" rx="3.499" ry="3.739"/>
	<circle display="none" clip-path="url(#SVGID_2_)" fill="#1E1E1E" cx="246.307" cy="1093.739" r="6.233"/>
	<circle display="none" clip-path="url(#SVGID_2_)" fill="#635644" cx="246.307" cy="1093.739" r="4.958"/>
	<circle display="none" clip-path="url(#SVGID_2_)" fill="#F7A014" cx="246.575" cy="1094.313" r="4.51"/>
	
		<ellipse transform="matrix(0.9397 0.3421 -0.3421 0.9397 389.3379 -18.3678)" display="none" clip-path="url(#SVGID_2_)" fill="#FFFFFF" cx="246.748" cy="1094.724" rx="3.41" ry="3.536"/>
	
		<ellipse transform="matrix(0.5733 0.8193 -0.8193 0.5733 1001.7034 265.0263)" display="none" clip-path="url(#SVGID_2_)" fill="#F7A014" cx="246.4" cy="1094.249" rx="3.499" ry="3.74"/>
	<circle display="none" clip-path="url(#SVGID_2_)" fill="#1E1E1E" cx="192.139" cy="1068.449" r="6.233"/>
	<circle display="none" clip-path="url(#SVGID_2_)" fill="#635644" cx="192.139" cy="1068.449" r="4.958"/>
	<circle display="none" clip-path="url(#SVGID_2_)" fill="#F7A014" cx="192.303" cy="1069.061" r="4.51"/>
	
		<ellipse transform="matrix(0.866 0.5 -0.5 0.866 560.475 47.0659)" display="none" clip-path="url(#SVGID_2_)" fill="#FFFFFF" cx="192.403" cy="1069.495" rx="3.41" ry="3.536"/>
	
		<ellipse transform="matrix(0.4223 0.9065 -0.9065 0.4223 1079.9641 443.3615)" display="none" clip-path="url(#SVGID_2_)" fill="#F7A014" cx="192.143" cy="1068.967" rx="3.499" ry="3.739"/>
	<circle display="none" clip-path="url(#SVGID_2_)" fill="#1E1E1E" cx="143.187" cy="1034.137" r="6.233"/>
	<circle display="none" clip-path="url(#SVGID_2_)" fill="#635644" cx="143.187" cy="1034.137" r="4.958"/>
	<circle display="none" clip-path="url(#SVGID_2_)" fill="#F7A014" cx="143.242" cy="1034.768" r="4.51"/>
	
		<ellipse transform="matrix(0.766 0.6428 -0.6428 0.766 698.9375 150.1038)" display="none" clip-path="url(#SVGID_2_)" fill="#FFFFFF" cx="143.265" cy="1035.213" rx="3.411" ry="3.537"/>
	
		<ellipse transform="matrix(0.2585 0.966 -0.966 0.2585 1105.5913 628.9591)" display="none" clip-path="url(#SVGID_2_)" fill="#F7A014" cx="143.1" cy="1034.648" rx="3.498" ry="3.739"/>
	<circle display="none" clip-path="url(#SVGID_2_)" fill="#1E1E1E" cx="100.937" cy="991.845" r="6.233"/>
	<circle display="none" clip-path="url(#SVGID_2_)" fill="#635644" cx="100.936" cy="991.845" r="4.958"/>
	<circle display="none" clip-path="url(#SVGID_2_)" fill="#F7A014" cx="100.881" cy="992.477" r="4.51"/>
	
		<ellipse transform="matrix(0.6427 0.7661 -0.7661 0.6427 796.7032 277.511)" display="none" clip-path="url(#SVGID_2_)" fill="#FFFFFF" cx="100.826" cy="992.918" rx="3.411" ry="3.537"/>
	
		<ellipse transform="matrix(0.0868 0.9962 -0.9962 0.0868 1080.6041 805.8193)" display="none" clip-path="url(#SVGID_2_)" fill="#F7A014" cx="100.762" cy="992.333" rx="3.499" ry="3.739"/>
	<circle display="none" clip-path="url(#SVGID_2_)" fill="#1E1E1E" cx="66.671" cy="942.859" r="6.232"/>
	<circle display="none" clip-path="url(#SVGID_2_)" fill="#635644" cx="66.671" cy="942.859" r="4.958"/>
	<circle display="none" clip-path="url(#SVGID_2_)" fill="#F7A014" cx="66.507" cy="943.471" r="4.51"/>
	<path display="none" clip-path="url(#SVGID_2_)" fill="#FFFFFF" d="M68.082,946.852c-1.692,0.977-3.826,0.445-4.768-1.188
		c-0.943-1.629-0.335-3.743,1.357-4.722c1.69-0.976,3.824-0.444,4.766,1.188C70.381,943.76,69.773,945.875,68.082,946.852z"/>
	
		<ellipse transform="matrix(-0.0875 0.9962 -0.9962 -0.0875 1011.9173 959.692)" display="none" clip-path="url(#SVGID_2_)" fill="#F7A014" cx="66.415" cy="943.31" rx="3.499" ry="3.739"/>
	<circle display="none" clip-path="url(#SVGID_2_)" fill="#1E1E1E" cx="41.433" cy="888.667" r="6.232"/>
	<circle display="none" clip-path="url(#SVGID_2_)" fill="#635644" cx="41.433" cy="888.667" r="4.958"/>
	<circle display="none" clip-path="url(#SVGID_2_)" fill="#F7A014" cx="41.166" cy="889.242" r="4.51"/>
	<path display="none" clip-path="url(#SVGID_2_)" fill="#FFFFFF" d="M42.129,892.844c-1.836,0.669-3.846-0.227-4.489-1.997
		c-0.646-1.768,0.321-3.744,2.157-4.414c1.834-0.667,3.844,0.227,4.488,1.997C44.93,890.199,43.965,892.177,42.129,892.844z"/>
	
		<ellipse transform="matrix(-0.2591 0.9658 -0.9658 -0.2591 910.4479 1079.7686)" display="none" clip-path="url(#SVGID_2_)" fill="#F7A014" cx="41.102" cy="889.067" rx="3.499" ry="3.739"/>
	<circle display="none" clip-path="url(#SVGID_2_)" fill="#1E1E1E" cx="25.989" cy="830.917" r="6.232"/>
	<circle display="none" clip-path="url(#SVGID_2_)" fill="#635644" cx="25.989" cy="830.917" r="4.958"/>
	<circle display="none" clip-path="url(#SVGID_2_)" fill="#F7A014" cx="25.625" cy="831.437" r="4.51"/>
	<path display="none" clip-path="url(#SVGID_2_)" fill="#FFFFFF" d="M25.949,835.15c-1.925,0.34-3.748-0.891-4.074-2.746
		c-0.328-1.853,0.966-3.632,2.891-3.973c1.922-0.338,3.746,0.891,4.072,2.746C29.166,833.032,27.872,834.813,25.949,835.15z"/>
	
		<ellipse transform="matrix(-0.4229 0.9062 -0.9062 -0.4229 789.6642 1159.6306)" display="none" clip-path="url(#SVGID_2_)" fill="#F7A014" cx="25.593" cy="831.253" rx="3.499" ry="3.739"/>
	<circle display="none" clip-path="url(#SVGID_2_)" fill="#1E1E1E" cx="333.703" cy="1113.158" r="6.232"/>
	<circle display="none" clip-path="url(#SVGID_2_)" fill="#635644" cx="333.703" cy="1113.159" r="4.958"/>
	<circle display="none" clip-path="url(#SVGID_2_)" fill="#C6BEB3" cx="334.11" cy="1113.643" r="4.51"/>
	
		<ellipse transform="matrix(0.9962 0.0872 -0.0872 0.9962 98.4048 -24.913)" display="none" clip-path="url(#SVGID_2_)" fill="#FFFFFF" cx="334.384" cy="1113.996" rx="3.41" ry="3.536"/>
	
		<ellipse transform="matrix(0.7658 0.6431 -0.6431 0.7658 794.3897 46.0864)" display="none" clip-path="url(#SVGID_2_)" fill="#C6BEB3" cx="333.925" cy="1113.627" rx="3.499" ry="3.739"/>
	<circle display="none" clip-path="url(#SVGID_2_)" fill="#1E1E1E" cx="274.836" cy="1102.749" r="6.232"/>
	<circle display="none" clip-path="url(#SVGID_2_)" fill="#635644" cx="274.836" cy="1102.75" r="4.958"/>
	<circle display="none" clip-path="url(#SVGID_2_)" fill="#C6BEB3" cx="275.153" cy="1103.298" r="4.51"/>
	
		<ellipse transform="matrix(0.9659 0.2588 -0.2588 0.9659 295.0624 -33.6609)" display="none" clip-path="url(#SVGID_2_)" fill="#FFFFFF" cx="275.361" cy="1103.692" rx="3.411" ry="3.535"/>
	
		<ellipse transform="matrix(0.6425 0.7663 -0.7663 0.6425 943.7057 183.7026)" display="none" clip-path="url(#SVGID_2_)" fill="#C6BEB3" cx="274.973" cy="1103.25" rx="3.499" ry="3.739"/>
	<circle display="none" clip-path="url(#SVGID_2_)" fill="#1E1E1E" cx="218.671" cy="1082.276" r="6.232"/>
	<circle display="none" clip-path="url(#SVGID_2_)" fill="#635644" cx="218.67" cy="1082.276" r="4.958"/>
	<circle display="none" clip-path="url(#SVGID_2_)" fill="#C6BEB3" cx="218.888" cy="1082.872" r="4.509"/>
	
		<ellipse transform="matrix(0.9063 0.4227 -0.4227 0.9063 478.3799 8.9419)" display="none" clip-path="url(#SVGID_2_)" fill="#FFFFFF" cx="219.024" cy="1083.297" rx="3.41" ry="3.535"/>
	
		<ellipse transform="matrix(0.4998 0.8661 -0.8661 0.4998 1047.2656 352.1839)" display="none" clip-path="url(#SVGID_2_)" fill="#C6BEB3" cx="218.719" cy="1082.793" rx="3.499" ry="3.739"/>
	<circle display="none" clip-path="url(#SVGID_2_)" fill="#1E1E1E" cx="166.914" cy="1052.362" r="6.233"/>
	<circle display="none" clip-path="url(#SVGID_2_)" fill="#635644" cx="166.914" cy="1052.362" r="4.959"/>
	<circle display="none" clip-path="url(#SVGID_2_)" fill="#C6BEB3" cx="167.024" cy="1052.985" r="4.51"/>
	
		<ellipse transform="matrix(0.8192 0.5735 -0.5735 0.8192 634.3723 94.642)" display="none" clip-path="url(#SVGID_2_)" fill="#FFFFFF" cx="167.085" cy="1053.428" rx="3.411" ry="3.535"/>
	
		<ellipse transform="matrix(0.3418 0.9398 -0.9398 0.3418 1099.3146 536.2066)" display="none" clip-path="url(#SVGID_2_)" fill="#C6BEB3" cx="166.872" cy="1052.879" rx="3.499" ry="3.739"/>
	<circle display="none" clip-path="url(#SVGID_2_)" fill="#1E1E1E" cx="121.138" cy="1013.914" r="6.232"/>
	<circle display="none" clip-path="url(#SVGID_2_)" fill="#635644" cx="121.138" cy="1013.914" r="4.959"/>
	<circle display="none" clip-path="url(#SVGID_2_)" fill="#C6BEB3" cx="121.138" cy="1014.547" r="4.51"/>
	
		<ellipse transform="matrix(0.7071 0.7071 -0.7071 0.7071 753.2252 211.671)" display="none" clip-path="url(#SVGID_2_)" fill="#FFFFFF" cx="121.121" cy="1014.994" rx="3.41" ry="3.536"/>
	
		<ellipse transform="matrix(0.1734 0.9849 -0.9849 0.1734 1099.0729 719.3431)" display="none" clip-path="url(#SVGID_2_)" fill="#C6BEB3" cx="121.007" cy="1014.416" rx="3.499" ry="3.739"/>
	<circle display="none" clip-path="url(#SVGID_2_)" fill="#1E1E1E" cx="82.734" cy="968.102" r="6.232"/>
	<circle display="none" clip-path="url(#SVGID_2_)" fill="#635644" cx="82.734" cy="968.101" r="4.958"/>
	<circle display="none" clip-path="url(#SVGID_2_)" fill="#C6BEB3" cx="82.625" cy="968.726" r="4.51"/>
	
		<ellipse transform="matrix(0.5735 0.8192 -0.8192 0.5735 829.1262 345.7197)" display="none" clip-path="url(#SVGID_2_)" fill="#FFFFFF" cx="82.53" cy="969.161" rx="3.411" ry="3.535"/>
	<path display="none" clip-path="url(#SVGID_2_)" fill="#C6BEB3" d="M82.517,972.07c-2.065,0-3.738-1.568-3.737-3.5
		c0-1.932,1.674-3.498,3.739-3.498c2.065,0.004,3.738,1.568,3.737,3.5C86.256,970.506,84.581,972.072,82.517,972.07z"/>
	<circle display="none" clip-path="url(#SVGID_2_)" fill="#1E1E1E" cx="52.869" cy="916.315" r="6.232"/>
	<circle display="none" clip-path="url(#SVGID_2_)" fill="#635644" cx="52.869" cy="916.314" r="4.959"/>
	<circle display="none" clip-path="url(#SVGID_2_)" fill="#C6BEB3" cx="52.653" cy="916.911" r="4.51"/>
	
		<ellipse transform="matrix(0.4227 0.9063 -0.9063 0.4227 861.6395 482.0014)" display="none" clip-path="url(#SVGID_2_)" fill="#FFFFFF" cx="52.484" cy="917.324" rx="3.41" ry="3.537"/>
	
		<ellipse transform="matrix(-0.174 0.9847 -0.9847 -0.174 964.475 1024.5122)" display="none" clip-path="url(#SVGID_2_)" fill="#C6BEB3" cx="52.574" cy="916.741" rx="3.499" ry="3.738"/>
	<circle display="none" clip-path="url(#SVGID_2_)" fill="#1E1E1E" cx="32.45" cy="860.13" r="6.232"/>
	<circle display="none" clip-path="url(#SVGID_2_)" fill="#635644" cx="32.45" cy="860.13" r="4.959"/>
	<circle display="none" clip-path="url(#SVGID_2_)" fill="#C6BEB3" cx="32.134" cy="860.679" r="4.51"/>
	
		<ellipse transform="matrix(0.2588 0.9659 -0.9659 0.2588 855.3691 607.4261)" display="none" clip-path="url(#SVGID_2_)" fill="#FFFFFF" cx="31.896" cy="861.057" rx="3.41" ry="3.536"/>
	
		<ellipse transform="matrix(-0.3424 0.9396 -0.9396 -0.3424 851.5685 1124.9524)" display="none" clip-path="url(#SVGID_2_)" fill="#C6BEB3" cx="32.085" cy="860.499" rx="3.499" ry="3.739"/>
	<circle display="none" clip-path="url(#SVGID_2_)" fill="#1E1E1E" cx="22.098" cy="801.253" r="6.232"/>
	<circle display="none" clip-path="url(#SVGID_2_)" fill="#635644" cx="22.098" cy="801.253" r="4.959"/>
	<circle display="none" clip-path="url(#SVGID_2_)" fill="#C6BEB3" cx="21.691" cy="801.739" r="4.509"/>
	<path display="none" clip-path="url(#SVGID_2_)" fill="#FFFFFF" d="M21.688,805.467c-1.945,0.172-3.655-1.212-3.819-3.087
		c-0.163-1.879,1.28-3.537,3.226-3.707s3.655,1.214,3.82,3.09C25.078,803.639,23.633,805.298,21.688,805.467z"/>
	
		<ellipse transform="matrix(-0.5004 0.8658 -0.8658 -0.5004 726.5062 1183.8743)" display="none" clip-path="url(#SVGID_2_)" fill="#C6BEB3" cx="21.674" cy="801.553" rx="3.498" ry="3.738"/>
	<circle clip-path="url(#SVGID_2_)" fill="#FF5527" cx="363.758" cy="771.526" r="44.435"/>
	<polygon display="none" clip-path="url(#SVGID_2_)" fill="#354438" points="358.935,974.551 361.179,978.438 358.935,982.326 
		354.447,982.326 352.202,978.438 354.447,974.551 	"/>
	<polygon display="none" clip-path="url(#SVGID_2_)" fill="#354438" points="160.958,772.459 163.441,776.761 160.958,781.063 
		155.991,781.063 153.508,776.761 155.991,772.459 	"/>
</g>
<rect x="356.691" y="813.289" fill="#FCB017" width="2.068" height="57.854"/>
<g>
	<defs>
		<rect id="SVGID_3_" x="356.691" y="777.693" width="376.691" height="453.167"/>
	</defs>
	<clipPath id="SVGID_4_">
		<use xlink:href="#SVGID_3_"  overflow="visible"/>
	</clipPath>
	
		<circle clip-path="url(#SVGID_4_)" fill="none" stroke="#591645" stroke-width="18" stroke-miterlimit="10" cx="346.229" cy="767.177" r="357.829"/>
	
		<circle clip-path="url(#SVGID_4_)" fill="none" stroke="#3A3A3A" stroke-width="12" stroke-miterlimit="10" cx="354.857" cy="776.855" r="212.177"/>
	<path clip-path="url(#SVGID_4_)" fill="#333333" d="M545.32,792.926H373.711L495.75,914.963c2.25,2.25,2.249,5.896,0,8.146
		c-2.25,2.25-5.897,2.251-8.148,0.001L367.311,802.818v171.828c0,3.273-2.579,5.928-5.761,5.928s-5.761-2.654-5.761-5.928V787.332
		c0-3.274,2.579-5.928,5.761-5.928c0.291,0,0.576,0.03,0.855,0.073c0.284-0.044,0.573-0.073,0.869-0.073H545.32
		c3.182,0,5.761,2.58,5.761,5.761S548.502,792.926,545.32,792.926z"/>
	<circle display="none" clip-path="url(#SVGID_4_)" fill="#455B4A" cx="349.79" cy="772.114" r="129.58"/>
	
		<rect x="371.123" y="880.142" transform="matrix(0.9848 -0.1736 0.1736 0.9848 -147.6438 78.6905)" display="none" clip-path="url(#SVGID_4_)" fill="#F7B32B" width="9.589" height="6.063"/>
	
		<rect x="389.265" y="874.87" transform="matrix(0.9397 -0.342 0.342 0.9397 -276.4719 187.6976)" display="none" clip-path="url(#SVGID_4_)" fill="#F7B32B" width="9.589" height="6.063"/>
	
		<rect x="406.215" y="866.527" transform="matrix(0.866 -0.5001 0.5001 0.866 -379.7526 322.0588)" display="none" clip-path="url(#SVGID_4_)" fill="#F7B32B" width="9.589" height="6.062"/>
	
		<rect x="440.132" y="834.11" transform="matrix(0.5735 -0.8192 0.8192 0.5735 -496.0301 721.5318)" display="none" clip-path="url(#SVGID_4_)" fill="#F7B32B" width="9.59" height="6.063"/>
	
		<rect x="449.232" y="817.554" transform="matrix(0.4226 -0.9063 0.9063 0.4226 -481.5518 885.3315)" display="none" clip-path="url(#SVGID_4_)" fill="#F7B32B" width="9.591" height="6.063"/>
	
		<rect x="455.319" y="799.668" transform="matrix(0.2587 -0.966 0.966 0.2587 -434.296 1039.4734)" display="none" clip-path="url(#SVGID_4_)" fill="#F7B32B" width="9.591" height="6.063"/>
	
		<rect x="367.547" y="811.877" transform="matrix(0.9849 -0.1733 0.1733 0.9849 -140.114 76.5837)" display="none" clip-path="url(#SVGID_4_)" fill="#FCF6B1" width="2.068" height="57.855"/>
	
		<rect x="378.444" y="808.523" transform="matrix(0.9398 -0.3417 0.3417 0.9398 -263.3457 180.104)" display="none" clip-path="url(#SVGID_4_)" fill="#FCF6B1" width="2.069" height="57.855"/>
	
		<rect x="388.591" y="803.327" transform="matrix(0.8661 -0.4998 0.4998 0.8661 -363.8331 306.1791)" display="none" clip-path="url(#SVGID_4_)" fill="#FCF6B1" width="2.069" height="57.855"/>
	
		<rect x="408.746" y="783.443" transform="matrix(0.5734 -0.8193 0.8193 0.5734 -490.7431 682.2817)" display="none" clip-path="url(#SVGID_4_)" fill="#FCF6B1" width="2.069" height="57.855"/>
	
		<rect x="414.079" y="773.367" transform="matrix(0.4225 -0.9064 0.9064 0.4225 -487.4415 839.5703)" display="none" clip-path="url(#SVGID_4_)" fill="#FCF6B1" width="2.069" height="57.854"/>
	
		<rect x="417.581" y="762.517" transform="matrix(0.2582 -0.9661 0.9661 0.2582 -454.0705 991.548)" display="none" clip-path="url(#SVGID_4_)" fill="#FCF6B1" width="2.069" height="57.854"/>
	
		<circle display="none" opacity="0.6" clip-path="url(#SVGID_4_)" fill="none" stroke="#303030" stroke-width="24" stroke-miterlimit="10" cx="337.388" cy="768.782" r="342.951"/>
	
		<circle display="none" clip-path="url(#SVGID_4_)" fill="none" stroke="#C80234" stroke-width="6" stroke-miterlimit="10" cx="355.151" cy="780.089" r="342.951"/>
	
		<circle display="none" clip-path="url(#SVGID_4_)" fill="none" stroke="#91083D" stroke-width="22" stroke-miterlimit="10" cx="349.624" cy="771.527" r="342.951"/>
	
		<circle display="none" opacity="0.6" clip-path="url(#SVGID_4_)" fill="none" stroke="#455B4A" stroke-width="12" stroke-miterlimit="10" cx="339.905" cy="764.709" r="204.99"/>
	
		<circle display="none" clip-path="url(#SVGID_4_)" fill="none" stroke="#6A8270" stroke-width="4" stroke-miterlimit="10" cx="354.092" cy="776.717" r="204.99"/>
	
		<circle display="none" clip-path="url(#SVGID_4_)" fill="none" stroke="#455B4A" stroke-width="14" stroke-miterlimit="10" cx="349.624" cy="771.527" r="204.99"/>
	<path display="none" clip-path="url(#SVGID_4_)" fill="#455B4A" d="M549.5,783.093H368.674l128.592,128.592
		c2.371,2.37,2.37,6.213,0,8.583c-2.371,2.371-6.214,2.372-8.585,0.001L361.93,793.518v181.057c0,3.449-2.718,6.244-6.071,6.244
		c-3.352,0-6.069-2.795-6.069-6.244V777.199c0-3.449,2.718-6.246,6.069-6.246c0.308,0,0.607,0.031,0.902,0.076
		c0.3-0.046,0.604-0.076,0.916-0.076H549.5c3.352,0,6.07,2.718,6.07,6.07C555.569,780.375,552.852,783.093,549.5,783.093z"/>
	<path display="none" clip-path="url(#SVGID_4_)" fill="#354438" d="M356.906,777.376c-0.361,0.001-0.693,0.412-0.693,0.9v197.376
		c0,0.486,0.332,0.898,0.725,0.898s0.725-0.412,0.725-0.898V781.69l135.877,135.876c0.141,0.141,0.313,0.213,0.512,0.213
		c0.137,0,0.337-0.038,0.513-0.213c0.176-0.177,0.213-0.376,0.213-0.513c0-0.199-0.071-0.37-0.212-0.512L356.846,778.824h193.73
		c0.399,0,0.725-0.324,0.725-0.724c0-0.4-0.325-0.724-0.725-0.724H358.754c-0.023,0.001-0.913,0.14-0.913,0.14L356.906,777.376z"/>
	<polygon display="none" clip-path="url(#SVGID_4_)" fill="#354438" points="489.372,910.748 486.726,915.331 489.372,919.914 
		494.664,919.914 497.31,915.331 494.664,910.748 	"/>
	<polygon display="none" clip-path="url(#SVGID_4_)" fill="#4C0623" points="586.172,1012.435 587.767,1018.391 593.723,1019.986 
		598.082,1015.627 596.487,1009.671 590.531,1008.075 	"/>
	<path display="none" clip-path="url(#SVGID_4_)" fill="#6B0A32" d="M362.871,1103.145c3.283-0.184,9.408-0.544,15.447-0.983
		l5.974,7.119l-9.549,8.012L362.871,1103.145z"/>
	<path display="none" clip-path="url(#SVGID_4_)" fill="#6B0A32" d="M391.723,1100.729c3.254-0.47,9.324-1.362,15.302-2.326
		l6.571,6.571l-8.813,8.813L391.723,1100.729z"/>
	<path display="none" clip-path="url(#SVGID_4_)" fill="#6B0A32" d="M420.254,1095.807c3.2-0.751,9.171-2.17,15.041-3.651
		l7.119,5.974l-8.012,9.549L420.254,1095.807z"/>
	<path display="none" clip-path="url(#SVGID_4_)" fill="#6B0A32" d="M448.249,1088.417c3.123-1.027,8.946-2.961,14.666-4.948
		l7.612,5.33l-7.149,10.211L448.249,1088.417z"/>
	<path display="none" clip-path="url(#SVGID_4_)" fill="#6B0A32" d="M475.492,1078.615c3.021-1.296,8.654-3.729,14.179-6.208
		l8.049,4.647l-6.233,10.795L475.492,1078.615z"/>
	<path display="none" clip-path="url(#SVGID_4_)" fill="#6B0A32" d="M501.778,1066.478c2.896-1.555,8.296-4.47,13.583-7.421
		l8.423,3.928l-5.269,11.297L501.778,1066.478z"/>
	<path display="none" clip-path="url(#SVGID_4_)" fill="#6B0A32" d="M526.905,1052.094c2.751-1.801,7.876-5.176,12.886-8.576
		l8.732,3.179l-4.264,11.714L526.905,1052.094z"/>
	<path display="none" clip-path="url(#SVGID_4_)" fill="#6B0A32" d="M550.684,1035.575c2.583-2.034,7.395-5.843,12.088-9.667
		l8.977,2.406l-3.227,12.04L550.684,1035.575z"/>
	<path display="none" clip-path="url(#SVGID_4_)" fill="#6B0A32" d="M572.933,1017.047c2.396-2.251,6.857-6.465,11.199-10.684
		l9.152,1.614l-2.164,12.275L572.933,1017.047z"/>
	<path display="none" clip-path="url(#SVGID_4_)" fill="#6B0A32" d="M593.481,996.65c2.189-2.451,6.268-7.039,10.226-11.619
		l9.259,0.811l-1.088,12.417L593.481,996.65z"/>
	<path display="none" clip-path="url(#SVGID_4_)" fill="#6B0A32" d="M612.174,974.539c1.968-2.633,5.63-7.557,9.175-12.465h9.293
		v12.465H612.174z"/>
	<path display="none" clip-path="url(#SVGID_4_)" fill="#6B0A32" d="M628.868,950.885c1.731-2.795,4.951-8.021,8.053-13.219
		l9.26-0.811l1.085,12.418L628.868,950.885z"/>
	<path display="none" clip-path="url(#SVGID_4_)" fill="#6B0A32" d="M643.438,925.863c1.48-2.934,4.232-8.42,6.869-13.869
		l9.153-1.614l2.163,12.276L643.438,925.863z"/>
	<path display="none" clip-path="url(#SVGID_4_)" fill="#6B0A32" d="M655.771,899.669c1.22-3.052,3.482-8.757,5.635-14.416
		l8.978-2.405l3.225,12.041L655.771,899.669z"/>
	<path display="none" clip-path="url(#SVGID_4_)" fill="#6B0A32" d="M665.774,872.499c0.949-3.146,2.707-9.027,4.357-14.853
		l8.733-3.179l4.263,11.715L665.774,872.499z"/>
	<path display="none" clip-path="url(#SVGID_4_)" fill="#6B0A32" d="M673.372,844.561c0.671-3.217,1.909-9.229,3.046-15.176
		l8.423-3.928l5.268,11.299L673.372,844.561z"/>
	<path display="none" clip-path="url(#SVGID_4_)" fill="#6B0A32" d="M678.505,816.066c0.389-3.263,1.098-9.36,1.713-15.384
		l8.049-4.646l6.231,10.797L678.505,816.066z"/>
	<circle display="none" clip-path="url(#SVGID_4_)" fill="#1E1E1E" cx="409.339" cy="1109.239" r="6.232"/>
	<circle display="none" clip-path="url(#SVGID_4_)" fill="#635644" cx="409.339" cy="1109.239" r="4.958"/>
	<circle display="none" clip-path="url(#SVGID_4_)" fill="#F7A014" cx="408.976" cy="1109.758" r="4.51"/>
	
		<ellipse transform="matrix(-0.9848 0.1737 -0.1737 -0.9848 1004.0627 2132.4048)" display="none" clip-path="url(#SVGID_4_)" fill="#FFFFFF" cx="408.734" cy="1110.132" rx="3.41" ry="3.537"/>
	
		<ellipse transform="matrix(-0.7068 0.7074 -0.7074 -0.7068 1483.368 1604.6759)" display="none" clip-path="url(#SVGID_4_)" fill="#F7A014" cx="409.159" cy="1109.725" rx="3.499" ry="3.739"/>
	<circle display="none" clip-path="url(#SVGID_4_)" fill="#1E1E1E" cx="467.075" cy="1093.739" r="6.233"/>
	<circle display="none" clip-path="url(#SVGID_4_)" fill="#635644" cx="467.075" cy="1093.739" r="4.958"/>
	<circle display="none" clip-path="url(#SVGID_4_)" fill="#F7A014" cx="466.807" cy="1094.313" r="4.51"/>
	
		<ellipse transform="matrix(-0.9397 0.3421 -0.3421 -0.9397 1279.5746 1963.8014)" display="none" clip-path="url(#SVGID_4_)" fill="#FFFFFF" cx="466.634" cy="1094.724" rx="3.41" ry="3.536"/>
	
		<ellipse transform="matrix(-0.5733 0.8193 -0.8193 -0.5733 1631.2694 1338.9659)" display="none" clip-path="url(#SVGID_4_)" fill="#F7A014" cx="466.982" cy="1094.249" rx="3.499" ry="3.74"/>
	<circle display="none" clip-path="url(#SVGID_4_)" fill="#1E1E1E" cx="521.243" cy="1068.449" r="6.233"/>
	<circle display="none" clip-path="url(#SVGID_4_)" fill="#635644" cx="521.243" cy="1068.449" r="4.958"/>
	<circle display="none" clip-path="url(#SVGID_4_)" fill="#F7A014" cx="521.079" cy="1069.061" r="4.51"/>
	
		<ellipse transform="matrix(-0.866 0.5 -0.5 -0.866 1506.8752 1735.2634)" display="none" clip-path="url(#SVGID_4_)" fill="#FFFFFF" cx="520.979" cy="1069.495" rx="3.41" ry="3.536"/>
	
		<ellipse transform="matrix(-0.4223 0.9065 -0.9065 -0.4223 1710.3308 1047.9279)" display="none" clip-path="url(#SVGID_4_)" fill="#F7A014" cx="521.239" cy="1068.967" rx="3.499" ry="3.739"/>
	<circle display="none" clip-path="url(#SVGID_4_)" fill="#1E1E1E" cx="570.195" cy="1034.137" r="6.232"/>
	<circle display="none" clip-path="url(#SVGID_4_)" fill="#635644" cx="570.195" cy="1034.137" r="4.958"/>
	<circle display="none" clip-path="url(#SVGID_4_)" fill="#F7A014" cx="570.14" cy="1034.768" r="4.51"/>
	
		<ellipse transform="matrix(-0.766 0.6429 -0.6429 -0.766 1672.3125 1461.6689)" display="none" clip-path="url(#SVGID_4_)" fill="#FFFFFF" cx="570.117" cy="1035.213" rx="3.41" ry="3.537"/>
	
		<ellipse transform="matrix(-0.2585 0.966 -0.966 -0.2585 1717.1807 751.2012)" display="none" clip-path="url(#SVGID_4_)" fill="#F7A014" cx="570.282" cy="1034.648" rx="3.498" ry="3.739"/>
	<circle display="none" clip-path="url(#SVGID_4_)" fill="#1E1E1E" cx="612.445" cy="991.845" r="6.233"/>
	<circle display="none" clip-path="url(#SVGID_4_)" fill="#635644" cx="612.446" cy="991.845" r="4.958"/>
	<circle display="none" clip-path="url(#SVGID_4_)" fill="#F7A014" cx="612.501" cy="992.477" r="4.51"/>
	
		<ellipse transform="matrix(-0.6427 0.7661 -0.7661 -0.6427 1766.9341 1161.7994)" display="none" clip-path="url(#SVGID_4_)" fill="#FFFFFF" cx="612.556" cy="992.918" rx="3.411" ry="3.537"/>
	
		<ellipse transform="matrix(-0.0868 0.9962 -0.9962 -0.0868 1654.3828 468.1582)" display="none" clip-path="url(#SVGID_4_)" fill="#F7A014" cx="612.62" cy="992.333" rx="3.499" ry="3.739"/>
	<circle display="none" clip-path="url(#SVGID_4_)" fill="#1E1E1E" cx="646.71" cy="942.859" r="6.232"/>
	<circle display="none" clip-path="url(#SVGID_4_)" fill="#635644" cx="646.711" cy="942.859" r="4.958"/>
	<circle display="none" clip-path="url(#SVGID_4_)" fill="#F7A014" cx="646.875" cy="943.471" r="4.51"/>
	<path display="none" clip-path="url(#SVGID_4_)" fill="#FFFFFF" d="M645.3,946.852c1.692,0.977,3.826,0.445,4.768-1.188
		c0.943-1.629,0.335-3.743-1.357-4.722c-1.69-0.976-3.824-0.444-4.766,1.188C643.001,943.76,643.608,945.875,645.3,946.852z"/>
	
		<ellipse transform="matrix(0.0875 0.9962 -0.9962 0.0875 1530.0471 216.2817)" display="none" clip-path="url(#SVGID_4_)" fill="#F7A014" cx="646.967" cy="943.31" rx="3.499" ry="3.739"/>
	<circle display="none" clip-path="url(#SVGID_4_)" fill="#1E1E1E" cx="671.949" cy="888.667" r="6.232"/>
	<circle display="none" clip-path="url(#SVGID_4_)" fill="#635644" cx="671.949" cy="888.667" r="4.958"/>
	<circle display="none" clip-path="url(#SVGID_4_)" fill="#F7A014" cx="672.216" cy="889.242" r="4.51"/>
	<path display="none" clip-path="url(#SVGID_4_)" fill="#FFFFFF" d="M671.253,892.844c1.836,0.669,3.846-0.227,4.489-1.997
		c0.646-1.768-0.321-3.744-2.157-4.414c-1.834-0.667-3.844,0.227-4.488,1.997C668.452,890.199,669.417,892.177,671.253,892.844z"/>
	
		<ellipse transform="matrix(0.2591 0.9658 -0.9658 0.2591 1356.7544 9.3542)" display="none" clip-path="url(#SVGID_4_)" fill="#F7A014" cx="672.28" cy="889.067" rx="3.499" ry="3.739"/>
	<circle display="none" clip-path="url(#SVGID_4_)" fill="#1E1E1E" cx="687.393" cy="830.917" r="6.232"/>
	<circle display="none" clip-path="url(#SVGID_4_)" fill="#635644" cx="687.393" cy="830.917" r="4.958"/>
	<circle display="none" clip-path="url(#SVGID_4_)" fill="#F7A014" cx="687.757" cy="831.437" r="4.51"/>
	<path display="none" clip-path="url(#SVGID_4_)" fill="#FFFFFF" d="M687.433,835.15c1.925,0.34,3.748-0.891,4.074-2.746
		c0.328-1.853-0.966-3.632-2.891-3.973c-1.922-0.338-3.746,0.891-4.072,2.746C684.216,833.032,685.51,834.813,687.433,835.15z"/>
	
		<ellipse transform="matrix(0.4229 0.9062 -0.9062 0.4229 1150.1427 -143.5615)" display="none" clip-path="url(#SVGID_4_)" fill="#F7A014" cx="687.789" cy="831.253" rx="3.499" ry="3.739"/>
	<circle display="none" clip-path="url(#SVGID_4_)" fill="#1E1E1E" cx="379.679" cy="1113.158" r="6.232"/>
	<circle display="none" clip-path="url(#SVGID_4_)" fill="#635644" cx="379.679" cy="1113.159" r="4.958"/>
	<circle display="none" clip-path="url(#SVGID_4_)" fill="#C6BEB3" cx="379.271" cy="1113.643" r="4.51"/>
	
		<ellipse transform="matrix(-0.9962 0.0872 -0.0872 -0.9962 853.683 2190.7031)" display="none" clip-path="url(#SVGID_4_)" fill="#FFFFFF" cx="378.998" cy="1113.996" rx="3.41" ry="3.536"/>
	
		<ellipse transform="matrix(-0.7658 0.6431 -0.6431 -0.7658 1386.2148 1722.3889)" display="none" clip-path="url(#SVGID_4_)" fill="#C6BEB3" cx="379.457" cy="1113.627" rx="3.499" ry="3.739"/>
	<circle display="none" clip-path="url(#SVGID_4_)" fill="#1E1E1E" cx="438.546" cy="1102.749" r="6.232"/>
	<circle display="none" clip-path="url(#SVGID_4_)" fill="#635644" cx="438.545" cy="1102.75" r="4.958"/>
	<circle display="none" clip-path="url(#SVGID_4_)" fill="#C6BEB3" cx="438.229" cy="1103.298" r="4.51"/>
	
		<ellipse transform="matrix(-0.9659 0.2588 -0.2588 -0.9659 1146.7919 2056.395)" display="none" clip-path="url(#SVGID_4_)" fill="#FFFFFF" cx="438.021" cy="1103.692" rx="3.411" ry="3.535"/>
	
		<ellipse transform="matrix(-0.6425 0.7663 -0.7663 -0.6425 1565.49 1476.1427)" display="none" clip-path="url(#SVGID_4_)" fill="#C6BEB3" cx="438.409" cy="1103.25" rx="3.499" ry="3.739"/>
	<circle display="none" clip-path="url(#SVGID_4_)" fill="#1E1E1E" cx="494.711" cy="1082.276" r="6.232"/>
	<circle display="none" clip-path="url(#SVGID_4_)" fill="#635644" cx="494.711" cy="1082.276" r="4.958"/>
	<circle display="none" clip-path="url(#SVGID_4_)" fill="#C6BEB3" cx="494.494" cy="1082.872" r="4.509"/>
	
		<ellipse transform="matrix(-0.9063 0.4227 -0.4227 -0.9063 1400.2458 1856.1407)" display="none" clip-path="url(#SVGID_4_)" fill="#FFFFFF" cx="494.357" cy="1083.297" rx="3.41" ry="3.535"/>
	
		<ellipse transform="matrix(-0.4998 0.8661 -0.8661 -0.4998 1679.7478 1195.5076)" display="none" clip-path="url(#SVGID_4_)" fill="#C6BEB3" cx="494.663" cy="1082.793" rx="3.499" ry="3.739"/>
	<circle display="none" clip-path="url(#SVGID_4_)" fill="#1E1E1E" cx="546.468" cy="1052.362" r="6.233"/>
	<circle display="none" clip-path="url(#SVGID_4_)" fill="#635644" cx="546.468" cy="1052.362" r="4.959"/>
	<circle display="none" clip-path="url(#SVGID_4_)" fill="#C6BEB3" cx="546.357" cy="1052.985" r="4.51"/>
	
		<ellipse transform="matrix(-0.8192 0.5735 -0.5735 -0.8192 1597.9806 1603.0747)" display="none" clip-path="url(#SVGID_4_)" fill="#FFFFFF" cx="546.297" cy="1053.428" rx="3.411" ry="3.535"/>
	
		<ellipse transform="matrix(-0.3418 0.9398 -0.9398 -0.3418 1722.7705 899.1283)" display="none" clip-path="url(#SVGID_4_)" fill="#C6BEB3" cx="546.51" cy="1052.879" rx="3.499" ry="3.739"/>
	<circle display="none" clip-path="url(#SVGID_4_)" fill="#1E1E1E" cx="592.244" cy="1013.914" r="6.232"/>
	<circle display="none" clip-path="url(#SVGID_4_)" fill="#635644" cx="592.244" cy="1013.914" r="4.959"/>
	<circle display="none" clip-path="url(#SVGID_4_)" fill="#C6BEB3" cx="592.244" cy="1014.547" r="4.51"/>
	
		<ellipse transform="matrix(-0.7071 0.7071 -0.7071 -0.7071 1728.7604 1313.9113)" display="none" clip-path="url(#SVGID_4_)" fill="#FFFFFF" cx="592.26" cy="1014.994" rx="3.411" ry="3.536"/>
	
		<ellipse transform="matrix(-0.1733 0.9849 -0.9849 -0.1733 1694.1132 606.8372)" display="none" clip-path="url(#SVGID_4_)" fill="#C6BEB3" cx="592.375" cy="1014.416" rx="3.499" ry="3.739"/>
	<circle display="none" clip-path="url(#SVGID_4_)" fill="#1E1E1E" cx="630.647" cy="968.102" r="6.232"/>
	<circle display="none" clip-path="url(#SVGID_4_)" fill="#635644" cx="630.647" cy="968.101" r="4.958"/>
	<circle display="none" clip-path="url(#SVGID_4_)" fill="#C6BEB3" cx="630.757" cy="968.726" r="4.51"/>
	
		<ellipse transform="matrix(-0.5735 0.8192 -0.8192 -0.5735 1786.5862 1008.2062)" display="none" clip-path="url(#SVGID_4_)" fill="#FFFFFF" cx="630.852" cy="969.161" rx="3.411" ry="3.535"/>
	<path display="none" clip-path="url(#SVGID_4_)" fill="#C6BEB3" d="M630.865,972.07c2.065,0,3.738-1.568,3.737-3.5
		c0-1.932-1.674-3.498-3.739-3.498c-2.065,0.004-3.738,1.568-3.737,3.5C627.126,970.506,628.801,972.072,630.865,972.07z"/>
	<circle display="none" clip-path="url(#SVGID_4_)" fill="#1E1E1E" cx="660.513" cy="916.315" r="6.232"/>
	<circle display="none" clip-path="url(#SVGID_4_)" fill="#635644" cx="660.513" cy="916.314" r="4.959"/>
	<circle display="none" clip-path="url(#SVGID_4_)" fill="#C6BEB3" cx="660.729" cy="916.911" r="4.51"/>
	
		<ellipse transform="matrix(-0.4227 0.9063 -0.9063 -0.4227 1771.6027 706.1315)" display="none" clip-path="url(#SVGID_4_)" fill="#FFFFFF" cx="660.897" cy="917.324" rx="3.41" ry="3.537"/>
	
		<ellipse transform="matrix(0.174 0.9847 -0.9847 0.174 1448.558 106.4747)" display="none" clip-path="url(#SVGID_4_)" fill="#C6BEB3" cx="660.808" cy="916.741" rx="3.499" ry="3.738"/>
	<circle display="none" clip-path="url(#SVGID_4_)" fill="#1E1E1E" cx="680.932" cy="860.13" r="6.232"/>
	<circle display="none" clip-path="url(#SVGID_4_)" fill="#635644" cx="680.932" cy="860.13" r="4.959"/>
	<circle display="none" clip-path="url(#SVGID_4_)" fill="#C6BEB3" cx="681.248" cy="860.679" r="4.51"/>
	
		<ellipse transform="matrix(-0.2588 0.9659 -0.9659 -0.2588 1689.5656 425.6061)" display="none" clip-path="url(#SVGID_4_)" fill="#FFFFFF" cx="681.486" cy="861.057" rx="3.41" ry="3.536"/>
	
		<ellipse transform="matrix(0.3424 0.9396 -0.9396 0.3424 1256.5465 -74.2259)" display="none" clip-path="url(#SVGID_4_)" fill="#C6BEB3" cx="681.296" cy="860.499" rx="3.499" ry="3.739"/>
	<circle display="none" clip-path="url(#SVGID_4_)" fill="#1E1E1E" cx="691.284" cy="801.253" r="6.232"/>
	<circle display="none" clip-path="url(#SVGID_4_)" fill="#635644" cx="691.284" cy="801.253" r="4.959"/>
	<circle display="none" clip-path="url(#SVGID_4_)" fill="#C6BEB3" cx="691.691" cy="801.739" r="4.509"/>
	<path display="none" clip-path="url(#SVGID_4_)" fill="#FFFFFF" d="M691.694,805.467c1.945,0.172,3.655-1.212,3.819-3.087
		c0.163-1.879-1.28-3.537-3.226-3.707s-3.655,1.214-3.82,3.09C688.304,803.639,689.749,805.298,691.694,805.467z"/>
	
		<ellipse transform="matrix(0.5004 0.8658 -0.8658 0.5004 1039.5725 -198.4152)" display="none" clip-path="url(#SVGID_4_)" fill="#C6BEB3" cx="691.708" cy="801.553" rx="3.498" ry="3.738"/>
	<circle clip-path="url(#SVGID_4_)" fill="#FF5527" cx="349.624" cy="771.526" r="44.435"/>
	<polygon display="none" clip-path="url(#SVGID_4_)" fill="#354438" points="354.447,974.551 352.203,978.438 354.447,982.326 
		358.935,982.326 361.18,978.438 358.935,974.551 	"/>
	<polygon display="none" clip-path="url(#SVGID_4_)" fill="#354438" points="552.424,772.459 549.94,776.761 552.424,781.063 
		557.391,781.063 559.874,776.761 557.391,772.459 	"/>
</g>
<g>
	<defs>
		<rect id="SVGID_5_" x="356.691" y="324.526" width="376.691" height="453.167"/>
	</defs>
	<clipPath id="SVGID_6_">
		<use xlink:href="#SVGID_5_"  overflow="visible"/>
	</clipPath>
	
		<circle clip-path="url(#SVGID_6_)" fill="none" stroke="#591645" stroke-width="18" stroke-miterlimit="10" cx="346.229" cy="788.21" r="357.829"/>
	
		<circle clip-path="url(#SVGID_6_)" fill="none" stroke="#3A3A3A" stroke-width="12" stroke-miterlimit="10" cx="354.857" cy="778.531" r="212.177"/>
	<path clip-path="url(#SVGID_6_)" fill="#333333" d="M545.32,762.461H373.711L495.75,640.424c2.25-2.25,2.249-5.896,0-8.146
		c-2.25-2.25-5.897-2.251-8.148-0.001L367.311,752.568V580.74c0-3.273-2.579-5.928-5.761-5.928s-5.761,2.654-5.761,5.928v187.314
		c0,3.274,2.579,5.928,5.761,5.928c0.291,0,0.576-0.03,0.855-0.073c0.284,0.044,0.573,0.073,0.869,0.073H545.32
		c3.182,0,5.761-2.58,5.761-5.761S548.502,762.461,545.32,762.461z"/>
	<circle display="none" clip-path="url(#SVGID_6_)" fill="#455B4A" cx="349.79" cy="783.272" r="129.58"/>
	
		<rect x="371.123" y="669.182" transform="matrix(0.9848 0.1736 -0.1736 0.9848 122.4337 -55.0629)" display="none" clip-path="url(#SVGID_6_)" fill="#F7B32B" width="9.589" height="6.063"/>
	
		<rect x="389.265" y="674.454" transform="matrix(0.9397 0.342 -0.342 0.9397 255.4523 -93.9142)" display="none" clip-path="url(#SVGID_6_)" fill="#F7B32B" width="9.589" height="6.063"/>
	
		<rect x="406.215" y="682.797" transform="matrix(0.866 0.5001 -0.5001 0.866 398.0347 -113.6223)" display="none" clip-path="url(#SVGID_6_)" fill="#F7B32B" width="9.589" height="6.062"/>
	
		<rect x="440.132" y="715.214" transform="matrix(0.5735 0.8192 -0.8192 0.5735 778.1552 -58.1539)" display="none" clip-path="url(#SVGID_6_)" fill="#F7B32B" width="9.59" height="6.063"/>
	
		<rect x="449.232" y="731.77" transform="matrix(0.4226 0.9063 -0.9063 0.4226 928.1439 12.7991)" display="none" clip-path="url(#SVGID_6_)" fill="#F7B32B" width="9.591" height="6.063"/>
	
		<rect x="455.319" y="749.656" transform="matrix(0.2587 0.966 -0.966 0.2587 1068.1331 113.5024)" display="none" clip-path="url(#SVGID_6_)" fill="#F7B32B" width="9.591" height="6.063"/>
	
		<rect x="367.547" y="685.655" transform="matrix(0.9849 0.1733 -0.1733 0.9849 129.3935 -53.0565)" display="none" clip-path="url(#SVGID_6_)" fill="#FCF6B1" width="2.068" height="57.855"/>
	
		<rect x="378.444" y="689.009" transform="matrix(0.9398 0.3417 -0.3417 0.9398 268.1969 -86.4595)" display="none" clip-path="url(#SVGID_6_)" fill="#FCF6B1" width="2.069" height="57.855"/>
	
		<rect x="388.591" y="694.205" transform="matrix(0.8661 0.4998 -0.4998 0.8661 413.6193 -97.9359)" display="none" clip-path="url(#SVGID_6_)" fill="#FCF6B1" width="2.069" height="57.855"/>
	
		<rect x="408.746" y="714.089" transform="matrix(0.5734 0.8193 -0.8193 0.5734 783.5483 -18.7523)" display="none" clip-path="url(#SVGID_6_)" fill="#FCF6B1" width="2.069" height="57.855"/>
	
		<rect x="414.079" y="724.166" transform="matrix(0.4225 0.9064 -0.9064 0.4225 922.305 58.669)" display="none" clip-path="url(#SVGID_6_)" fill="#FCF6B1" width="2.069" height="57.854"/>
	
		<rect x="417.581" y="735.016" transform="matrix(0.2582 0.9661 -0.9661 0.2582 1048.5912 162.297)" display="none" clip-path="url(#SVGID_6_)" fill="#FCF6B1" width="2.069" height="57.854"/>
	
		<circle display="none" opacity="0.6" clip-path="url(#SVGID_6_)" fill="none" stroke="#303030" stroke-width="24" stroke-miterlimit="10" cx="337.388" cy="786.604" r="342.951"/>
	
		<circle display="none" clip-path="url(#SVGID_6_)" fill="none" stroke="#C80234" stroke-width="6" stroke-miterlimit="10" cx="355.151" cy="775.298" r="342.951"/>
	
		<circle display="none" clip-path="url(#SVGID_6_)" fill="none" stroke="#91083D" stroke-width="22" stroke-miterlimit="10" cx="349.624" cy="783.859" r="342.951"/>
	
		<circle display="none" opacity="0.6" clip-path="url(#SVGID_6_)" fill="none" stroke="#455B4A" stroke-width="12" stroke-miterlimit="10" cx="339.905" cy="790.678" r="204.99"/>
	
		<circle display="none" clip-path="url(#SVGID_6_)" fill="none" stroke="#6A8270" stroke-width="4" stroke-miterlimit="10" cx="354.092" cy="778.67" r="204.99"/>
	
		<circle display="none" clip-path="url(#SVGID_6_)" fill="none" stroke="#455B4A" stroke-width="14" stroke-miterlimit="10" cx="349.624" cy="783.859" r="204.99"/>
	<path display="none" clip-path="url(#SVGID_6_)" fill="#455B4A" d="M549.5,772.294H368.674l128.592-128.592
		c2.371-2.37,2.37-6.213,0-8.583c-2.371-2.371-6.214-2.372-8.585-0.001L361.93,761.869V580.813c0-3.449-2.718-6.244-6.071-6.244
		c-3.352,0-6.069,2.795-6.069,6.244v197.375c0,3.449,2.718,6.246,6.069,6.246c0.308,0,0.607-0.031,0.902-0.076
		c0.3,0.046,0.604,0.076,0.916,0.076H549.5c3.352,0,6.07-2.718,6.07-6.07C555.569,775.012,552.852,772.294,549.5,772.294z"/>
	<path display="none" clip-path="url(#SVGID_6_)" fill="#354438" d="M356.906,778.011c-0.361-0.001-0.693-0.412-0.693-0.9V579.734
		c0-0.486,0.332-0.898,0.725-0.898s0.725,0.412,0.725,0.898v193.962L493.539,637.82c0.141-0.141,0.313-0.213,0.512-0.213
		c0.137,0,0.337,0.038,0.513,0.213c0.176,0.177,0.213,0.376,0.213,0.513c0,0.199-0.071,0.37-0.212,0.512L356.846,776.563h193.73
		c0.399,0,0.725,0.324,0.725,0.724c0,0.4-0.325,0.724-0.725,0.724H358.754c-0.023-0.001-0.913-0.14-0.913-0.14L356.906,778.011z"/>
	<polygon display="none" clip-path="url(#SVGID_6_)" fill="#354438" points="489.372,644.639 486.726,640.056 489.372,635.473 
		494.664,635.473 497.31,640.056 494.664,644.639 	"/>
	<polygon display="none" clip-path="url(#SVGID_6_)" fill="#4C0623" points="586.172,542.952 587.767,536.996 593.723,535.4 
		598.082,539.76 596.487,545.716 590.531,547.312 	"/>
	<path display="none" clip-path="url(#SVGID_6_)" fill="#6B0A32" d="M362.871,452.242c3.283,0.184,9.408,0.544,15.447,0.983
		l5.974-7.119l-9.549-8.012L362.871,452.242z"/>
	<path display="none" clip-path="url(#SVGID_6_)" fill="#6B0A32" d="M391.723,454.658c3.254,0.47,9.324,1.362,15.302,2.326
		l6.571-6.571l-8.813-8.813L391.723,454.658z"/>
	<path display="none" clip-path="url(#SVGID_6_)" fill="#6B0A32" d="M420.254,459.58c3.2,0.751,9.171,2.17,15.041,3.651l7.119-5.974
		l-8.012-9.549L420.254,459.58z"/>
	<path display="none" clip-path="url(#SVGID_6_)" fill="#6B0A32" d="M448.249,466.97c3.123,1.027,8.946,2.961,14.666,4.948
		l7.612-5.33l-7.149-10.211L448.249,466.97z"/>
	<path display="none" clip-path="url(#SVGID_6_)" fill="#6B0A32" d="M475.492,476.771c3.021,1.296,8.654,3.729,14.179,6.208
		l8.049-4.647l-6.233-10.795L475.492,476.771z"/>
	<path display="none" clip-path="url(#SVGID_6_)" fill="#6B0A32" d="M501.778,488.909c2.896,1.555,8.296,4.47,13.583,7.421
		l8.423-3.928l-5.269-11.297L501.778,488.909z"/>
	<path display="none" clip-path="url(#SVGID_6_)" fill="#6B0A32" d="M526.905,503.293c2.751,1.801,7.876,5.176,12.886,8.576
		l8.732-3.179l-4.264-11.714L526.905,503.293z"/>
	<path display="none" clip-path="url(#SVGID_6_)" fill="#6B0A32" d="M550.684,519.812c2.583,2.034,7.395,5.843,12.088,9.667
		l8.977-2.406l-3.227-12.04L550.684,519.812z"/>
	<path display="none" clip-path="url(#SVGID_6_)" fill="#6B0A32" d="M572.933,538.34c2.396,2.251,6.857,6.465,11.199,10.684
		l9.152-1.614l-2.164-12.275L572.933,538.34z"/>
	<path display="none" clip-path="url(#SVGID_6_)" fill="#6B0A32" d="M593.481,558.736c2.189,2.451,6.268,7.039,10.226,11.619
		l9.259-0.811l-1.088-12.417L593.481,558.736z"/>
	<path display="none" clip-path="url(#SVGID_6_)" fill="#6B0A32" d="M612.174,580.848c1.968,2.633,5.63,7.557,9.175,12.465h9.293
		v-12.465H612.174z"/>
	<path display="none" clip-path="url(#SVGID_6_)" fill="#6B0A32" d="M628.868,604.502c1.731,2.795,4.951,8.021,8.053,13.219
		l9.26,0.811l1.085-12.418L628.868,604.502z"/>
	<path display="none" clip-path="url(#SVGID_6_)" fill="#6B0A32" d="M643.438,629.523c1.48,2.934,4.232,8.42,6.869,13.869
		l9.153,1.614l2.163-12.276L643.438,629.523z"/>
	<path display="none" clip-path="url(#SVGID_6_)" fill="#6B0A32" d="M655.771,655.718c1.22,3.052,3.482,8.757,5.635,14.416
		l8.978,2.405l3.225-12.041L655.771,655.718z"/>
	<path display="none" clip-path="url(#SVGID_6_)" fill="#6B0A32" d="M665.774,682.888c0.949,3.146,2.707,9.027,4.357,14.853
		l8.733,3.179l4.263-11.715L665.774,682.888z"/>
	<path display="none" clip-path="url(#SVGID_6_)" fill="#6B0A32" d="M673.372,710.826c0.671,3.217,1.909,9.229,3.046,15.176
		l8.423,3.928l5.268-11.299L673.372,710.826z"/>
	<path display="none" clip-path="url(#SVGID_6_)" fill="#6B0A32" d="M678.505,739.32c0.389,3.263,1.098,9.36,1.713,15.384
		l8.049,4.646l6.231-10.797L678.505,739.32z"/>
	<circle display="none" clip-path="url(#SVGID_6_)" fill="#1E1E1E" cx="409.339" cy="446.148" r="6.232"/>
	<circle display="none" clip-path="url(#SVGID_6_)" fill="#635644" cx="409.339" cy="446.148" r="4.958"/>
	<circle display="none" clip-path="url(#SVGID_6_)" fill="#F7A014" cx="408.976" cy="445.629" r="4.51"/>
	
		<ellipse transform="matrix(-0.9848 -0.1737 0.1737 -0.9848 733.9246 954.7305)" display="none" clip-path="url(#SVGID_6_)" fill="#FFFFFF" cx="408.734" cy="445.254" rx="3.41" ry="3.537"/>
	
		<ellipse transform="matrix(-0.7068 -0.7074 0.7074 -0.7068 383.1094 1050.101)" display="none" clip-path="url(#SVGID_6_)" fill="#F7A014" cx="409.159" cy="445.662" rx="3.499" ry="3.739"/>
	<circle display="none" clip-path="url(#SVGID_6_)" fill="#1E1E1E" cx="467.075" cy="461.648" r="6.233"/>
	<circle display="none" clip-path="url(#SVGID_6_)" fill="#635644" cx="467.075" cy="461.648" r="4.958"/>
	<circle display="none" clip-path="url(#SVGID_6_)" fill="#F7A014" cx="466.807" cy="461.074" r="4.51"/>
	
		<ellipse transform="matrix(-0.9397 -0.3421 0.3421 -0.9397 747.5493 1053.1519)" display="none" clip-path="url(#SVGID_6_)" fill="#FFFFFF" cx="466.634" cy="460.663" rx="3.41" ry="3.536"/>
	
		<ellipse transform="matrix(-0.5733 -0.8193 0.8193 -0.5733 356.8735 1108.1287)" display="none" clip-path="url(#SVGID_6_)" fill="#F7A014" cx="466.982" cy="461.138" rx="3.499" ry="3.74"/>
	<circle display="none" clip-path="url(#SVGID_6_)" fill="#1E1E1E" cx="521.243" cy="486.938" r="6.233"/>
	<circle display="none" clip-path="url(#SVGID_6_)" fill="#635644" cx="521.243" cy="486.938" r="4.958"/>
	<circle display="none" clip-path="url(#SVGID_6_)" fill="#F7A014" cx="521.079" cy="486.326" r="4.51"/>
	
		<ellipse transform="matrix(-0.866 -0.5 0.5 -0.866 729.2474 1167.1655)" display="none" clip-path="url(#SVGID_6_)" fill="#FFFFFF" cx="520.979" cy="485.892" rx="3.41" ry="3.536"/>
	
		<ellipse transform="matrix(-0.4223 -0.9065 0.9065 -0.4223 300.45 1164.3179)" display="none" clip-path="url(#SVGID_6_)" fill="#F7A014" cx="521.239" cy="486.419" rx="3.499" ry="3.739"/>
	<circle display="none" clip-path="url(#SVGID_6_)" fill="#1E1E1E" cx="570.195" cy="521.25" r="6.232"/>
	<circle display="none" clip-path="url(#SVGID_6_)" fill="#635644" cx="570.195" cy="521.25" r="4.958"/>
	<circle display="none" clip-path="url(#SVGID_6_)" fill="#F7A014" cx="570.14" cy="520.619" r="4.51"/>
	
		<ellipse transform="matrix(-0.766 -0.6429 0.6429 -0.766 672.4224 1285.1235)" display="none" clip-path="url(#SVGID_6_)" fill="#FFFFFF" cx="570.117" cy="520.174" rx="3.41" ry="3.537"/>
	
		<ellipse transform="matrix(-0.2585 -0.966 0.966 -0.2585 214.6582 1206.2476)" display="none" clip-path="url(#SVGID_6_)" fill="#F7A014" cx="570.282" cy="520.739" rx="3.498" ry="3.739"/>
	<circle display="none" clip-path="url(#SVGID_6_)" fill="#1E1E1E" cx="612.445" cy="563.542" r="6.233"/>
	<circle display="none" clip-path="url(#SVGID_6_)" fill="#635644" cx="612.446" cy="563.542" r="4.958"/>
	<circle display="none" clip-path="url(#SVGID_6_)" fill="#F7A014" cx="612.501" cy="562.91" r="4.51"/>
	
		<ellipse transform="matrix(-0.6427 -0.7661 0.7661 -0.6427 575.3444 1393.2581)" display="none" clip-path="url(#SVGID_6_)" fill="#FFFFFF" cx="612.556" cy="562.469" rx="3.411" ry="3.537"/>
	
		<ellipse transform="matrix(-0.0868 -0.9962 0.9962 -0.0868 104.8662 1222.2333)" display="none" clip-path="url(#SVGID_6_)" fill="#F7A014" cx="612.62" cy="563.053" rx="3.499" ry="3.739"/>
	<circle display="none" clip-path="url(#SVGID_6_)" fill="#1E1E1E" cx="646.71" cy="612.528" r="6.232"/>
	<circle display="none" clip-path="url(#SVGID_6_)" fill="#635644" cx="646.711" cy="612.528" r="4.958"/>
	<circle display="none" clip-path="url(#SVGID_6_)" fill="#F7A014" cx="646.875" cy="611.916" r="4.51"/>
	<path display="none" clip-path="url(#SVGID_6_)" fill="#FFFFFF" d="M645.3,608.535c1.692-0.977,3.826-0.445,4.768,1.188
		c0.943,1.629,0.335,3.743-1.357,4.722c-1.69,0.976-3.824,0.444-4.766-1.188C643.001,611.627,643.608,609.512,645.3,608.535z"/>
	
		<ellipse transform="matrix(0.0875 -0.9962 0.9962 0.0875 -19.3735 1203.0044)" display="none" clip-path="url(#SVGID_6_)" fill="#F7A014" cx="646.967" cy="612.077" rx="3.499" ry="3.739"/>
	<circle display="none" clip-path="url(#SVGID_6_)" fill="#1E1E1E" cx="671.949" cy="666.719" r="6.232"/>
	<circle display="none" clip-path="url(#SVGID_6_)" fill="#635644" cx="671.949" cy="666.719" r="4.958"/>
	<circle display="none" clip-path="url(#SVGID_6_)" fill="#F7A014" cx="672.216" cy="666.145" r="4.51"/>
	<path display="none" clip-path="url(#SVGID_6_)" fill="#FFFFFF" d="M671.253,662.543c1.836-0.669,3.846,0.227,4.489,1.997
		c0.646,1.768-0.321,3.744-2.157,4.414c-1.834,0.667-3.844-0.227-4.488-1.997C668.452,665.188,669.417,663.21,671.253,662.543z"/>
	
		<ellipse transform="matrix(0.2591 -0.9658 0.9658 0.2591 -145.4967 1142.9579)" display="none" clip-path="url(#SVGID_6_)" fill="#F7A014" cx="672.28" cy="666.32" rx="3.499" ry="3.739"/>
	<circle display="none" clip-path="url(#SVGID_6_)" fill="#1E1E1E" cx="687.393" cy="724.47" r="6.232"/>
	<circle display="none" clip-path="url(#SVGID_6_)" fill="#635644" cx="687.393" cy="724.47" r="4.958"/>
	<circle display="none" clip-path="url(#SVGID_6_)" fill="#F7A014" cx="687.757" cy="723.95" r="4.51"/>
	<path display="none" clip-path="url(#SVGID_6_)" fill="#FFFFFF" d="M687.433,720.236c1.925-0.34,3.748,0.891,4.074,2.746
		c0.328,1.853-0.966,3.632-2.891,3.973c-1.922,0.338-3.746-0.891-4.072-2.746C684.216,722.354,685.51,720.574,687.433,720.236z"/>
	
		<ellipse transform="matrix(0.4229 -0.9062 0.9062 0.4229 -259.2838 1041.1147)" display="none" clip-path="url(#SVGID_6_)" fill="#F7A014" cx="687.789" cy="724.134" rx="3.499" ry="3.739"/>
	<circle display="none" clip-path="url(#SVGID_6_)" fill="#1E1E1E" cx="379.679" cy="442.229" r="6.232"/>
	<circle display="none" clip-path="url(#SVGID_6_)" fill="#635644" cx="379.679" cy="442.228" r="4.958"/>
	<circle display="none" clip-path="url(#SVGID_6_)" fill="#C6BEB3" cx="379.271" cy="441.744" r="4.51"/>
	
		<ellipse transform="matrix(-0.9962 -0.0872 0.0872 -0.9962 718.066 914.1467)" display="none" clip-path="url(#SVGID_6_)" fill="#FFFFFF" cx="378.998" cy="441.391" rx="3.41" ry="3.536"/>
	
		<ellipse transform="matrix(-0.7658 -0.6431 0.6431 -0.7658 385.9399 1024.0803)" display="none" clip-path="url(#SVGID_6_)" fill="#C6BEB3" cx="379.457" cy="441.76" rx="3.499" ry="3.739"/>
	<circle display="none" clip-path="url(#SVGID_6_)" fill="#1E1E1E" cx="438.546" cy="452.638" r="6.232"/>
	<circle display="none" clip-path="url(#SVGID_6_)" fill="#635644" cx="438.545" cy="452.637" r="4.958"/>
	<circle display="none" clip-path="url(#SVGID_6_)" fill="#C6BEB3" cx="438.229" cy="452.089" r="4.51"/>
	
		<ellipse transform="matrix(-0.9659 -0.2588 0.2588 -0.9659 744.1975 1001.3718)" display="none" clip-path="url(#SVGID_6_)" fill="#FFFFFF" cx="438.021" cy="451.694" rx="3.411" ry="3.535"/>
	
		<ellipse transform="matrix(-0.6425 -0.7663 0.7663 -0.6425 373.621 1078.5818)" display="none" clip-path="url(#SVGID_6_)" fill="#C6BEB3" cx="438.409" cy="452.137" rx="3.499" ry="3.739"/>
	<circle display="none" clip-path="url(#SVGID_6_)" fill="#1E1E1E" cx="494.711" cy="473.11" r="6.232"/>
	<circle display="none" clip-path="url(#SVGID_6_)" fill="#635644" cx="494.711" cy="473.11" r="4.958"/>
	<circle display="none" clip-path="url(#SVGID_6_)" fill="#C6BEB3" cx="494.494" cy="472.515" r="4.509"/>
	
		<ellipse transform="matrix(-0.9063 -0.4227 0.4227 -0.9063 742.8611 1108.8818)" display="none" clip-path="url(#SVGID_6_)" fill="#FFFFFF" cx="494.357" cy="472.09" rx="3.41" ry="3.535"/>
	
		<ellipse transform="matrix(-0.4998 -0.8661 0.8661 -0.4998 332.5522 1137.2412)" display="none" clip-path="url(#SVGID_6_)" fill="#C6BEB3" cx="494.663" cy="472.594" rx="3.499" ry="3.739"/>
	<circle display="none" clip-path="url(#SVGID_6_)" fill="#1E1E1E" cx="546.468" cy="503.025" r="6.233"/>
	<circle display="none" clip-path="url(#SVGID_6_)" fill="#635644" cx="546.468" cy="503.025" r="4.959"/>
	<circle display="none" clip-path="url(#SVGID_6_)" fill="#C6BEB3" cx="546.357" cy="502.401" r="4.51"/>
	
		<ellipse transform="matrix(-0.8192 -0.5735 0.5735 -0.8192 705.9352 1226.4717)" display="none" clip-path="url(#SVGID_6_)" fill="#FFFFFF" cx="546.297" cy="501.959" rx="3.411" ry="3.535"/>
	
		<ellipse transform="matrix(-0.3418 -0.9398 0.9398 -0.3418 261.0473 1187.8533)" display="none" clip-path="url(#SVGID_6_)" fill="#C6BEB3" cx="546.51" cy="502.508" rx="3.499" ry="3.739"/>
	<circle display="none" clip-path="url(#SVGID_6_)" fill="#1E1E1E" cx="592.244" cy="541.473" r="6.232"/>
	<circle display="none" clip-path="url(#SVGID_6_)" fill="#635644" cx="592.244" cy="541.473" r="4.959"/>
	<circle display="none" clip-path="url(#SVGID_6_)" fill="#C6BEB3" cx="592.244" cy="540.839" r="4.51"/>
	
		<ellipse transform="matrix(-0.7071 -0.7071 0.7071 -0.7071 628.9359 1341.2998)" display="none" clip-path="url(#SVGID_6_)" fill="#FFFFFF" cx="592.26" cy="540.393" rx="3.411" ry="3.536"/>
	
		<ellipse transform="matrix(-0.1733 -0.9849 0.9849 -0.1733 162.2695 1218.1471)" display="none" clip-path="url(#SVGID_6_)" fill="#C6BEB3" cx="592.375" cy="540.971" rx="3.499" ry="3.739"/>
	<circle display="none" clip-path="url(#SVGID_6_)" fill="#1E1E1E" cx="630.647" cy="587.285" r="6.232"/>
	<circle display="none" clip-path="url(#SVGID_6_)" fill="#635644" cx="630.647" cy="587.286" r="4.958"/>
	<circle display="none" clip-path="url(#SVGID_6_)" fill="#C6BEB3" cx="630.757" cy="586.661" r="4.51"/>
	
		<ellipse transform="matrix(-0.5735 -0.8192 0.8192 -0.5735 512.4265 1439.226)" display="none" clip-path="url(#SVGID_6_)" fill="#FFFFFF" cx="630.852" cy="586.226" rx="3.411" ry="3.535"/>
	<path display="none" clip-path="url(#SVGID_6_)" fill="#C6BEB3" d="M630.865,583.316c2.065,0,3.738,1.568,3.737,3.5
		c0,1.932-1.674,3.498-3.739,3.498c-2.065-0.004-3.738-1.568-3.737-3.5C627.126,584.881,628.801,583.314,630.865,583.316z"/>
	<circle display="none" clip-path="url(#SVGID_6_)" fill="#1E1E1E" cx="660.513" cy="639.071" r="6.232"/>
	<circle display="none" clip-path="url(#SVGID_6_)" fill="#635644" cx="660.513" cy="639.072" r="4.959"/>
	<circle display="none" clip-path="url(#SVGID_6_)" fill="#C6BEB3" cx="660.729" cy="638.476" r="4.51"/>
	
		<ellipse transform="matrix(-0.4227 -0.9063 0.9063 -0.4227 362.0067 1506.7252)" display="none" clip-path="url(#SVGID_6_)" fill="#FFFFFF" cx="660.897" cy="638.063" rx="3.41" ry="3.537"/>
	
		<ellipse transform="matrix(0.174 -0.9847 0.9847 0.174 -83.0934 1178.2249)" display="none" clip-path="url(#SVGID_6_)" fill="#C6BEB3" cx="660.808" cy="638.646" rx="3.499" ry="3.738"/>
	<circle display="none" clip-path="url(#SVGID_6_)" fill="#1E1E1E" cx="680.932" cy="695.256" r="6.232"/>
	<circle display="none" clip-path="url(#SVGID_6_)" fill="#635644" cx="680.932" cy="695.257" r="4.959"/>
	<circle display="none" clip-path="url(#SVGID_6_)" fill="#C6BEB3" cx="681.248" cy="694.708" r="4.51"/>
	
		<ellipse transform="matrix(-0.2588 -0.9659 0.9659 -0.2588 187.1597 1532.2783)" display="none" clip-path="url(#SVGID_6_)" fill="#FFFFFF" cx="681.486" cy="694.33" rx="3.41" ry="3.536"/>
	
		<ellipse transform="matrix(0.3424 -0.9396 0.9396 0.3424 -204.8468 1097.1115)" display="none" clip-path="url(#SVGID_6_)" fill="#C6BEB3" cx="681.296" cy="694.888" rx="3.499" ry="3.739"/>
	<circle display="none" clip-path="url(#SVGID_6_)" fill="#1E1E1E" cx="691.284" cy="754.133" r="6.232"/>
	<circle display="none" clip-path="url(#SVGID_6_)" fill="#635644" cx="691.284" cy="754.133" r="4.959"/>
	<circle display="none" clip-path="url(#SVGID_6_)" fill="#C6BEB3" cx="691.691" cy="753.647" r="4.509"/>
	<path display="none" clip-path="url(#SVGID_6_)" fill="#FFFFFF" d="M691.694,749.92c1.945-0.172,3.655,1.212,3.819,3.087
		c0.163,1.879-1.28,3.537-3.226,3.707s-3.655-1.214-3.82-3.09C688.304,751.748,689.749,750.089,691.694,749.92z"/>
	
		<ellipse transform="matrix(0.5004 -0.8658 0.8658 0.5004 -307.0843 975.5068)" display="none" clip-path="url(#SVGID_6_)" fill="#C6BEB3" cx="691.708" cy="753.833" rx="3.498" ry="3.738"/>
	<circle clip-path="url(#SVGID_6_)" fill="#FF5527" cx="349.624" cy="783.86" r="44.435"/>
	<polygon display="none" clip-path="url(#SVGID_6_)" fill="#354438" points="354.447,580.836 352.203,576.949 354.447,573.061 
		358.935,573.061 361.18,576.949 358.935,580.836 	"/>
	<polygon display="none" clip-path="url(#SVGID_6_)" fill="#354438" points="552.424,782.928 549.94,778.626 552.424,774.323 
		557.391,774.323 559.874,778.626 557.391,782.928 	"/>
</g>
<g>
	<defs>
		<rect id="SVGID_7_" x="-20" y="324.526" width="376.69" height="453.167"/>
	</defs>
	<clipPath id="SVGID_8_">
		<use xlink:href="#SVGID_7_"  overflow="visible"/>
	</clipPath>
	
		<circle clip-path="url(#SVGID_8_)" fill="none" stroke="#591645" stroke-width="18" stroke-miterlimit="10" cx="367.154" cy="788.21" r="357.829"/>
	
		<circle clip-path="url(#SVGID_8_)" fill="none" stroke="#3A3A3A" stroke-width="12" stroke-miterlimit="10" cx="358.525" cy="778.531" r="212.177"/>
	<path clip-path="url(#SVGID_8_)" fill="#333333" d="M168.062,762.461H339.67L217.632,640.424c-2.25-2.25-2.249-5.896,0-8.146
		c2.25-2.25,5.897-2.251,8.147-0.001l120.291,120.291V580.74c0-3.273,2.579-5.928,5.761-5.928s5.761,2.654,5.761,5.928v187.314
		c0,3.274-2.579,5.928-5.761,5.928c-0.291,0-0.576-0.03-0.855-0.073c-0.284,0.044-0.573,0.073-0.869,0.073H168.062
		c-3.182,0-5.761-2.58-5.761-5.761S164.88,762.461,168.062,762.461z"/>
	<circle display="none" clip-path="url(#SVGID_8_)" fill="#455B4A" cx="363.592" cy="783.272" r="129.58"/>
	
		<rect x="332.67" y="669.182" transform="matrix(-0.9848 0.1736 -0.1736 -0.9848 786.5255 1275.6179)" display="none" clip-path="url(#SVGID_8_)" fill="#F7B32B" width="9.589" height="6.063"/>
	
		<rect x="314.528" y="674.454" transform="matrix(-0.9397 0.342 -0.342 -0.9397 851.0829 1204.9166)" display="none" clip-path="url(#SVGID_8_)" fill="#F7B32B" width="9.589" height="6.063"/>
	
		<rect x="297.578" y="682.797" transform="matrix(-0.866 0.5001 -0.5001 -0.866 907.1789 1128.5446)" display="none" clip-path="url(#SVGID_8_)" fill="#F7B32B" width="9.589" height="6.062"/>
	
		<rect x="263.659" y="715.214" transform="matrix(-0.5735 0.8192 -0.8192 -0.5735 1010.8045 910.2361)" display="none" clip-path="url(#SVGID_8_)" fill="#F7B32B" width="9.59" height="6.063"/>
	
		<rect x="254.559" y="731.77" transform="matrix(-0.4226 0.9063 -0.9063 -0.4226 1034.9232 810.2442)" display="none" clip-path="url(#SVGID_8_)" fill="#F7B32B" width="9.591" height="6.063"/>
	
		<rect x="248.471" y="749.656" transform="matrix(-0.2587 0.966 -0.966 -0.2587 1045.8522 702.7789)" display="none" clip-path="url(#SVGID_8_)" fill="#F7B32B" width="9.591" height="6.063"/>
	
		<rect x="343.766" y="685.655" transform="matrix(-0.9849 0.1733 -0.1733 -0.9849 808.2032 1358.6104)" display="none" clip-path="url(#SVGID_8_)" fill="#FCF6B1" width="2.068" height="57.855"/>
	
		<rect x="332.869" y="689.009" transform="matrix(-0.9398 0.3417 -0.3417 -0.9398 893.0543 1278.5393)" display="none" clip-path="url(#SVGID_8_)" fill="#FCF6B1" width="2.069" height="57.855"/>
	
		<rect x="322.721" y="694.205" transform="matrix(-0.8661 0.4998 -0.4998 -0.8661 965.6197 1187.6202)" display="none" clip-path="url(#SVGID_8_)" fill="#FCF6B1" width="2.069" height="57.855"/>
	
		<rect x="302.566" y="714.089" transform="matrix(-0.5734 0.8193 -0.8193 -0.5734 1086.4211 920.3276)" display="none" clip-path="url(#SVGID_8_)" fill="#FCF6B1" width="2.069" height="57.855"/>
	
		<rect x="297.234" y="724.166" transform="matrix(-0.4225 0.9064 -0.9064 -0.4225 1106.8625 800.9329)" display="none" clip-path="url(#SVGID_8_)" fill="#FCF6B1" width="2.069" height="57.854"/>
	
		<rect x="293.732" y="735.016" transform="matrix(-0.2582 0.9661 -0.9661 -0.2582 1108.9106 676.3893)" display="none" clip-path="url(#SVGID_8_)" fill="#FCF6B1" width="2.069" height="57.854"/>
	
		<circle display="none" opacity="0.6" clip-path="url(#SVGID_8_)" fill="none" stroke="#303030" stroke-width="24" stroke-miterlimit="10" cx="375.994" cy="786.604" r="342.951"/>
	
		<circle display="none" clip-path="url(#SVGID_8_)" fill="none" stroke="#C80234" stroke-width="6" stroke-miterlimit="10" cx="358.231" cy="775.298" r="342.951"/>
	
		<circle display="none" clip-path="url(#SVGID_8_)" fill="none" stroke="#91083D" stroke-width="22" stroke-miterlimit="10" cx="363.758" cy="783.859" r="342.951"/>
	
		<circle display="none" opacity="0.6" clip-path="url(#SVGID_8_)" fill="none" stroke="#455B4A" stroke-width="12" stroke-miterlimit="10" cx="373.477" cy="790.678" r="204.99"/>
	
		<circle display="none" clip-path="url(#SVGID_8_)" fill="none" stroke="#6A8270" stroke-width="4" stroke-miterlimit="10" cx="359.29" cy="778.67" r="204.99"/>
	
		<circle display="none" clip-path="url(#SVGID_8_)" fill="none" stroke="#455B4A" stroke-width="14" stroke-miterlimit="10" cx="363.758" cy="783.859" r="204.991"/>
	<path display="none" clip-path="url(#SVGID_8_)" fill="#455B4A" d="M163.883,772.294h180.825L216.116,643.702
		c-2.371-2.37-2.37-6.213,0-8.583c2.371-2.371,6.214-2.372,8.585-0.001l126.751,126.751V580.813c0-3.449,2.718-6.244,6.071-6.244
		c3.352,0,6.069,2.795,6.069,6.244v197.375c0,3.449-2.718,6.246-6.069,6.246c-0.308,0-0.607-0.031-0.902-0.076
		c-0.3,0.046-0.604,0.076-0.916,0.076H163.883c-3.352,0-6.07-2.718-6.07-6.07C157.813,775.012,160.531,772.294,163.883,772.294z"/>
	<path display="none" clip-path="url(#SVGID_8_)" fill="#354438" d="M356.476,778.011c0.361-0.001,0.693-0.412,0.693-0.9V579.734
		c0-0.486-0.332-0.898-0.725-0.898s-0.725,0.412-0.725,0.898v193.962L219.843,637.82c-0.141-0.141-0.313-0.213-0.512-0.213
		c-0.137,0-0.337,0.038-0.513,0.213c-0.176,0.177-0.213,0.376-0.213,0.513c0,0.199,0.071,0.37,0.212,0.512l137.718,137.718h-193.73
		c-0.399,0-0.725,0.324-0.725,0.724c0,0.4,0.325,0.724,0.725,0.724h191.822c0.023-0.001,0.913-0.14,0.913-0.14L356.476,778.011z"/>
	<polygon display="none" clip-path="url(#SVGID_8_)" fill="#354438" points="224.01,644.639 226.656,640.056 224.01,635.473 
		218.718,635.473 216.073,640.056 218.718,644.639 	"/>
	<polygon display="none" clip-path="url(#SVGID_8_)" fill="#4C0623" points="127.21,542.952 125.616,536.996 119.66,535.4 
		115.3,539.76 116.895,545.716 122.851,547.312 	"/>
	<path display="none" clip-path="url(#SVGID_8_)" fill="#6B0A32" d="M350.511,452.242c-3.283,0.184-9.408,0.544-15.447,0.983
		l-5.974-7.119l9.549-8.012L350.511,452.242z"/>
	<path display="none" clip-path="url(#SVGID_8_)" fill="#6B0A32" d="M321.659,454.658c-3.254,0.47-9.324,1.362-15.302,2.326
		l-6.571-6.571l8.813-8.813L321.659,454.658z"/>
	<path display="none" clip-path="url(#SVGID_8_)" fill="#6B0A32" d="M293.127,459.58c-3.2,0.751-9.171,2.17-15.041,3.651
		l-7.119-5.974l8.012-9.549L293.127,459.58z"/>
	<path display="none" clip-path="url(#SVGID_8_)" fill="#6B0A32" d="M265.133,466.97c-3.123,1.027-8.946,2.961-14.666,4.948
		l-7.612-5.33l7.149-10.211L265.133,466.97z"/>
	<path display="none" clip-path="url(#SVGID_8_)" fill="#6B0A32" d="M237.89,476.771c-3.021,1.296-8.654,3.729-14.179,6.208
		l-8.049-4.647l6.233-10.795L237.89,476.771z"/>
	<path display="none" clip-path="url(#SVGID_8_)" fill="#6B0A32" d="M211.604,488.909c-2.896,1.555-8.296,4.47-13.583,7.421
		l-8.423-3.928l5.269-11.297L211.604,488.909z"/>
	<path display="none" clip-path="url(#SVGID_8_)" fill="#6B0A32" d="M186.477,503.293c-2.751,1.801-7.876,5.176-12.886,8.576
		l-8.732-3.179l4.264-11.714L186.477,503.293z"/>
	<path display="none" clip-path="url(#SVGID_8_)" fill="#6B0A32" d="M162.698,519.812c-2.583,2.034-7.395,5.843-12.088,9.667
		l-8.977-2.406l3.227-12.04L162.698,519.812z"/>
	<path display="none" clip-path="url(#SVGID_8_)" fill="#6B0A32" d="M140.45,538.34c-2.396,2.251-6.857,6.465-11.199,10.684
		l-9.152-1.614l2.164-12.275L140.45,538.34z"/>
	<path display="none" clip-path="url(#SVGID_8_)" fill="#6B0A32" d="M119.901,558.736c-2.189,2.451-6.268,7.039-10.226,11.619
		l-9.259-0.811l1.088-12.417L119.901,558.736z"/>
	<path display="none" clip-path="url(#SVGID_8_)" fill="#6B0A32" d="M101.208,580.848c-1.968,2.633-5.63,7.557-9.175,12.465h-9.293
		v-12.465H101.208z"/>
	<path display="none" clip-path="url(#SVGID_8_)" fill="#6B0A32" d="M84.514,604.502c-1.731,2.795-4.951,8.021-8.053,13.219
		l-9.26,0.811l-1.085-12.418L84.514,604.502z"/>
	<path display="none" clip-path="url(#SVGID_8_)" fill="#6B0A32" d="M69.944,629.523c-1.48,2.934-4.232,8.42-6.869,13.869
		l-9.153,1.614l-2.163-12.276L69.944,629.523z"/>
	<path display="none" clip-path="url(#SVGID_8_)" fill="#6B0A32" d="M57.611,655.718c-1.22,3.052-3.482,8.757-5.635,14.416
		l-8.978,2.405l-3.225-12.041L57.611,655.718z"/>
	<path display="none" clip-path="url(#SVGID_8_)" fill="#6B0A32" d="M47.608,682.888c-0.949,3.146-2.707,9.027-4.357,14.853
		l-8.733,3.179l-4.263-11.715L47.608,682.888z"/>
	<path display="none" clip-path="url(#SVGID_8_)" fill="#6B0A32" d="M40.01,710.826c-0.671,3.217-1.909,9.229-3.046,15.176
		l-8.423,3.928l-5.268-11.299L40.01,710.826z"/>
	<path display="none" clip-path="url(#SVGID_8_)" fill="#6B0A32" d="M34.877,739.32c-0.389,3.263-1.098,9.36-1.713,15.384
		l-8.049,4.646l-6.231-10.797L34.877,739.32z"/>
	<circle display="none" clip-path="url(#SVGID_8_)" fill="#1E1E1E" cx="304.042" cy="446.148" r="6.232"/>
	<circle display="none" clip-path="url(#SVGID_8_)" fill="#635644" cx="304.042" cy="446.148" r="4.958"/>
	<circle display="none" clip-path="url(#SVGID_8_)" fill="#F7A014" cx="304.406" cy="445.629" r="4.51"/>
	
		<ellipse transform="matrix(0.9848 -0.1737 0.1737 0.9848 -72.7015 59.6778)" display="none" clip-path="url(#SVGID_8_)" fill="#FFFFFF" cx="304.648" cy="445.254" rx="3.41" ry="3.537"/>
	
		<ellipse transform="matrix(0.7068 -0.7074 0.7074 0.7068 -226.0651 345.8585)" display="none" clip-path="url(#SVGID_8_)" fill="#F7A014" cx="304.223" cy="445.662" rx="3.499" ry="3.739"/>
	<circle display="none" clip-path="url(#SVGID_8_)" fill="#1E1E1E" cx="246.307" cy="461.648" r="6.233"/>
	<circle display="none" clip-path="url(#SVGID_8_)" fill="#635644" cx="246.307" cy="461.648" r="4.958"/>
	<circle display="none" clip-path="url(#SVGID_8_)" fill="#F7A014" cx="246.575" cy="461.074" r="4.51"/>
	
		<ellipse transform="matrix(0.9397 -0.3421 0.3421 0.9397 -142.6875 112.188)" display="none" clip-path="url(#SVGID_8_)" fill="#FFFFFF" cx="246.748" cy="460.663" rx="3.41" ry="3.536"/>
	
		<ellipse transform="matrix(0.5733 -0.8193 0.8193 0.5733 -272.6924 398.6524)" display="none" clip-path="url(#SVGID_8_)" fill="#F7A014" cx="246.4" cy="461.138" rx="3.499" ry="3.74"/>
	<circle display="none" clip-path="url(#SVGID_8_)" fill="#1E1E1E" cx="192.14" cy="486.938" r="6.233"/>
	<circle display="none" clip-path="url(#SVGID_8_)" fill="#635644" cx="192.14" cy="486.938" r="4.958"/>
	<circle display="none" clip-path="url(#SVGID_8_)" fill="#F7A014" cx="192.304" cy="486.326" r="4.51"/>
	
		<ellipse transform="matrix(0.866 -0.5 0.5 0.866 -217.1529 161.2789)" display="none" clip-path="url(#SVGID_8_)" fill="#FFFFFF" cx="192.403" cy="485.892" rx="3.41" ry="3.536"/>
	
		<ellipse transform="matrix(0.4223 -0.9065 0.9065 0.4223 -329.9164 455.1667)" display="none" clip-path="url(#SVGID_8_)" fill="#F7A014" cx="192.143" cy="486.419" rx="3.499" ry="3.739"/>
	<circle display="none" clip-path="url(#SVGID_8_)" fill="#1E1E1E" cx="143.187" cy="521.25" r="6.232"/>
	<circle display="none" clip-path="url(#SVGID_8_)" fill="#635644" cx="143.187" cy="521.25" r="4.958"/>
	<circle display="none" clip-path="url(#SVGID_8_)" fill="#F7A014" cx="143.243" cy="520.619" r="4.51"/>
	
		<ellipse transform="matrix(0.766 -0.6429 0.6429 0.766 -300.8711 213.8264)" display="none" clip-path="url(#SVGID_8_)" fill="#FFFFFF" cx="143.265" cy="520.174" rx="3.41" ry="3.537"/>
	
		<ellipse transform="matrix(0.2585 -0.966 0.966 0.2585 -396.9308 524.366)" display="none" clip-path="url(#SVGID_8_)" fill="#F7A014" cx="143.1" cy="520.739" rx="3.498" ry="3.739"/>
	<circle display="none" clip-path="url(#SVGID_8_)" fill="#1E1E1E" cx="100.937" cy="563.542" r="6.233"/>
	<circle display="none" clip-path="url(#SVGID_8_)" fill="#635644" cx="100.937" cy="563.542" r="4.958"/>
	<circle display="none" clip-path="url(#SVGID_8_)" fill="#F7A014" cx="100.881" cy="562.91" r="4.51"/>
	
		<ellipse transform="matrix(0.6427 -0.7661 0.7661 0.6427 -394.8864 278.2053)" display="none" clip-path="url(#SVGID_8_)" fill="#FFFFFF" cx="100.827" cy="562.469" rx="3.411" ry="3.537"/>
	
		<ellipse transform="matrix(0.0868 -0.9962 0.9962 0.0868 -468.912 614.5631)" display="none" clip-path="url(#SVGID_8_)" fill="#F7A014" cx="100.762" cy="563.053" rx="3.499" ry="3.739"/>
	<circle display="none" clip-path="url(#SVGID_8_)" fill="#1E1E1E" cx="66.672" cy="612.528" r="6.232"/>
	<circle display="none" clip-path="url(#SVGID_8_)" fill="#635644" cx="66.671" cy="612.528" r="4.958"/>
	<circle display="none" clip-path="url(#SVGID_8_)" fill="#F7A014" cx="66.507" cy="611.916" r="4.51"/>
	<path display="none" clip-path="url(#SVGID_8_)" fill="#FFFFFF" d="M68.083,608.535c-1.692-0.977-3.826-0.445-4.768,1.188
		c-0.943,1.629-0.335,3.743,1.357,4.722c1.69,0.976,3.824,0.444,4.766-1.188C70.381,611.627,69.774,609.512,68.083,608.535z"/>
	
		<ellipse transform="matrix(-0.0875 -0.9962 0.9962 -0.0875 -537.5029 731.7959)" display="none" clip-path="url(#SVGID_8_)" fill="#F7A014" cx="66.415" cy="612.077" rx="3.499" ry="3.739"/>
	<circle display="none" clip-path="url(#SVGID_8_)" fill="#1E1E1E" cx="41.434" cy="666.719" r="6.232"/>
	<circle display="none" clip-path="url(#SVGID_8_)" fill="#635644" cx="41.434" cy="666.719" r="4.958"/>
	<circle display="none" clip-path="url(#SVGID_8_)" fill="#F7A014" cx="41.166" cy="666.145" r="4.51"/>
	<path display="none" clip-path="url(#SVGID_8_)" fill="#FFFFFF" d="M42.129,662.543c-1.836-0.669-3.846,0.227-4.489,1.997
		c-0.646,1.768,0.321,3.744,2.157,4.414c1.834,0.667,3.844-0.227,4.488-1.997C44.93,665.188,43.965,663.21,42.129,662.543z"/>
	
		<ellipse transform="matrix(-0.2591 -0.9658 0.9658 -0.2591 -591.8027 878.6934)" display="none" clip-path="url(#SVGID_8_)" fill="#F7A014" cx="41.103" cy="666.32" rx="3.499" ry="3.739"/>
	<circle display="none" clip-path="url(#SVGID_8_)" fill="#1E1E1E" cx="25.99" cy="724.47" r="6.232"/>
	<circle display="none" clip-path="url(#SVGID_8_)" fill="#635644" cx="25.989" cy="724.47" r="4.958"/>
	<circle display="none" clip-path="url(#SVGID_8_)" fill="#F7A014" cx="25.625" cy="723.95" r="4.51"/>
	<path display="none" clip-path="url(#SVGID_8_)" fill="#FFFFFF" d="M25.95,720.236c-1.925-0.34-3.748,0.891-4.074,2.746
		c-0.328,1.853,0.966,3.632,2.891,3.973c1.922,0.338,3.746-0.891,4.072-2.746C29.167,722.354,27.873,720.574,25.95,720.236z"/>
	
		<ellipse transform="matrix(-0.4229 -0.9062 0.9062 -0.4229 -619.7614 1053.5902)" display="none" clip-path="url(#SVGID_8_)" fill="#F7A014" cx="25.594" cy="724.134" rx="3.499" ry="3.739"/>
	<circle display="none" clip-path="url(#SVGID_8_)" fill="#1E1E1E" cx="333.703" cy="442.229" r="6.232"/>
	<circle display="none" clip-path="url(#SVGID_8_)" fill="#635644" cx="333.703" cy="442.228" r="4.958"/>
	<circle display="none" clip-path="url(#SVGID_8_)" fill="#C6BEB3" cx="334.11" cy="441.744" r="4.51"/>
	
		<ellipse transform="matrix(0.9962 -0.0872 0.0872 0.9962 -37.2122 30.8366)" display="none" clip-path="url(#SVGID_8_)" fill="#FFFFFF" cx="334.384" cy="441.391" rx="3.41" ry="3.536"/>
	
		<ellipse transform="matrix(0.7658 -0.6431 0.6431 0.7658 -205.8852 318.2176)" display="none" clip-path="url(#SVGID_8_)" fill="#C6BEB3" cx="333.925" cy="441.76" rx="3.499" ry="3.739"/>
	<circle display="none" clip-path="url(#SVGID_8_)" fill="#1E1E1E" cx="274.836" cy="452.638" r="6.232"/>
	<circle display="none" clip-path="url(#SVGID_8_)" fill="#635644" cx="274.836" cy="452.637" r="4.958"/>
	<circle display="none" clip-path="url(#SVGID_8_)" fill="#C6BEB3" cx="275.153" cy="452.089" r="4.51"/>
	
		<ellipse transform="matrix(0.9659 -0.2588 0.2588 0.9659 -107.5318 86.6676)" display="none" clip-path="url(#SVGID_8_)" fill="#FFFFFF" cx="275.361" cy="451.694" rx="3.411" ry="3.535"/>
	
		<ellipse transform="matrix(0.6425 -0.7663 0.7663 0.6425 -248.1633 372.3462)" display="none" clip-path="url(#SVGID_8_)" fill="#C6BEB3" cx="274.973" cy="452.137" rx="3.499" ry="3.739"/>
	<circle display="none" clip-path="url(#SVGID_8_)" fill="#1E1E1E" cx="218.671" cy="473.11" r="6.232"/>
	<circle display="none" clip-path="url(#SVGID_8_)" fill="#635644" cx="218.671" cy="473.11" r="4.958"/>
	<circle display="none" clip-path="url(#SVGID_8_)" fill="#C6BEB3" cx="218.888" cy="472.515" r="4.509"/>
	
		<ellipse transform="matrix(0.9063 -0.4227 0.4227 0.9063 -179.0047 136.8091)" display="none" clip-path="url(#SVGID_8_)" fill="#FFFFFF" cx="219.025" cy="472.09" rx="3.41" ry="3.535"/>
	
		<ellipse transform="matrix(0.4998 -0.8661 0.8661 0.4998 -299.9299 425.8413)" display="none" clip-path="url(#SVGID_8_)" fill="#C6BEB3" cx="218.72" cy="472.594" rx="3.499" ry="3.739"/>
	<circle display="none" clip-path="url(#SVGID_8_)" fill="#1E1E1E" cx="166.915" cy="503.025" r="6.233"/>
	<circle display="none" clip-path="url(#SVGID_8_)" fill="#635644" cx="166.914" cy="503.025" r="4.959"/>
	<circle display="none" clip-path="url(#SVGID_8_)" fill="#C6BEB3" cx="167.025" cy="502.401" r="4.51"/>
	
		<ellipse transform="matrix(0.8192 -0.5735 0.5735 0.8192 -257.6731 186.5853)" display="none" clip-path="url(#SVGID_8_)" fill="#FFFFFF" cx="167.085" cy="501.959" rx="3.411" ry="3.535"/>
	
		<ellipse transform="matrix(0.3418 -0.9398 0.9398 0.3418 -362.4083 487.5856)" display="none" clip-path="url(#SVGID_8_)" fill="#C6BEB3" cx="166.872" cy="502.508" rx="3.499" ry="3.739"/>
	<circle display="none" clip-path="url(#SVGID_8_)" fill="#1E1E1E" cx="121.139" cy="541.473" r="6.232"/>
	<circle display="none" clip-path="url(#SVGID_8_)" fill="#635644" cx="121.139" cy="541.473" r="4.959"/>
	<circle display="none" clip-path="url(#SVGID_8_)" fill="#C6BEB3" cx="121.139" cy="540.839" r="4.51"/>
	
		<ellipse transform="matrix(0.7071 -0.7071 0.7071 0.7071 -346.6398 243.9237)" display="none" clip-path="url(#SVGID_8_)" fill="#FFFFFF" cx="121.122" cy="540.393" rx="3.411" ry="3.536"/>
	
		<ellipse transform="matrix(0.1733 -0.9849 0.9849 0.1733 -432.7498 566.3796)" display="none" clip-path="url(#SVGID_8_)" fill="#C6BEB3" cx="121.007" cy="540.971" rx="3.499" ry="3.739"/>
	<circle display="none" clip-path="url(#SVGID_8_)" fill="#1E1E1E" cx="82.735" cy="587.285" r="6.232"/>
	<circle display="none" clip-path="url(#SVGID_8_)" fill="#635644" cx="82.735" cy="587.286" r="4.958"/>
	<circle display="none" clip-path="url(#SVGID_8_)" fill="#C6BEB3" cx="82.625" cy="586.661" r="4.51"/>
	
		<ellipse transform="matrix(0.5735 -0.8192 0.8192 0.5735 -445.0333 317.622)" display="none" clip-path="url(#SVGID_8_)" fill="#FFFFFF" cx="82.531" cy="586.226" rx="3.411" ry="3.535"/>
	<path display="none" clip-path="url(#SVGID_8_)" fill="#C6BEB3" d="M82.517,583.316c-2.065,0-3.738,1.568-3.737,3.5
		c0,1.932,1.674,3.498,3.739,3.498c2.065-0.004,3.738-1.568,3.737-3.5C86.256,584.881,84.582,583.314,82.517,583.316z"/>
	<circle display="none" clip-path="url(#SVGID_8_)" fill="#1E1E1E" cx="52.869" cy="639.071" r="6.232"/>
	<circle display="none" clip-path="url(#SVGID_8_)" fill="#635644" cx="52.87" cy="639.072" r="4.959"/>
	<circle display="none" clip-path="url(#SVGID_8_)" fill="#C6BEB3" cx="52.653" cy="638.476" r="4.51"/>
	
		<ellipse transform="matrix(0.4227 -0.9063 0.9063 0.4227 -547.9564 415.9158)" display="none" clip-path="url(#SVGID_8_)" fill="#FFFFFF" cx="52.485" cy="638.063" rx="3.41" ry="3.537"/>
	
		<ellipse transform="matrix(-0.174 -0.9847 0.9847 -0.174 -567.1759 801.5623)" display="none" clip-path="url(#SVGID_8_)" fill="#C6BEB3" cx="52.574" cy="638.646" rx="3.499" ry="3.738"/>
	<circle display="none" clip-path="url(#SVGID_8_)" fill="#1E1E1E" cx="32.45" cy="695.256" r="6.232"/>
	<circle display="none" clip-path="url(#SVGID_8_)" fill="#635644" cx="32.451" cy="695.257" r="4.959"/>
	<circle display="none" clip-path="url(#SVGID_8_)" fill="#C6BEB3" cx="32.134" cy="694.708" r="4.51"/>
	
		<ellipse transform="matrix(0.2588 -0.9659 0.9659 0.2588 -647.0364 545.4633)" display="none" clip-path="url(#SVGID_8_)" fill="#FFFFFF" cx="31.896" cy="694.33" rx="3.41" ry="3.536"/>
	
		<ellipse transform="matrix(-0.3424 -0.9396 0.9396 -0.3424 -609.8242 962.9359)" display="none" clip-path="url(#SVGID_8_)" fill="#C6BEB3" cx="32.086" cy="694.888" rx="3.499" ry="3.739"/>
	<circle display="none" clip-path="url(#SVGID_8_)" fill="#1E1E1E" cx="22.098" cy="754.133" r="6.232"/>
	<circle display="none" clip-path="url(#SVGID_8_)" fill="#635644" cx="22.098" cy="754.133" r="4.959"/>
	<circle display="none" clip-path="url(#SVGID_8_)" fill="#C6BEB3" cx="21.691" cy="753.647" r="4.509"/>
	<path display="none" clip-path="url(#SVGID_8_)" fill="#FFFFFF" d="M21.688,749.92c-1.945-0.172-3.655,1.212-3.819,3.087
		c-0.163,1.879,1.28,3.537,3.226,3.707s3.655-1.214,3.82-3.09C25.079,751.748,23.633,750.089,21.688,749.92z"/>
	
		<ellipse transform="matrix(-0.5004 -0.8658 0.8658 -0.5004 -620.1498 1149.808)" display="none" clip-path="url(#SVGID_8_)" fill="#C6BEB3" cx="21.675" cy="753.833" rx="3.498" ry="3.738"/>
	<circle clip-path="url(#SVGID_8_)" fill="#FF5527" cx="363.758" cy="783.86" r="44.435"/>
	<polygon display="none" clip-path="url(#SVGID_8_)" fill="#354438" points="358.935,580.836 361.179,576.949 358.935,573.061 
		354.447,573.061 352.202,576.949 354.447,580.836 	"/>
	<polygon display="none" clip-path="url(#SVGID_8_)" fill="#354438" points="160.958,782.928 163.442,778.626 160.958,774.323 
		155.992,774.323 153.508,778.626 155.992,782.928 	"/>
</g>
</svg>
