<?xml version="1.0" encoding="utf-8"?>
<!-- Generator: Adobe Illustrator 16.0.0, SVG Export Plug-In . SVG Version: 6.00 Build 0)  -->
<!DOCTYPE svg PUBLIC "-//W3C//DTD SVG 1.1//EN" "http://www.w3.org/Graphics/SVG/1.1/DTD/svg11.dtd">
<svg version="1.1" id="Layer_1" xmlns="http://www.w3.org/2000/svg" xmlns:xlink="http://www.w3.org/1999/xlink" x="0px" y="0px"
	 width="1133.86px" height="1133.86px" viewBox="0 0 1133.86 1133.86" enable-background="new 0 0 1133.86 1133.86"
	 xml:space="preserve">
<rect x="355.08" y="813.289" fill="#FCB017" width="2.068" height="57.854"/>
<g>
	<defs>
		<rect id="SVGID_1_" x="-20" y="777.693" width="376.691" height="453.167"/>
	</defs>
	<clipPath id="SVGID_2_">
		<use xlink:href="#SVGID_1_"  overflow="visible"/>
	</clipPath>
	
		<circle display="none" clip-path="url(#SVGID_2_)" fill="none" stroke="#591645" stroke-width="18" stroke-miterlimit="10" cx="367.153" cy="767.177" r="357.829"/>
	
		<circle display="none" clip-path="url(#SVGID_2_)" fill="none" stroke="#3A3A3A" stroke-width="12" stroke-miterlimit="10" cx="358.524" cy="776.855" r="212.177"/>
	<path display="none" clip-path="url(#SVGID_2_)" fill="#333333" d="M168.062,792.926H339.67L217.632,914.963
		c-2.25,2.25-2.249,5.896,0,8.146c2.25,2.25,5.897,2.251,8.148,0.001l120.291-120.291v171.828c0,3.273,2.579,5.928,5.761,5.928
		s5.761-2.654,5.761-5.928V787.332c0-3.274-2.579-5.928-5.761-5.928c-0.291,0-0.576,0.03-0.855,0.073
		c-0.284-0.044-0.573-0.073-0.869-0.073H168.062c-3.182,0-5.761,2.58-5.761,5.761S164.88,792.926,168.062,792.926z"/>
	<circle clip-path="url(#SVGID_2_)" fill="#455B4A" cx="363.592" cy="772.114" r="129.58"/>
	
		<rect x="332.67" y="880.142" transform="matrix(-0.9848 -0.1736 0.1736 -0.9848 516.4481 1811.5278)" clip-path="url(#SVGID_2_)" fill="#F7B32B" width="9.589" height="6.063"/>
	
		<rect x="314.528" y="874.87" transform="matrix(-0.9397 -0.342 0.342 -0.9397 319.1586 1812.0735)" clip-path="url(#SVGID_2_)" fill="#F7B32B" width="9.589" height="6.063"/>
	
		<rect x="297.578" y="866.527" transform="matrix(-0.866 -0.5001 0.5001 -0.866 129.3917 1773.7925)" clip-path="url(#SVGID_2_)" fill="#F7B32B" width="9.589" height="6.062"/>
	
		<rect x="263.659" y="834.11" transform="matrix(-0.5735 -0.8192 0.8192 -0.5735 -263.3807 1537.1597)" clip-path="url(#SVGID_2_)" fill="#F7B32B" width="9.59" height="6.063"/>
	
		<rect x="254.559" y="817.554" transform="matrix(-0.4226 -0.9063 0.9063 -0.4226 -374.7725 1402.3988)" clip-path="url(#SVGID_2_)" fill="#F7B32B" width="9.591" height="6.063"/>
	
		<rect x="248.471" y="799.668" transform="matrix(-0.2587 -0.966 0.966 -0.2587 -456.577 1255.0187)" clip-path="url(#SVGID_2_)" fill="#F7B32B" width="9.591" height="6.063"/>
	
		<rect x="343.766" y="811.877" transform="matrix(-0.9849 -0.1733 0.1733 -0.9849 538.6958 1728.6359)" clip-path="url(#SVGID_2_)" fill="#FCF6B1" width="2.068" height="57.855"/>
	
		<rect x="332.869" y="808.523" transform="matrix(-0.9398 -0.3417 0.3417 -0.9398 361.5116 1738.5896)" clip-path="url(#SVGID_2_)" fill="#FCF6B1" width="2.069" height="57.855"/>
	
		<rect x="322.721" y="803.327" transform="matrix(-0.8661 -0.4998 0.4998 -0.8661 188.1675 1714.9102)" clip-path="url(#SVGID_2_)" fill="#FCF6B1" width="2.069" height="57.855"/>
	
		<rect x="302.566" y="783.443" transform="matrix(-0.5734 -0.8193 0.8193 -0.5734 -187.8704 1526.9163)" clip-path="url(#SVGID_2_)" fill="#FCF6B1" width="2.069" height="57.855"/>
	
		<rect x="297.234" y="773.367" transform="matrix(-0.4225 -0.9064 0.9064 -0.4225 -302.884 1411.6012)" clip-path="url(#SVGID_2_)" fill="#FCF6B1" width="2.069" height="57.854"/>
	
		<rect x="293.732" y="762.517" transform="matrix(-0.2582 -0.9661 0.9661 -0.2582 -393.7511 1280.5391)" clip-path="url(#SVGID_2_)" fill="#FCF6B1" width="2.069" height="57.854"/>
	
		<circle opacity="0.6" clip-path="url(#SVGID_2_)" fill="none" stroke="#303030" stroke-width="24" stroke-miterlimit="10" cx="375.994" cy="768.782" r="342.951"/>
	
		<circle clip-path="url(#SVGID_2_)" fill="none" stroke="#C80234" stroke-width="6" stroke-miterlimit="10" cx="358.23" cy="780.089" r="342.951"/>
	
		<circle clip-path="url(#SVGID_2_)" fill="none" stroke="#91083D" stroke-width="22" stroke-miterlimit="10" cx="363.758" cy="771.527" r="342.951"/>
	
		<circle opacity="0.6" clip-path="url(#SVGID_2_)" fill="none" stroke="#455B4A" stroke-width="12" stroke-miterlimit="10" cx="373.477" cy="764.709" r="204.99"/>
	
		<circle clip-path="url(#SVGID_2_)" fill="none" stroke="#6A8270" stroke-width="4" stroke-miterlimit="10" cx="359.29" cy="776.717" r="204.99"/>
	
		<circle clip-path="url(#SVGID_2_)" fill="none" stroke="#455B4A" stroke-width="14" stroke-miterlimit="10" cx="363.758" cy="771.527" r="204.99"/>
	<path clip-path="url(#SVGID_2_)" fill="#455B4A" d="M163.882,783.093h180.825L216.115,911.685c-2.371,2.37-2.37,6.213,0,8.583
		c2.371,2.371,6.214,2.372,8.585,0.001l126.751-126.751v181.057c0,3.449,2.718,6.244,6.071,6.244c3.352,0,6.069-2.795,6.069-6.244
		V777.199c0-3.449-2.718-6.246-6.069-6.246c-0.308,0-0.607,0.031-0.902,0.076c-0.3-0.046-0.604-0.076-0.916-0.076H163.882
		c-3.352,0-6.07,2.718-6.07,6.07C157.813,780.375,160.53,783.093,163.882,783.093z"/>
	<path clip-path="url(#SVGID_2_)" fill="#354438" d="M356.476,777.376c0.361,0.001,0.693,0.412,0.693,0.9v197.376
		c0,0.486-0.332,0.898-0.725,0.898s-0.725-0.412-0.725-0.898V781.69L219.843,917.566c-0.141,0.141-0.313,0.213-0.512,0.213
		c-0.137,0-0.337-0.038-0.513-0.213c-0.176-0.177-0.213-0.376-0.213-0.513c0-0.199,0.071-0.37,0.212-0.512l137.718-137.718h-193.73
		c-0.399,0-0.725-0.324-0.725-0.724c0-0.4,0.325-0.724,0.725-0.724h191.822c0.023,0.001,0.913,0.14,0.913,0.14L356.476,777.376z"/>
	<polygon clip-path="url(#SVGID_2_)" fill="#354438" points="224.01,910.748 226.656,915.331 224.01,919.914 218.718,919.914 
		216.072,915.331 218.718,910.748 	"/>
	<polygon clip-path="url(#SVGID_2_)" fill="#4C0623" points="127.21,1012.435 125.615,1018.391 119.659,1019.986 115.3,1015.627 
		116.895,1009.671 122.851,1008.075 	"/>
	<path clip-path="url(#SVGID_2_)" fill="#6B0A32" d="M350.511,1103.145c-3.283-0.184-9.408-0.544-15.447-0.983l-5.974,7.119
		l9.549,8.012L350.511,1103.145z"/>
	<path clip-path="url(#SVGID_2_)" fill="#6B0A32" d="M321.659,1100.729c-3.254-0.47-9.324-1.362-15.302-2.326l-6.571,6.571
		l8.813,8.813L321.659,1100.729z"/>
	<path clip-path="url(#SVGID_2_)" fill="#6B0A32" d="M293.127,1095.807c-3.2-0.751-9.171-2.17-15.041-3.651l-7.119,5.974
		l8.012,9.549L293.127,1095.807z"/>
	<path clip-path="url(#SVGID_2_)" fill="#6B0A32" d="M265.133,1088.417c-3.123-1.027-8.946-2.961-14.666-4.948l-7.612,5.33
		l7.149,10.211L265.133,1088.417z"/>
	<path clip-path="url(#SVGID_2_)" fill="#6B0A32" d="M237.89,1078.615c-3.021-1.296-8.654-3.729-14.179-6.208l-8.049,4.647
		l6.233,10.795L237.89,1078.615z"/>
	<path clip-path="url(#SVGID_2_)" fill="#6B0A32" d="M211.604,1066.478c-2.896-1.555-8.296-4.47-13.583-7.421l-8.423,3.928
		l5.269,11.297L211.604,1066.478z"/>
	<path clip-path="url(#SVGID_2_)" fill="#6B0A32" d="M186.477,1052.094c-2.751-1.801-7.876-5.176-12.886-8.576l-8.732,3.179
		l4.264,11.714L186.477,1052.094z"/>
	<path clip-path="url(#SVGID_2_)" fill="#6B0A32" d="M162.698,1035.575c-2.583-2.034-7.395-5.843-12.089-9.667l-8.977,2.406
		l3.227,12.04L162.698,1035.575z"/>
	<path clip-path="url(#SVGID_2_)" fill="#6B0A32" d="M140.45,1017.047c-2.396-2.251-6.857-6.465-11.2-10.684l-9.152,1.614
		l2.165,12.275L140.45,1017.047z"/>
	<path clip-path="url(#SVGID_2_)" fill="#6B0A32" d="M119.901,996.65c-2.19-2.451-6.268-7.039-10.226-11.619l-9.259,0.811
		l1.088,12.417L119.901,996.65z"/>
	<path clip-path="url(#SVGID_2_)" fill="#6B0A32" d="M101.208,974.539c-1.968-2.633-5.63-7.557-9.175-12.465H82.74v12.465H101.208z"
		/>
	<path clip-path="url(#SVGID_2_)" fill="#6B0A32" d="M84.514,950.885c-1.731-2.795-4.951-8.021-8.053-13.219l-9.26-0.811
		l-1.085,12.418L84.514,950.885z"/>
	<path clip-path="url(#SVGID_2_)" fill="#6B0A32" d="M69.943,925.863c-1.48-2.934-4.232-8.42-6.869-13.869l-9.153-1.614
		l-2.163,12.276L69.943,925.863z"/>
	<path clip-path="url(#SVGID_2_)" fill="#6B0A32" d="M57.61,899.669c-1.22-3.052-3.482-8.757-5.635-14.416l-8.978-2.405
		l-3.225,12.041L57.61,899.669z"/>
	<path clip-path="url(#SVGID_2_)" fill="#6B0A32" d="M47.607,872.499c-0.949-3.146-2.707-9.027-4.357-14.853l-8.733-3.179
		l-4.263,11.715L47.607,872.499z"/>
	<path clip-path="url(#SVGID_2_)" fill="#6B0A32" d="M40.01,844.561c-0.671-3.217-1.909-9.229-3.046-15.176l-8.423-3.928
		l-5.268,11.299L40.01,844.561z"/>
	<path clip-path="url(#SVGID_2_)" fill="#6B0A32" d="M34.877,816.066c-0.389-3.263-1.098-9.36-1.713-15.384l-8.049-4.646
		l-6.231,10.797L34.877,816.066z"/>
	<circle clip-path="url(#SVGID_2_)" fill="#1E1E1E" cx="304.042" cy="1109.239" r="6.232"/>
	<circle clip-path="url(#SVGID_2_)" fill="#635644" cx="304.042" cy="1109.239" r="4.958"/>
	<circle clip-path="url(#SVGID_2_)" fill="#F7A014" cx="304.406" cy="1109.758" r="4.51"/>
	
		<ellipse transform="matrix(0.9848 0.1737 -0.1737 0.9848 197.4368 -36.0396)" clip-path="url(#SVGID_2_)" fill="#FFFFFF" cx="304.648" cy="1110.132" rx="3.41" ry="3.537"/>
	
		<ellipse transform="matrix(0.7068 0.7074 -0.7074 0.7068 874.1935 110.1379)" clip-path="url(#SVGID_2_)" fill="#F7A014" cx="304.223" cy="1109.725" rx="3.499" ry="3.739"/>
	<circle clip-path="url(#SVGID_2_)" fill="#1E1E1E" cx="246.307" cy="1093.739" r="6.233"/>
	<circle clip-path="url(#SVGID_2_)" fill="#635644" cx="246.307" cy="1093.739" r="4.958"/>
	<circle clip-path="url(#SVGID_2_)" fill="#F7A014" cx="246.575" cy="1094.313" r="4.51"/>
	
		<ellipse transform="matrix(0.9397 0.3421 -0.3421 0.9397 389.3379 -18.3678)" clip-path="url(#SVGID_2_)" fill="#FFFFFF" cx="246.748" cy="1094.724" rx="3.41" ry="3.536"/>
	
		<ellipse transform="matrix(0.5733 0.8193 -0.8193 0.5733 1001.7034 265.0263)" clip-path="url(#SVGID_2_)" fill="#F7A014" cx="246.4" cy="1094.249" rx="3.499" ry="3.74"/>
	<circle clip-path="url(#SVGID_2_)" fill="#1E1E1E" cx="192.139" cy="1068.449" r="6.233"/>
	<circle clip-path="url(#SVGID_2_)" fill="#635644" cx="192.139" cy="1068.449" r="4.958"/>
	<circle clip-path="url(#SVGID_2_)" fill="#F7A014" cx="192.303" cy="1069.061" r="4.51"/>
	
		<ellipse transform="matrix(0.866 0.5 -0.5 0.866 560.475 47.0659)" clip-path="url(#SVGID_2_)" fill="#FFFFFF" cx="192.403" cy="1069.495" rx="3.41" ry="3.536"/>
	
		<ellipse transform="matrix(0.4223 0.9065 -0.9065 0.4223 1079.9641 443.3615)" clip-path="url(#SVGID_2_)" fill="#F7A014" cx="192.143" cy="1068.967" rx="3.499" ry="3.739"/>
	<circle clip-path="url(#SVGID_2_)" fill="#1E1E1E" cx="143.187" cy="1034.137" r="6.233"/>
	<circle clip-path="url(#SVGID_2_)" fill="#635644" cx="143.187" cy="1034.137" r="4.958"/>
	<circle clip-path="url(#SVGID_2_)" fill="#F7A014" cx="143.242" cy="1034.768" r="4.51"/>
	
		<ellipse transform="matrix(0.766 0.6428 -0.6428 0.766 698.9375 150.1038)" clip-path="url(#SVGID_2_)" fill="#FFFFFF" cx="143.265" cy="1035.213" rx="3.411" ry="3.537"/>
	
		<ellipse transform="matrix(0.2585 0.966 -0.966 0.2585 1105.5913 628.9591)" clip-path="url(#SVGID_2_)" fill="#F7A014" cx="143.1" cy="1034.648" rx="3.498" ry="3.739"/>
	<circle clip-path="url(#SVGID_2_)" fill="#1E1E1E" cx="100.937" cy="991.845" r="6.233"/>
	<circle clip-path="url(#SVGID_2_)" fill="#635644" cx="100.936" cy="991.845" r="4.958"/>
	<circle clip-path="url(#SVGID_2_)" fill="#F7A014" cx="100.881" cy="992.477" r="4.51"/>
	
		<ellipse transform="matrix(0.6427 0.7661 -0.7661 0.6427 796.7032 277.511)" clip-path="url(#SVGID_2_)" fill="#FFFFFF" cx="100.826" cy="992.918" rx="3.411" ry="3.537"/>
	
		<ellipse transform="matrix(0.0868 0.9962 -0.9962 0.0868 1080.6041 805.8193)" clip-path="url(#SVGID_2_)" fill="#F7A014" cx="100.762" cy="992.333" rx="3.499" ry="3.739"/>
	<circle clip-path="url(#SVGID_2_)" fill="#1E1E1E" cx="66.671" cy="942.859" r="6.232"/>
	<circle clip-path="url(#SVGID_2_)" fill="#635644" cx="66.671" cy="942.859" r="4.958"/>
	<circle clip-path="url(#SVGID_2_)" fill="#F7A014" cx="66.507" cy="943.471" r="4.51"/>
	<path clip-path="url(#SVGID_2_)" fill="#FFFFFF" d="M68.082,946.852c-1.692,0.977-3.826,0.445-4.768-1.188
		c-0.943-1.629-0.335-3.743,1.357-4.722c1.69-0.976,3.824-0.444,4.766,1.188C70.381,943.76,69.773,945.875,68.082,946.852z"/>
	
		<ellipse transform="matrix(-0.0875 0.9962 -0.9962 -0.0875 1011.9173 959.692)" clip-path="url(#SVGID_2_)" fill="#F7A014" cx="66.415" cy="943.31" rx="3.499" ry="3.739"/>
	<circle clip-path="url(#SVGID_2_)" fill="#1E1E1E" cx="41.433" cy="888.667" r="6.232"/>
	<circle clip-path="url(#SVGID_2_)" fill="#635644" cx="41.433" cy="888.667" r="4.958"/>
	<circle clip-path="url(#SVGID_2_)" fill="#F7A014" cx="41.166" cy="889.242" r="4.51"/>
	<path clip-path="url(#SVGID_2_)" fill="#FFFFFF" d="M42.129,892.844c-1.836,0.669-3.846-0.227-4.489-1.997
		c-0.646-1.768,0.321-3.744,2.157-4.414c1.834-0.667,3.844,0.227,4.488,1.997C44.93,890.199,43.965,892.177,42.129,892.844z"/>
	
		<ellipse transform="matrix(-0.2591 0.9658 -0.9658 -0.2591 910.4479 1079.7686)" clip-path="url(#SVGID_2_)" fill="#F7A014" cx="41.102" cy="889.067" rx="3.499" ry="3.739"/>
	<circle clip-path="url(#SVGID_2_)" fill="#1E1E1E" cx="25.989" cy="830.917" r="6.232"/>
	<circle clip-path="url(#SVGID_2_)" fill="#635644" cx="25.989" cy="830.917" r="4.958"/>
	<circle clip-path="url(#SVGID_2_)" fill="#F7A014" cx="25.625" cy="831.437" r="4.51"/>
	<path clip-path="url(#SVGID_2_)" fill="#FFFFFF" d="M25.949,835.15c-1.925,0.34-3.748-0.891-4.074-2.746
		c-0.328-1.853,0.966-3.632,2.891-3.973c1.922-0.338,3.746,0.891,4.072,2.746C29.166,833.032,27.872,834.813,25.949,835.15z"/>
	
		<ellipse transform="matrix(-0.4229 0.9062 -0.9062 -0.4229 789.6642 1159.6306)" clip-path="url(#SVGID_2_)" fill="#F7A014" cx="25.593" cy="831.253" rx="3.499" ry="3.739"/>
	<circle clip-path="url(#SVGID_2_)" fill="#1E1E1E" cx="333.703" cy="1113.158" r="6.232"/>
	<circle clip-path="url(#SVGID_2_)" fill="#635644" cx="333.703" cy="1113.159" r="4.958"/>
	<circle clip-path="url(#SVGID_2_)" fill="#C6BEB3" cx="334.11" cy="1113.643" r="4.51"/>
	
		<ellipse transform="matrix(0.9962 0.0872 -0.0872 0.9962 98.4048 -24.913)" clip-path="url(#SVGID_2_)" fill="#FFFFFF" cx="334.384" cy="1113.996" rx="3.41" ry="3.536"/>
	
		<ellipse transform="matrix(0.7658 0.6431 -0.6431 0.7658 794.3897 46.0864)" clip-path="url(#SVGID_2_)" fill="#C6BEB3" cx="333.925" cy="1113.627" rx="3.499" ry="3.739"/>
	<circle clip-path="url(#SVGID_2_)" fill="#1E1E1E" cx="274.836" cy="1102.749" r="6.232"/>
	<circle clip-path="url(#SVGID_2_)" fill="#635644" cx="274.836" cy="1102.75" r="4.958"/>
	<circle clip-path="url(#SVGID_2_)" fill="#C6BEB3" cx="275.153" cy="1103.298" r="4.51"/>
	
		<ellipse transform="matrix(0.9659 0.2588 -0.2588 0.9659 295.0624 -33.6609)" clip-path="url(#SVGID_2_)" fill="#FFFFFF" cx="275.361" cy="1103.692" rx="3.411" ry="3.535"/>
	
		<ellipse transform="matrix(0.6425 0.7663 -0.7663 0.6425 943.7057 183.7026)" clip-path="url(#SVGID_2_)" fill="#C6BEB3" cx="274.973" cy="1103.25" rx="3.499" ry="3.739"/>
	<circle clip-path="url(#SVGID_2_)" fill="#1E1E1E" cx="218.671" cy="1082.276" r="6.232"/>
	<circle clip-path="url(#SVGID_2_)" fill="#635644" cx="218.67" cy="1082.276" r="4.958"/>
	<circle clip-path="url(#SVGID_2_)" fill="#C6BEB3" cx="218.888" cy="1082.872" r="4.509"/>
	
		<ellipse transform="matrix(0.9063 0.4227 -0.4227 0.9063 478.3799 8.9419)" clip-path="url(#SVGID_2_)" fill="#FFFFFF" cx="219.024" cy="1083.297" rx="3.41" ry="3.535"/>
	
		<ellipse transform="matrix(0.4998 0.8661 -0.8661 0.4998 1047.2656 352.1839)" clip-path="url(#SVGID_2_)" fill="#C6BEB3" cx="218.719" cy="1082.793" rx="3.499" ry="3.739"/>
	<circle clip-path="url(#SVGID_2_)" fill="#1E1E1E" cx="166.914" cy="1052.362" r="6.233"/>
	<circle clip-path="url(#SVGID_2_)" fill="#635644" cx="166.914" cy="1052.362" r="4.959"/>
	<circle clip-path="url(#SVGID_2_)" fill="#C6BEB3" cx="167.024" cy="1052.985" r="4.51"/>
	
		<ellipse transform="matrix(0.8192 0.5735 -0.5735 0.8192 634.3723 94.642)" clip-path="url(#SVGID_2_)" fill="#FFFFFF" cx="167.085" cy="1053.428" rx="3.411" ry="3.535"/>
	
		<ellipse transform="matrix(0.3418 0.9398 -0.9398 0.3418 1099.3146 536.2066)" clip-path="url(#SVGID_2_)" fill="#C6BEB3" cx="166.872" cy="1052.879" rx="3.499" ry="3.739"/>
	<circle clip-path="url(#SVGID_2_)" fill="#1E1E1E" cx="121.138" cy="1013.914" r="6.232"/>
	<circle clip-path="url(#SVGID_2_)" fill="#635644" cx="121.138" cy="1013.914" r="4.959"/>
	<circle clip-path="url(#SVGID_2_)" fill="#C6BEB3" cx="121.138" cy="1014.547" r="4.51"/>
	
		<ellipse transform="matrix(0.7071 0.7071 -0.7071 0.7071 753.2252 211.671)" clip-path="url(#SVGID_2_)" fill="#FFFFFF" cx="121.121" cy="1014.994" rx="3.41" ry="3.536"/>
	
		<ellipse transform="matrix(0.1734 0.9849 -0.9849 0.1734 1099.0729 719.3431)" clip-path="url(#SVGID_2_)" fill="#C6BEB3" cx="121.007" cy="1014.416" rx="3.499" ry="3.739"/>
	<circle clip-path="url(#SVGID_2_)" fill="#1E1E1E" cx="82.734" cy="968.102" r="6.232"/>
	<circle clip-path="url(#SVGID_2_)" fill="#635644" cx="82.734" cy="968.101" r="4.958"/>
	<circle clip-path="url(#SVGID_2_)" fill="#C6BEB3" cx="82.625" cy="968.726" r="4.51"/>
	
		<ellipse transform="matrix(0.5735 0.8192 -0.8192 0.5735 829.1262 345.7197)" clip-path="url(#SVGID_2_)" fill="#FFFFFF" cx="82.53" cy="969.161" rx="3.411" ry="3.535"/>
	<path clip-path="url(#SVGID_2_)" fill="#C6BEB3" d="M82.517,972.07c-2.065,0-3.738-1.568-3.737-3.5
		c0-1.932,1.674-3.498,3.739-3.498c2.065,0.004,3.738,1.568,3.737,3.5C86.256,970.506,84.581,972.072,82.517,972.07z"/>
	<circle clip-path="url(#SVGID_2_)" fill="#1E1E1E" cx="52.869" cy="916.315" r="6.232"/>
	<circle clip-path="url(#SVGID_2_)" fill="#635644" cx="52.869" cy="916.314" r="4.959"/>
	<circle clip-path="url(#SVGID_2_)" fill="#C6BEB3" cx="52.653" cy="916.911" r="4.51"/>
	
		<ellipse transform="matrix(0.4227 0.9063 -0.9063 0.4227 861.6395 482.0014)" clip-path="url(#SVGID_2_)" fill="#FFFFFF" cx="52.484" cy="917.324" rx="3.41" ry="3.537"/>
	
		<ellipse transform="matrix(-0.174 0.9847 -0.9847 -0.174 964.475 1024.5122)" clip-path="url(#SVGID_2_)" fill="#C6BEB3" cx="52.574" cy="916.741" rx="3.499" ry="3.738"/>
	<circle clip-path="url(#SVGID_2_)" fill="#1E1E1E" cx="32.45" cy="860.13" r="6.232"/>
	<circle clip-path="url(#SVGID_2_)" fill="#635644" cx="32.45" cy="860.13" r="4.959"/>
	<circle clip-path="url(#SVGID_2_)" fill="#C6BEB3" cx="32.134" cy="860.679" r="4.51"/>
	
		<ellipse transform="matrix(0.2588 0.9659 -0.9659 0.2588 855.3691 607.4261)" clip-path="url(#SVGID_2_)" fill="#FFFFFF" cx="31.896" cy="861.057" rx="3.41" ry="3.536"/>
	
		<ellipse transform="matrix(-0.3424 0.9396 -0.9396 -0.3424 851.5685 1124.9524)" clip-path="url(#SVGID_2_)" fill="#C6BEB3" cx="32.085" cy="860.499" rx="3.499" ry="3.739"/>
	<circle clip-path="url(#SVGID_2_)" fill="#1E1E1E" cx="22.098" cy="801.253" r="6.232"/>
	<circle clip-path="url(#SVGID_2_)" fill="#635644" cx="22.098" cy="801.253" r="4.959"/>
	<circle clip-path="url(#SVGID_2_)" fill="#C6BEB3" cx="21.691" cy="801.739" r="4.509"/>
	<path clip-path="url(#SVGID_2_)" fill="#FFFFFF" d="M21.688,805.467c-1.945,0.172-3.655-1.212-3.819-3.087
		c-0.163-1.879,1.28-3.537,3.226-3.707s3.655,1.214,3.82,3.09C25.078,803.639,23.633,805.298,21.688,805.467z"/>
	
		<ellipse transform="matrix(-0.5004 0.8658 -0.8658 -0.5004 726.5062 1183.8743)" clip-path="url(#SVGID_2_)" fill="#C6BEB3" cx="21.674" cy="801.553" rx="3.498" ry="3.738"/>
	<circle clip-path="url(#SVGID_2_)" fill="#FF5527" cx="363.758" cy="771.526" r="44.435"/>
	<polygon clip-path="url(#SVGID_2_)" fill="#354438" points="358.935,974.551 361.179,978.438 358.935,982.326 354.447,982.326 
		352.202,978.438 354.447,974.551 	"/>
	<polygon clip-path="url(#SVGID_2_)" fill="#354438" points="160.958,772.459 163.441,776.761 160.958,781.063 155.991,781.063 
		153.508,776.761 155.991,772.459 	"/>
</g>
<rect x="357.148" y="813.289" fill="#FCB017" width="2.068" height="57.854"/>
<g>
	<defs>
		<rect id="SVGID_3_" x="356.605" y="777.693" width="376.691" height="453.167"/>
	</defs>
	<clipPath id="SVGID_4_">
		<use xlink:href="#SVGID_3_"  overflow="visible"/>
	</clipPath>
	
		<circle display="none" clip-path="url(#SVGID_4_)" fill="none" stroke="#591645" stroke-width="18" stroke-miterlimit="10" cx="346.143" cy="767.177" r="357.829"/>
	
		<circle display="none" clip-path="url(#SVGID_4_)" fill="none" stroke="#3A3A3A" stroke-width="12" stroke-miterlimit="10" cx="354.772" cy="776.855" r="212.177"/>
	<path display="none" clip-path="url(#SVGID_4_)" fill="#333333" d="M545.235,792.926H373.626l122.039,122.037
		c2.25,2.25,2.249,5.896,0,8.146c-2.25,2.25-5.897,2.251-8.148,0.001L367.226,802.818v171.828c0,3.273-2.579,5.928-5.761,5.928
		s-5.761-2.654-5.761-5.928V787.332c0-3.274,2.579-5.928,5.761-5.928c0.291,0,0.576,0.03,0.855,0.073
		c0.284-0.044,0.573-0.073,0.869-0.073h182.045c3.182,0,5.761,2.58,5.761,5.761S548.417,792.926,545.235,792.926z"/>
	<circle clip-path="url(#SVGID_4_)" fill="#455B4A" cx="349.704" cy="772.114" r="129.58"/>
	
		<rect x="371.038" y="880.142" transform="matrix(0.9848 -0.1736 0.1736 0.9848 -147.6451 78.6757)" clip-path="url(#SVGID_4_)" fill="#F7B32B" width="9.589" height="6.063"/>
	
		<rect x="389.18" y="874.87" transform="matrix(0.9397 -0.342 0.342 0.9397 -276.4771 187.6683)" clip-path="url(#SVGID_4_)" fill="#F7B32B" width="9.589" height="6.063"/>
	
		<rect x="406.13" y="866.527" transform="matrix(0.866 -0.5001 0.5001 0.866 -379.764 322.0161)" clip-path="url(#SVGID_4_)" fill="#F7B32B" width="9.589" height="6.062"/>
	
		<rect x="440.047" y="834.11" transform="matrix(0.5735 -0.8192 0.8192 0.5735 -496.0665 721.4618)" clip-path="url(#SVGID_4_)" fill="#F7B32B" width="9.59" height="6.063"/>
	
		<rect x="449.147" y="817.554" transform="matrix(0.4226 -0.9063 0.9063 0.4226 -481.6012 885.254)" clip-path="url(#SVGID_4_)" fill="#F7B32B" width="9.591" height="6.063"/>
	
		<rect x="455.234" y="799.668" transform="matrix(0.2587 -0.966 0.966 0.2587 -434.3594 1039.3909)" clip-path="url(#SVGID_4_)" fill="#F7B32B" width="9.591" height="6.063"/>
	
		<rect x="367.462" y="811.877" transform="matrix(0.9849 -0.1733 0.1733 0.9849 -140.1153 76.5689)" clip-path="url(#SVGID_4_)" fill="#FCF6B1" width="2.068" height="57.855"/>
	
		<rect x="378.358" y="808.523" transform="matrix(0.9398 -0.3417 0.3417 0.9398 -263.3508 180.0748)" clip-path="url(#SVGID_4_)" fill="#FCF6B1" width="2.069" height="57.855"/>
	
		<rect x="388.506" y="803.327" transform="matrix(0.8661 -0.4998 0.4998 0.8661 -363.8445 306.1364)" clip-path="url(#SVGID_4_)" fill="#FCF6B1" width="2.069" height="57.855"/>
	
		<rect x="408.661" y="783.443" transform="matrix(0.5734 -0.8193 0.8193 0.5734 -490.7795 682.2118)" clip-path="url(#SVGID_4_)" fill="#FCF6B1" width="2.069" height="57.855"/>
	
		<rect x="413.993" y="773.367" transform="matrix(0.4225 -0.9064 0.9064 0.4225 -487.4908 839.4928)" clip-path="url(#SVGID_4_)" fill="#FCF6B1" width="2.069" height="57.854"/>
	
		<rect x="417.495" y="762.517" transform="matrix(0.2582 -0.9661 0.9661 0.2582 -454.1339 991.4655)" clip-path="url(#SVGID_4_)" fill="#FCF6B1" width="2.069" height="57.854"/>
	
		<circle opacity="0.6" clip-path="url(#SVGID_4_)" fill="none" stroke="#303030" stroke-width="24" stroke-miterlimit="10" cx="337.302" cy="768.782" r="342.951"/>
	
		<circle clip-path="url(#SVGID_4_)" fill="none" stroke="#C80234" stroke-width="6" stroke-miterlimit="10" cx="355.066" cy="780.089" r="342.951"/>
	
		<circle clip-path="url(#SVGID_4_)" fill="none" stroke="#91083D" stroke-width="22" stroke-miterlimit="10" cx="349.539" cy="771.527" r="342.951"/>
	
		<circle opacity="0.6" clip-path="url(#SVGID_4_)" fill="none" stroke="#455B4A" stroke-width="12" stroke-miterlimit="10" cx="339.82" cy="764.709" r="204.99"/>
	
		<circle clip-path="url(#SVGID_4_)" fill="none" stroke="#6A8270" stroke-width="4" stroke-miterlimit="10" cx="354.007" cy="776.717" r="204.99"/>
	
		<circle clip-path="url(#SVGID_4_)" fill="none" stroke="#455B4A" stroke-width="14" stroke-miterlimit="10" cx="349.539" cy="771.527" r="204.99"/>
	<path clip-path="url(#SVGID_4_)" fill="#455B4A" d="M549.414,783.093H368.589l128.592,128.592c2.371,2.37,2.37,6.213,0,8.583
		c-2.371,2.371-6.214,2.372-8.585,0.001L361.845,793.518v181.057c0,3.449-2.718,6.244-6.071,6.244c-3.352,0-6.069-2.795-6.069-6.244
		V777.199c0-3.449,2.718-6.246,6.069-6.246c0.308,0,0.607,0.031,0.902,0.076c0.3-0.046,0.604-0.076,0.916-0.076h191.822
		c3.352,0,6.07,2.718,6.07,6.07C555.484,780.375,552.766,783.093,549.414,783.093z"/>
	<path clip-path="url(#SVGID_4_)" fill="#354438" d="M356.82,777.376c-0.361,0.001-0.693,0.412-0.693,0.9v197.376
		c0,0.486,0.332,0.898,0.725,0.898s0.725-0.412,0.725-0.898V781.69l135.877,135.876c0.141,0.141,0.313,0.213,0.512,0.213
		c0.137,0,0.337-0.038,0.513-0.213c0.176-0.177,0.213-0.376,0.213-0.513c0-0.199-0.071-0.37-0.212-0.512L356.761,778.824h193.73
		c0.399,0,0.725-0.324,0.725-0.724c0-0.4-0.325-0.724-0.725-0.724H358.669c-0.023,0.001-0.913,0.14-0.913,0.14L356.82,777.376z"/>
	<polygon clip-path="url(#SVGID_4_)" fill="#354438" points="489.287,910.748 486.641,915.331 489.287,919.914 494.579,919.914 
		497.224,915.331 494.579,910.748 	"/>
	<polygon clip-path="url(#SVGID_4_)" fill="#4C0623" points="586.086,1012.435 587.682,1018.391 593.637,1019.986 597.996,1015.627 
		596.401,1009.671 590.445,1008.075 	"/>
	<path clip-path="url(#SVGID_4_)" fill="#6B0A32" d="M362.785,1103.145c3.283-0.184,9.408-0.544,15.447-0.983l5.974,7.119
		l-9.549,8.012L362.785,1103.145z"/>
	<path clip-path="url(#SVGID_4_)" fill="#6B0A32" d="M391.638,1100.729c3.254-0.47,9.324-1.362,15.302-2.326l6.571,6.571
		l-8.813,8.813L391.638,1100.729z"/>
	<path clip-path="url(#SVGID_4_)" fill="#6B0A32" d="M420.169,1095.807c3.2-0.751,9.171-2.17,15.041-3.651l7.119,5.974l-8.012,9.549
		L420.169,1095.807z"/>
	<path clip-path="url(#SVGID_4_)" fill="#6B0A32" d="M448.163,1088.417c3.123-1.027,8.946-2.961,14.666-4.948l7.612,5.33
		l-7.149,10.211L448.163,1088.417z"/>
	<path clip-path="url(#SVGID_4_)" fill="#6B0A32" d="M475.406,1078.615c3.021-1.296,8.654-3.729,14.179-6.208l8.049,4.647
		l-6.233,10.795L475.406,1078.615z"/>
	<path clip-path="url(#SVGID_4_)" fill="#6B0A32" d="M501.693,1066.478c2.896-1.555,8.296-4.47,13.583-7.421l8.423,3.928
		l-5.269,11.297L501.693,1066.478z"/>
	<path clip-path="url(#SVGID_4_)" fill="#6B0A32" d="M526.82,1052.094c2.751-1.801,7.876-5.176,12.886-8.576l8.732,3.179
		l-4.264,11.714L526.82,1052.094z"/>
	<path clip-path="url(#SVGID_4_)" fill="#6B0A32" d="M550.599,1035.575c2.583-2.034,7.395-5.843,12.089-9.667l8.977,2.406
		l-3.227,12.04L550.599,1035.575z"/>
	<path clip-path="url(#SVGID_4_)" fill="#6B0A32" d="M572.847,1017.047c2.396-2.251,6.857-6.465,11.2-10.684l9.152,1.614
		l-2.165,12.275L572.847,1017.047z"/>
	<path clip-path="url(#SVGID_4_)" fill="#6B0A32" d="M593.396,996.65c2.19-2.451,6.269-7.039,10.226-11.619l9.26,0.811
		l-1.088,12.417L593.396,996.65z"/>
	<path clip-path="url(#SVGID_4_)" fill="#6B0A32" d="M612.088,974.539c1.969-2.633,5.631-7.557,9.176-12.465h9.293v12.465H612.088z"
		/>
	<path clip-path="url(#SVGID_4_)" fill="#6B0A32" d="M628.783,950.885c1.73-2.795,4.951-8.021,8.053-13.219l9.26-0.811l1.084,12.418
		L628.783,950.885z"/>
	<path clip-path="url(#SVGID_4_)" fill="#6B0A32" d="M643.354,925.863c1.48-2.934,4.232-8.42,6.869-13.869l9.152-1.614l2.164,12.276
		L643.354,925.863z"/>
	<path clip-path="url(#SVGID_4_)" fill="#6B0A32" d="M655.686,899.669c1.221-3.052,3.482-8.757,5.635-14.416l8.979-2.405
		l3.225,12.041L655.686,899.669z"/>
	<path clip-path="url(#SVGID_4_)" fill="#6B0A32" d="M665.689,872.499c0.949-3.146,2.707-9.027,4.357-14.853l8.732-3.179
		l4.264,11.715L665.689,872.499z"/>
	<path clip-path="url(#SVGID_4_)" fill="#6B0A32" d="M673.287,844.561c0.67-3.217,1.908-9.229,3.045-15.176l8.424-3.928
		l5.268,11.299L673.287,844.561z"/>
	<path clip-path="url(#SVGID_4_)" fill="#6B0A32" d="M678.42,816.066c0.389-3.263,1.098-9.36,1.713-15.384l8.049-4.646l6.23,10.797
		L678.42,816.066z"/>
	<circle clip-path="url(#SVGID_4_)" fill="#1E1E1E" cx="409.254" cy="1109.239" r="6.232"/>
	<circle clip-path="url(#SVGID_4_)" fill="#635644" cx="409.254" cy="1109.239" r="4.958"/>
	<circle clip-path="url(#SVGID_4_)" fill="#F7A014" cx="408.891" cy="1109.758" r="4.51"/>
	
		<ellipse transform="matrix(-0.9848 0.1737 -0.1737 -0.9848 1003.8931 2132.4194)" clip-path="url(#SVGID_4_)" fill="#FFFFFF" cx="408.648" cy="1110.132" rx="3.41" ry="3.537"/>
	
		<ellipse transform="matrix(-0.7068 0.7074 -0.7074 -0.7068 1483.2222 1604.7363)" clip-path="url(#SVGID_4_)" fill="#F7A014" cx="409.074" cy="1109.725" rx="3.499" ry="3.739"/>
	<circle clip-path="url(#SVGID_4_)" fill="#1E1E1E" cx="466.99" cy="1093.739" r="6.233"/>
	<circle clip-path="url(#SVGID_4_)" fill="#635644" cx="466.99" cy="1093.739" r="4.958"/>
	<circle clip-path="url(#SVGID_4_)" fill="#F7A014" cx="466.722" cy="1094.313" r="4.51"/>
	
		<ellipse transform="matrix(-0.9397 0.3421 -0.3421 -0.9397 1279.4088 1963.8306)" clip-path="url(#SVGID_4_)" fill="#FFFFFF" cx="466.548" cy="1094.724" rx="3.41" ry="3.536"/>
	
		<ellipse transform="matrix(-0.5733 0.8193 -0.8193 -0.5733 1631.135 1339.036)" clip-path="url(#SVGID_4_)" fill="#F7A014" cx="466.896" cy="1094.249" rx="3.499" ry="3.74"/>
	<circle clip-path="url(#SVGID_4_)" fill="#1E1E1E" cx="521.157" cy="1068.449" r="6.233"/>
	<circle clip-path="url(#SVGID_4_)" fill="#635644" cx="521.157" cy="1068.449" r="4.958"/>
	<circle clip-path="url(#SVGID_4_)" fill="#F7A014" cx="520.993" cy="1069.061" r="4.51"/>
	
		<ellipse transform="matrix(-0.866 0.5 -0.5 -0.866 1506.7158 1735.3062)" clip-path="url(#SVGID_4_)" fill="#FFFFFF" cx="520.894" cy="1069.495" rx="3.41" ry="3.536"/>
	
		<ellipse transform="matrix(-0.4223 0.9065 -0.9065 -0.4223 1710.2094 1048.0052)" clip-path="url(#SVGID_4_)" fill="#F7A014" cx="521.154" cy="1068.967" rx="3.499" ry="3.739"/>
	<circle clip-path="url(#SVGID_4_)" fill="#1E1E1E" cx="570.11" cy="1034.137" r="6.233"/>
	<circle clip-path="url(#SVGID_4_)" fill="#635644" cx="570.11" cy="1034.137" r="4.958"/>
	<circle clip-path="url(#SVGID_4_)" fill="#F7A014" cx="570.055" cy="1034.768" r="4.51"/>
	
		<ellipse transform="matrix(-0.766 0.6428 -0.6428 -0.766 1672.1224 1461.8253)" clip-path="url(#SVGID_4_)" fill="#FFFFFF" cx="570.032" cy="1035.213" rx="3.411" ry="3.536"/>
	
		<ellipse transform="matrix(-0.2585 0.966 -0.966 -0.2585 1717.0737 751.2833)" clip-path="url(#SVGID_4_)" fill="#F7A014" cx="570.197" cy="1034.648" rx="3.498" ry="3.738"/>
	<circle clip-path="url(#SVGID_4_)" fill="#1E1E1E" cx="612.36" cy="991.845" r="6.233"/>
	<circle clip-path="url(#SVGID_4_)" fill="#635644" cx="612.36" cy="991.845" r="4.958"/>
	<circle clip-path="url(#SVGID_4_)" fill="#F7A014" cx="612.416" cy="992.477" r="4.51"/>
	
		<ellipse transform="matrix(-0.6427 0.7661 -0.7661 -0.6427 1766.793 1161.8654)" clip-path="url(#SVGID_4_)" fill="#FFFFFF" cx="612.47" cy="992.918" rx="3.411" ry="3.537"/>
	<path clip-path="url(#SVGID_4_)" fill="#F7A014" d="M612.23,995.819c2.059,0.179,3.861-1.237,4.029-3.161
		c0.168-1.926-1.363-3.631-3.422-3.811c-2.055-0.178-3.859,1.236-4.027,3.16C608.643,993.934,610.174,995.641,612.23,995.819z"/>
	<circle clip-path="url(#SVGID_4_)" fill="#1E1E1E" cx="646.625" cy="942.859" r="6.233"/>
	<circle clip-path="url(#SVGID_4_)" fill="#635644" cx="646.626" cy="942.859" r="4.958"/>
	<circle clip-path="url(#SVGID_4_)" fill="#F7A014" cx="646.79" cy="943.471" r="4.51"/>
	<path clip-path="url(#SVGID_4_)" fill="#FFFFFF" d="M645.215,946.852c1.691,0.977,3.826,0.445,4.768-1.188
		c0.943-1.629,0.334-3.743-1.357-4.722c-1.691-0.976-3.824-0.444-4.766,1.188C642.916,943.76,643.523,945.875,645.215,946.852z"/>
	
		<ellipse transform="matrix(0.0874 0.9962 -0.9962 0.0874 1530.0702 216.4895)" clip-path="url(#SVGID_4_)" fill="#F7A014" cx="646.882" cy="943.31" rx="3.499" ry="3.74"/>
	<circle clip-path="url(#SVGID_4_)" fill="#1E1E1E" cx="671.863" cy="888.667" r="6.232"/>
	<circle clip-path="url(#SVGID_4_)" fill="#635644" cx="671.863" cy="888.667" r="4.958"/>
	<circle clip-path="url(#SVGID_4_)" fill="#F7A014" cx="672.131" cy="889.242" r="4.51"/>
	<path clip-path="url(#SVGID_4_)" fill="#FFFFFF" d="M671.168,892.844c1.836,0.669,3.846-0.227,4.488-1.997
		c0.646-1.768-0.32-3.744-2.156-4.414c-1.834-0.667-3.844,0.227-4.488,1.997C668.367,890.199,669.332,892.177,671.168,892.844z"/>
	
		<ellipse transform="matrix(0.2593 0.9658 -0.9658 0.2593 1356.5725 9.3444)" clip-path="url(#SVGID_4_)" fill="#F7A014" cx="672.194" cy="889.067" rx="3.499" ry="3.738"/>
	<circle clip-path="url(#SVGID_4_)" fill="#1E1E1E" cx="687.308" cy="830.917" r="6.232"/>
	<circle clip-path="url(#SVGID_4_)" fill="#635644" cx="687.308" cy="830.917" r="4.958"/>
	<circle clip-path="url(#SVGID_4_)" fill="#F7A014" cx="687.672" cy="831.437" r="4.51"/>
	<path clip-path="url(#SVGID_4_)" fill="#FFFFFF" d="M687.348,835.15c1.924,0.34,3.748-0.891,4.074-2.746
		c0.328-1.853-0.967-3.632-2.891-3.973c-1.922-0.338-3.746,0.891-4.072,2.746C684.131,833.032,685.424,834.813,687.348,835.15z"/>
	
		<ellipse transform="matrix(0.4231 0.9061 -0.9061 0.4231 1149.9701 -143.5425)" clip-path="url(#SVGID_4_)" fill="#F7A014" cx="687.703" cy="831.253" rx="3.499" ry="3.74"/>
	<circle clip-path="url(#SVGID_4_)" fill="#1E1E1E" cx="379.593" cy="1113.158" r="6.232"/>
	<circle clip-path="url(#SVGID_4_)" fill="#635644" cx="379.593" cy="1113.159" r="4.958"/>
	<circle clip-path="url(#SVGID_4_)" fill="#C6BEB3" cx="379.186" cy="1113.643" r="4.51"/>
	
		<ellipse transform="matrix(-0.9962 0.0872 -0.0872 -0.9962 853.5123 2190.7104)" clip-path="url(#SVGID_4_)" fill="#FFFFFF" cx="378.912" cy="1113.996" rx="3.41" ry="3.536"/>
	
		<ellipse transform="matrix(-0.7658 0.6431 -0.6431 -0.7658 1386.064 1722.4438)" clip-path="url(#SVGID_4_)" fill="#C6BEB3" cx="379.372" cy="1113.627" rx="3.499" ry="3.739"/>
	<circle clip-path="url(#SVGID_4_)" fill="#1E1E1E" cx="438.46" cy="1102.749" r="6.232"/>
	<circle clip-path="url(#SVGID_4_)" fill="#635644" cx="438.46" cy="1102.75" r="4.958"/>
	<circle clip-path="url(#SVGID_4_)" fill="#C6BEB3" cx="438.143" cy="1103.298" r="4.51"/>
	
		<ellipse transform="matrix(-0.9659 0.2588 -0.2588 -0.9659 1146.6238 2056.417)" clip-path="url(#SVGID_4_)" fill="#FFFFFF" cx="437.935" cy="1103.692" rx="3.411" ry="3.535"/>
	
		<ellipse transform="matrix(-0.6425 0.7663 -0.7663 -0.6425 1565.3496 1476.2083)" clip-path="url(#SVGID_4_)" fill="#C6BEB3" cx="438.323" cy="1103.25" rx="3.499" ry="3.739"/>
	<circle clip-path="url(#SVGID_4_)" fill="#1E1E1E" cx="494.625" cy="1082.276" r="6.232"/>
	<circle clip-path="url(#SVGID_4_)" fill="#635644" cx="494.626" cy="1082.276" r="4.958"/>
	<circle clip-path="url(#SVGID_4_)" fill="#C6BEB3" cx="494.409" cy="1082.872" r="4.509"/>
	
		<ellipse transform="matrix(-0.9063 0.4227 -0.4227 -0.9063 1400.0829 1856.1769)" clip-path="url(#SVGID_4_)" fill="#FFFFFF" cx="494.272" cy="1083.297" rx="3.41" ry="3.535"/>
	
		<ellipse transform="matrix(-0.4998 0.8661 -0.8661 -0.4998 1679.6198 1195.5815)" clip-path="url(#SVGID_4_)" fill="#C6BEB3" cx="494.577" cy="1082.793" rx="3.499" ry="3.739"/>
	<circle clip-path="url(#SVGID_4_)" fill="#1E1E1E" cx="546.382" cy="1052.362" r="6.233"/>
	<circle clip-path="url(#SVGID_4_)" fill="#635644" cx="546.383" cy="1052.362" r="4.959"/>
	<circle clip-path="url(#SVGID_4_)" fill="#C6BEB3" cx="546.272" cy="1052.985" r="4.51"/>
	
		<ellipse transform="matrix(-0.8192 0.5735 -0.5735 -0.8192 1597.8251 1603.1237)" clip-path="url(#SVGID_4_)" fill="#FFFFFF" cx="546.211" cy="1053.428" rx="3.411" ry="3.535"/>
	
		<ellipse transform="matrix(-0.3418 0.9398 -0.9398 -0.3418 1722.6559 899.2086)" clip-path="url(#SVGID_4_)" fill="#C6BEB3" cx="546.425" cy="1052.879" rx="3.499" ry="3.739"/>
	<circle clip-path="url(#SVGID_4_)" fill="#1E1E1E" cx="592.158" cy="1013.914" r="6.232"/>
	<circle clip-path="url(#SVGID_4_)" fill="#635644" cx="592.158" cy="1013.914" r="4.958"/>
	<circle clip-path="url(#SVGID_4_)" fill="#C6BEB3" cx="592.158" cy="1014.547" r="4.51"/>
	
		<ellipse transform="matrix(-0.707 0.7072 -0.7072 -0.707 1728.6448 1313.8566)" clip-path="url(#SVGID_4_)" fill="#FFFFFF" cx="592.175" cy="1014.994" rx="3.41" ry="3.536"/>
	
		<ellipse transform="matrix(-0.1733 0.9849 -0.9849 -0.1733 1694.0134 606.9209)" clip-path="url(#SVGID_4_)" fill="#C6BEB3" cx="592.29" cy="1014.416" rx="3.499" ry="3.739"/>
	<circle clip-path="url(#SVGID_4_)" fill="#1E1E1E" cx="630.563" cy="968.102" r="6.232"/>
	<circle clip-path="url(#SVGID_4_)" fill="#635644" cx="630.563" cy="968.101" r="4.958"/>
	<circle clip-path="url(#SVGID_4_)" fill="#C6BEB3" cx="630.672" cy="968.726" r="4.509"/>
	
		<ellipse transform="matrix(-0.5735 0.8192 -0.8192 -0.5735 1786.4524 1008.2758)" clip-path="url(#SVGID_4_)" fill="#FFFFFF" cx="630.767" cy="969.161" rx="3.411" ry="3.535"/>
	<path clip-path="url(#SVGID_4_)" fill="#C6BEB3" d="M630.779,972.07c2.066,0,3.738-1.568,3.738-3.5s-1.674-3.498-3.74-3.498
		c-2.064,0.004-3.738,1.568-3.736,3.5C627.041,970.506,628.715,972.072,630.779,972.07z"/>
	<circle clip-path="url(#SVGID_4_)" fill="#1E1E1E" cx="660.428" cy="916.315" r="6.232"/>
	<circle clip-path="url(#SVGID_4_)" fill="#635644" cx="660.428" cy="916.314" r="4.959"/>
	<circle clip-path="url(#SVGID_4_)" fill="#C6BEB3" cx="660.644" cy="916.911" r="4.51"/>
	
		<ellipse transform="matrix(-0.4227 0.9063 -0.9063 -0.4227 1771.4818 706.2085)" clip-path="url(#SVGID_4_)" fill="#FFFFFF" cx="660.813" cy="917.324" rx="3.41" ry="3.537"/>
	
		<ellipse transform="matrix(0.1742 0.9847 -0.9847 0.1742 1448.3761 106.4506)" clip-path="url(#SVGID_4_)" fill="#C6BEB3" cx="660.723" cy="916.741" rx="3.499" ry="3.739"/>
	<circle clip-path="url(#SVGID_4_)" fill="#1E1E1E" cx="680.847" cy="860.13" r="6.232"/>
	<circle clip-path="url(#SVGID_4_)" fill="#635644" cx="680.846" cy="860.13" r="4.959"/>
	<circle clip-path="url(#SVGID_4_)" fill="#C6BEB3" cx="681.163" cy="860.679" r="4.51"/>
	
		<ellipse transform="matrix(-0.2589 0.9659 -0.9659 -0.2589 1689.5182 425.8281)" clip-path="url(#SVGID_4_)" fill="#FFFFFF" cx="681.4" cy="861.057" rx="3.41" ry="3.537"/>
	
		<ellipse transform="matrix(0.3422 0.9396 -0.9396 0.3422 1256.6129 -74.0701)" clip-path="url(#SVGID_4_)" fill="#C6BEB3" cx="681.211" cy="860.499" rx="3.498" ry="3.74"/>
	<circle clip-path="url(#SVGID_4_)" fill="#1E1E1E" cx="691.199" cy="801.253" r="6.232"/>
	<circle clip-path="url(#SVGID_4_)" fill="#635644" cx="691.199" cy="801.253" r="4.959"/>
	<circle clip-path="url(#SVGID_4_)" fill="#C6BEB3" cx="691.605" cy="801.739" r="4.509"/>
	<path clip-path="url(#SVGID_4_)" fill="#FFFFFF" d="M691.609,805.467c1.945,0.172,3.654-1.212,3.818-3.087
		c0.164-1.879-1.279-3.537-3.225-3.707s-3.656,1.214-3.82,3.09S689.664,805.298,691.609,805.467z"/>
	
		<ellipse transform="matrix(0.5005 0.8657 -0.8657 0.5005 1039.4089 -198.3832)" clip-path="url(#SVGID_4_)" fill="#C6BEB3" cx="691.622" cy="801.553" rx="3.499" ry="3.739"/>
	<circle clip-path="url(#SVGID_4_)" fill="#FF5527" cx="349.539" cy="771.526" r="44.435"/>
	<polygon clip-path="url(#SVGID_4_)" fill="#354438" points="354.361,974.551 352.117,978.438 354.361,982.326 358.85,982.326 
		361.095,978.438 358.85,974.551 	"/>
	<polygon clip-path="url(#SVGID_4_)" fill="#354438" points="552.338,772.459 549.855,776.761 552.338,781.063 557.305,781.063 
		559.789,776.761 557.305,772.459 	"/>
</g>
<rect x="355.545" y="683.411" fill="#FCB017" width="2.068" height="57.854"/>
<g>
	<defs>
		<rect id="SVGID_5_" x="-20.043" y="324.526" width="376.691" height="453.167"/>
	</defs>
	<clipPath id="SVGID_6_">
		<use xlink:href="#SVGID_5_"  overflow="visible"/>
	</clipPath>
	
		<circle display="none" clip-path="url(#SVGID_6_)" fill="none" stroke="#591645" stroke-width="18" stroke-miterlimit="10" cx="367.11" cy="788.21" r="357.829"/>
	
		<circle display="none" clip-path="url(#SVGID_6_)" fill="none" stroke="#3A3A3A" stroke-width="12" stroke-miterlimit="10" cx="358.481" cy="778.531" r="212.177"/>
	<path display="none" clip-path="url(#SVGID_6_)" fill="#333333" d="M168.019,762.461h171.609L217.589,640.424
		c-2.25-2.25-2.249-5.896,0-8.146c2.25-2.25,5.897-2.251,8.148-0.001l120.291,120.291V580.74c0-3.273,2.579-5.928,5.761-5.928
		s5.761,2.654,5.761,5.928v187.314c0,3.274-2.579,5.928-5.761,5.928c-0.291,0-0.576-0.03-0.855-0.073
		c-0.284,0.044-0.573,0.073-0.869,0.073H168.019c-3.182,0-5.761-2.58-5.761-5.761S164.837,762.461,168.019,762.461z"/>
	<circle clip-path="url(#SVGID_6_)" fill="#455B4A" cx="363.549" cy="783.272" r="129.58"/>
	
		<rect x="332.627" y="669.182" transform="matrix(-0.9848 0.1736 -0.1736 -0.9848 786.4402 1275.6255)" clip-path="url(#SVGID_6_)" fill="#F7B32B" width="9.589" height="6.063"/>
	
		<rect x="314.485" y="674.454" transform="matrix(-0.9397 0.342 -0.342 -0.9397 850.9995 1204.9314)" clip-path="url(#SVGID_6_)" fill="#F7B32B" width="9.589" height="6.063"/>
	
		<rect x="297.535" y="682.797" transform="matrix(-0.866 0.5001 -0.5001 -0.866 907.0987 1128.566)" clip-path="url(#SVGID_6_)" fill="#F7B32B" width="9.589" height="6.062"/>
	
		<rect x="263.616" y="715.214" transform="matrix(-0.5735 0.8192 -0.8192 -0.5735 1010.7369 910.2713)" clip-path="url(#SVGID_6_)" fill="#F7B32B" width="9.59" height="6.063"/>
	
		<rect x="254.516" y="731.77" transform="matrix(-0.4226 0.9063 -0.9063 -0.4226 1034.8621 810.2831)" clip-path="url(#SVGID_6_)" fill="#F7B32B" width="9.591" height="6.063"/>
	
		<rect x="248.429" y="749.656" transform="matrix(-0.2587 0.966 -0.966 -0.2587 1045.7981 702.8204)" clip-path="url(#SVGID_6_)" fill="#F7B32B" width="9.591" height="6.063"/>
	
		<rect x="343.723" y="685.655" transform="matrix(-0.9849 0.1733 -0.1733 -0.9849 808.1179 1358.6177)" clip-path="url(#SVGID_6_)" fill="#FCF6B1" width="2.068" height="57.855"/>
	
		<rect x="332.826" y="689.009" transform="matrix(-0.9398 0.3417 -0.3417 -0.9398 892.9709 1278.554)" clip-path="url(#SVGID_6_)" fill="#FCF6B1" width="2.069" height="57.855"/>
	
		<rect x="322.678" y="694.205" transform="matrix(-0.8661 0.4998 -0.4998 -0.8661 965.5395 1187.6417)" clip-path="url(#SVGID_6_)" fill="#FCF6B1" width="2.069" height="57.855"/>
	
		<rect x="302.523" y="714.089" transform="matrix(-0.5734 0.8193 -0.8193 -0.5734 1086.3535 920.3628)" clip-path="url(#SVGID_6_)" fill="#FCF6B1" width="2.069" height="57.855"/>
	
		<rect x="297.191" y="724.166" transform="matrix(-0.4225 0.9064 -0.9064 -0.4225 1106.8014 800.9719)" clip-path="url(#SVGID_6_)" fill="#FCF6B1" width="2.069" height="57.854"/>
	
		<rect x="293.689" y="735.016" transform="matrix(-0.2582 0.9661 -0.9661 -0.2582 1108.8564 676.4308)" clip-path="url(#SVGID_6_)" fill="#FCF6B1" width="2.069" height="57.854"/>
	
		<circle opacity="0.6" clip-path="url(#SVGID_6_)" fill="none" stroke="#303030" stroke-width="24" stroke-miterlimit="10" cx="375.951" cy="786.604" r="342.951"/>
	
		<circle clip-path="url(#SVGID_6_)" fill="none" stroke="#C80234" stroke-width="6" stroke-miterlimit="10" cx="358.188" cy="775.298" r="342.951"/>
	
		<circle clip-path="url(#SVGID_6_)" fill="none" stroke="#91083D" stroke-width="22" stroke-miterlimit="10" cx="363.715" cy="783.859" r="342.951"/>
	
		<circle opacity="0.6" clip-path="url(#SVGID_6_)" fill="none" stroke="#455B4A" stroke-width="12" stroke-miterlimit="10" cx="373.434" cy="790.678" r="204.99"/>
	
		<circle clip-path="url(#SVGID_6_)" fill="none" stroke="#6A8270" stroke-width="4" stroke-miterlimit="10" cx="359.247" cy="778.67" r="204.99"/>
	
		<circle clip-path="url(#SVGID_6_)" fill="none" stroke="#455B4A" stroke-width="14" stroke-miterlimit="10" cx="363.715" cy="783.859" r="204.99"/>
	<path clip-path="url(#SVGID_6_)" fill="#455B4A" d="M163.839,772.294h180.825L216.072,643.702c-2.371-2.37-2.37-6.213,0-8.583
		c2.371-2.371,6.214-2.372,8.585-0.001l126.751,126.751V580.813c0-3.449,2.718-6.244,6.071-6.244c3.352,0,6.069,2.795,6.069,6.244
		v197.375c0,3.449-2.718,6.246-6.069,6.246c-0.308,0-0.607-0.031-0.902-0.076c-0.3,0.046-0.604,0.076-0.916,0.076H163.839
		c-3.352,0-6.07-2.718-6.07-6.07C157.77,775.012,160.487,772.294,163.839,772.294z"/>
	<path clip-path="url(#SVGID_6_)" fill="#354438" d="M356.433,778.011c0.361-0.001,0.693-0.412,0.693-0.9V579.734
		c0-0.486-0.332-0.898-0.725-0.898s-0.725,0.412-0.725,0.898v193.962L219.8,637.82c-0.141-0.141-0.313-0.213-0.512-0.213
		c-0.137,0-0.337,0.038-0.513,0.213c-0.176,0.177-0.213,0.376-0.213,0.513c0,0.199,0.071,0.37,0.212,0.512l137.718,137.718h-193.73
		c-0.399,0-0.725,0.324-0.725,0.724c0,0.4,0.325,0.724,0.725,0.724h191.822c0.023-0.001,0.913-0.14,0.913-0.14L356.433,778.011z"/>
	<polygon clip-path="url(#SVGID_6_)" fill="#354438" points="223.967,644.639 226.613,640.056 223.967,635.473 218.675,635.473 
		216.029,640.056 218.675,644.639 	"/>
	<polygon clip-path="url(#SVGID_6_)" fill="#4C0623" points="127.167,542.952 125.572,536.996 119.616,535.4 115.257,539.76 
		116.852,545.716 122.808,547.312 	"/>
	<path clip-path="url(#SVGID_6_)" fill="#6B0A32" d="M350.468,452.242c-3.283,0.184-9.408,0.544-15.447,0.983l-5.974-7.119
		l9.549-8.012L350.468,452.242z"/>
	<path clip-path="url(#SVGID_6_)" fill="#6B0A32" d="M321.616,454.658c-3.254,0.47-9.324,1.362-15.302,2.326l-6.571-6.571
		l8.813-8.813L321.616,454.658z"/>
	<path clip-path="url(#SVGID_6_)" fill="#6B0A32" d="M293.084,459.58c-3.2,0.751-9.171,2.17-15.041,3.651l-7.119-5.974l8.012-9.549
		L293.084,459.58z"/>
	<path clip-path="url(#SVGID_6_)" fill="#6B0A32" d="M265.09,466.97c-3.123,1.027-8.946,2.961-14.666,4.948l-7.612-5.33
		l7.149-10.211L265.09,466.97z"/>
	<path clip-path="url(#SVGID_6_)" fill="#6B0A32" d="M237.847,476.771c-3.021,1.296-8.654,3.729-14.179,6.208l-8.049-4.647
		l6.233-10.795L237.847,476.771z"/>
	<path clip-path="url(#SVGID_6_)" fill="#6B0A32" d="M211.561,488.909c-2.896,1.555-8.296,4.47-13.583,7.421l-8.423-3.928
		l5.269-11.297L211.561,488.909z"/>
	<path clip-path="url(#SVGID_6_)" fill="#6B0A32" d="M186.434,503.293c-2.751,1.801-7.876,5.176-12.886,8.576l-8.732-3.179
		l4.264-11.714L186.434,503.293z"/>
	<path clip-path="url(#SVGID_6_)" fill="#6B0A32" d="M162.655,519.812c-2.583,2.034-7.395,5.843-12.089,9.667l-8.977-2.406
		l3.227-12.04L162.655,519.812z"/>
	<path clip-path="url(#SVGID_6_)" fill="#6B0A32" d="M140.407,538.34c-2.396,2.251-6.857,6.465-11.2,10.684l-9.152-1.614
		l2.165-12.275L140.407,538.34z"/>
	<path clip-path="url(#SVGID_6_)" fill="#6B0A32" d="M119.858,558.736c-2.19,2.451-6.268,7.039-10.226,11.619l-9.259-0.811
		l1.088-12.417L119.858,558.736z"/>
	<path clip-path="url(#SVGID_6_)" fill="#6B0A32" d="M101.165,580.848c-1.968,2.633-5.63,7.557-9.175,12.465h-9.293v-12.465H101.165
		z"/>
	<path clip-path="url(#SVGID_6_)" fill="#6B0A32" d="M84.471,604.502c-1.731,2.795-4.951,8.021-8.053,13.219l-9.26,0.811
		l-1.085-12.418L84.471,604.502z"/>
	<path clip-path="url(#SVGID_6_)" fill="#6B0A32" d="M69.9,629.523c-1.48,2.934-4.232,8.42-6.869,13.869l-9.153,1.614l-2.163-12.276
		L69.9,629.523z"/>
	<path clip-path="url(#SVGID_6_)" fill="#6B0A32" d="M57.567,655.718c-1.22,3.052-3.482,8.757-5.635,14.416l-8.978,2.405
		l-3.225-12.041L57.567,655.718z"/>
	<path clip-path="url(#SVGID_6_)" fill="#6B0A32" d="M47.564,682.888c-0.949,3.146-2.707,9.027-4.357,14.853l-8.733,3.179
		l-4.263-11.715L47.564,682.888z"/>
	<path clip-path="url(#SVGID_6_)" fill="#6B0A32" d="M39.967,710.826c-0.671,3.217-1.909,9.229-3.046,15.176l-8.423,3.928
		l-5.268-11.299L39.967,710.826z"/>
	<path clip-path="url(#SVGID_6_)" fill="#6B0A32" d="M34.834,739.32c-0.389,3.263-1.098,9.36-1.713,15.384l-8.049,4.646
		l-6.231-10.797L34.834,739.32z"/>
	<circle clip-path="url(#SVGID_6_)" fill="#1E1E1E" cx="304" cy="446.148" r="6.232"/>
	<circle clip-path="url(#SVGID_6_)" fill="#635644" cx="304" cy="446.148" r="4.958"/>
	<circle clip-path="url(#SVGID_6_)" fill="#F7A014" cx="304.363" cy="445.629" r="4.51"/>
	
		<ellipse transform="matrix(0.9848 -0.1737 0.1737 0.9848 -72.7021 59.6704)" clip-path="url(#SVGID_6_)" fill="#FFFFFF" cx="304.605" cy="445.254" rx="3.41" ry="3.537"/>
	
		<ellipse transform="matrix(0.7068 -0.7074 0.7074 0.7068 -226.0776 345.8281)" clip-path="url(#SVGID_6_)" fill="#F7A014" cx="304.18" cy="445.662" rx="3.499" ry="3.739"/>
	<circle clip-path="url(#SVGID_6_)" fill="#1E1E1E" cx="246.264" cy="461.648" r="6.233"/>
	<circle clip-path="url(#SVGID_6_)" fill="#635644" cx="246.264" cy="461.648" r="4.958"/>
	<circle clip-path="url(#SVGID_6_)" fill="#F7A014" cx="246.532" cy="461.074" r="4.51"/>
	
		<ellipse transform="matrix(0.9397 -0.3421 0.3421 0.9397 -142.6901 112.1732)" clip-path="url(#SVGID_6_)" fill="#FFFFFF" cx="246.705" cy="460.663" rx="3.41" ry="3.536"/>
	
		<ellipse transform="matrix(0.5733 -0.8193 0.8193 0.5733 -272.7108 398.6172)" clip-path="url(#SVGID_6_)" fill="#F7A014" cx="246.357" cy="461.138" rx="3.499" ry="3.74"/>
	<circle clip-path="url(#SVGID_6_)" fill="#1E1E1E" cx="192.096" cy="486.938" r="6.233"/>
	<circle clip-path="url(#SVGID_6_)" fill="#635644" cx="192.096" cy="486.938" r="4.958"/>
	<circle clip-path="url(#SVGID_6_)" fill="#F7A014" cx="192.26" cy="486.326" r="4.51"/>
	
		<ellipse transform="matrix(0.866 -0.5 0.5 0.866 -217.1587 161.2572)" clip-path="url(#SVGID_6_)" fill="#FFFFFF" cx="192.36" cy="485.892" rx="3.41" ry="3.536"/>
	
		<ellipse transform="matrix(0.4223 -0.9065 0.9065 0.4223 -329.9415 455.1273)" clip-path="url(#SVGID_6_)" fill="#F7A014" cx="192.1" cy="486.419" rx="3.499" ry="3.739"/>
	<circle clip-path="url(#SVGID_6_)" fill="#1E1E1E" cx="143.144" cy="521.25" r="6.233"/>
	<circle clip-path="url(#SVGID_6_)" fill="#635644" cx="143.144" cy="521.25" r="4.958"/>
	<circle clip-path="url(#SVGID_6_)" fill="#F7A014" cx="143.199" cy="520.619" r="4.51"/>
	
		<ellipse transform="matrix(0.766 -0.6428 0.6428 0.766 -300.8531 213.7576)" clip-path="url(#SVGID_6_)" fill="#FFFFFF" cx="143.222" cy="520.174" rx="3.411" ry="3.537"/>
	
		<ellipse transform="matrix(0.2585 -0.966 0.966 0.2585 -396.963 524.324)" clip-path="url(#SVGID_6_)" fill="#F7A014" cx="143.057" cy="520.739" rx="3.498" ry="3.739"/>
	<circle clip-path="url(#SVGID_6_)" fill="#1E1E1E" cx="100.894" cy="563.542" r="6.233"/>
	<circle clip-path="url(#SVGID_6_)" fill="#635644" cx="100.893" cy="563.542" r="4.958"/>
	<circle clip-path="url(#SVGID_6_)" fill="#F7A014" cx="100.838" cy="562.91" r="4.51"/>
	
		<ellipse transform="matrix(0.6427 -0.7661 0.7661 0.6427 -394.9019 278.172)" clip-path="url(#SVGID_6_)" fill="#FFFFFF" cx="100.783" cy="562.469" rx="3.411" ry="3.537"/>
	
		<ellipse transform="matrix(0.0868 -0.9962 0.9962 0.0868 -468.9517 614.5198)" clip-path="url(#SVGID_6_)" fill="#F7A014" cx="100.719" cy="563.053" rx="3.499" ry="3.739"/>
	<circle clip-path="url(#SVGID_6_)" fill="#1E1E1E" cx="66.628" cy="612.528" r="6.232"/>
	<circle clip-path="url(#SVGID_6_)" fill="#635644" cx="66.628" cy="612.528" r="4.958"/>
	<circle clip-path="url(#SVGID_6_)" fill="#F7A014" cx="66.464" cy="611.916" r="4.51"/>
	<path clip-path="url(#SVGID_6_)" fill="#FFFFFF" d="M68.039,608.535c-1.692-0.977-3.826-0.445-4.768,1.188
		c-0.943,1.629-0.335,3.743,1.357,4.722c1.69,0.976,3.824,0.444,4.766-1.188C70.338,611.627,69.73,609.512,68.039,608.535z"/>
	
		<ellipse transform="matrix(-0.0875 -0.9962 0.9962 -0.0875 -537.5501 731.7526)" clip-path="url(#SVGID_6_)" fill="#F7A014" cx="66.372" cy="612.077" rx="3.499" ry="3.739"/>
	<circle clip-path="url(#SVGID_6_)" fill="#1E1E1E" cx="41.39" cy="666.719" r="6.232"/>
	<circle clip-path="url(#SVGID_6_)" fill="#635644" cx="41.39" cy="666.719" r="4.958"/>
	<circle clip-path="url(#SVGID_6_)" fill="#F7A014" cx="41.123" cy="666.145" r="4.51"/>
	<path clip-path="url(#SVGID_6_)" fill="#FFFFFF" d="M42.086,662.543c-1.836-0.669-3.846,0.227-4.489,1.997
		c-0.646,1.768,0.321,3.744,2.157,4.414c1.834,0.667,3.844-0.227,4.488-1.997C44.887,665.188,43.922,663.21,42.086,662.543z"/>
	
		<ellipse transform="matrix(-0.2591 -0.9658 0.9658 -0.2591 -591.8574 878.6514)" clip-path="url(#SVGID_6_)" fill="#F7A014" cx="41.059" cy="666.32" rx="3.499" ry="3.739"/>
	<circle clip-path="url(#SVGID_6_)" fill="#1E1E1E" cx="25.946" cy="724.47" r="6.232"/>
	<circle clip-path="url(#SVGID_6_)" fill="#635644" cx="25.946" cy="724.47" r="4.958"/>
	<circle clip-path="url(#SVGID_6_)" fill="#F7A014" cx="25.582" cy="723.95" r="4.51"/>
	<path clip-path="url(#SVGID_6_)" fill="#FFFFFF" d="M25.906,720.236c-1.925-0.34-3.748,0.891-4.074,2.746
		c-0.328,1.853,0.966,3.632,2.891,3.973c1.922,0.338,3.746-0.891,4.072-2.746C29.123,722.354,27.829,720.574,25.906,720.236z"/>
	
		<ellipse transform="matrix(-0.4229 -0.9062 0.9062 -0.4229 -619.8232 1053.5508)" clip-path="url(#SVGID_6_)" fill="#F7A014" cx="25.55" cy="724.134" rx="3.499" ry="3.739"/>
	<circle clip-path="url(#SVGID_6_)" fill="#1E1E1E" cx="333.66" cy="442.229" r="6.232"/>
	<circle clip-path="url(#SVGID_6_)" fill="#635644" cx="333.66" cy="442.228" r="4.958"/>
	<circle clip-path="url(#SVGID_6_)" fill="#C6BEB3" cx="334.067" cy="441.744" r="4.51"/>
	
		<ellipse transform="matrix(0.9962 -0.0872 0.0872 0.9962 -37.2124 30.8328)" clip-path="url(#SVGID_6_)" fill="#FFFFFF" cx="334.341" cy="441.391" rx="3.41" ry="3.536"/>
	
		<ellipse transform="matrix(0.7658 -0.6431 0.6431 0.7658 -205.8952 318.19)" clip-path="url(#SVGID_6_)" fill="#C6BEB3" cx="333.882" cy="441.76" rx="3.499" ry="3.739"/>
	<circle clip-path="url(#SVGID_6_)" fill="#1E1E1E" cx="274.793" cy="452.638" r="6.232"/>
	<circle clip-path="url(#SVGID_6_)" fill="#635644" cx="274.793" cy="452.637" r="4.958"/>
	<circle clip-path="url(#SVGID_6_)" fill="#C6BEB3" cx="275.11" cy="452.089" r="4.51"/>
	
		<ellipse transform="matrix(0.9659 -0.2588 0.2588 0.9659 -107.5333 86.6565)" clip-path="url(#SVGID_6_)" fill="#FFFFFF" cx="275.318" cy="451.694" rx="3.411" ry="3.535"/>
	
		<ellipse transform="matrix(0.6425 -0.7663 0.7663 0.6425 -248.1786 372.3132)" clip-path="url(#SVGID_6_)" fill="#C6BEB3" cx="274.93" cy="452.137" rx="3.499" ry="3.739"/>
	<circle clip-path="url(#SVGID_6_)" fill="#1E1E1E" cx="218.628" cy="473.11" r="6.232"/>
	<circle clip-path="url(#SVGID_6_)" fill="#635644" cx="218.627" cy="473.11" r="4.958"/>
	<circle clip-path="url(#SVGID_6_)" fill="#C6BEB3" cx="218.845" cy="472.515" r="4.509"/>
	
		<ellipse transform="matrix(0.9063 -0.4227 0.4227 0.9063 -179.0088 136.7908)" clip-path="url(#SVGID_6_)" fill="#FFFFFF" cx="218.981" cy="472.09" rx="3.41" ry="3.535"/>
	
		<ellipse transform="matrix(0.4998 -0.8661 0.8661 0.4998 -299.9516 425.8037)" clip-path="url(#SVGID_6_)" fill="#C6BEB3" cx="218.676" cy="472.594" rx="3.499" ry="3.739"/>
	<circle clip-path="url(#SVGID_6_)" fill="#1E1E1E" cx="166.871" cy="503.025" r="6.233"/>
	<circle clip-path="url(#SVGID_6_)" fill="#635644" cx="166.871" cy="503.025" r="4.959"/>
	<circle clip-path="url(#SVGID_6_)" fill="#C6BEB3" cx="166.981" cy="502.401" r="4.51"/>
	
		<ellipse transform="matrix(0.8192 -0.5735 0.5735 0.8192 -257.6809 186.5603)" clip-path="url(#SVGID_6_)" fill="#FFFFFF" cx="167.042" cy="501.959" rx="3.411" ry="3.535"/>
	
		<ellipse transform="matrix(0.3418 -0.9398 0.9398 0.3418 -362.4369 487.5447)" clip-path="url(#SVGID_6_)" fill="#C6BEB3" cx="166.829" cy="502.508" rx="3.499" ry="3.739"/>
	<circle clip-path="url(#SVGID_6_)" fill="#1E1E1E" cx="121.095" cy="541.473" r="6.232"/>
	<circle clip-path="url(#SVGID_6_)" fill="#635644" cx="121.095" cy="541.473" r="4.959"/>
	<circle clip-path="url(#SVGID_6_)" fill="#C6BEB3" cx="121.095" cy="540.839" r="4.51"/>
	
		<ellipse transform="matrix(0.7071 -0.7071 0.7071 0.7071 -346.6676 243.9165)" clip-path="url(#SVGID_6_)" fill="#FFFFFF" cx="121.078" cy="540.393" rx="3.41" ry="3.536"/>
	
		<ellipse transform="matrix(0.1734 -0.9849 0.9849 0.1734 -432.7877 566.2985)" clip-path="url(#SVGID_6_)" fill="#C6BEB3" cx="120.964" cy="540.971" rx="3.499" ry="3.739"/>
	<circle clip-path="url(#SVGID_6_)" fill="#1E1E1E" cx="82.691" cy="587.285" r="6.232"/>
	<circle clip-path="url(#SVGID_6_)" fill="#635644" cx="82.691" cy="587.286" r="4.958"/>
	<circle clip-path="url(#SVGID_6_)" fill="#C6BEB3" cx="82.582" cy="586.661" r="4.51"/>
	
		<ellipse transform="matrix(0.5735 -0.8192 0.8192 0.5735 -445.0519 317.5864)" clip-path="url(#SVGID_6_)" fill="#FFFFFF" cx="82.487" cy="586.226" rx="3.411" ry="3.535"/>
	<path clip-path="url(#SVGID_6_)" fill="#C6BEB3" d="M82.474,583.316c-2.065,0-3.738,1.568-3.737,3.5
		c0,1.932,1.674,3.498,3.739,3.498c2.065-0.004,3.738-1.568,3.737-3.5C86.213,584.881,84.538,583.314,82.474,583.316z"/>
	<circle clip-path="url(#SVGID_6_)" fill="#1E1E1E" cx="52.826" cy="639.071" r="6.232"/>
	<circle clip-path="url(#SVGID_6_)" fill="#635644" cx="52.826" cy="639.072" r="4.959"/>
	<circle clip-path="url(#SVGID_6_)" fill="#C6BEB3" cx="52.61" cy="638.476" r="4.51"/>
	
		<ellipse transform="matrix(0.4227 -0.9063 0.9063 0.4227 -547.9814 415.8764)" clip-path="url(#SVGID_6_)" fill="#FFFFFF" cx="52.441" cy="638.063" rx="3.41" ry="3.537"/>
	
		<ellipse transform="matrix(-0.174 -0.9847 0.9847 -0.174 -567.2269 801.5195)" clip-path="url(#SVGID_6_)" fill="#C6BEB3" cx="52.531" cy="638.646" rx="3.499" ry="3.738"/>
	<circle clip-path="url(#SVGID_6_)" fill="#1E1E1E" cx="32.407" cy="695.256" r="6.232"/>
	<circle clip-path="url(#SVGID_6_)" fill="#635644" cx="32.407" cy="695.257" r="4.959"/>
	<circle clip-path="url(#SVGID_6_)" fill="#C6BEB3" cx="32.091" cy="694.708" r="4.51"/>
	
		<ellipse transform="matrix(0.2588 -0.9659 0.9659 0.2588 -647.0685 545.4213)" clip-path="url(#SVGID_6_)" fill="#FFFFFF" cx="31.853" cy="694.33" rx="3.41" ry="3.536"/>
	
		<ellipse transform="matrix(-0.3424 -0.9396 0.9396 -0.3424 -609.8825 962.8951)" clip-path="url(#SVGID_6_)" fill="#C6BEB3" cx="32.042" cy="694.888" rx="3.499" ry="3.739"/>
	<circle clip-path="url(#SVGID_6_)" fill="#1E1E1E" cx="22.055" cy="754.133" r="6.232"/>
	<circle clip-path="url(#SVGID_6_)" fill="#635644" cx="22.055" cy="754.133" r="4.959"/>
	<circle clip-path="url(#SVGID_6_)" fill="#C6BEB3" cx="21.648" cy="753.647" r="4.509"/>
	<path clip-path="url(#SVGID_6_)" fill="#FFFFFF" d="M21.645,749.92c-1.945-0.172-3.655,1.212-3.819,3.087
		c-0.163,1.879,1.28,3.537,3.226,3.707s3.655-1.214,3.82-3.09C25.035,751.748,23.59,750.089,21.645,749.92z"/>
	
		<ellipse transform="matrix(-0.5004 -0.8658 0.8658 -0.5004 -620.2151 1149.7704)" clip-path="url(#SVGID_6_)" fill="#C6BEB3" cx="21.631" cy="753.833" rx="3.498" ry="3.738"/>
	<circle clip-path="url(#SVGID_6_)" fill="#FF5527" cx="363.715" cy="783.86" r="44.435"/>
	<polygon clip-path="url(#SVGID_6_)" fill="#354438" points="358.892,580.836 361.136,576.949 358.892,573.061 354.404,573.061 
		352.159,576.949 354.404,580.836 	"/>
	<polygon clip-path="url(#SVGID_6_)" fill="#354438" points="160.915,782.928 163.398,778.626 160.915,774.323 155.948,774.323 
		153.465,778.626 155.948,782.928 	"/>
</g>
<rect x="357.614" y="683.411" fill="#FCB017" width="2.068" height="57.854"/>
<g>
	<defs>
		<rect id="SVGID_7_" x="356.563" y="324.526" width="376.691" height="453.167"/>
	</defs>
	<clipPath id="SVGID_8_">
		<use xlink:href="#SVGID_7_"  overflow="visible"/>
	</clipPath>
	
		<circle display="none" clip-path="url(#SVGID_8_)" fill="none" stroke="#591645" stroke-width="18" stroke-miterlimit="10" cx="346.1" cy="788.21" r="357.829"/>
	
		<circle display="none" clip-path="url(#SVGID_8_)" fill="none" stroke="#3A3A3A" stroke-width="12" stroke-miterlimit="10" cx="354.729" cy="778.531" r="212.177"/>
	<path display="none" clip-path="url(#SVGID_8_)" fill="#333333" d="M545.192,762.461H373.583l122.039-122.037
		c2.25-2.25,2.249-5.896,0-8.146c-2.25-2.25-5.897-2.251-8.148-0.001L367.183,752.568V580.74c0-3.273-2.579-5.928-5.761-5.928
		s-5.761,2.654-5.761,5.928v187.314c0,3.274,2.579,5.928,5.761,5.928c0.291,0,0.576-0.03,0.855-0.073
		c0.284,0.044,0.573,0.073,0.869,0.073h182.045c3.182,0,5.761-2.58,5.761-5.761S548.374,762.461,545.192,762.461z"/>
	<circle clip-path="url(#SVGID_8_)" fill="#455B4A" cx="349.661" cy="783.272" r="129.58"/>
	
		<rect x="370.995" y="669.182" transform="matrix(0.9848 0.1736 -0.1736 0.9848 122.4317 -55.0406)" clip-path="url(#SVGID_8_)" fill="#F7B32B" width="9.589" height="6.063"/>
	
		<rect x="389.137" y="674.454" transform="matrix(0.9397 0.342 -0.342 0.9397 255.4445 -93.8704)" clip-path="url(#SVGID_8_)" fill="#F7B32B" width="9.589" height="6.063"/>
	
		<rect x="406.087" y="682.797" transform="matrix(0.866 0.5001 -0.5001 0.866 398.0175 -113.558)" clip-path="url(#SVGID_8_)" fill="#F7B32B" width="9.589" height="6.062"/>
	
		<rect x="440.004" y="715.214" transform="matrix(0.5735 0.8192 -0.8192 0.5735 778.1004 -58.0487)" clip-path="url(#SVGID_8_)" fill="#F7B32B" width="9.59" height="6.063"/>
	
		<rect x="449.104" y="731.77" transform="matrix(0.4226 0.9063 -0.9063 0.4226 928.0698 12.9155)" clip-path="url(#SVGID_8_)" fill="#F7B32B" width="9.591" height="6.063"/>
	
		<rect x="455.191" y="749.656" transform="matrix(0.2587 0.966 -0.966 0.2587 1068.0378 113.6264)" clip-path="url(#SVGID_8_)" fill="#F7B32B" width="9.591" height="6.063"/>
	
		<rect x="367.419" y="685.655" transform="matrix(0.9849 0.1733 -0.1733 0.9849 129.3915 -53.0342)" clip-path="url(#SVGID_8_)" fill="#FCF6B1" width="2.068" height="57.855"/>
	
		<rect x="378.315" y="689.009" transform="matrix(0.9398 0.3417 -0.3417 0.9398 268.1891 -86.4156)" clip-path="url(#SVGID_8_)" fill="#FCF6B1" width="2.069" height="57.855"/>
	
		<rect x="388.463" y="694.205" transform="matrix(0.8661 0.4998 -0.4998 0.8661 413.6021 -97.8718)" clip-path="url(#SVGID_8_)" fill="#FCF6B1" width="2.069" height="57.855"/>
	
		<rect x="408.618" y="714.089" transform="matrix(0.5734 0.8193 -0.8193 0.5734 783.4935 -18.647)" clip-path="url(#SVGID_8_)" fill="#FCF6B1" width="2.069" height="57.855"/>
	
		<rect x="413.951" y="724.166" transform="matrix(0.4225 0.9064 -0.9064 0.4225 922.2308 58.7854)" clip-path="url(#SVGID_8_)" fill="#FCF6B1" width="2.069" height="57.854"/>
	
		<rect x="417.452" y="735.016" transform="matrix(0.2582 0.9661 -0.9661 0.2582 1048.4958 162.4211)" clip-path="url(#SVGID_8_)" fill="#FCF6B1" width="2.069" height="57.854"/>
	
		<circle opacity="0.6" clip-path="url(#SVGID_8_)" fill="none" stroke="#303030" stroke-width="24" stroke-miterlimit="10" cx="337.26" cy="786.604" r="342.951"/>
	
		<circle clip-path="url(#SVGID_8_)" fill="none" stroke="#C80234" stroke-width="6" stroke-miterlimit="10" cx="355.023" cy="775.298" r="342.951"/>
	
		<circle clip-path="url(#SVGID_8_)" fill="none" stroke="#91083D" stroke-width="22" stroke-miterlimit="10" cx="349.496" cy="783.859" r="342.951"/>
	
		<circle opacity="0.6" clip-path="url(#SVGID_8_)" fill="none" stroke="#455B4A" stroke-width="12" stroke-miterlimit="10" cx="339.777" cy="790.678" r="204.99"/>
	
		<circle clip-path="url(#SVGID_8_)" fill="none" stroke="#6A8270" stroke-width="4" stroke-miterlimit="10" cx="353.964" cy="778.67" r="204.99"/>
	
		<circle clip-path="url(#SVGID_8_)" fill="none" stroke="#455B4A" stroke-width="14" stroke-miterlimit="10" cx="349.496" cy="783.859" r="204.99"/>
	<path clip-path="url(#SVGID_8_)" fill="#455B4A" d="M549.371,772.294H368.546l128.592-128.592c2.371-2.37,2.37-6.213,0-8.583
		c-2.371-2.371-6.214-2.372-8.585-0.001L361.802,761.869V580.813c0-3.449-2.718-6.244-6.071-6.244c-3.352,0-6.069,2.795-6.069,6.244
		v197.375c0,3.449,2.718,6.246,6.069,6.246c0.308,0,0.607-0.031,0.902-0.076c0.3,0.046,0.604,0.076,0.916,0.076h191.822
		c3.352,0,6.07-2.718,6.07-6.07C555.441,775.012,552.723,772.294,549.371,772.294z"/>
	<path clip-path="url(#SVGID_8_)" fill="#354438" d="M356.777,778.011c-0.361-0.001-0.693-0.412-0.693-0.9V579.734
		c0-0.486,0.332-0.898,0.725-0.898s0.725,0.412,0.725,0.898v193.962L493.411,637.82c0.141-0.141,0.313-0.213,0.512-0.213
		c0.137,0,0.337,0.038,0.513,0.213c0.176,0.177,0.213,0.376,0.213,0.513c0,0.199-0.071,0.37-0.212,0.512L356.718,776.563h193.73
		c0.399,0,0.725,0.324,0.725,0.724c0,0.4-0.325,0.724-0.725,0.724H358.626c-0.023-0.001-0.913-0.14-0.913-0.14L356.777,778.011z"/>
	<polygon clip-path="url(#SVGID_8_)" fill="#354438" points="489.244,644.639 486.598,640.056 489.244,635.473 494.536,635.473 
		497.181,640.056 494.536,644.639 	"/>
	<polygon clip-path="url(#SVGID_8_)" fill="#4C0623" points="586.043,542.952 587.639,536.996 593.594,535.4 597.953,539.76 
		596.359,545.716 590.402,547.312 	"/>
	<path clip-path="url(#SVGID_8_)" fill="#6B0A32" d="M362.742,452.242c3.283,0.184,9.408,0.544,15.447,0.983l5.974-7.119
		l-9.549-8.012L362.742,452.242z"/>
	<path clip-path="url(#SVGID_8_)" fill="#6B0A32" d="M391.595,454.658c3.254,0.47,9.324,1.362,15.302,2.326l6.571-6.571
		l-8.813-8.813L391.595,454.658z"/>
	<path clip-path="url(#SVGID_8_)" fill="#6B0A32" d="M420.126,459.58c3.2,0.751,9.171,2.17,15.041,3.651l7.119-5.974l-8.012-9.549
		L420.126,459.58z"/>
	<path clip-path="url(#SVGID_8_)" fill="#6B0A32" d="M448.12,466.97c3.123,1.027,8.946,2.961,14.666,4.948l7.612-5.33l-7.149-10.211
		L448.12,466.97z"/>
	<path clip-path="url(#SVGID_8_)" fill="#6B0A32" d="M475.363,476.771c3.021,1.296,8.654,3.729,14.179,6.208l8.049-4.647
		l-6.233-10.795L475.363,476.771z"/>
	<path clip-path="url(#SVGID_8_)" fill="#6B0A32" d="M501.65,488.909c2.896,1.555,8.296,4.47,13.583,7.421l8.423-3.928
		l-5.269-11.297L501.65,488.909z"/>
	<path clip-path="url(#SVGID_8_)" fill="#6B0A32" d="M526.777,503.293c2.751,1.801,7.876,5.176,12.886,8.576l8.732-3.179
		l-4.264-11.714L526.777,503.293z"/>
	<path clip-path="url(#SVGID_8_)" fill="#6B0A32" d="M550.556,519.812c2.583,2.034,7.395,5.843,12.089,9.667l8.977-2.406
		l-3.227-12.04L550.556,519.812z"/>
	<path clip-path="url(#SVGID_8_)" fill="#6B0A32" d="M572.805,538.34c2.395,2.251,6.857,6.465,11.199,10.684l9.152-1.614
		l-2.164-12.275L572.805,538.34z"/>
	<path clip-path="url(#SVGID_8_)" fill="#6B0A32" d="M593.354,558.736c2.189,2.451,6.268,7.039,10.225,11.619l9.26-0.811
		l-1.088-12.417L593.354,558.736z"/>
	<path clip-path="url(#SVGID_8_)" fill="#6B0A32" d="M612.045,580.848c1.969,2.633,5.631,7.557,9.176,12.465h9.293v-12.465H612.045z
		"/>
	<path clip-path="url(#SVGID_8_)" fill="#6B0A32" d="M628.74,604.502c1.73,2.795,4.951,8.021,8.053,13.219l9.26,0.811l1.084-12.418
		L628.74,604.502z"/>
	<path clip-path="url(#SVGID_8_)" fill="#6B0A32" d="M643.311,629.523c1.48,2.934,4.232,8.42,6.869,13.869l9.152,1.614l2.164-12.276
		L643.311,629.523z"/>
	<path clip-path="url(#SVGID_8_)" fill="#6B0A32" d="M655.643,655.718c1.221,3.052,3.482,8.757,5.635,14.416l8.979,2.405
		l3.225-12.041L655.643,655.718z"/>
	<path clip-path="url(#SVGID_8_)" fill="#6B0A32" d="M665.646,682.888c0.949,3.146,2.707,9.027,4.357,14.853l8.732,3.179
		L683,689.204L665.646,682.888z"/>
	<path clip-path="url(#SVGID_8_)" fill="#6B0A32" d="M673.244,710.826c0.67,3.217,1.908,9.229,3.045,15.176l8.424,3.928
		l5.268-11.299L673.244,710.826z"/>
	<path clip-path="url(#SVGID_8_)" fill="#6B0A32" d="M678.377,739.32c0.389,3.263,1.098,9.36,1.713,15.384l8.049,4.646l6.23-10.797
		L678.377,739.32z"/>
	<circle clip-path="url(#SVGID_8_)" fill="#1E1E1E" cx="409.211" cy="446.148" r="6.232"/>
	<circle clip-path="url(#SVGID_8_)" fill="#635644" cx="409.211" cy="446.148" r="4.958"/>
	<circle clip-path="url(#SVGID_8_)" fill="#F7A014" cx="408.848" cy="445.629" r="4.51"/>
	
		<ellipse transform="matrix(-0.9848 -0.1737 0.1737 -0.9848 733.6697 954.7081)" clip-path="url(#SVGID_8_)" fill="#FFFFFF" cx="408.605" cy="445.254" rx="3.41" ry="3.537"/>
	
		<ellipse transform="matrix(-0.7068 -0.7074 0.7074 -0.7068 382.8902 1050.0101)" clip-path="url(#SVGID_8_)" fill="#F7A014" cx="409.031" cy="445.662" rx="3.499" ry="3.739"/>
	<circle clip-path="url(#SVGID_8_)" fill="#1E1E1E" cx="466.947" cy="461.648" r="6.233"/>
	<circle clip-path="url(#SVGID_8_)" fill="#635644" cx="466.947" cy="461.648" r="4.958"/>
	<circle clip-path="url(#SVGID_8_)" fill="#F7A014" cx="466.679" cy="461.074" r="4.51"/>
	
		<ellipse transform="matrix(-0.9397 -0.3421 0.3421 -0.9397 747.3002 1053.108)" clip-path="url(#SVGID_8_)" fill="#FFFFFF" cx="466.505" cy="460.663" rx="3.41" ry="3.536"/>
	
		<ellipse transform="matrix(-0.5733 -0.8193 0.8193 -0.5733 356.6715 1108.0234)" clip-path="url(#SVGID_8_)" fill="#F7A014" cx="466.854" cy="461.138" rx="3.499" ry="3.74"/>
	<circle clip-path="url(#SVGID_8_)" fill="#1E1E1E" cx="521.114" cy="486.938" r="6.233"/>
	<circle clip-path="url(#SVGID_8_)" fill="#635644" cx="521.114" cy="486.938" r="4.958"/>
	<circle clip-path="url(#SVGID_8_)" fill="#F7A014" cx="520.95" cy="486.326" r="4.51"/>
	
		<ellipse transform="matrix(-0.866 -0.5 0.5 -0.866 729.0078 1167.1013)" clip-path="url(#SVGID_8_)" fill="#FFFFFF" cx="520.851" cy="485.892" rx="3.41" ry="3.536"/>
	
		<ellipse transform="matrix(-0.4223 -0.9065 0.9065 -0.4223 300.2673 1164.2014)" clip-path="url(#SVGID_8_)" fill="#F7A014" cx="521.111" cy="486.419" rx="3.499" ry="3.739"/>
	<circle clip-path="url(#SVGID_8_)" fill="#1E1E1E" cx="570.067" cy="521.25" r="6.233"/>
	<circle clip-path="url(#SVGID_8_)" fill="#635644" cx="570.067" cy="521.25" r="4.958"/>
	<circle clip-path="url(#SVGID_8_)" fill="#F7A014" cx="570.012" cy="520.619" r="4.51"/>
	
		<ellipse transform="matrix(-0.766 -0.6428 0.6428 -0.766 672.2661 1285.0315)" clip-path="url(#SVGID_8_)" fill="#FFFFFF" cx="569.989" cy="520.174" rx="3.411" ry="3.536"/>
	
		<ellipse transform="matrix(-0.2585 -0.966 0.966 -0.2585 214.4972 1206.1239)" clip-path="url(#SVGID_8_)" fill="#F7A014" cx="570.154" cy="520.739" rx="3.498" ry="3.738"/>
	<circle clip-path="url(#SVGID_8_)" fill="#1E1E1E" cx="612.317" cy="563.542" r="6.233"/>
	<circle clip-path="url(#SVGID_8_)" fill="#635644" cx="612.317" cy="563.542" r="4.958"/>
	<circle clip-path="url(#SVGID_8_)" fill="#F7A014" cx="612.373" cy="562.91" r="4.51"/>
	
		<ellipse transform="matrix(-0.6427 -0.7661 0.7661 -0.6427 575.1326 1393.1593)" clip-path="url(#SVGID_8_)" fill="#FFFFFF" cx="612.427" cy="562.469" rx="3.411" ry="3.537"/>
	<path clip-path="url(#SVGID_8_)" fill="#F7A014" d="M612.188,559.567c2.059-0.179,3.861,1.237,4.029,3.161
		c0.168,1.926-1.363,3.631-3.422,3.811c-2.055,0.178-3.859-1.236-4.027-3.16C608.6,561.453,610.131,559.746,612.188,559.567z"/>
	<circle clip-path="url(#SVGID_8_)" fill="#1E1E1E" cx="646.582" cy="612.528" r="6.233"/>
	<circle clip-path="url(#SVGID_8_)" fill="#635644" cx="646.583" cy="612.528" r="4.958"/>
	<circle clip-path="url(#SVGID_8_)" fill="#F7A014" cx="646.747" cy="611.916" r="4.51"/>
	<path clip-path="url(#SVGID_8_)" fill="#FFFFFF" d="M645.172,608.535c1.691-0.977,3.826-0.445,4.768,1.188
		c0.943,1.629,0.334,3.743-1.357,4.722c-1.691,0.976-3.824,0.444-4.766-1.188C642.873,611.627,643.48,609.512,645.172,608.535z"/>
	
		<ellipse transform="matrix(0.0874 -0.9962 0.9962 0.0874 -19.4086 1202.969)" clip-path="url(#SVGID_8_)" fill="#F7A014" cx="646.839" cy="612.077" rx="3.499" ry="3.74"/>
	<circle clip-path="url(#SVGID_8_)" fill="#1E1E1E" cx="671.82" cy="666.719" r="6.232"/>
	<circle clip-path="url(#SVGID_8_)" fill="#635644" cx="671.82" cy="666.719" r="4.958"/>
	<circle clip-path="url(#SVGID_8_)" fill="#F7A014" cx="672.088" cy="666.145" r="4.51"/>
	<path clip-path="url(#SVGID_8_)" fill="#FFFFFF" d="M671.125,662.543c1.836-0.669,3.846,0.227,4.488,1.997
		c0.646,1.768-0.32,3.744-2.156,4.414c-1.834,0.667-3.844-0.227-4.488-1.997C668.324,665.188,669.289,663.21,671.125,662.543z"/>
	
		<ellipse transform="matrix(0.2593 -0.9658 0.9658 0.2593 -145.6561 1142.7236)" clip-path="url(#SVGID_8_)" fill="#F7A014" cx="672.151" cy="666.32" rx="3.499" ry="3.738"/>
	<circle clip-path="url(#SVGID_8_)" fill="#1E1E1E" cx="687.265" cy="724.47" r="6.232"/>
	<circle clip-path="url(#SVGID_8_)" fill="#635644" cx="687.265" cy="724.47" r="4.958"/>
	<circle clip-path="url(#SVGID_8_)" fill="#F7A014" cx="687.629" cy="723.95" r="4.51"/>
	<path clip-path="url(#SVGID_8_)" fill="#FFFFFF" d="M687.305,720.236c1.924-0.34,3.748,0.891,4.074,2.746
		c0.328,1.853-0.967,3.632-2.891,3.973c-1.922,0.338-3.746-0.891-4.072-2.746C684.088,722.354,685.381,720.574,687.305,720.236z"/>
	
		<ellipse transform="matrix(0.4231 -0.9061 0.9061 0.4231 -259.3979 1040.8785)" clip-path="url(#SVGID_8_)" fill="#F7A014" cx="687.66" cy="724.134" rx="3.499" ry="3.74"/>
	<circle clip-path="url(#SVGID_8_)" fill="#1E1E1E" cx="379.55" cy="442.229" r="6.232"/>
	<circle clip-path="url(#SVGID_8_)" fill="#635644" cx="379.55" cy="442.228" r="4.958"/>
	<circle clip-path="url(#SVGID_8_)" fill="#C6BEB3" cx="379.143" cy="441.744" r="4.51"/>
	
		<ellipse transform="matrix(-0.9962 -0.0872 0.0872 -0.9962 717.8097 914.1355)" clip-path="url(#SVGID_8_)" fill="#FFFFFF" cx="378.869" cy="441.391" rx="3.41" ry="3.536"/>
	
		<ellipse transform="matrix(-0.7658 -0.6431 0.6431 -0.7658 385.7132 1023.9978)" clip-path="url(#SVGID_8_)" fill="#C6BEB3" cx="379.329" cy="441.76" rx="3.499" ry="3.739"/>
	<circle clip-path="url(#SVGID_8_)" fill="#1E1E1E" cx="438.417" cy="452.638" r="6.232"/>
	<circle clip-path="url(#SVGID_8_)" fill="#635644" cx="438.417" cy="452.637" r="4.958"/>
	<circle clip-path="url(#SVGID_8_)" fill="#C6BEB3" cx="438.1" cy="452.089" r="4.51"/>
	
		<ellipse transform="matrix(-0.9659 -0.2588 0.2588 -0.9659 743.9451 1001.3386)" clip-path="url(#SVGID_8_)" fill="#FFFFFF" cx="437.892" cy="451.694" rx="3.411" ry="3.535"/>
	
		<ellipse transform="matrix(-0.6425 -0.7663 0.7663 -0.6425 373.41 1078.4834)" clip-path="url(#SVGID_8_)" fill="#C6BEB3" cx="438.28" cy="452.137" rx="3.499" ry="3.739"/>
	<circle clip-path="url(#SVGID_8_)" fill="#1E1E1E" cx="494.583" cy="473.11" r="6.232"/>
	<circle clip-path="url(#SVGID_8_)" fill="#635644" cx="494.583" cy="473.11" r="4.958"/>
	<circle clip-path="url(#SVGID_8_)" fill="#C6BEB3" cx="494.366" cy="472.515" r="4.509"/>
	
		<ellipse transform="matrix(-0.9063 -0.4227 0.4227 -0.9063 742.6163 1108.8275)" clip-path="url(#SVGID_8_)" fill="#FFFFFF" cx="494.229" cy="472.09" rx="3.41" ry="3.535"/>
	
		<ellipse transform="matrix(-0.4998 -0.8661 0.8661 -0.4998 332.3596 1137.1299)" clip-path="url(#SVGID_8_)" fill="#C6BEB3" cx="494.534" cy="472.594" rx="3.499" ry="3.739"/>
	<circle clip-path="url(#SVGID_8_)" fill="#1E1E1E" cx="546.339" cy="503.025" r="6.233"/>
	<circle clip-path="url(#SVGID_8_)" fill="#635644" cx="546.34" cy="503.025" r="4.959"/>
	<circle clip-path="url(#SVGID_8_)" fill="#C6BEB3" cx="546.229" cy="502.401" r="4.51"/>
	
		<ellipse transform="matrix(-0.8192 -0.5735 0.5735 -0.8192 705.7015 1226.3981)" clip-path="url(#SVGID_8_)" fill="#FFFFFF" cx="546.168" cy="501.959" rx="3.411" ry="3.535"/>
	
		<ellipse transform="matrix(-0.3418 -0.9398 0.9398 -0.3418 260.875 1187.7327)" clip-path="url(#SVGID_8_)" fill="#C6BEB3" cx="546.382" cy="502.508" rx="3.499" ry="3.739"/>
	<circle clip-path="url(#SVGID_8_)" fill="#1E1E1E" cx="592.115" cy="541.473" r="6.232"/>
	<circle clip-path="url(#SVGID_8_)" fill="#635644" cx="592.115" cy="541.473" r="4.958"/>
	<circle clip-path="url(#SVGID_8_)" fill="#C6BEB3" cx="592.115" cy="540.839" r="4.51"/>
	
		<ellipse transform="matrix(-0.707 -0.7072 0.7072 -0.707 628.6356 1341.2128)" clip-path="url(#SVGID_8_)" fill="#FFFFFF" cx="592.132" cy="540.393" rx="3.41" ry="3.537"/>
	
		<ellipse transform="matrix(-0.1733 -0.9849 0.9849 -0.1733 162.1194 1218.0211)" clip-path="url(#SVGID_8_)" fill="#C6BEB3" cx="592.247" cy="540.971" rx="3.499" ry="3.739"/>
	<circle clip-path="url(#SVGID_8_)" fill="#1E1E1E" cx="630.52" cy="587.285" r="6.232"/>
	<circle clip-path="url(#SVGID_8_)" fill="#635644" cx="630.52" cy="587.286" r="4.958"/>
	<circle clip-path="url(#SVGID_8_)" fill="#C6BEB3" cx="630.629" cy="586.661" r="4.509"/>
	
		<ellipse transform="matrix(-0.5735 -0.8192 0.8192 -0.5735 512.2252 1439.1211)" clip-path="url(#SVGID_8_)" fill="#FFFFFF" cx="630.724" cy="586.226" rx="3.411" ry="3.535"/>
	<path clip-path="url(#SVGID_8_)" fill="#C6BEB3" d="M630.736,583.316c2.066,0,3.738,1.568,3.738,3.5s-1.674,3.498-3.74,3.498
		c-2.064-0.004-3.738-1.568-3.736-3.5C626.998,584.881,628.672,583.314,630.736,583.316z"/>
	<circle clip-path="url(#SVGID_8_)" fill="#1E1E1E" cx="660.385" cy="639.071" r="6.232"/>
	<circle clip-path="url(#SVGID_8_)" fill="#635644" cx="660.385" cy="639.072" r="4.959"/>
	<circle clip-path="url(#SVGID_8_)" fill="#C6BEB3" cx="660.601" cy="638.476" r="4.51"/>
	
		<ellipse transform="matrix(-0.4227 -0.9063 0.9063 -0.4227 361.8247 1506.6094)" clip-path="url(#SVGID_8_)" fill="#FFFFFF" cx="660.77" cy="638.063" rx="3.41" ry="3.537"/>
	
		<ellipse transform="matrix(0.1742 -0.9847 0.9847 0.1742 -83.2737 1177.9961)" clip-path="url(#SVGID_8_)" fill="#C6BEB3" cx="660.68" cy="638.646" rx="3.499" ry="3.739"/>
	<circle clip-path="url(#SVGID_8_)" fill="#1E1E1E" cx="680.804" cy="695.256" r="6.232"/>
	<circle clip-path="url(#SVGID_8_)" fill="#635644" cx="680.803" cy="695.257" r="4.959"/>
	<circle clip-path="url(#SVGID_8_)" fill="#C6BEB3" cx="681.12" cy="694.708" r="4.51"/>
	
		<ellipse transform="matrix(-0.2589 -0.9659 0.9659 -0.2589 187.1139 1532.2227)" clip-path="url(#SVGID_8_)" fill="#FFFFFF" cx="681.357" cy="694.33" rx="3.41" ry="3.537"/>
	
		<ellipse transform="matrix(0.3422 -0.9396 0.9396 0.3422 -204.8785 1097.1069)" clip-path="url(#SVGID_8_)" fill="#C6BEB3" cx="681.168" cy="694.888" rx="3.498" ry="3.74"/>
	<circle clip-path="url(#SVGID_8_)" fill="#1E1E1E" cx="691.156" cy="754.133" r="6.232"/>
	<circle clip-path="url(#SVGID_8_)" fill="#635644" cx="691.156" cy="754.133" r="4.959"/>
	<circle clip-path="url(#SVGID_8_)" fill="#C6BEB3" cx="691.563" cy="753.647" r="4.509"/>
	<path clip-path="url(#SVGID_8_)" fill="#FFFFFF" d="M691.566,749.92c1.945-0.172,3.654,1.212,3.818,3.087
		c0.164,1.879-1.279,3.537-3.225,3.707s-3.656-1.214-3.82-3.09S689.621,750.089,691.566,749.92z"/>
	
		<ellipse transform="matrix(0.5005 -0.8657 0.8657 0.5005 -307.1752 975.2749)" clip-path="url(#SVGID_8_)" fill="#C6BEB3" cx="691.579" cy="753.833" rx="3.499" ry="3.739"/>
	<circle clip-path="url(#SVGID_8_)" fill="#FF5527" cx="349.496" cy="783.86" r="44.435"/>
	<polygon clip-path="url(#SVGID_8_)" fill="#354438" points="354.318,580.836 352.074,576.949 354.318,573.061 358.807,573.061 
		361.052,576.949 358.807,580.836 	"/>
	<polygon clip-path="url(#SVGID_8_)" fill="#354438" points="552.295,782.928 549.812,778.626 552.295,774.323 557.262,774.323 
		559.746,778.626 557.262,782.928 	"/>
</g>
</svg>
